%TF.GenerationSoftware,KiCad,Pcbnew,(5.1.10)-1*%
%TF.CreationDate,2021-10-14T00:36:54-03:00*%
%TF.ProjectId,3ARA_PCB,33415241-5f50-4434-922e-6b696361645f,rev?*%
%TF.SameCoordinates,Original*%
%TF.FileFunction,Soldermask,Bot*%
%TF.FilePolarity,Negative*%
%FSLAX46Y46*%
G04 Gerber Fmt 4.6, Leading zero omitted, Abs format (unit mm)*
G04 Created by KiCad (PCBNEW (5.1.10)-1) date 2021-10-14 00:36:54*
%MOMM*%
%LPD*%
G01*
G04 APERTURE LIST*
%ADD10C,1.600000*%
%ADD11O,2.000000X2.000000*%
%ADD12C,2.000000*%
%ADD13R,1.600000X1.600000*%
%ADD14C,1.700000*%
%ADD15O,1.950000X1.700000*%
%ADD16O,1.700000X1.700000*%
%ADD17R,1.700000X1.700000*%
%ADD18O,1.700000X2.000000*%
%ADD19O,1.700000X1.950000*%
%ADD20C,1.500000*%
G04 APERTURE END LIST*
D10*
%TO.C,C5*%
X163067767Y-82432233D03*
X161300000Y-84200000D03*
%TD*%
%TO.C,C3*%
X170200000Y-102680000D03*
X167700000Y-102680000D03*
%TD*%
D11*
%TO.C,L2*%
X180800000Y-52860000D03*
D12*
X180800000Y-68100000D03*
%TD*%
D10*
%TO.C,C21*%
X185200000Y-74600000D03*
D13*
X185200000Y-71100000D03*
%TD*%
D14*
%TO.C,J1*%
X136960154Y-79375744D03*
X135164102Y-81171795D03*
X133368051Y-82967846D03*
X131572000Y-84763898D03*
X129775949Y-86559949D03*
X138756205Y-81171795D03*
X136960154Y-82967846D03*
X135164102Y-84763898D03*
X133368051Y-86559949D03*
G36*
G01*
X132597305Y-88532777D02*
X131748777Y-89381305D01*
G75*
G02*
X131395223Y-89381305I-176777J176777D01*
G01*
X130546695Y-88532777D01*
G75*
G02*
X130546695Y-88179223I176777J176777D01*
G01*
X131395223Y-87330695D01*
G75*
G02*
X131748777Y-87330695I176777J-176777D01*
G01*
X132597305Y-88179223D01*
G75*
G02*
X132597305Y-88532777I-176777J-176777D01*
G01*
G37*
%TD*%
D15*
%TO.C,J7*%
X109232000Y-132790000D03*
X109232000Y-130290000D03*
G36*
G01*
X108507000Y-126940000D02*
X109957000Y-126940000D01*
G75*
G02*
X110207000Y-127190000I0J-250000D01*
G01*
X110207000Y-128390000D01*
G75*
G02*
X109957000Y-128640000I-250000J0D01*
G01*
X108507000Y-128640000D01*
G75*
G02*
X108257000Y-128390000I0J250000D01*
G01*
X108257000Y-127190000D01*
G75*
G02*
X108507000Y-126940000I250000J0D01*
G01*
G37*
%TD*%
%TO.C,J5*%
X109232000Y-117726000D03*
X109232000Y-115226000D03*
G36*
G01*
X108507000Y-111876000D02*
X109957000Y-111876000D01*
G75*
G02*
X110207000Y-112126000I0J-250000D01*
G01*
X110207000Y-113326000D01*
G75*
G02*
X109957000Y-113576000I-250000J0D01*
G01*
X108507000Y-113576000D01*
G75*
G02*
X108257000Y-113326000I0J250000D01*
G01*
X108257000Y-112126000D01*
G75*
G02*
X108507000Y-111876000I250000J0D01*
G01*
G37*
%TD*%
%TO.C,J3*%
X109232000Y-102232000D03*
X109232000Y-99732000D03*
G36*
G01*
X108507000Y-96382000D02*
X109957000Y-96382000D01*
G75*
G02*
X110207000Y-96632000I0J-250000D01*
G01*
X110207000Y-97832000D01*
G75*
G02*
X109957000Y-98082000I-250000J0D01*
G01*
X108507000Y-98082000D01*
G75*
G02*
X108257000Y-97832000I0J250000D01*
G01*
X108257000Y-96632000D01*
G75*
G02*
X108507000Y-96382000I250000J0D01*
G01*
G37*
%TD*%
D16*
%TO.C,J16*%
X169240000Y-87840000D03*
X169240000Y-85300000D03*
X171780000Y-87840000D03*
X171780000Y-85300000D03*
X174320000Y-87840000D03*
X174320000Y-85300000D03*
X176860000Y-87840000D03*
X176860000Y-85300000D03*
X179400000Y-87840000D03*
D17*
X179400000Y-85300000D03*
%TD*%
D18*
%TO.C,J9*%
X151678000Y-54600000D03*
G36*
G01*
X155028000Y-53850000D02*
X155028000Y-55350000D01*
G75*
G02*
X154778000Y-55600000I-250000J0D01*
G01*
X153578000Y-55600000D01*
G75*
G02*
X153328000Y-55350000I0J250000D01*
G01*
X153328000Y-53850000D01*
G75*
G02*
X153578000Y-53600000I250000J0D01*
G01*
X154778000Y-53600000D01*
G75*
G02*
X155028000Y-53850000I0J-250000D01*
G01*
G37*
%TD*%
D15*
%TO.C,J15*%
X195742000Y-71494000D03*
X195742000Y-73994000D03*
X195742000Y-76494000D03*
G36*
G01*
X196467000Y-79844000D02*
X195017000Y-79844000D01*
G75*
G02*
X194767000Y-79594000I0J250000D01*
G01*
X194767000Y-78394000D01*
G75*
G02*
X195017000Y-78144000I250000J0D01*
G01*
X196467000Y-78144000D01*
G75*
G02*
X196717000Y-78394000I0J-250000D01*
G01*
X196717000Y-79594000D01*
G75*
G02*
X196467000Y-79844000I-250000J0D01*
G01*
G37*
%TD*%
%TO.C,J14*%
X195728000Y-87242000D03*
X195728000Y-89742000D03*
X195728000Y-92242000D03*
G36*
G01*
X196453000Y-95592000D02*
X195003000Y-95592000D01*
G75*
G02*
X194753000Y-95342000I0J250000D01*
G01*
X194753000Y-94142000D01*
G75*
G02*
X195003000Y-93892000I250000J0D01*
G01*
X196453000Y-93892000D01*
G75*
G02*
X196703000Y-94142000I0J-250000D01*
G01*
X196703000Y-95342000D01*
G75*
G02*
X196453000Y-95592000I-250000J0D01*
G01*
G37*
%TD*%
D19*
%TO.C,J11*%
X182720000Y-140978000D03*
X180220000Y-140978000D03*
X177720000Y-140978000D03*
G36*
G01*
X174370000Y-141703000D02*
X174370000Y-140253000D01*
G75*
G02*
X174620000Y-140003000I250000J0D01*
G01*
X175820000Y-140003000D01*
G75*
G02*
X176070000Y-140253000I0J-250000D01*
G01*
X176070000Y-141703000D01*
G75*
G02*
X175820000Y-141953000I-250000J0D01*
G01*
X174620000Y-141953000D01*
G75*
G02*
X174370000Y-141703000I0J250000D01*
G01*
G37*
%TD*%
%TO.C,J10*%
X157460000Y-140978000D03*
X154960000Y-140978000D03*
X152460000Y-140978000D03*
G36*
G01*
X149110000Y-141703000D02*
X149110000Y-140253000D01*
G75*
G02*
X149360000Y-140003000I250000J0D01*
G01*
X150560000Y-140003000D01*
G75*
G02*
X150810000Y-140253000I0J-250000D01*
G01*
X150810000Y-141703000D01*
G75*
G02*
X150560000Y-141953000I-250000J0D01*
G01*
X149360000Y-141953000D01*
G75*
G02*
X149110000Y-141703000I0J250000D01*
G01*
G37*
%TD*%
%TO.C,J8*%
X132428000Y-140978000D03*
X129928000Y-140978000D03*
X127428000Y-140978000D03*
G36*
G01*
X124078000Y-141703000D02*
X124078000Y-140253000D01*
G75*
G02*
X124328000Y-140003000I250000J0D01*
G01*
X125528000Y-140003000D01*
G75*
G02*
X125778000Y-140253000I0J-250000D01*
G01*
X125778000Y-141703000D01*
G75*
G02*
X125528000Y-141953000I-250000J0D01*
G01*
X124328000Y-141953000D01*
G75*
G02*
X124078000Y-141703000I0J250000D01*
G01*
G37*
%TD*%
D15*
%TO.C,J6*%
X195742000Y-130200000D03*
X195742000Y-132700000D03*
G36*
G01*
X196467000Y-136050000D02*
X195017000Y-136050000D01*
G75*
G02*
X194767000Y-135800000I0J250000D01*
G01*
X194767000Y-134600000D01*
G75*
G02*
X195017000Y-134350000I250000J0D01*
G01*
X196467000Y-134350000D01*
G75*
G02*
X196717000Y-134600000I0J-250000D01*
G01*
X196717000Y-135800000D01*
G75*
G02*
X196467000Y-136050000I-250000J0D01*
G01*
G37*
%TD*%
%TO.C,J4*%
X195720000Y-117400000D03*
X195720000Y-119900000D03*
G36*
G01*
X196445000Y-123250000D02*
X194995000Y-123250000D01*
G75*
G02*
X194745000Y-123000000I0J250000D01*
G01*
X194745000Y-121800000D01*
G75*
G02*
X194995000Y-121550000I250000J0D01*
G01*
X196445000Y-121550000D01*
G75*
G02*
X196695000Y-121800000I0J-250000D01*
G01*
X196695000Y-123000000D01*
G75*
G02*
X196445000Y-123250000I-250000J0D01*
G01*
G37*
%TD*%
%TO.C,J2*%
X195742000Y-104600000D03*
X195742000Y-107100000D03*
G36*
G01*
X196467000Y-110450000D02*
X195017000Y-110450000D01*
G75*
G02*
X194767000Y-110200000I0J250000D01*
G01*
X194767000Y-109000000D01*
G75*
G02*
X195017000Y-108750000I250000J0D01*
G01*
X196467000Y-108750000D01*
G75*
G02*
X196717000Y-109000000I0J-250000D01*
G01*
X196717000Y-110200000D01*
G75*
G02*
X196467000Y-110450000I-250000J0D01*
G01*
G37*
%TD*%
D16*
%TO.C,J13*%
X111900000Y-87160000D03*
D17*
X111900000Y-89700000D03*
%TD*%
D16*
%TO.C,J12*%
X108000000Y-87160000D03*
D17*
X108000000Y-89700000D03*
%TD*%
D12*
%TO.C,SW1*%
X129246000Y-126750000D03*
X129246000Y-122250000D03*
X135746000Y-126750000D03*
X135746000Y-122250000D03*
%TD*%
%TO.C,SW2*%
X173338000Y-122250000D03*
X173338000Y-126750000D03*
X166838000Y-122250000D03*
X166838000Y-126750000D03*
%TD*%
%TO.C,SW3*%
X135286000Y-57586000D03*
X135286000Y-53086000D03*
X141786000Y-57586000D03*
X141786000Y-53086000D03*
%TD*%
D20*
%TO.C,Y1*%
X137220000Y-107810000D03*
X140670681Y-111260681D03*
%TD*%
M02*
