%TF.GenerationSoftware,KiCad,Pcbnew,(5.1.10)-1*%
%TF.CreationDate,2021-10-14T00:36:54-03:00*%
%TF.ProjectId,3ARA_PCB,33415241-5f50-4434-922e-6b696361645f,rev?*%
%TF.SameCoordinates,Original*%
%TF.FileFunction,Soldermask,Top*%
%TF.FilePolarity,Negative*%
%FSLAX46Y46*%
G04 Gerber Fmt 4.6, Leading zero omitted, Abs format (unit mm)*
G04 Created by KiCad (PCBNEW (5.1.10)-1) date 2021-10-14 00:36:54*
%MOMM*%
%LPD*%
G01*
G04 APERTURE LIST*
%ADD10C,1.600000*%
%ADD11O,2.000000X2.000000*%
%ADD12C,2.000000*%
%ADD13R,1.600000X1.600000*%
%ADD14R,1.800000X3.500000*%
%ADD15C,1.700000*%
%ADD16O,1.950000X1.700000*%
%ADD17R,5.400000X2.900000*%
%ADD18O,1.700000X1.700000*%
%ADD19R,1.700000X1.700000*%
%ADD20O,1.700000X2.000000*%
%ADD21O,1.700000X1.950000*%
%ADD22R,1.000000X1.300000*%
%ADD23R,1.300000X1.000000*%
%ADD24R,1.100000X4.600000*%
%ADD25R,10.800000X9.400000*%
%ADD26C,1.500000*%
G04 APERTURE END LIST*
D10*
%TO.C,C5*%
X163067767Y-82432233D03*
X161300000Y-84200000D03*
%TD*%
%TO.C,C3*%
X170200000Y-102680000D03*
X167700000Y-102680000D03*
%TD*%
D11*
%TO.C,L2*%
X180800000Y-52860000D03*
D12*
X180800000Y-68100000D03*
%TD*%
D10*
%TO.C,C21*%
X185200000Y-74600000D03*
D13*
X185200000Y-71100000D03*
%TD*%
%TO.C,D1*%
G36*
G01*
X146625000Y-122825000D02*
X145375000Y-122825000D01*
G75*
G02*
X145125000Y-122575000I0J250000D01*
G01*
X145125000Y-121650000D01*
G75*
G02*
X145375000Y-121400000I250000J0D01*
G01*
X146625000Y-121400000D01*
G75*
G02*
X146875000Y-121650000I0J-250000D01*
G01*
X146875000Y-122575000D01*
G75*
G02*
X146625000Y-122825000I-250000J0D01*
G01*
G37*
G36*
G01*
X146625000Y-125800000D02*
X145375000Y-125800000D01*
G75*
G02*
X145125000Y-125550000I0J250000D01*
G01*
X145125000Y-124625000D01*
G75*
G02*
X145375000Y-124375000I250000J0D01*
G01*
X146625000Y-124375000D01*
G75*
G02*
X146875000Y-124625000I0J-250000D01*
G01*
X146875000Y-125550000D01*
G75*
G02*
X146625000Y-125800000I-250000J0D01*
G01*
G37*
%TD*%
%TO.C,D6*%
G36*
G01*
X151625000Y-70825000D02*
X150375000Y-70825000D01*
G75*
G02*
X150125000Y-70575000I0J250000D01*
G01*
X150125000Y-69650000D01*
G75*
G02*
X150375000Y-69400000I250000J0D01*
G01*
X151625000Y-69400000D01*
G75*
G02*
X151875000Y-69650000I0J-250000D01*
G01*
X151875000Y-70575000D01*
G75*
G02*
X151625000Y-70825000I-250000J0D01*
G01*
G37*
G36*
G01*
X151625000Y-73800000D02*
X150375000Y-73800000D01*
G75*
G02*
X150125000Y-73550000I0J250000D01*
G01*
X150125000Y-72625000D01*
G75*
G02*
X150375000Y-72375000I250000J0D01*
G01*
X151625000Y-72375000D01*
G75*
G02*
X151875000Y-72625000I0J-250000D01*
G01*
X151875000Y-73550000D01*
G75*
G02*
X151625000Y-73800000I-250000J0D01*
G01*
G37*
%TD*%
%TO.C,R15*%
G36*
G01*
X140564644Y-91301042D02*
X141201042Y-90664644D01*
G75*
G02*
X141554594Y-90664644I176776J-176776D01*
G01*
X142049570Y-91159620D01*
G75*
G02*
X142049570Y-91513172I-176776J-176776D01*
G01*
X141413172Y-92149570D01*
G75*
G02*
X141059620Y-92149570I-176776J176776D01*
G01*
X140564644Y-91654594D01*
G75*
G02*
X140564644Y-91301042I176776J176776D01*
G01*
G37*
G36*
G01*
X139150430Y-89886828D02*
X139786828Y-89250430D01*
G75*
G02*
X140140380Y-89250430I176776J-176776D01*
G01*
X140635356Y-89745406D01*
G75*
G02*
X140635356Y-90098958I-176776J-176776D01*
G01*
X139998958Y-90735356D01*
G75*
G02*
X139645406Y-90735356I-176776J176776D01*
G01*
X139150430Y-90240380D01*
G75*
G02*
X139150430Y-89886828I176776J176776D01*
G01*
G37*
%TD*%
%TO.C,C27*%
G36*
G01*
X173725000Y-132050000D02*
X173725000Y-133000000D01*
G75*
G02*
X173475000Y-133250000I-250000J0D01*
G01*
X172800000Y-133250000D01*
G75*
G02*
X172550000Y-133000000I0J250000D01*
G01*
X172550000Y-132050000D01*
G75*
G02*
X172800000Y-131800000I250000J0D01*
G01*
X173475000Y-131800000D01*
G75*
G02*
X173725000Y-132050000I0J-250000D01*
G01*
G37*
G36*
G01*
X175800000Y-132050000D02*
X175800000Y-133000000D01*
G75*
G02*
X175550000Y-133250000I-250000J0D01*
G01*
X174875000Y-133250000D01*
G75*
G02*
X174625000Y-133000000I0J250000D01*
G01*
X174625000Y-132050000D01*
G75*
G02*
X174875000Y-131800000I250000J0D01*
G01*
X175550000Y-131800000D01*
G75*
G02*
X175800000Y-132050000I0J-250000D01*
G01*
G37*
%TD*%
%TO.C,C26*%
G36*
G01*
X173725000Y-134450000D02*
X173725000Y-135400000D01*
G75*
G02*
X173475000Y-135650000I-250000J0D01*
G01*
X172800000Y-135650000D01*
G75*
G02*
X172550000Y-135400000I0J250000D01*
G01*
X172550000Y-134450000D01*
G75*
G02*
X172800000Y-134200000I250000J0D01*
G01*
X173475000Y-134200000D01*
G75*
G02*
X173725000Y-134450000I0J-250000D01*
G01*
G37*
G36*
G01*
X175800000Y-134450000D02*
X175800000Y-135400000D01*
G75*
G02*
X175550000Y-135650000I-250000J0D01*
G01*
X174875000Y-135650000D01*
G75*
G02*
X174625000Y-135400000I0J250000D01*
G01*
X174625000Y-134450000D01*
G75*
G02*
X174875000Y-134200000I250000J0D01*
G01*
X175550000Y-134200000D01*
G75*
G02*
X175800000Y-134450000I0J-250000D01*
G01*
G37*
%TD*%
%TO.C,C25*%
G36*
G01*
X148450000Y-134475000D02*
X148450000Y-135425000D01*
G75*
G02*
X148200000Y-135675000I-250000J0D01*
G01*
X147525000Y-135675000D01*
G75*
G02*
X147275000Y-135425000I0J250000D01*
G01*
X147275000Y-134475000D01*
G75*
G02*
X147525000Y-134225000I250000J0D01*
G01*
X148200000Y-134225000D01*
G75*
G02*
X148450000Y-134475000I0J-250000D01*
G01*
G37*
G36*
G01*
X150525000Y-134475000D02*
X150525000Y-135425000D01*
G75*
G02*
X150275000Y-135675000I-250000J0D01*
G01*
X149600000Y-135675000D01*
G75*
G02*
X149350000Y-135425000I0J250000D01*
G01*
X149350000Y-134475000D01*
G75*
G02*
X149600000Y-134225000I250000J0D01*
G01*
X150275000Y-134225000D01*
G75*
G02*
X150525000Y-134475000I0J-250000D01*
G01*
G37*
%TD*%
%TO.C,C24*%
G36*
G01*
X148450000Y-132075000D02*
X148450000Y-133025000D01*
G75*
G02*
X148200000Y-133275000I-250000J0D01*
G01*
X147525000Y-133275000D01*
G75*
G02*
X147275000Y-133025000I0J250000D01*
G01*
X147275000Y-132075000D01*
G75*
G02*
X147525000Y-131825000I250000J0D01*
G01*
X148200000Y-131825000D01*
G75*
G02*
X148450000Y-132075000I0J-250000D01*
G01*
G37*
G36*
G01*
X150525000Y-132075000D02*
X150525000Y-133025000D01*
G75*
G02*
X150275000Y-133275000I-250000J0D01*
G01*
X149600000Y-133275000D01*
G75*
G02*
X149350000Y-133025000I0J250000D01*
G01*
X149350000Y-132075000D01*
G75*
G02*
X149600000Y-131825000I250000J0D01*
G01*
X150275000Y-131825000D01*
G75*
G02*
X150525000Y-132075000I0J-250000D01*
G01*
G37*
%TD*%
%TO.C,C23*%
G36*
G01*
X124350000Y-135435000D02*
X124350000Y-134485000D01*
G75*
G02*
X124600000Y-134235000I250000J0D01*
G01*
X125275000Y-134235000D01*
G75*
G02*
X125525000Y-134485000I0J-250000D01*
G01*
X125525000Y-135435000D01*
G75*
G02*
X125275000Y-135685000I-250000J0D01*
G01*
X124600000Y-135685000D01*
G75*
G02*
X124350000Y-135435000I0J250000D01*
G01*
G37*
G36*
G01*
X122275000Y-135435000D02*
X122275000Y-134485000D01*
G75*
G02*
X122525000Y-134235000I250000J0D01*
G01*
X123200000Y-134235000D01*
G75*
G02*
X123450000Y-134485000I0J-250000D01*
G01*
X123450000Y-135435000D01*
G75*
G02*
X123200000Y-135685000I-250000J0D01*
G01*
X122525000Y-135685000D01*
G75*
G02*
X122275000Y-135435000I0J250000D01*
G01*
G37*
%TD*%
%TO.C,C22*%
G36*
G01*
X124350000Y-133025000D02*
X124350000Y-132075000D01*
G75*
G02*
X124600000Y-131825000I250000J0D01*
G01*
X125275000Y-131825000D01*
G75*
G02*
X125525000Y-132075000I0J-250000D01*
G01*
X125525000Y-133025000D01*
G75*
G02*
X125275000Y-133275000I-250000J0D01*
G01*
X124600000Y-133275000D01*
G75*
G02*
X124350000Y-133025000I0J250000D01*
G01*
G37*
G36*
G01*
X122275000Y-133025000D02*
X122275000Y-132075000D01*
G75*
G02*
X122525000Y-131825000I250000J0D01*
G01*
X123200000Y-131825000D01*
G75*
G02*
X123450000Y-132075000I0J-250000D01*
G01*
X123450000Y-133025000D01*
G75*
G02*
X123200000Y-133275000I-250000J0D01*
G01*
X122525000Y-133275000D01*
G75*
G02*
X122275000Y-133025000I0J250000D01*
G01*
G37*
%TD*%
%TO.C,C15*%
G36*
G01*
X119575000Y-80950000D02*
X118625000Y-80950000D01*
G75*
G02*
X118375000Y-80700000I0J250000D01*
G01*
X118375000Y-80025000D01*
G75*
G02*
X118625000Y-79775000I250000J0D01*
G01*
X119575000Y-79775000D01*
G75*
G02*
X119825000Y-80025000I0J-250000D01*
G01*
X119825000Y-80700000D01*
G75*
G02*
X119575000Y-80950000I-250000J0D01*
G01*
G37*
G36*
G01*
X119575000Y-83025000D02*
X118625000Y-83025000D01*
G75*
G02*
X118375000Y-82775000I0J250000D01*
G01*
X118375000Y-82100000D01*
G75*
G02*
X118625000Y-81850000I250000J0D01*
G01*
X119575000Y-81850000D01*
G75*
G02*
X119825000Y-82100000I0J-250000D01*
G01*
X119825000Y-82775000D01*
G75*
G02*
X119575000Y-83025000I-250000J0D01*
G01*
G37*
%TD*%
%TO.C,C14*%
G36*
G01*
X115775000Y-80950000D02*
X114825000Y-80950000D01*
G75*
G02*
X114575000Y-80700000I0J250000D01*
G01*
X114575000Y-80025000D01*
G75*
G02*
X114825000Y-79775000I250000J0D01*
G01*
X115775000Y-79775000D01*
G75*
G02*
X116025000Y-80025000I0J-250000D01*
G01*
X116025000Y-80700000D01*
G75*
G02*
X115775000Y-80950000I-250000J0D01*
G01*
G37*
G36*
G01*
X115775000Y-83025000D02*
X114825000Y-83025000D01*
G75*
G02*
X114575000Y-82775000I0J250000D01*
G01*
X114575000Y-82100000D01*
G75*
G02*
X114825000Y-81850000I250000J0D01*
G01*
X115775000Y-81850000D01*
G75*
G02*
X116025000Y-82100000I0J-250000D01*
G01*
X116025000Y-82775000D01*
G75*
G02*
X115775000Y-83025000I-250000J0D01*
G01*
G37*
%TD*%
D14*
%TO.C,D7*%
X149200000Y-60100000D03*
X149200000Y-65100000D03*
%TD*%
%TO.C,R14*%
G36*
G01*
X148350001Y-71700000D02*
X147449999Y-71700000D01*
G75*
G02*
X147200000Y-71450001I0J249999D01*
G01*
X147200000Y-70749999D01*
G75*
G02*
X147449999Y-70500000I249999J0D01*
G01*
X148350001Y-70500000D01*
G75*
G02*
X148600000Y-70749999I0J-249999D01*
G01*
X148600000Y-71450001D01*
G75*
G02*
X148350001Y-71700000I-249999J0D01*
G01*
G37*
G36*
G01*
X148350001Y-73700000D02*
X147449999Y-73700000D01*
G75*
G02*
X147200000Y-73450001I0J249999D01*
G01*
X147200000Y-72749999D01*
G75*
G02*
X147449999Y-72500000I249999J0D01*
G01*
X148350001Y-72500000D01*
G75*
G02*
X148600000Y-72749999I0J-249999D01*
G01*
X148600000Y-73450001D01*
G75*
G02*
X148350001Y-73700000I-249999J0D01*
G01*
G37*
%TD*%
D15*
%TO.C,J1*%
X136960154Y-79375744D03*
X135164102Y-81171795D03*
X133368051Y-82967846D03*
X131572000Y-84763898D03*
X129775949Y-86559949D03*
X138756205Y-81171795D03*
X136960154Y-82967846D03*
X135164102Y-84763898D03*
X133368051Y-86559949D03*
G36*
G01*
X132597305Y-88532777D02*
X131748777Y-89381305D01*
G75*
G02*
X131395223Y-89381305I-176777J176777D01*
G01*
X130546695Y-88532777D01*
G75*
G02*
X130546695Y-88179223I176777J176777D01*
G01*
X131395223Y-87330695D01*
G75*
G02*
X131748777Y-87330695I176777J-176777D01*
G01*
X132597305Y-88179223D01*
G75*
G02*
X132597305Y-88532777I-176777J-176777D01*
G01*
G37*
%TD*%
%TO.C,R1*%
G36*
G01*
X147449999Y-78400000D02*
X148350001Y-78400000D01*
G75*
G02*
X148600000Y-78649999I0J-249999D01*
G01*
X148600000Y-79350001D01*
G75*
G02*
X148350001Y-79600000I-249999J0D01*
G01*
X147449999Y-79600000D01*
G75*
G02*
X147200000Y-79350001I0J249999D01*
G01*
X147200000Y-78649999D01*
G75*
G02*
X147449999Y-78400000I249999J0D01*
G01*
G37*
G36*
G01*
X147449999Y-76400000D02*
X148350001Y-76400000D01*
G75*
G02*
X148600000Y-76649999I0J-249999D01*
G01*
X148600000Y-77350001D01*
G75*
G02*
X148350001Y-77600000I-249999J0D01*
G01*
X147449999Y-77600000D01*
G75*
G02*
X147200000Y-77350001I0J249999D01*
G01*
X147200000Y-76649999D01*
G75*
G02*
X147449999Y-76400000I249999J0D01*
G01*
G37*
%TD*%
%TO.C,D5*%
G36*
G01*
X151050001Y-77650000D02*
X150149999Y-77650000D01*
G75*
G02*
X149900000Y-77400001I0J249999D01*
G01*
X149900000Y-76749999D01*
G75*
G02*
X150149999Y-76500000I249999J0D01*
G01*
X151050001Y-76500000D01*
G75*
G02*
X151300000Y-76749999I0J-249999D01*
G01*
X151300000Y-77400001D01*
G75*
G02*
X151050001Y-77650000I-249999J0D01*
G01*
G37*
G36*
G01*
X151050001Y-79700000D02*
X150149999Y-79700000D01*
G75*
G02*
X149900000Y-79450001I0J249999D01*
G01*
X149900000Y-78799999D01*
G75*
G02*
X150149999Y-78550000I249999J0D01*
G01*
X151050001Y-78550000D01*
G75*
G02*
X151300000Y-78799999I0J-249999D01*
G01*
X151300000Y-79450001D01*
G75*
G02*
X151050001Y-79700000I-249999J0D01*
G01*
G37*
%TD*%
%TO.C,R13*%
G36*
G01*
X185400000Y-92049999D02*
X185400000Y-92950001D01*
G75*
G02*
X185150001Y-93200000I-249999J0D01*
G01*
X184449999Y-93200000D01*
G75*
G02*
X184200000Y-92950001I0J249999D01*
G01*
X184200000Y-92049999D01*
G75*
G02*
X184449999Y-91800000I249999J0D01*
G01*
X185150001Y-91800000D01*
G75*
G02*
X185400000Y-92049999I0J-249999D01*
G01*
G37*
G36*
G01*
X187400000Y-92049999D02*
X187400000Y-92950001D01*
G75*
G02*
X187150001Y-93200000I-249999J0D01*
G01*
X186449999Y-93200000D01*
G75*
G02*
X186200000Y-92950001I0J249999D01*
G01*
X186200000Y-92049999D01*
G75*
G02*
X186449999Y-91800000I249999J0D01*
G01*
X187150001Y-91800000D01*
G75*
G02*
X187400000Y-92049999I0J-249999D01*
G01*
G37*
%TD*%
%TO.C,R12*%
G36*
G01*
X185400000Y-94349999D02*
X185400000Y-95250001D01*
G75*
G02*
X185150001Y-95500000I-249999J0D01*
G01*
X184449999Y-95500000D01*
G75*
G02*
X184200000Y-95250001I0J249999D01*
G01*
X184200000Y-94349999D01*
G75*
G02*
X184449999Y-94100000I249999J0D01*
G01*
X185150001Y-94100000D01*
G75*
G02*
X185400000Y-94349999I0J-249999D01*
G01*
G37*
G36*
G01*
X187400000Y-94349999D02*
X187400000Y-95250001D01*
G75*
G02*
X187150001Y-95500000I-249999J0D01*
G01*
X186449999Y-95500000D01*
G75*
G02*
X186200000Y-95250001I0J249999D01*
G01*
X186200000Y-94349999D01*
G75*
G02*
X186449999Y-94100000I249999J0D01*
G01*
X187150001Y-94100000D01*
G75*
G02*
X187400000Y-94349999I0J-249999D01*
G01*
G37*
%TD*%
D16*
%TO.C,J7*%
X109232000Y-132790000D03*
X109232000Y-130290000D03*
G36*
G01*
X108507000Y-126940000D02*
X109957000Y-126940000D01*
G75*
G02*
X110207000Y-127190000I0J-250000D01*
G01*
X110207000Y-128390000D01*
G75*
G02*
X109957000Y-128640000I-250000J0D01*
G01*
X108507000Y-128640000D01*
G75*
G02*
X108257000Y-128390000I0J250000D01*
G01*
X108257000Y-127190000D01*
G75*
G02*
X108507000Y-126940000I250000J0D01*
G01*
G37*
%TD*%
%TO.C,J5*%
X109232000Y-117726000D03*
X109232000Y-115226000D03*
G36*
G01*
X108507000Y-111876000D02*
X109957000Y-111876000D01*
G75*
G02*
X110207000Y-112126000I0J-250000D01*
G01*
X110207000Y-113326000D01*
G75*
G02*
X109957000Y-113576000I-250000J0D01*
G01*
X108507000Y-113576000D01*
G75*
G02*
X108257000Y-113326000I0J250000D01*
G01*
X108257000Y-112126000D01*
G75*
G02*
X108507000Y-111876000I250000J0D01*
G01*
G37*
%TD*%
%TO.C,J3*%
X109232000Y-102232000D03*
X109232000Y-99732000D03*
G36*
G01*
X108507000Y-96382000D02*
X109957000Y-96382000D01*
G75*
G02*
X110207000Y-96632000I0J-250000D01*
G01*
X110207000Y-97832000D01*
G75*
G02*
X109957000Y-98082000I-250000J0D01*
G01*
X108507000Y-98082000D01*
G75*
G02*
X108257000Y-97832000I0J250000D01*
G01*
X108257000Y-96632000D01*
G75*
G02*
X108507000Y-96382000I250000J0D01*
G01*
G37*
%TD*%
D17*
%TO.C,L1*%
X191742000Y-54232000D03*
X191742000Y-64132000D03*
%TD*%
D18*
%TO.C,J16*%
X169240000Y-87840000D03*
X169240000Y-85300000D03*
X171780000Y-87840000D03*
X171780000Y-85300000D03*
X174320000Y-87840000D03*
X174320000Y-85300000D03*
X176860000Y-87840000D03*
X176860000Y-85300000D03*
X179400000Y-87840000D03*
D19*
X179400000Y-85300000D03*
%TD*%
D20*
%TO.C,J9*%
X151678000Y-54600000D03*
G36*
G01*
X155028000Y-53850000D02*
X155028000Y-55350000D01*
G75*
G02*
X154778000Y-55600000I-250000J0D01*
G01*
X153578000Y-55600000D01*
G75*
G02*
X153328000Y-55350000I0J250000D01*
G01*
X153328000Y-53850000D01*
G75*
G02*
X153578000Y-53600000I250000J0D01*
G01*
X154778000Y-53600000D01*
G75*
G02*
X155028000Y-53850000I0J-250000D01*
G01*
G37*
%TD*%
D16*
%TO.C,J15*%
X195742000Y-71494000D03*
X195742000Y-73994000D03*
X195742000Y-76494000D03*
G36*
G01*
X196467000Y-79844000D02*
X195017000Y-79844000D01*
G75*
G02*
X194767000Y-79594000I0J250000D01*
G01*
X194767000Y-78394000D01*
G75*
G02*
X195017000Y-78144000I250000J0D01*
G01*
X196467000Y-78144000D01*
G75*
G02*
X196717000Y-78394000I0J-250000D01*
G01*
X196717000Y-79594000D01*
G75*
G02*
X196467000Y-79844000I-250000J0D01*
G01*
G37*
%TD*%
%TO.C,J14*%
X195728000Y-87242000D03*
X195728000Y-89742000D03*
X195728000Y-92242000D03*
G36*
G01*
X196453000Y-95592000D02*
X195003000Y-95592000D01*
G75*
G02*
X194753000Y-95342000I0J250000D01*
G01*
X194753000Y-94142000D01*
G75*
G02*
X195003000Y-93892000I250000J0D01*
G01*
X196453000Y-93892000D01*
G75*
G02*
X196703000Y-94142000I0J-250000D01*
G01*
X196703000Y-95342000D01*
G75*
G02*
X196453000Y-95592000I-250000J0D01*
G01*
G37*
%TD*%
D21*
%TO.C,J11*%
X182720000Y-140978000D03*
X180220000Y-140978000D03*
X177720000Y-140978000D03*
G36*
G01*
X174370000Y-141703000D02*
X174370000Y-140253000D01*
G75*
G02*
X174620000Y-140003000I250000J0D01*
G01*
X175820000Y-140003000D01*
G75*
G02*
X176070000Y-140253000I0J-250000D01*
G01*
X176070000Y-141703000D01*
G75*
G02*
X175820000Y-141953000I-250000J0D01*
G01*
X174620000Y-141953000D01*
G75*
G02*
X174370000Y-141703000I0J250000D01*
G01*
G37*
%TD*%
%TO.C,J10*%
X157460000Y-140978000D03*
X154960000Y-140978000D03*
X152460000Y-140978000D03*
G36*
G01*
X149110000Y-141703000D02*
X149110000Y-140253000D01*
G75*
G02*
X149360000Y-140003000I250000J0D01*
G01*
X150560000Y-140003000D01*
G75*
G02*
X150810000Y-140253000I0J-250000D01*
G01*
X150810000Y-141703000D01*
G75*
G02*
X150560000Y-141953000I-250000J0D01*
G01*
X149360000Y-141953000D01*
G75*
G02*
X149110000Y-141703000I0J250000D01*
G01*
G37*
%TD*%
%TO.C,J8*%
X132428000Y-140978000D03*
X129928000Y-140978000D03*
X127428000Y-140978000D03*
G36*
G01*
X124078000Y-141703000D02*
X124078000Y-140253000D01*
G75*
G02*
X124328000Y-140003000I250000J0D01*
G01*
X125528000Y-140003000D01*
G75*
G02*
X125778000Y-140253000I0J-250000D01*
G01*
X125778000Y-141703000D01*
G75*
G02*
X125528000Y-141953000I-250000J0D01*
G01*
X124328000Y-141953000D01*
G75*
G02*
X124078000Y-141703000I0J250000D01*
G01*
G37*
%TD*%
D16*
%TO.C,J6*%
X195742000Y-130200000D03*
X195742000Y-132700000D03*
G36*
G01*
X196467000Y-136050000D02*
X195017000Y-136050000D01*
G75*
G02*
X194767000Y-135800000I0J250000D01*
G01*
X194767000Y-134600000D01*
G75*
G02*
X195017000Y-134350000I250000J0D01*
G01*
X196467000Y-134350000D01*
G75*
G02*
X196717000Y-134600000I0J-250000D01*
G01*
X196717000Y-135800000D01*
G75*
G02*
X196467000Y-136050000I-250000J0D01*
G01*
G37*
%TD*%
%TO.C,J4*%
X195720000Y-117400000D03*
X195720000Y-119900000D03*
G36*
G01*
X196445000Y-123250000D02*
X194995000Y-123250000D01*
G75*
G02*
X194745000Y-123000000I0J250000D01*
G01*
X194745000Y-121800000D01*
G75*
G02*
X194995000Y-121550000I250000J0D01*
G01*
X196445000Y-121550000D01*
G75*
G02*
X196695000Y-121800000I0J-250000D01*
G01*
X196695000Y-123000000D01*
G75*
G02*
X196445000Y-123250000I-250000J0D01*
G01*
G37*
%TD*%
%TO.C,J2*%
X195742000Y-104600000D03*
X195742000Y-107100000D03*
G36*
G01*
X196467000Y-110450000D02*
X195017000Y-110450000D01*
G75*
G02*
X194767000Y-110200000I0J250000D01*
G01*
X194767000Y-109000000D01*
G75*
G02*
X195017000Y-108750000I250000J0D01*
G01*
X196467000Y-108750000D01*
G75*
G02*
X196717000Y-109000000I0J-250000D01*
G01*
X196717000Y-110200000D01*
G75*
G02*
X196467000Y-110450000I-250000J0D01*
G01*
G37*
%TD*%
%TO.C,C20*%
G36*
G01*
X157184000Y-66582000D02*
X158284000Y-66582000D01*
G75*
G02*
X158534000Y-66832000I0J-250000D01*
G01*
X158534000Y-69832000D01*
G75*
G02*
X158284000Y-70082000I-250000J0D01*
G01*
X157184000Y-70082000D01*
G75*
G02*
X156934000Y-69832000I0J250000D01*
G01*
X156934000Y-66832000D01*
G75*
G02*
X157184000Y-66582000I250000J0D01*
G01*
G37*
G36*
G01*
X157184000Y-60982000D02*
X158284000Y-60982000D01*
G75*
G02*
X158534000Y-61232000I0J-250000D01*
G01*
X158534000Y-64232000D01*
G75*
G02*
X158284000Y-64482000I-250000J0D01*
G01*
X157184000Y-64482000D01*
G75*
G02*
X156934000Y-64232000I0J250000D01*
G01*
X156934000Y-61232000D01*
G75*
G02*
X157184000Y-60982000I250000J0D01*
G01*
G37*
%TD*%
D18*
%TO.C,J13*%
X111900000Y-87160000D03*
D19*
X111900000Y-89700000D03*
%TD*%
D18*
%TO.C,J12*%
X108000000Y-87160000D03*
D19*
X108000000Y-89700000D03*
%TD*%
D14*
%TO.C,D4*%
X165862000Y-76414000D03*
X165862000Y-71414000D03*
%TD*%
%TO.C,C1*%
G36*
G01*
X169350000Y-100075000D02*
X169350000Y-99125000D01*
G75*
G02*
X169600000Y-98875000I250000J0D01*
G01*
X170275000Y-98875000D01*
G75*
G02*
X170525000Y-99125000I0J-250000D01*
G01*
X170525000Y-100075000D01*
G75*
G02*
X170275000Y-100325000I-250000J0D01*
G01*
X169600000Y-100325000D01*
G75*
G02*
X169350000Y-100075000I0J250000D01*
G01*
G37*
G36*
G01*
X167275000Y-100075000D02*
X167275000Y-99125000D01*
G75*
G02*
X167525000Y-98875000I250000J0D01*
G01*
X168200000Y-98875000D01*
G75*
G02*
X168450000Y-99125000I0J-250000D01*
G01*
X168450000Y-100075000D01*
G75*
G02*
X168200000Y-100325000I-250000J0D01*
G01*
X167525000Y-100325000D01*
G75*
G02*
X167275000Y-100075000I0J250000D01*
G01*
G37*
%TD*%
%TO.C,C2*%
G36*
G01*
X150615000Y-111957000D02*
X151565000Y-111957000D01*
G75*
G02*
X151815000Y-112207000I0J-250000D01*
G01*
X151815000Y-112882000D01*
G75*
G02*
X151565000Y-113132000I-250000J0D01*
G01*
X150615000Y-113132000D01*
G75*
G02*
X150365000Y-112882000I0J250000D01*
G01*
X150365000Y-112207000D01*
G75*
G02*
X150615000Y-111957000I250000J0D01*
G01*
G37*
G36*
G01*
X150615000Y-114032000D02*
X151565000Y-114032000D01*
G75*
G02*
X151815000Y-114282000I0J-250000D01*
G01*
X151815000Y-114957000D01*
G75*
G02*
X151565000Y-115207000I-250000J0D01*
G01*
X150615000Y-115207000D01*
G75*
G02*
X150365000Y-114957000I0J250000D01*
G01*
X150365000Y-114282000D01*
G75*
G02*
X150615000Y-114032000I250000J0D01*
G01*
G37*
%TD*%
%TO.C,C4*%
G36*
G01*
X153409000Y-114032000D02*
X154359000Y-114032000D01*
G75*
G02*
X154609000Y-114282000I0J-250000D01*
G01*
X154609000Y-114957000D01*
G75*
G02*
X154359000Y-115207000I-250000J0D01*
G01*
X153409000Y-115207000D01*
G75*
G02*
X153159000Y-114957000I0J250000D01*
G01*
X153159000Y-114282000D01*
G75*
G02*
X153409000Y-114032000I250000J0D01*
G01*
G37*
G36*
G01*
X153409000Y-111957000D02*
X154359000Y-111957000D01*
G75*
G02*
X154609000Y-112207000I0J-250000D01*
G01*
X154609000Y-112882000D01*
G75*
G02*
X154359000Y-113132000I-250000J0D01*
G01*
X153409000Y-113132000D01*
G75*
G02*
X153159000Y-112882000I0J250000D01*
G01*
X153159000Y-112207000D01*
G75*
G02*
X153409000Y-111957000I250000J0D01*
G01*
G37*
%TD*%
%TO.C,C6*%
G36*
G01*
X139867678Y-102975927D02*
X139195927Y-103647678D01*
G75*
G02*
X138842373Y-103647678I-176777J176777D01*
G01*
X138365076Y-103170381D01*
G75*
G02*
X138365076Y-102816827I176777J176777D01*
G01*
X139036827Y-102145076D01*
G75*
G02*
X139390381Y-102145076I176777J-176777D01*
G01*
X139867678Y-102622373D01*
G75*
G02*
X139867678Y-102975927I-176777J-176777D01*
G01*
G37*
G36*
G01*
X141334924Y-104443173D02*
X140663173Y-105114924D01*
G75*
G02*
X140309619Y-105114924I-176777J176777D01*
G01*
X139832322Y-104637627D01*
G75*
G02*
X139832322Y-104284073I176777J176777D01*
G01*
X140504073Y-103612322D01*
G75*
G02*
X140857627Y-103612322I176777J-176777D01*
G01*
X141334924Y-104089619D01*
G75*
G02*
X141334924Y-104443173I-176777J-176777D01*
G01*
G37*
%TD*%
%TO.C,C7*%
G36*
G01*
X144852322Y-109134073D02*
X145524073Y-108462322D01*
G75*
G02*
X145877627Y-108462322I176777J-176777D01*
G01*
X146354924Y-108939619D01*
G75*
G02*
X146354924Y-109293173I-176777J-176777D01*
G01*
X145683173Y-109964924D01*
G75*
G02*
X145329619Y-109964924I-176777J176777D01*
G01*
X144852322Y-109487627D01*
G75*
G02*
X144852322Y-109134073I176777J176777D01*
G01*
G37*
G36*
G01*
X143385076Y-107666827D02*
X144056827Y-106995076D01*
G75*
G02*
X144410381Y-106995076I176777J-176777D01*
G01*
X144887678Y-107472373D01*
G75*
G02*
X144887678Y-107825927I-176777J-176777D01*
G01*
X144215927Y-108497678D01*
G75*
G02*
X143862373Y-108497678I-176777J176777D01*
G01*
X143385076Y-108020381D01*
G75*
G02*
X143385076Y-107666827I176777J176777D01*
G01*
G37*
%TD*%
%TO.C,C8*%
G36*
G01*
X135413173Y-97615076D02*
X136084924Y-98286827D01*
G75*
G02*
X136084924Y-98640381I-176777J-176777D01*
G01*
X135607627Y-99117678D01*
G75*
G02*
X135254073Y-99117678I-176777J176777D01*
G01*
X134582322Y-98445927D01*
G75*
G02*
X134582322Y-98092373I176777J176777D01*
G01*
X135059619Y-97615076D01*
G75*
G02*
X135413173Y-97615076I176777J-176777D01*
G01*
G37*
G36*
G01*
X133945927Y-99082322D02*
X134617678Y-99754073D01*
G75*
G02*
X134617678Y-100107627I-176777J-176777D01*
G01*
X134140381Y-100584924D01*
G75*
G02*
X133786827Y-100584924I-176777J176777D01*
G01*
X133115076Y-99913173D01*
G75*
G02*
X133115076Y-99559619I176777J176777D01*
G01*
X133592373Y-99082322D01*
G75*
G02*
X133945927Y-99082322I176777J-176777D01*
G01*
G37*
%TD*%
%TO.C,C9*%
G36*
G01*
X135645927Y-100712322D02*
X136317678Y-101384073D01*
G75*
G02*
X136317678Y-101737627I-176777J-176777D01*
G01*
X135840381Y-102214924D01*
G75*
G02*
X135486827Y-102214924I-176777J176777D01*
G01*
X134815076Y-101543173D01*
G75*
G02*
X134815076Y-101189619I176777J176777D01*
G01*
X135292373Y-100712322D01*
G75*
G02*
X135645927Y-100712322I176777J-176777D01*
G01*
G37*
G36*
G01*
X137113173Y-99245076D02*
X137784924Y-99916827D01*
G75*
G02*
X137784924Y-100270381I-176777J-176777D01*
G01*
X137307627Y-100747678D01*
G75*
G02*
X136954073Y-100747678I-176777J176777D01*
G01*
X136282322Y-100075927D01*
G75*
G02*
X136282322Y-99722373I176777J176777D01*
G01*
X136759619Y-99245076D01*
G75*
G02*
X137113173Y-99245076I176777J-176777D01*
G01*
G37*
%TD*%
%TO.C,C10*%
G36*
G01*
X147821000Y-111957000D02*
X148771000Y-111957000D01*
G75*
G02*
X149021000Y-112207000I0J-250000D01*
G01*
X149021000Y-112882000D01*
G75*
G02*
X148771000Y-113132000I-250000J0D01*
G01*
X147821000Y-113132000D01*
G75*
G02*
X147571000Y-112882000I0J250000D01*
G01*
X147571000Y-112207000D01*
G75*
G02*
X147821000Y-111957000I250000J0D01*
G01*
G37*
G36*
G01*
X147821000Y-114032000D02*
X148771000Y-114032000D01*
G75*
G02*
X149021000Y-114282000I0J-250000D01*
G01*
X149021000Y-114957000D01*
G75*
G02*
X148771000Y-115207000I-250000J0D01*
G01*
X147821000Y-115207000D01*
G75*
G02*
X147571000Y-114957000I0J250000D01*
G01*
X147571000Y-114282000D01*
G75*
G02*
X147821000Y-114032000I250000J0D01*
G01*
G37*
%TD*%
%TO.C,C11*%
G36*
G01*
X138517678Y-92245927D02*
X137845927Y-92917678D01*
G75*
G02*
X137492373Y-92917678I-176777J176777D01*
G01*
X137015076Y-92440381D01*
G75*
G02*
X137015076Y-92086827I176777J176777D01*
G01*
X137686827Y-91415076D01*
G75*
G02*
X138040381Y-91415076I176777J-176777D01*
G01*
X138517678Y-91892373D01*
G75*
G02*
X138517678Y-92245927I-176777J-176777D01*
G01*
G37*
G36*
G01*
X139984924Y-93713173D02*
X139313173Y-94384924D01*
G75*
G02*
X138959619Y-94384924I-176777J176777D01*
G01*
X138482322Y-93907627D01*
G75*
G02*
X138482322Y-93554073I176777J176777D01*
G01*
X139154073Y-92882322D01*
G75*
G02*
X139507627Y-92882322I176777J-176777D01*
G01*
X139984924Y-93359619D01*
G75*
G02*
X139984924Y-93713173I-176777J-176777D01*
G01*
G37*
%TD*%
%TO.C,C12*%
G36*
G01*
X157153000Y-115207000D02*
X156203000Y-115207000D01*
G75*
G02*
X155953000Y-114957000I0J250000D01*
G01*
X155953000Y-114282000D01*
G75*
G02*
X156203000Y-114032000I250000J0D01*
G01*
X157153000Y-114032000D01*
G75*
G02*
X157403000Y-114282000I0J-250000D01*
G01*
X157403000Y-114957000D01*
G75*
G02*
X157153000Y-115207000I-250000J0D01*
G01*
G37*
G36*
G01*
X157153000Y-113132000D02*
X156203000Y-113132000D01*
G75*
G02*
X155953000Y-112882000I0J250000D01*
G01*
X155953000Y-112207000D01*
G75*
G02*
X156203000Y-111957000I250000J0D01*
G01*
X157153000Y-111957000D01*
G75*
G02*
X157403000Y-112207000I0J-250000D01*
G01*
X157403000Y-112882000D01*
G75*
G02*
X157153000Y-113132000I-250000J0D01*
G01*
G37*
%TD*%
%TO.C,C13*%
G36*
G01*
X157186827Y-84984924D02*
X156515076Y-84313173D01*
G75*
G02*
X156515076Y-83959619I176777J176777D01*
G01*
X156992373Y-83482322D01*
G75*
G02*
X157345927Y-83482322I176777J-176777D01*
G01*
X158017678Y-84154073D01*
G75*
G02*
X158017678Y-84507627I-176777J-176777D01*
G01*
X157540381Y-84984924D01*
G75*
G02*
X157186827Y-84984924I-176777J176777D01*
G01*
G37*
G36*
G01*
X158654073Y-83517678D02*
X157982322Y-82845927D01*
G75*
G02*
X157982322Y-82492373I176777J176777D01*
G01*
X158459619Y-82015076D01*
G75*
G02*
X158813173Y-82015076I176777J-176777D01*
G01*
X159484924Y-82686827D01*
G75*
G02*
X159484924Y-83040381I-176777J-176777D01*
G01*
X159007627Y-83517678D01*
G75*
G02*
X158654073Y-83517678I-176777J176777D01*
G01*
G37*
%TD*%
%TO.C,C16*%
G36*
G01*
X172179000Y-73253000D02*
X171229000Y-73253000D01*
G75*
G02*
X170979000Y-73003000I0J250000D01*
G01*
X170979000Y-72328000D01*
G75*
G02*
X171229000Y-72078000I250000J0D01*
G01*
X172179000Y-72078000D01*
G75*
G02*
X172429000Y-72328000I0J-250000D01*
G01*
X172429000Y-73003000D01*
G75*
G02*
X172179000Y-73253000I-250000J0D01*
G01*
G37*
G36*
G01*
X172179000Y-71178000D02*
X171229000Y-71178000D01*
G75*
G02*
X170979000Y-70928000I0J250000D01*
G01*
X170979000Y-70253000D01*
G75*
G02*
X171229000Y-70003000I250000J0D01*
G01*
X172179000Y-70003000D01*
G75*
G02*
X172429000Y-70253000I0J-250000D01*
G01*
X172429000Y-70928000D01*
G75*
G02*
X172179000Y-71178000I-250000J0D01*
G01*
G37*
%TD*%
%TO.C,C17*%
G36*
G01*
X175735000Y-71178000D02*
X174785000Y-71178000D01*
G75*
G02*
X174535000Y-70928000I0J250000D01*
G01*
X174535000Y-70253000D01*
G75*
G02*
X174785000Y-70003000I250000J0D01*
G01*
X175735000Y-70003000D01*
G75*
G02*
X175985000Y-70253000I0J-250000D01*
G01*
X175985000Y-70928000D01*
G75*
G02*
X175735000Y-71178000I-250000J0D01*
G01*
G37*
G36*
G01*
X175735000Y-73253000D02*
X174785000Y-73253000D01*
G75*
G02*
X174535000Y-73003000I0J250000D01*
G01*
X174535000Y-72328000D01*
G75*
G02*
X174785000Y-72078000I250000J0D01*
G01*
X175735000Y-72078000D01*
G75*
G02*
X175985000Y-72328000I0J-250000D01*
G01*
X175985000Y-73003000D01*
G75*
G02*
X175735000Y-73253000I-250000J0D01*
G01*
G37*
%TD*%
%TO.C,C18*%
G36*
G01*
X143183000Y-126129000D02*
X142233000Y-126129000D01*
G75*
G02*
X141983000Y-125879000I0J250000D01*
G01*
X141983000Y-125204000D01*
G75*
G02*
X142233000Y-124954000I250000J0D01*
G01*
X143183000Y-124954000D01*
G75*
G02*
X143433000Y-125204000I0J-250000D01*
G01*
X143433000Y-125879000D01*
G75*
G02*
X143183000Y-126129000I-250000J0D01*
G01*
G37*
G36*
G01*
X143183000Y-124054000D02*
X142233000Y-124054000D01*
G75*
G02*
X141983000Y-123804000I0J250000D01*
G01*
X141983000Y-123129000D01*
G75*
G02*
X142233000Y-122879000I250000J0D01*
G01*
X143183000Y-122879000D01*
G75*
G02*
X143433000Y-123129000I0J-250000D01*
G01*
X143433000Y-123804000D01*
G75*
G02*
X143183000Y-124054000I-250000J0D01*
G01*
G37*
%TD*%
%TO.C,C19*%
G36*
G01*
X160709000Y-126129000D02*
X159759000Y-126129000D01*
G75*
G02*
X159509000Y-125879000I0J250000D01*
G01*
X159509000Y-125204000D01*
G75*
G02*
X159759000Y-124954000I250000J0D01*
G01*
X160709000Y-124954000D01*
G75*
G02*
X160959000Y-125204000I0J-250000D01*
G01*
X160959000Y-125879000D01*
G75*
G02*
X160709000Y-126129000I-250000J0D01*
G01*
G37*
G36*
G01*
X160709000Y-124054000D02*
X159759000Y-124054000D01*
G75*
G02*
X159509000Y-123804000I0J250000D01*
G01*
X159509000Y-123129000D01*
G75*
G02*
X159759000Y-122879000I250000J0D01*
G01*
X160709000Y-122879000D01*
G75*
G02*
X160959000Y-123129000I0J-250000D01*
G01*
X160959000Y-123804000D01*
G75*
G02*
X160709000Y-124054000I-250000J0D01*
G01*
G37*
%TD*%
%TO.C,D2*%
G36*
G01*
X157382001Y-124054000D02*
X156481999Y-124054000D01*
G75*
G02*
X156232000Y-123804001I0J249999D01*
G01*
X156232000Y-123153999D01*
G75*
G02*
X156481999Y-122904000I249999J0D01*
G01*
X157382001Y-122904000D01*
G75*
G02*
X157632000Y-123153999I0J-249999D01*
G01*
X157632000Y-123804001D01*
G75*
G02*
X157382001Y-124054000I-249999J0D01*
G01*
G37*
G36*
G01*
X157382001Y-126104000D02*
X156481999Y-126104000D01*
G75*
G02*
X156232000Y-125854001I0J249999D01*
G01*
X156232000Y-125203999D01*
G75*
G02*
X156481999Y-124954000I249999J0D01*
G01*
X157382001Y-124954000D01*
G75*
G02*
X157632000Y-125203999I0J-249999D01*
G01*
X157632000Y-125854001D01*
G75*
G02*
X157382001Y-126104000I-249999J0D01*
G01*
G37*
%TD*%
%TO.C,D3*%
G36*
G01*
X133304000Y-66168001D02*
X133304000Y-65267999D01*
G75*
G02*
X133553999Y-65018000I249999J0D01*
G01*
X134204001Y-65018000D01*
G75*
G02*
X134454000Y-65267999I0J-249999D01*
G01*
X134454000Y-66168001D01*
G75*
G02*
X134204001Y-66418000I-249999J0D01*
G01*
X133553999Y-66418000D01*
G75*
G02*
X133304000Y-66168001I0J249999D01*
G01*
G37*
G36*
G01*
X135354000Y-66168001D02*
X135354000Y-65267999D01*
G75*
G02*
X135603999Y-65018000I249999J0D01*
G01*
X136254001Y-65018000D01*
G75*
G02*
X136504000Y-65267999I0J-249999D01*
G01*
X136504000Y-66168001D01*
G75*
G02*
X136254001Y-66418000I-249999J0D01*
G01*
X135603999Y-66418000D01*
G75*
G02*
X135354000Y-66168001I0J249999D01*
G01*
G37*
%TD*%
%TO.C,R2*%
G36*
G01*
X139463999Y-124904000D02*
X140364001Y-124904000D01*
G75*
G02*
X140614000Y-125153999I0J-249999D01*
G01*
X140614000Y-125854001D01*
G75*
G02*
X140364001Y-126104000I-249999J0D01*
G01*
X139463999Y-126104000D01*
G75*
G02*
X139214000Y-125854001I0J249999D01*
G01*
X139214000Y-125153999D01*
G75*
G02*
X139463999Y-124904000I249999J0D01*
G01*
G37*
G36*
G01*
X139463999Y-122904000D02*
X140364001Y-122904000D01*
G75*
G02*
X140614000Y-123153999I0J-249999D01*
G01*
X140614000Y-123854001D01*
G75*
G02*
X140364001Y-124104000I-249999J0D01*
G01*
X139463999Y-124104000D01*
G75*
G02*
X139214000Y-123854001I0J249999D01*
G01*
X139214000Y-123153999D01*
G75*
G02*
X139463999Y-122904000I249999J0D01*
G01*
G37*
%TD*%
%TO.C,R3*%
G36*
G01*
X163085999Y-124904000D02*
X163986001Y-124904000D01*
G75*
G02*
X164236000Y-125153999I0J-249999D01*
G01*
X164236000Y-125854001D01*
G75*
G02*
X163986001Y-126104000I-249999J0D01*
G01*
X163085999Y-126104000D01*
G75*
G02*
X162836000Y-125854001I0J249999D01*
G01*
X162836000Y-125153999D01*
G75*
G02*
X163085999Y-124904000I249999J0D01*
G01*
G37*
G36*
G01*
X163085999Y-122904000D02*
X163986001Y-122904000D01*
G75*
G02*
X164236000Y-123153999I0J-249999D01*
G01*
X164236000Y-123854001D01*
G75*
G02*
X163986001Y-124104000I-249999J0D01*
G01*
X163085999Y-124104000D01*
G75*
G02*
X162836000Y-123854001I0J249999D01*
G01*
X162836000Y-123153999D01*
G75*
G02*
X163085999Y-122904000I249999J0D01*
G01*
G37*
%TD*%
%TO.C,R4*%
G36*
G01*
X146460001Y-128168000D02*
X145559999Y-128168000D01*
G75*
G02*
X145310000Y-127918001I0J249999D01*
G01*
X145310000Y-127217999D01*
G75*
G02*
X145559999Y-126968000I249999J0D01*
G01*
X146460001Y-126968000D01*
G75*
G02*
X146710000Y-127217999I0J-249999D01*
G01*
X146710000Y-127918001D01*
G75*
G02*
X146460001Y-128168000I-249999J0D01*
G01*
G37*
G36*
G01*
X146460001Y-130168000D02*
X145559999Y-130168000D01*
G75*
G02*
X145310000Y-129918001I0J249999D01*
G01*
X145310000Y-129217999D01*
G75*
G02*
X145559999Y-128968000I249999J0D01*
G01*
X146460001Y-128968000D01*
G75*
G02*
X146710000Y-129217999I0J-249999D01*
G01*
X146710000Y-129918001D01*
G75*
G02*
X146460001Y-130168000I-249999J0D01*
G01*
G37*
%TD*%
%TO.C,R5*%
G36*
G01*
X157382001Y-130168000D02*
X156481999Y-130168000D01*
G75*
G02*
X156232000Y-129918001I0J249999D01*
G01*
X156232000Y-129217999D01*
G75*
G02*
X156481999Y-128968000I249999J0D01*
G01*
X157382001Y-128968000D01*
G75*
G02*
X157632000Y-129217999I0J-249999D01*
G01*
X157632000Y-129918001D01*
G75*
G02*
X157382001Y-130168000I-249999J0D01*
G01*
G37*
G36*
G01*
X157382001Y-128168000D02*
X156481999Y-128168000D01*
G75*
G02*
X156232000Y-127918001I0J249999D01*
G01*
X156232000Y-127217999D01*
G75*
G02*
X156481999Y-126968000I249999J0D01*
G01*
X157382001Y-126968000D01*
G75*
G02*
X157632000Y-127217999I0J-249999D01*
G01*
X157632000Y-127918001D01*
G75*
G02*
X157382001Y-128168000I-249999J0D01*
G01*
G37*
%TD*%
%TO.C,R6*%
G36*
G01*
X128904000Y-62768001D02*
X128904000Y-61867999D01*
G75*
G02*
X129153999Y-61618000I249999J0D01*
G01*
X129854001Y-61618000D01*
G75*
G02*
X130104000Y-61867999I0J-249999D01*
G01*
X130104000Y-62768001D01*
G75*
G02*
X129854001Y-63018000I-249999J0D01*
G01*
X129153999Y-63018000D01*
G75*
G02*
X128904000Y-62768001I0J249999D01*
G01*
G37*
G36*
G01*
X130904000Y-62768001D02*
X130904000Y-61867999D01*
G75*
G02*
X131153999Y-61618000I249999J0D01*
G01*
X131854001Y-61618000D01*
G75*
G02*
X132104000Y-61867999I0J-249999D01*
G01*
X132104000Y-62768001D01*
G75*
G02*
X131854001Y-63018000I-249999J0D01*
G01*
X131153999Y-63018000D01*
G75*
G02*
X130904000Y-62768001I0J249999D01*
G01*
G37*
%TD*%
%TO.C,R7*%
G36*
G01*
X128860000Y-58362001D02*
X128860000Y-57461999D01*
G75*
G02*
X129109999Y-57212000I249999J0D01*
G01*
X129810001Y-57212000D01*
G75*
G02*
X130060000Y-57461999I0J-249999D01*
G01*
X130060000Y-58362001D01*
G75*
G02*
X129810001Y-58612000I-249999J0D01*
G01*
X129109999Y-58612000D01*
G75*
G02*
X128860000Y-58362001I0J249999D01*
G01*
G37*
G36*
G01*
X130860000Y-58362001D02*
X130860000Y-57461999D01*
G75*
G02*
X131109999Y-57212000I249999J0D01*
G01*
X131810001Y-57212000D01*
G75*
G02*
X132060000Y-57461999I0J-249999D01*
G01*
X132060000Y-58362001D01*
G75*
G02*
X131810001Y-58612000I-249999J0D01*
G01*
X131109999Y-58612000D01*
G75*
G02*
X130860000Y-58362001I0J249999D01*
G01*
G37*
%TD*%
%TO.C,R8*%
G36*
G01*
X116450001Y-95825000D02*
X115549999Y-95825000D01*
G75*
G02*
X115300000Y-95575001I0J249999D01*
G01*
X115300000Y-94874999D01*
G75*
G02*
X115549999Y-94625000I249999J0D01*
G01*
X116450001Y-94625000D01*
G75*
G02*
X116700000Y-94874999I0J-249999D01*
G01*
X116700000Y-95575001D01*
G75*
G02*
X116450001Y-95825000I-249999J0D01*
G01*
G37*
G36*
G01*
X116450001Y-97825000D02*
X115549999Y-97825000D01*
G75*
G02*
X115300000Y-97575001I0J249999D01*
G01*
X115300000Y-96874999D01*
G75*
G02*
X115549999Y-96625000I249999J0D01*
G01*
X116450001Y-96625000D01*
G75*
G02*
X116700000Y-96874999I0J-249999D01*
G01*
X116700000Y-97575001D01*
G75*
G02*
X116450001Y-97825000I-249999J0D01*
G01*
G37*
%TD*%
%TO.C,R9*%
G36*
G01*
X116450001Y-113350000D02*
X115549999Y-113350000D01*
G75*
G02*
X115300000Y-113100001I0J249999D01*
G01*
X115300000Y-112399999D01*
G75*
G02*
X115549999Y-112150000I249999J0D01*
G01*
X116450001Y-112150000D01*
G75*
G02*
X116700000Y-112399999I0J-249999D01*
G01*
X116700000Y-113100001D01*
G75*
G02*
X116450001Y-113350000I-249999J0D01*
G01*
G37*
G36*
G01*
X116450001Y-111350000D02*
X115549999Y-111350000D01*
G75*
G02*
X115300000Y-111100001I0J249999D01*
G01*
X115300000Y-110399999D01*
G75*
G02*
X115549999Y-110150000I249999J0D01*
G01*
X116450001Y-110150000D01*
G75*
G02*
X116700000Y-110399999I0J-249999D01*
G01*
X116700000Y-111100001D01*
G75*
G02*
X116450001Y-111350000I-249999J0D01*
G01*
G37*
%TD*%
%TO.C,R10*%
G36*
G01*
X116550001Y-126400000D02*
X115649999Y-126400000D01*
G75*
G02*
X115400000Y-126150001I0J249999D01*
G01*
X115400000Y-125449999D01*
G75*
G02*
X115649999Y-125200000I249999J0D01*
G01*
X116550001Y-125200000D01*
G75*
G02*
X116800000Y-125449999I0J-249999D01*
G01*
X116800000Y-126150001D01*
G75*
G02*
X116550001Y-126400000I-249999J0D01*
G01*
G37*
G36*
G01*
X116550001Y-128400000D02*
X115649999Y-128400000D01*
G75*
G02*
X115400000Y-128150001I0J249999D01*
G01*
X115400000Y-127449999D01*
G75*
G02*
X115649999Y-127200000I249999J0D01*
G01*
X116550001Y-127200000D01*
G75*
G02*
X116800000Y-127449999I0J-249999D01*
G01*
X116800000Y-128150001D01*
G75*
G02*
X116550001Y-128400000I-249999J0D01*
G01*
G37*
%TD*%
%TO.C,R11*%
G36*
G01*
X133344000Y-62768001D02*
X133344000Y-61867999D01*
G75*
G02*
X133593999Y-61618000I249999J0D01*
G01*
X134294001Y-61618000D01*
G75*
G02*
X134544000Y-61867999I0J-249999D01*
G01*
X134544000Y-62768001D01*
G75*
G02*
X134294001Y-63018000I-249999J0D01*
G01*
X133593999Y-63018000D01*
G75*
G02*
X133344000Y-62768001I0J249999D01*
G01*
G37*
G36*
G01*
X135344000Y-62768001D02*
X135344000Y-61867999D01*
G75*
G02*
X135593999Y-61618000I249999J0D01*
G01*
X136294001Y-61618000D01*
G75*
G02*
X136544000Y-61867999I0J-249999D01*
G01*
X136544000Y-62768001D01*
G75*
G02*
X136294001Y-63018000I-249999J0D01*
G01*
X135593999Y-63018000D01*
G75*
G02*
X135344000Y-62768001I0J249999D01*
G01*
G37*
%TD*%
D12*
%TO.C,SW1*%
X129246000Y-126750000D03*
X129246000Y-122250000D03*
X135746000Y-126750000D03*
X135746000Y-122250000D03*
%TD*%
%TO.C,SW2*%
X173338000Y-122250000D03*
X173338000Y-126750000D03*
X166838000Y-122250000D03*
X166838000Y-126750000D03*
%TD*%
%TO.C,SW3*%
X135286000Y-57586000D03*
X135286000Y-53086000D03*
X141786000Y-57586000D03*
X141786000Y-53086000D03*
%TD*%
%TO.C,U1*%
G36*
G01*
X142317663Y-99303122D02*
X142211597Y-99197056D01*
G75*
G02*
X142211597Y-99090990I53033J53033D01*
G01*
X143236901Y-98065686D01*
G75*
G02*
X143342967Y-98065686I53033J-53033D01*
G01*
X143449033Y-98171752D01*
G75*
G02*
X143449033Y-98277818I-53033J-53033D01*
G01*
X142423729Y-99303122D01*
G75*
G02*
X142317663Y-99303122I-53033J53033D01*
G01*
G37*
G36*
G01*
X142671216Y-99656675D02*
X142565150Y-99550609D01*
G75*
G02*
X142565150Y-99444543I53033J53033D01*
G01*
X143590454Y-98419239D01*
G75*
G02*
X143696520Y-98419239I53033J-53033D01*
G01*
X143802586Y-98525305D01*
G75*
G02*
X143802586Y-98631371I-53033J-53033D01*
G01*
X142777282Y-99656675D01*
G75*
G02*
X142671216Y-99656675I-53033J53033D01*
G01*
G37*
G36*
G01*
X143024770Y-100010229D02*
X142918704Y-99904163D01*
G75*
G02*
X142918704Y-99798097I53033J53033D01*
G01*
X143944008Y-98772793D01*
G75*
G02*
X144050074Y-98772793I53033J-53033D01*
G01*
X144156140Y-98878859D01*
G75*
G02*
X144156140Y-98984925I-53033J-53033D01*
G01*
X143130836Y-100010229D01*
G75*
G02*
X143024770Y-100010229I-53033J53033D01*
G01*
G37*
G36*
G01*
X143378323Y-100363782D02*
X143272257Y-100257716D01*
G75*
G02*
X143272257Y-100151650I53033J53033D01*
G01*
X144297561Y-99126346D01*
G75*
G02*
X144403627Y-99126346I53033J-53033D01*
G01*
X144509693Y-99232412D01*
G75*
G02*
X144509693Y-99338478I-53033J-53033D01*
G01*
X143484389Y-100363782D01*
G75*
G02*
X143378323Y-100363782I-53033J53033D01*
G01*
G37*
G36*
G01*
X143731876Y-100717335D02*
X143625810Y-100611269D01*
G75*
G02*
X143625810Y-100505203I53033J53033D01*
G01*
X144651114Y-99479899D01*
G75*
G02*
X144757180Y-99479899I53033J-53033D01*
G01*
X144863246Y-99585965D01*
G75*
G02*
X144863246Y-99692031I-53033J-53033D01*
G01*
X143837942Y-100717335D01*
G75*
G02*
X143731876Y-100717335I-53033J53033D01*
G01*
G37*
G36*
G01*
X144085430Y-101070889D02*
X143979364Y-100964823D01*
G75*
G02*
X143979364Y-100858757I53033J53033D01*
G01*
X145004668Y-99833453D01*
G75*
G02*
X145110734Y-99833453I53033J-53033D01*
G01*
X145216800Y-99939519D01*
G75*
G02*
X145216800Y-100045585I-53033J-53033D01*
G01*
X144191496Y-101070889D01*
G75*
G02*
X144085430Y-101070889I-53033J53033D01*
G01*
G37*
G36*
G01*
X144438983Y-101424442D02*
X144332917Y-101318376D01*
G75*
G02*
X144332917Y-101212310I53033J53033D01*
G01*
X145358221Y-100187006D01*
G75*
G02*
X145464287Y-100187006I53033J-53033D01*
G01*
X145570353Y-100293072D01*
G75*
G02*
X145570353Y-100399138I-53033J-53033D01*
G01*
X144545049Y-101424442D01*
G75*
G02*
X144438983Y-101424442I-53033J53033D01*
G01*
G37*
G36*
G01*
X144792537Y-101777996D02*
X144686471Y-101671930D01*
G75*
G02*
X144686471Y-101565864I53033J53033D01*
G01*
X145711775Y-100540560D01*
G75*
G02*
X145817841Y-100540560I53033J-53033D01*
G01*
X145923907Y-100646626D01*
G75*
G02*
X145923907Y-100752692I-53033J-53033D01*
G01*
X144898603Y-101777996D01*
G75*
G02*
X144792537Y-101777996I-53033J53033D01*
G01*
G37*
G36*
G01*
X145146090Y-102131549D02*
X145040024Y-102025483D01*
G75*
G02*
X145040024Y-101919417I53033J53033D01*
G01*
X146065328Y-100894113D01*
G75*
G02*
X146171394Y-100894113I53033J-53033D01*
G01*
X146277460Y-101000179D01*
G75*
G02*
X146277460Y-101106245I-53033J-53033D01*
G01*
X145252156Y-102131549D01*
G75*
G02*
X145146090Y-102131549I-53033J53033D01*
G01*
G37*
G36*
G01*
X145499643Y-102485102D02*
X145393577Y-102379036D01*
G75*
G02*
X145393577Y-102272970I53033J53033D01*
G01*
X146418881Y-101247666D01*
G75*
G02*
X146524947Y-101247666I53033J-53033D01*
G01*
X146631013Y-101353732D01*
G75*
G02*
X146631013Y-101459798I-53033J-53033D01*
G01*
X145605709Y-102485102D01*
G75*
G02*
X145499643Y-102485102I-53033J53033D01*
G01*
G37*
G36*
G01*
X145853197Y-102838656D02*
X145747131Y-102732590D01*
G75*
G02*
X145747131Y-102626524I53033J53033D01*
G01*
X146772435Y-101601220D01*
G75*
G02*
X146878501Y-101601220I53033J-53033D01*
G01*
X146984567Y-101707286D01*
G75*
G02*
X146984567Y-101813352I-53033J-53033D01*
G01*
X145959263Y-102838656D01*
G75*
G02*
X145853197Y-102838656I-53033J53033D01*
G01*
G37*
G36*
G01*
X146206750Y-103192209D02*
X146100684Y-103086143D01*
G75*
G02*
X146100684Y-102980077I53033J53033D01*
G01*
X147125988Y-101954773D01*
G75*
G02*
X147232054Y-101954773I53033J-53033D01*
G01*
X147338120Y-102060839D01*
G75*
G02*
X147338120Y-102166905I-53033J-53033D01*
G01*
X146312816Y-103192209D01*
G75*
G02*
X146206750Y-103192209I-53033J53033D01*
G01*
G37*
G36*
G01*
X146560303Y-103545763D02*
X146454237Y-103439697D01*
G75*
G02*
X146454237Y-103333631I53033J53033D01*
G01*
X147479541Y-102308327D01*
G75*
G02*
X147585607Y-102308327I53033J-53033D01*
G01*
X147691673Y-102414393D01*
G75*
G02*
X147691673Y-102520459I-53033J-53033D01*
G01*
X146666369Y-103545763D01*
G75*
G02*
X146560303Y-103545763I-53033J53033D01*
G01*
G37*
G36*
G01*
X146913857Y-103899316D02*
X146807791Y-103793250D01*
G75*
G02*
X146807791Y-103687184I53033J53033D01*
G01*
X147833095Y-102661880D01*
G75*
G02*
X147939161Y-102661880I53033J-53033D01*
G01*
X148045227Y-102767946D01*
G75*
G02*
X148045227Y-102874012I-53033J-53033D01*
G01*
X147019923Y-103899316D01*
G75*
G02*
X146913857Y-103899316I-53033J53033D01*
G01*
G37*
G36*
G01*
X147267410Y-104252869D02*
X147161344Y-104146803D01*
G75*
G02*
X147161344Y-104040737I53033J53033D01*
G01*
X148186648Y-103015433D01*
G75*
G02*
X148292714Y-103015433I53033J-53033D01*
G01*
X148398780Y-103121499D01*
G75*
G02*
X148398780Y-103227565I-53033J-53033D01*
G01*
X147373476Y-104252869D01*
G75*
G02*
X147267410Y-104252869I-53033J53033D01*
G01*
G37*
G36*
G01*
X147620964Y-104606423D02*
X147514898Y-104500357D01*
G75*
G02*
X147514898Y-104394291I53033J53033D01*
G01*
X148540202Y-103368987D01*
G75*
G02*
X148646268Y-103368987I53033J-53033D01*
G01*
X148752334Y-103475053D01*
G75*
G02*
X148752334Y-103581119I-53033J-53033D01*
G01*
X147727030Y-104606423D01*
G75*
G02*
X147620964Y-104606423I-53033J53033D01*
G01*
G37*
G36*
G01*
X147974517Y-104959976D02*
X147868451Y-104853910D01*
G75*
G02*
X147868451Y-104747844I53033J53033D01*
G01*
X148893755Y-103722540D01*
G75*
G02*
X148999821Y-103722540I53033J-53033D01*
G01*
X149105887Y-103828606D01*
G75*
G02*
X149105887Y-103934672I-53033J-53033D01*
G01*
X148080583Y-104959976D01*
G75*
G02*
X147974517Y-104959976I-53033J53033D01*
G01*
G37*
G36*
G01*
X148328070Y-105313529D02*
X148222004Y-105207463D01*
G75*
G02*
X148222004Y-105101397I53033J53033D01*
G01*
X149247308Y-104076093D01*
G75*
G02*
X149353374Y-104076093I53033J-53033D01*
G01*
X149459440Y-104182159D01*
G75*
G02*
X149459440Y-104288225I-53033J-53033D01*
G01*
X148434136Y-105313529D01*
G75*
G02*
X148328070Y-105313529I-53033J53033D01*
G01*
G37*
G36*
G01*
X148681624Y-105667083D02*
X148575558Y-105561017D01*
G75*
G02*
X148575558Y-105454951I53033J53033D01*
G01*
X149600862Y-104429647D01*
G75*
G02*
X149706928Y-104429647I53033J-53033D01*
G01*
X149812994Y-104535713D01*
G75*
G02*
X149812994Y-104641779I-53033J-53033D01*
G01*
X148787690Y-105667083D01*
G75*
G02*
X148681624Y-105667083I-53033J53033D01*
G01*
G37*
G36*
G01*
X149035177Y-106020636D02*
X148929111Y-105914570D01*
G75*
G02*
X148929111Y-105808504I53033J53033D01*
G01*
X149954415Y-104783200D01*
G75*
G02*
X150060481Y-104783200I53033J-53033D01*
G01*
X150166547Y-104889266D01*
G75*
G02*
X150166547Y-104995332I-53033J-53033D01*
G01*
X149141243Y-106020636D01*
G75*
G02*
X149035177Y-106020636I-53033J53033D01*
G01*
G37*
G36*
G01*
X149388731Y-106374190D02*
X149282665Y-106268124D01*
G75*
G02*
X149282665Y-106162058I53033J53033D01*
G01*
X150307969Y-105136754D01*
G75*
G02*
X150414035Y-105136754I53033J-53033D01*
G01*
X150520101Y-105242820D01*
G75*
G02*
X150520101Y-105348886I-53033J-53033D01*
G01*
X149494797Y-106374190D01*
G75*
G02*
X149388731Y-106374190I-53033J53033D01*
G01*
G37*
G36*
G01*
X149742284Y-106727743D02*
X149636218Y-106621677D01*
G75*
G02*
X149636218Y-106515611I53033J53033D01*
G01*
X150661522Y-105490307D01*
G75*
G02*
X150767588Y-105490307I53033J-53033D01*
G01*
X150873654Y-105596373D01*
G75*
G02*
X150873654Y-105702439I-53033J-53033D01*
G01*
X149848350Y-106727743D01*
G75*
G02*
X149742284Y-106727743I-53033J53033D01*
G01*
G37*
G36*
G01*
X150095837Y-107081296D02*
X149989771Y-106975230D01*
G75*
G02*
X149989771Y-106869164I53033J53033D01*
G01*
X151015075Y-105843860D01*
G75*
G02*
X151121141Y-105843860I53033J-53033D01*
G01*
X151227207Y-105949926D01*
G75*
G02*
X151227207Y-106055992I-53033J-53033D01*
G01*
X150201903Y-107081296D01*
G75*
G02*
X150095837Y-107081296I-53033J53033D01*
G01*
G37*
G36*
G01*
X150449391Y-107434850D02*
X150343325Y-107328784D01*
G75*
G02*
X150343325Y-107222718I53033J53033D01*
G01*
X151368629Y-106197414D01*
G75*
G02*
X151474695Y-106197414I53033J-53033D01*
G01*
X151580761Y-106303480D01*
G75*
G02*
X151580761Y-106409546I-53033J-53033D01*
G01*
X150555457Y-107434850D01*
G75*
G02*
X150449391Y-107434850I-53033J53033D01*
G01*
G37*
G36*
G01*
X150802944Y-107788403D02*
X150696878Y-107682337D01*
G75*
G02*
X150696878Y-107576271I53033J53033D01*
G01*
X151722182Y-106550967D01*
G75*
G02*
X151828248Y-106550967I53033J-53033D01*
G01*
X151934314Y-106657033D01*
G75*
G02*
X151934314Y-106763099I-53033J-53033D01*
G01*
X150909010Y-107788403D01*
G75*
G02*
X150802944Y-107788403I-53033J53033D01*
G01*
G37*
G36*
G01*
X154090990Y-107788403D02*
X153065686Y-106763099D01*
G75*
G02*
X153065686Y-106657033I53033J53033D01*
G01*
X153171752Y-106550967D01*
G75*
G02*
X153277818Y-106550967I53033J-53033D01*
G01*
X154303122Y-107576271D01*
G75*
G02*
X154303122Y-107682337I-53033J-53033D01*
G01*
X154197056Y-107788403D01*
G75*
G02*
X154090990Y-107788403I-53033J53033D01*
G01*
G37*
G36*
G01*
X154444543Y-107434850D02*
X153419239Y-106409546D01*
G75*
G02*
X153419239Y-106303480I53033J53033D01*
G01*
X153525305Y-106197414D01*
G75*
G02*
X153631371Y-106197414I53033J-53033D01*
G01*
X154656675Y-107222718D01*
G75*
G02*
X154656675Y-107328784I-53033J-53033D01*
G01*
X154550609Y-107434850D01*
G75*
G02*
X154444543Y-107434850I-53033J53033D01*
G01*
G37*
G36*
G01*
X154798097Y-107081296D02*
X153772793Y-106055992D01*
G75*
G02*
X153772793Y-105949926I53033J53033D01*
G01*
X153878859Y-105843860D01*
G75*
G02*
X153984925Y-105843860I53033J-53033D01*
G01*
X155010229Y-106869164D01*
G75*
G02*
X155010229Y-106975230I-53033J-53033D01*
G01*
X154904163Y-107081296D01*
G75*
G02*
X154798097Y-107081296I-53033J53033D01*
G01*
G37*
G36*
G01*
X155151650Y-106727743D02*
X154126346Y-105702439D01*
G75*
G02*
X154126346Y-105596373I53033J53033D01*
G01*
X154232412Y-105490307D01*
G75*
G02*
X154338478Y-105490307I53033J-53033D01*
G01*
X155363782Y-106515611D01*
G75*
G02*
X155363782Y-106621677I-53033J-53033D01*
G01*
X155257716Y-106727743D01*
G75*
G02*
X155151650Y-106727743I-53033J53033D01*
G01*
G37*
G36*
G01*
X155505203Y-106374190D02*
X154479899Y-105348886D01*
G75*
G02*
X154479899Y-105242820I53033J53033D01*
G01*
X154585965Y-105136754D01*
G75*
G02*
X154692031Y-105136754I53033J-53033D01*
G01*
X155717335Y-106162058D01*
G75*
G02*
X155717335Y-106268124I-53033J-53033D01*
G01*
X155611269Y-106374190D01*
G75*
G02*
X155505203Y-106374190I-53033J53033D01*
G01*
G37*
G36*
G01*
X155858757Y-106020636D02*
X154833453Y-104995332D01*
G75*
G02*
X154833453Y-104889266I53033J53033D01*
G01*
X154939519Y-104783200D01*
G75*
G02*
X155045585Y-104783200I53033J-53033D01*
G01*
X156070889Y-105808504D01*
G75*
G02*
X156070889Y-105914570I-53033J-53033D01*
G01*
X155964823Y-106020636D01*
G75*
G02*
X155858757Y-106020636I-53033J53033D01*
G01*
G37*
G36*
G01*
X156212310Y-105667083D02*
X155187006Y-104641779D01*
G75*
G02*
X155187006Y-104535713I53033J53033D01*
G01*
X155293072Y-104429647D01*
G75*
G02*
X155399138Y-104429647I53033J-53033D01*
G01*
X156424442Y-105454951D01*
G75*
G02*
X156424442Y-105561017I-53033J-53033D01*
G01*
X156318376Y-105667083D01*
G75*
G02*
X156212310Y-105667083I-53033J53033D01*
G01*
G37*
G36*
G01*
X156565864Y-105313529D02*
X155540560Y-104288225D01*
G75*
G02*
X155540560Y-104182159I53033J53033D01*
G01*
X155646626Y-104076093D01*
G75*
G02*
X155752692Y-104076093I53033J-53033D01*
G01*
X156777996Y-105101397D01*
G75*
G02*
X156777996Y-105207463I-53033J-53033D01*
G01*
X156671930Y-105313529D01*
G75*
G02*
X156565864Y-105313529I-53033J53033D01*
G01*
G37*
G36*
G01*
X156919417Y-104959976D02*
X155894113Y-103934672D01*
G75*
G02*
X155894113Y-103828606I53033J53033D01*
G01*
X156000179Y-103722540D01*
G75*
G02*
X156106245Y-103722540I53033J-53033D01*
G01*
X157131549Y-104747844D01*
G75*
G02*
X157131549Y-104853910I-53033J-53033D01*
G01*
X157025483Y-104959976D01*
G75*
G02*
X156919417Y-104959976I-53033J53033D01*
G01*
G37*
G36*
G01*
X157272970Y-104606423D02*
X156247666Y-103581119D01*
G75*
G02*
X156247666Y-103475053I53033J53033D01*
G01*
X156353732Y-103368987D01*
G75*
G02*
X156459798Y-103368987I53033J-53033D01*
G01*
X157485102Y-104394291D01*
G75*
G02*
X157485102Y-104500357I-53033J-53033D01*
G01*
X157379036Y-104606423D01*
G75*
G02*
X157272970Y-104606423I-53033J53033D01*
G01*
G37*
G36*
G01*
X157626524Y-104252869D02*
X156601220Y-103227565D01*
G75*
G02*
X156601220Y-103121499I53033J53033D01*
G01*
X156707286Y-103015433D01*
G75*
G02*
X156813352Y-103015433I53033J-53033D01*
G01*
X157838656Y-104040737D01*
G75*
G02*
X157838656Y-104146803I-53033J-53033D01*
G01*
X157732590Y-104252869D01*
G75*
G02*
X157626524Y-104252869I-53033J53033D01*
G01*
G37*
G36*
G01*
X157980077Y-103899316D02*
X156954773Y-102874012D01*
G75*
G02*
X156954773Y-102767946I53033J53033D01*
G01*
X157060839Y-102661880D01*
G75*
G02*
X157166905Y-102661880I53033J-53033D01*
G01*
X158192209Y-103687184D01*
G75*
G02*
X158192209Y-103793250I-53033J-53033D01*
G01*
X158086143Y-103899316D01*
G75*
G02*
X157980077Y-103899316I-53033J53033D01*
G01*
G37*
G36*
G01*
X158333631Y-103545763D02*
X157308327Y-102520459D01*
G75*
G02*
X157308327Y-102414393I53033J53033D01*
G01*
X157414393Y-102308327D01*
G75*
G02*
X157520459Y-102308327I53033J-53033D01*
G01*
X158545763Y-103333631D01*
G75*
G02*
X158545763Y-103439697I-53033J-53033D01*
G01*
X158439697Y-103545763D01*
G75*
G02*
X158333631Y-103545763I-53033J53033D01*
G01*
G37*
G36*
G01*
X158687184Y-103192209D02*
X157661880Y-102166905D01*
G75*
G02*
X157661880Y-102060839I53033J53033D01*
G01*
X157767946Y-101954773D01*
G75*
G02*
X157874012Y-101954773I53033J-53033D01*
G01*
X158899316Y-102980077D01*
G75*
G02*
X158899316Y-103086143I-53033J-53033D01*
G01*
X158793250Y-103192209D01*
G75*
G02*
X158687184Y-103192209I-53033J53033D01*
G01*
G37*
G36*
G01*
X159040737Y-102838656D02*
X158015433Y-101813352D01*
G75*
G02*
X158015433Y-101707286I53033J53033D01*
G01*
X158121499Y-101601220D01*
G75*
G02*
X158227565Y-101601220I53033J-53033D01*
G01*
X159252869Y-102626524D01*
G75*
G02*
X159252869Y-102732590I-53033J-53033D01*
G01*
X159146803Y-102838656D01*
G75*
G02*
X159040737Y-102838656I-53033J53033D01*
G01*
G37*
G36*
G01*
X159394291Y-102485102D02*
X158368987Y-101459798D01*
G75*
G02*
X158368987Y-101353732I53033J53033D01*
G01*
X158475053Y-101247666D01*
G75*
G02*
X158581119Y-101247666I53033J-53033D01*
G01*
X159606423Y-102272970D01*
G75*
G02*
X159606423Y-102379036I-53033J-53033D01*
G01*
X159500357Y-102485102D01*
G75*
G02*
X159394291Y-102485102I-53033J53033D01*
G01*
G37*
G36*
G01*
X159747844Y-102131549D02*
X158722540Y-101106245D01*
G75*
G02*
X158722540Y-101000179I53033J53033D01*
G01*
X158828606Y-100894113D01*
G75*
G02*
X158934672Y-100894113I53033J-53033D01*
G01*
X159959976Y-101919417D01*
G75*
G02*
X159959976Y-102025483I-53033J-53033D01*
G01*
X159853910Y-102131549D01*
G75*
G02*
X159747844Y-102131549I-53033J53033D01*
G01*
G37*
G36*
G01*
X160101397Y-101777996D02*
X159076093Y-100752692D01*
G75*
G02*
X159076093Y-100646626I53033J53033D01*
G01*
X159182159Y-100540560D01*
G75*
G02*
X159288225Y-100540560I53033J-53033D01*
G01*
X160313529Y-101565864D01*
G75*
G02*
X160313529Y-101671930I-53033J-53033D01*
G01*
X160207463Y-101777996D01*
G75*
G02*
X160101397Y-101777996I-53033J53033D01*
G01*
G37*
G36*
G01*
X160454951Y-101424442D02*
X159429647Y-100399138D01*
G75*
G02*
X159429647Y-100293072I53033J53033D01*
G01*
X159535713Y-100187006D01*
G75*
G02*
X159641779Y-100187006I53033J-53033D01*
G01*
X160667083Y-101212310D01*
G75*
G02*
X160667083Y-101318376I-53033J-53033D01*
G01*
X160561017Y-101424442D01*
G75*
G02*
X160454951Y-101424442I-53033J53033D01*
G01*
G37*
G36*
G01*
X160808504Y-101070889D02*
X159783200Y-100045585D01*
G75*
G02*
X159783200Y-99939519I53033J53033D01*
G01*
X159889266Y-99833453D01*
G75*
G02*
X159995332Y-99833453I53033J-53033D01*
G01*
X161020636Y-100858757D01*
G75*
G02*
X161020636Y-100964823I-53033J-53033D01*
G01*
X160914570Y-101070889D01*
G75*
G02*
X160808504Y-101070889I-53033J53033D01*
G01*
G37*
G36*
G01*
X161162058Y-100717335D02*
X160136754Y-99692031D01*
G75*
G02*
X160136754Y-99585965I53033J53033D01*
G01*
X160242820Y-99479899D01*
G75*
G02*
X160348886Y-99479899I53033J-53033D01*
G01*
X161374190Y-100505203D01*
G75*
G02*
X161374190Y-100611269I-53033J-53033D01*
G01*
X161268124Y-100717335D01*
G75*
G02*
X161162058Y-100717335I-53033J53033D01*
G01*
G37*
G36*
G01*
X161515611Y-100363782D02*
X160490307Y-99338478D01*
G75*
G02*
X160490307Y-99232412I53033J53033D01*
G01*
X160596373Y-99126346D01*
G75*
G02*
X160702439Y-99126346I53033J-53033D01*
G01*
X161727743Y-100151650D01*
G75*
G02*
X161727743Y-100257716I-53033J-53033D01*
G01*
X161621677Y-100363782D01*
G75*
G02*
X161515611Y-100363782I-53033J53033D01*
G01*
G37*
G36*
G01*
X161869164Y-100010229D02*
X160843860Y-98984925D01*
G75*
G02*
X160843860Y-98878859I53033J53033D01*
G01*
X160949926Y-98772793D01*
G75*
G02*
X161055992Y-98772793I53033J-53033D01*
G01*
X162081296Y-99798097D01*
G75*
G02*
X162081296Y-99904163I-53033J-53033D01*
G01*
X161975230Y-100010229D01*
G75*
G02*
X161869164Y-100010229I-53033J53033D01*
G01*
G37*
G36*
G01*
X162222718Y-99656675D02*
X161197414Y-98631371D01*
G75*
G02*
X161197414Y-98525305I53033J53033D01*
G01*
X161303480Y-98419239D01*
G75*
G02*
X161409546Y-98419239I53033J-53033D01*
G01*
X162434850Y-99444543D01*
G75*
G02*
X162434850Y-99550609I-53033J-53033D01*
G01*
X162328784Y-99656675D01*
G75*
G02*
X162222718Y-99656675I-53033J53033D01*
G01*
G37*
G36*
G01*
X162576271Y-99303122D02*
X161550967Y-98277818D01*
G75*
G02*
X161550967Y-98171752I53033J53033D01*
G01*
X161657033Y-98065686D01*
G75*
G02*
X161763099Y-98065686I53033J-53033D01*
G01*
X162788403Y-99090990D01*
G75*
G02*
X162788403Y-99197056I-53033J-53033D01*
G01*
X162682337Y-99303122D01*
G75*
G02*
X162576271Y-99303122I-53033J53033D01*
G01*
G37*
G36*
G01*
X161657033Y-96934314D02*
X161550967Y-96828248D01*
G75*
G02*
X161550967Y-96722182I53033J53033D01*
G01*
X162576271Y-95696878D01*
G75*
G02*
X162682337Y-95696878I53033J-53033D01*
G01*
X162788403Y-95802944D01*
G75*
G02*
X162788403Y-95909010I-53033J-53033D01*
G01*
X161763099Y-96934314D01*
G75*
G02*
X161657033Y-96934314I-53033J53033D01*
G01*
G37*
G36*
G01*
X161303480Y-96580761D02*
X161197414Y-96474695D01*
G75*
G02*
X161197414Y-96368629I53033J53033D01*
G01*
X162222718Y-95343325D01*
G75*
G02*
X162328784Y-95343325I53033J-53033D01*
G01*
X162434850Y-95449391D01*
G75*
G02*
X162434850Y-95555457I-53033J-53033D01*
G01*
X161409546Y-96580761D01*
G75*
G02*
X161303480Y-96580761I-53033J53033D01*
G01*
G37*
G36*
G01*
X160949926Y-96227207D02*
X160843860Y-96121141D01*
G75*
G02*
X160843860Y-96015075I53033J53033D01*
G01*
X161869164Y-94989771D01*
G75*
G02*
X161975230Y-94989771I53033J-53033D01*
G01*
X162081296Y-95095837D01*
G75*
G02*
X162081296Y-95201903I-53033J-53033D01*
G01*
X161055992Y-96227207D01*
G75*
G02*
X160949926Y-96227207I-53033J53033D01*
G01*
G37*
G36*
G01*
X160596373Y-95873654D02*
X160490307Y-95767588D01*
G75*
G02*
X160490307Y-95661522I53033J53033D01*
G01*
X161515611Y-94636218D01*
G75*
G02*
X161621677Y-94636218I53033J-53033D01*
G01*
X161727743Y-94742284D01*
G75*
G02*
X161727743Y-94848350I-53033J-53033D01*
G01*
X160702439Y-95873654D01*
G75*
G02*
X160596373Y-95873654I-53033J53033D01*
G01*
G37*
G36*
G01*
X160242820Y-95520101D02*
X160136754Y-95414035D01*
G75*
G02*
X160136754Y-95307969I53033J53033D01*
G01*
X161162058Y-94282665D01*
G75*
G02*
X161268124Y-94282665I53033J-53033D01*
G01*
X161374190Y-94388731D01*
G75*
G02*
X161374190Y-94494797I-53033J-53033D01*
G01*
X160348886Y-95520101D01*
G75*
G02*
X160242820Y-95520101I-53033J53033D01*
G01*
G37*
G36*
G01*
X159889266Y-95166547D02*
X159783200Y-95060481D01*
G75*
G02*
X159783200Y-94954415I53033J53033D01*
G01*
X160808504Y-93929111D01*
G75*
G02*
X160914570Y-93929111I53033J-53033D01*
G01*
X161020636Y-94035177D01*
G75*
G02*
X161020636Y-94141243I-53033J-53033D01*
G01*
X159995332Y-95166547D01*
G75*
G02*
X159889266Y-95166547I-53033J53033D01*
G01*
G37*
G36*
G01*
X159535713Y-94812994D02*
X159429647Y-94706928D01*
G75*
G02*
X159429647Y-94600862I53033J53033D01*
G01*
X160454951Y-93575558D01*
G75*
G02*
X160561017Y-93575558I53033J-53033D01*
G01*
X160667083Y-93681624D01*
G75*
G02*
X160667083Y-93787690I-53033J-53033D01*
G01*
X159641779Y-94812994D01*
G75*
G02*
X159535713Y-94812994I-53033J53033D01*
G01*
G37*
G36*
G01*
X159182159Y-94459440D02*
X159076093Y-94353374D01*
G75*
G02*
X159076093Y-94247308I53033J53033D01*
G01*
X160101397Y-93222004D01*
G75*
G02*
X160207463Y-93222004I53033J-53033D01*
G01*
X160313529Y-93328070D01*
G75*
G02*
X160313529Y-93434136I-53033J-53033D01*
G01*
X159288225Y-94459440D01*
G75*
G02*
X159182159Y-94459440I-53033J53033D01*
G01*
G37*
G36*
G01*
X158828606Y-94105887D02*
X158722540Y-93999821D01*
G75*
G02*
X158722540Y-93893755I53033J53033D01*
G01*
X159747844Y-92868451D01*
G75*
G02*
X159853910Y-92868451I53033J-53033D01*
G01*
X159959976Y-92974517D01*
G75*
G02*
X159959976Y-93080583I-53033J-53033D01*
G01*
X158934672Y-94105887D01*
G75*
G02*
X158828606Y-94105887I-53033J53033D01*
G01*
G37*
G36*
G01*
X158475053Y-93752334D02*
X158368987Y-93646268D01*
G75*
G02*
X158368987Y-93540202I53033J53033D01*
G01*
X159394291Y-92514898D01*
G75*
G02*
X159500357Y-92514898I53033J-53033D01*
G01*
X159606423Y-92620964D01*
G75*
G02*
X159606423Y-92727030I-53033J-53033D01*
G01*
X158581119Y-93752334D01*
G75*
G02*
X158475053Y-93752334I-53033J53033D01*
G01*
G37*
G36*
G01*
X158121499Y-93398780D02*
X158015433Y-93292714D01*
G75*
G02*
X158015433Y-93186648I53033J53033D01*
G01*
X159040737Y-92161344D01*
G75*
G02*
X159146803Y-92161344I53033J-53033D01*
G01*
X159252869Y-92267410D01*
G75*
G02*
X159252869Y-92373476I-53033J-53033D01*
G01*
X158227565Y-93398780D01*
G75*
G02*
X158121499Y-93398780I-53033J53033D01*
G01*
G37*
G36*
G01*
X157767946Y-93045227D02*
X157661880Y-92939161D01*
G75*
G02*
X157661880Y-92833095I53033J53033D01*
G01*
X158687184Y-91807791D01*
G75*
G02*
X158793250Y-91807791I53033J-53033D01*
G01*
X158899316Y-91913857D01*
G75*
G02*
X158899316Y-92019923I-53033J-53033D01*
G01*
X157874012Y-93045227D01*
G75*
G02*
X157767946Y-93045227I-53033J53033D01*
G01*
G37*
G36*
G01*
X157414393Y-92691673D02*
X157308327Y-92585607D01*
G75*
G02*
X157308327Y-92479541I53033J53033D01*
G01*
X158333631Y-91454237D01*
G75*
G02*
X158439697Y-91454237I53033J-53033D01*
G01*
X158545763Y-91560303D01*
G75*
G02*
X158545763Y-91666369I-53033J-53033D01*
G01*
X157520459Y-92691673D01*
G75*
G02*
X157414393Y-92691673I-53033J53033D01*
G01*
G37*
G36*
G01*
X157060839Y-92338120D02*
X156954773Y-92232054D01*
G75*
G02*
X156954773Y-92125988I53033J53033D01*
G01*
X157980077Y-91100684D01*
G75*
G02*
X158086143Y-91100684I53033J-53033D01*
G01*
X158192209Y-91206750D01*
G75*
G02*
X158192209Y-91312816I-53033J-53033D01*
G01*
X157166905Y-92338120D01*
G75*
G02*
X157060839Y-92338120I-53033J53033D01*
G01*
G37*
G36*
G01*
X156707286Y-91984567D02*
X156601220Y-91878501D01*
G75*
G02*
X156601220Y-91772435I53033J53033D01*
G01*
X157626524Y-90747131D01*
G75*
G02*
X157732590Y-90747131I53033J-53033D01*
G01*
X157838656Y-90853197D01*
G75*
G02*
X157838656Y-90959263I-53033J-53033D01*
G01*
X156813352Y-91984567D01*
G75*
G02*
X156707286Y-91984567I-53033J53033D01*
G01*
G37*
G36*
G01*
X156353732Y-91631013D02*
X156247666Y-91524947D01*
G75*
G02*
X156247666Y-91418881I53033J53033D01*
G01*
X157272970Y-90393577D01*
G75*
G02*
X157379036Y-90393577I53033J-53033D01*
G01*
X157485102Y-90499643D01*
G75*
G02*
X157485102Y-90605709I-53033J-53033D01*
G01*
X156459798Y-91631013D01*
G75*
G02*
X156353732Y-91631013I-53033J53033D01*
G01*
G37*
G36*
G01*
X156000179Y-91277460D02*
X155894113Y-91171394D01*
G75*
G02*
X155894113Y-91065328I53033J53033D01*
G01*
X156919417Y-90040024D01*
G75*
G02*
X157025483Y-90040024I53033J-53033D01*
G01*
X157131549Y-90146090D01*
G75*
G02*
X157131549Y-90252156I-53033J-53033D01*
G01*
X156106245Y-91277460D01*
G75*
G02*
X156000179Y-91277460I-53033J53033D01*
G01*
G37*
G36*
G01*
X155646626Y-90923907D02*
X155540560Y-90817841D01*
G75*
G02*
X155540560Y-90711775I53033J53033D01*
G01*
X156565864Y-89686471D01*
G75*
G02*
X156671930Y-89686471I53033J-53033D01*
G01*
X156777996Y-89792537D01*
G75*
G02*
X156777996Y-89898603I-53033J-53033D01*
G01*
X155752692Y-90923907D01*
G75*
G02*
X155646626Y-90923907I-53033J53033D01*
G01*
G37*
G36*
G01*
X155293072Y-90570353D02*
X155187006Y-90464287D01*
G75*
G02*
X155187006Y-90358221I53033J53033D01*
G01*
X156212310Y-89332917D01*
G75*
G02*
X156318376Y-89332917I53033J-53033D01*
G01*
X156424442Y-89438983D01*
G75*
G02*
X156424442Y-89545049I-53033J-53033D01*
G01*
X155399138Y-90570353D01*
G75*
G02*
X155293072Y-90570353I-53033J53033D01*
G01*
G37*
G36*
G01*
X154939519Y-90216800D02*
X154833453Y-90110734D01*
G75*
G02*
X154833453Y-90004668I53033J53033D01*
G01*
X155858757Y-88979364D01*
G75*
G02*
X155964823Y-88979364I53033J-53033D01*
G01*
X156070889Y-89085430D01*
G75*
G02*
X156070889Y-89191496I-53033J-53033D01*
G01*
X155045585Y-90216800D01*
G75*
G02*
X154939519Y-90216800I-53033J53033D01*
G01*
G37*
G36*
G01*
X154585965Y-89863246D02*
X154479899Y-89757180D01*
G75*
G02*
X154479899Y-89651114I53033J53033D01*
G01*
X155505203Y-88625810D01*
G75*
G02*
X155611269Y-88625810I53033J-53033D01*
G01*
X155717335Y-88731876D01*
G75*
G02*
X155717335Y-88837942I-53033J-53033D01*
G01*
X154692031Y-89863246D01*
G75*
G02*
X154585965Y-89863246I-53033J53033D01*
G01*
G37*
G36*
G01*
X154232412Y-89509693D02*
X154126346Y-89403627D01*
G75*
G02*
X154126346Y-89297561I53033J53033D01*
G01*
X155151650Y-88272257D01*
G75*
G02*
X155257716Y-88272257I53033J-53033D01*
G01*
X155363782Y-88378323D01*
G75*
G02*
X155363782Y-88484389I-53033J-53033D01*
G01*
X154338478Y-89509693D01*
G75*
G02*
X154232412Y-89509693I-53033J53033D01*
G01*
G37*
G36*
G01*
X153878859Y-89156140D02*
X153772793Y-89050074D01*
G75*
G02*
X153772793Y-88944008I53033J53033D01*
G01*
X154798097Y-87918704D01*
G75*
G02*
X154904163Y-87918704I53033J-53033D01*
G01*
X155010229Y-88024770D01*
G75*
G02*
X155010229Y-88130836I-53033J-53033D01*
G01*
X153984925Y-89156140D01*
G75*
G02*
X153878859Y-89156140I-53033J53033D01*
G01*
G37*
G36*
G01*
X153525305Y-88802586D02*
X153419239Y-88696520D01*
G75*
G02*
X153419239Y-88590454I53033J53033D01*
G01*
X154444543Y-87565150D01*
G75*
G02*
X154550609Y-87565150I53033J-53033D01*
G01*
X154656675Y-87671216D01*
G75*
G02*
X154656675Y-87777282I-53033J-53033D01*
G01*
X153631371Y-88802586D01*
G75*
G02*
X153525305Y-88802586I-53033J53033D01*
G01*
G37*
G36*
G01*
X153171752Y-88449033D02*
X153065686Y-88342967D01*
G75*
G02*
X153065686Y-88236901I53033J53033D01*
G01*
X154090990Y-87211597D01*
G75*
G02*
X154197056Y-87211597I53033J-53033D01*
G01*
X154303122Y-87317663D01*
G75*
G02*
X154303122Y-87423729I-53033J-53033D01*
G01*
X153277818Y-88449033D01*
G75*
G02*
X153171752Y-88449033I-53033J53033D01*
G01*
G37*
G36*
G01*
X151722182Y-88449033D02*
X150696878Y-87423729D01*
G75*
G02*
X150696878Y-87317663I53033J53033D01*
G01*
X150802944Y-87211597D01*
G75*
G02*
X150909010Y-87211597I53033J-53033D01*
G01*
X151934314Y-88236901D01*
G75*
G02*
X151934314Y-88342967I-53033J-53033D01*
G01*
X151828248Y-88449033D01*
G75*
G02*
X151722182Y-88449033I-53033J53033D01*
G01*
G37*
G36*
G01*
X151368629Y-88802586D02*
X150343325Y-87777282D01*
G75*
G02*
X150343325Y-87671216I53033J53033D01*
G01*
X150449391Y-87565150D01*
G75*
G02*
X150555457Y-87565150I53033J-53033D01*
G01*
X151580761Y-88590454D01*
G75*
G02*
X151580761Y-88696520I-53033J-53033D01*
G01*
X151474695Y-88802586D01*
G75*
G02*
X151368629Y-88802586I-53033J53033D01*
G01*
G37*
G36*
G01*
X151015075Y-89156140D02*
X149989771Y-88130836D01*
G75*
G02*
X149989771Y-88024770I53033J53033D01*
G01*
X150095837Y-87918704D01*
G75*
G02*
X150201903Y-87918704I53033J-53033D01*
G01*
X151227207Y-88944008D01*
G75*
G02*
X151227207Y-89050074I-53033J-53033D01*
G01*
X151121141Y-89156140D01*
G75*
G02*
X151015075Y-89156140I-53033J53033D01*
G01*
G37*
G36*
G01*
X150661522Y-89509693D02*
X149636218Y-88484389D01*
G75*
G02*
X149636218Y-88378323I53033J53033D01*
G01*
X149742284Y-88272257D01*
G75*
G02*
X149848350Y-88272257I53033J-53033D01*
G01*
X150873654Y-89297561D01*
G75*
G02*
X150873654Y-89403627I-53033J-53033D01*
G01*
X150767588Y-89509693D01*
G75*
G02*
X150661522Y-89509693I-53033J53033D01*
G01*
G37*
G36*
G01*
X150307969Y-89863246D02*
X149282665Y-88837942D01*
G75*
G02*
X149282665Y-88731876I53033J53033D01*
G01*
X149388731Y-88625810D01*
G75*
G02*
X149494797Y-88625810I53033J-53033D01*
G01*
X150520101Y-89651114D01*
G75*
G02*
X150520101Y-89757180I-53033J-53033D01*
G01*
X150414035Y-89863246D01*
G75*
G02*
X150307969Y-89863246I-53033J53033D01*
G01*
G37*
G36*
G01*
X149954415Y-90216800D02*
X148929111Y-89191496D01*
G75*
G02*
X148929111Y-89085430I53033J53033D01*
G01*
X149035177Y-88979364D01*
G75*
G02*
X149141243Y-88979364I53033J-53033D01*
G01*
X150166547Y-90004668D01*
G75*
G02*
X150166547Y-90110734I-53033J-53033D01*
G01*
X150060481Y-90216800D01*
G75*
G02*
X149954415Y-90216800I-53033J53033D01*
G01*
G37*
G36*
G01*
X149600862Y-90570353D02*
X148575558Y-89545049D01*
G75*
G02*
X148575558Y-89438983I53033J53033D01*
G01*
X148681624Y-89332917D01*
G75*
G02*
X148787690Y-89332917I53033J-53033D01*
G01*
X149812994Y-90358221D01*
G75*
G02*
X149812994Y-90464287I-53033J-53033D01*
G01*
X149706928Y-90570353D01*
G75*
G02*
X149600862Y-90570353I-53033J53033D01*
G01*
G37*
G36*
G01*
X149247308Y-90923907D02*
X148222004Y-89898603D01*
G75*
G02*
X148222004Y-89792537I53033J53033D01*
G01*
X148328070Y-89686471D01*
G75*
G02*
X148434136Y-89686471I53033J-53033D01*
G01*
X149459440Y-90711775D01*
G75*
G02*
X149459440Y-90817841I-53033J-53033D01*
G01*
X149353374Y-90923907D01*
G75*
G02*
X149247308Y-90923907I-53033J53033D01*
G01*
G37*
G36*
G01*
X148893755Y-91277460D02*
X147868451Y-90252156D01*
G75*
G02*
X147868451Y-90146090I53033J53033D01*
G01*
X147974517Y-90040024D01*
G75*
G02*
X148080583Y-90040024I53033J-53033D01*
G01*
X149105887Y-91065328D01*
G75*
G02*
X149105887Y-91171394I-53033J-53033D01*
G01*
X148999821Y-91277460D01*
G75*
G02*
X148893755Y-91277460I-53033J53033D01*
G01*
G37*
G36*
G01*
X148540202Y-91631013D02*
X147514898Y-90605709D01*
G75*
G02*
X147514898Y-90499643I53033J53033D01*
G01*
X147620964Y-90393577D01*
G75*
G02*
X147727030Y-90393577I53033J-53033D01*
G01*
X148752334Y-91418881D01*
G75*
G02*
X148752334Y-91524947I-53033J-53033D01*
G01*
X148646268Y-91631013D01*
G75*
G02*
X148540202Y-91631013I-53033J53033D01*
G01*
G37*
G36*
G01*
X148186648Y-91984567D02*
X147161344Y-90959263D01*
G75*
G02*
X147161344Y-90853197I53033J53033D01*
G01*
X147267410Y-90747131D01*
G75*
G02*
X147373476Y-90747131I53033J-53033D01*
G01*
X148398780Y-91772435D01*
G75*
G02*
X148398780Y-91878501I-53033J-53033D01*
G01*
X148292714Y-91984567D01*
G75*
G02*
X148186648Y-91984567I-53033J53033D01*
G01*
G37*
G36*
G01*
X147833095Y-92338120D02*
X146807791Y-91312816D01*
G75*
G02*
X146807791Y-91206750I53033J53033D01*
G01*
X146913857Y-91100684D01*
G75*
G02*
X147019923Y-91100684I53033J-53033D01*
G01*
X148045227Y-92125988D01*
G75*
G02*
X148045227Y-92232054I-53033J-53033D01*
G01*
X147939161Y-92338120D01*
G75*
G02*
X147833095Y-92338120I-53033J53033D01*
G01*
G37*
G36*
G01*
X147479541Y-92691673D02*
X146454237Y-91666369D01*
G75*
G02*
X146454237Y-91560303I53033J53033D01*
G01*
X146560303Y-91454237D01*
G75*
G02*
X146666369Y-91454237I53033J-53033D01*
G01*
X147691673Y-92479541D01*
G75*
G02*
X147691673Y-92585607I-53033J-53033D01*
G01*
X147585607Y-92691673D01*
G75*
G02*
X147479541Y-92691673I-53033J53033D01*
G01*
G37*
G36*
G01*
X147125988Y-93045227D02*
X146100684Y-92019923D01*
G75*
G02*
X146100684Y-91913857I53033J53033D01*
G01*
X146206750Y-91807791D01*
G75*
G02*
X146312816Y-91807791I53033J-53033D01*
G01*
X147338120Y-92833095D01*
G75*
G02*
X147338120Y-92939161I-53033J-53033D01*
G01*
X147232054Y-93045227D01*
G75*
G02*
X147125988Y-93045227I-53033J53033D01*
G01*
G37*
G36*
G01*
X146772435Y-93398780D02*
X145747131Y-92373476D01*
G75*
G02*
X145747131Y-92267410I53033J53033D01*
G01*
X145853197Y-92161344D01*
G75*
G02*
X145959263Y-92161344I53033J-53033D01*
G01*
X146984567Y-93186648D01*
G75*
G02*
X146984567Y-93292714I-53033J-53033D01*
G01*
X146878501Y-93398780D01*
G75*
G02*
X146772435Y-93398780I-53033J53033D01*
G01*
G37*
G36*
G01*
X146418881Y-93752334D02*
X145393577Y-92727030D01*
G75*
G02*
X145393577Y-92620964I53033J53033D01*
G01*
X145499643Y-92514898D01*
G75*
G02*
X145605709Y-92514898I53033J-53033D01*
G01*
X146631013Y-93540202D01*
G75*
G02*
X146631013Y-93646268I-53033J-53033D01*
G01*
X146524947Y-93752334D01*
G75*
G02*
X146418881Y-93752334I-53033J53033D01*
G01*
G37*
G36*
G01*
X146065328Y-94105887D02*
X145040024Y-93080583D01*
G75*
G02*
X145040024Y-92974517I53033J53033D01*
G01*
X145146090Y-92868451D01*
G75*
G02*
X145252156Y-92868451I53033J-53033D01*
G01*
X146277460Y-93893755D01*
G75*
G02*
X146277460Y-93999821I-53033J-53033D01*
G01*
X146171394Y-94105887D01*
G75*
G02*
X146065328Y-94105887I-53033J53033D01*
G01*
G37*
G36*
G01*
X145711775Y-94459440D02*
X144686471Y-93434136D01*
G75*
G02*
X144686471Y-93328070I53033J53033D01*
G01*
X144792537Y-93222004D01*
G75*
G02*
X144898603Y-93222004I53033J-53033D01*
G01*
X145923907Y-94247308D01*
G75*
G02*
X145923907Y-94353374I-53033J-53033D01*
G01*
X145817841Y-94459440D01*
G75*
G02*
X145711775Y-94459440I-53033J53033D01*
G01*
G37*
G36*
G01*
X145358221Y-94812994D02*
X144332917Y-93787690D01*
G75*
G02*
X144332917Y-93681624I53033J53033D01*
G01*
X144438983Y-93575558D01*
G75*
G02*
X144545049Y-93575558I53033J-53033D01*
G01*
X145570353Y-94600862D01*
G75*
G02*
X145570353Y-94706928I-53033J-53033D01*
G01*
X145464287Y-94812994D01*
G75*
G02*
X145358221Y-94812994I-53033J53033D01*
G01*
G37*
G36*
G01*
X145004668Y-95166547D02*
X143979364Y-94141243D01*
G75*
G02*
X143979364Y-94035177I53033J53033D01*
G01*
X144085430Y-93929111D01*
G75*
G02*
X144191496Y-93929111I53033J-53033D01*
G01*
X145216800Y-94954415D01*
G75*
G02*
X145216800Y-95060481I-53033J-53033D01*
G01*
X145110734Y-95166547D01*
G75*
G02*
X145004668Y-95166547I-53033J53033D01*
G01*
G37*
G36*
G01*
X144651114Y-95520101D02*
X143625810Y-94494797D01*
G75*
G02*
X143625810Y-94388731I53033J53033D01*
G01*
X143731876Y-94282665D01*
G75*
G02*
X143837942Y-94282665I53033J-53033D01*
G01*
X144863246Y-95307969D01*
G75*
G02*
X144863246Y-95414035I-53033J-53033D01*
G01*
X144757180Y-95520101D01*
G75*
G02*
X144651114Y-95520101I-53033J53033D01*
G01*
G37*
G36*
G01*
X144297561Y-95873654D02*
X143272257Y-94848350D01*
G75*
G02*
X143272257Y-94742284I53033J53033D01*
G01*
X143378323Y-94636218D01*
G75*
G02*
X143484389Y-94636218I53033J-53033D01*
G01*
X144509693Y-95661522D01*
G75*
G02*
X144509693Y-95767588I-53033J-53033D01*
G01*
X144403627Y-95873654D01*
G75*
G02*
X144297561Y-95873654I-53033J53033D01*
G01*
G37*
G36*
G01*
X143944008Y-96227207D02*
X142918704Y-95201903D01*
G75*
G02*
X142918704Y-95095837I53033J53033D01*
G01*
X143024770Y-94989771D01*
G75*
G02*
X143130836Y-94989771I53033J-53033D01*
G01*
X144156140Y-96015075D01*
G75*
G02*
X144156140Y-96121141I-53033J-53033D01*
G01*
X144050074Y-96227207D01*
G75*
G02*
X143944008Y-96227207I-53033J53033D01*
G01*
G37*
G36*
G01*
X143590454Y-96580761D02*
X142565150Y-95555457D01*
G75*
G02*
X142565150Y-95449391I53033J53033D01*
G01*
X142671216Y-95343325D01*
G75*
G02*
X142777282Y-95343325I53033J-53033D01*
G01*
X143802586Y-96368629D01*
G75*
G02*
X143802586Y-96474695I-53033J-53033D01*
G01*
X143696520Y-96580761D01*
G75*
G02*
X143590454Y-96580761I-53033J53033D01*
G01*
G37*
G36*
G01*
X143236901Y-96934314D02*
X142211597Y-95909010D01*
G75*
G02*
X142211597Y-95802944I53033J53033D01*
G01*
X142317663Y-95696878D01*
G75*
G02*
X142423729Y-95696878I53033J-53033D01*
G01*
X143449033Y-96722182D01*
G75*
G02*
X143449033Y-96828248I-53033J-53033D01*
G01*
X143342967Y-96934314D01*
G75*
G02*
X143236901Y-96934314I-53033J53033D01*
G01*
G37*
%TD*%
D22*
%TO.C,U2*%
X117950000Y-77375000D03*
X113450000Y-77375000D03*
X114950000Y-77375000D03*
X116450000Y-77375000D03*
X119450000Y-77375000D03*
X120950000Y-77375000D03*
X122450000Y-77375000D03*
X123950000Y-77375000D03*
D23*
X125050000Y-75875000D03*
X125050000Y-74375000D03*
X125050000Y-72875000D03*
X125050000Y-71375000D03*
X125050000Y-69875000D03*
X125050000Y-68375000D03*
X125050000Y-66875000D03*
X125050000Y-65375000D03*
X125050000Y-63875000D03*
X125050000Y-62375000D03*
X125050000Y-60875000D03*
X125050000Y-59375000D03*
X125050000Y-57875000D03*
X112350000Y-57875000D03*
X112350000Y-59375000D03*
X112350000Y-60875000D03*
X112350000Y-62375000D03*
X112350000Y-63875000D03*
X112350000Y-65375000D03*
X112350000Y-66875000D03*
X112350000Y-68375000D03*
X112350000Y-69875000D03*
X112350000Y-71375000D03*
X112350000Y-72875000D03*
X112350000Y-74375000D03*
X112350000Y-75875000D03*
%TD*%
D24*
%TO.C,U3*%
X166526000Y-64957000D03*
X168226000Y-64957000D03*
X169926000Y-64957000D03*
X171626000Y-64957000D03*
X173326000Y-64957000D03*
D25*
X169926000Y-55807000D03*
%TD*%
D26*
%TO.C,Y1*%
X137220000Y-107810000D03*
X140670681Y-111260681D03*
%TD*%
M02*
