%TF.GenerationSoftware,KiCad,Pcbnew,(5.1.10)-1*%
%TF.CreationDate,2021-10-14T00:36:54-03:00*%
%TF.ProjectId,3ARA_PCB,33415241-5f50-4434-922e-6b696361645f,rev?*%
%TF.SameCoordinates,Original*%
%TF.FileFunction,Copper,L2,Bot*%
%TF.FilePolarity,Positive*%
%FSLAX46Y46*%
G04 Gerber Fmt 4.6, Leading zero omitted, Abs format (unit mm)*
G04 Created by KiCad (PCBNEW (5.1.10)-1) date 2021-10-14 00:36:54*
%MOMM*%
%LPD*%
G01*
G04 APERTURE LIST*
%TA.AperFunction,ComponentPad*%
%ADD10C,1.600000*%
%TD*%
%TA.AperFunction,ComponentPad*%
%ADD11O,2.000000X2.000000*%
%TD*%
%TA.AperFunction,ComponentPad*%
%ADD12C,2.000000*%
%TD*%
%TA.AperFunction,ComponentPad*%
%ADD13R,1.600000X1.600000*%
%TD*%
%TA.AperFunction,ComponentPad*%
%ADD14C,1.700000*%
%TD*%
%TA.AperFunction,ComponentPad*%
%ADD15O,1.950000X1.700000*%
%TD*%
%TA.AperFunction,ComponentPad*%
%ADD16O,1.700000X1.700000*%
%TD*%
%TA.AperFunction,ComponentPad*%
%ADD17R,1.700000X1.700000*%
%TD*%
%TA.AperFunction,ComponentPad*%
%ADD18O,1.700000X2.000000*%
%TD*%
%TA.AperFunction,ComponentPad*%
%ADD19O,1.700000X1.950000*%
%TD*%
%TA.AperFunction,ComponentPad*%
%ADD20C,1.500000*%
%TD*%
%TA.AperFunction,ViaPad*%
%ADD21C,4.500000*%
%TD*%
%TA.AperFunction,ViaPad*%
%ADD22C,0.800000*%
%TD*%
%TA.AperFunction,ViaPad*%
%ADD23C,0.900000*%
%TD*%
%TA.AperFunction,Conductor*%
%ADD24C,0.500000*%
%TD*%
%TA.AperFunction,Conductor*%
%ADD25C,1.000000*%
%TD*%
%TA.AperFunction,Conductor*%
%ADD26C,0.250000*%
%TD*%
%TA.AperFunction,Conductor*%
%ADD27C,0.254000*%
%TD*%
%TA.AperFunction,Conductor*%
%ADD28C,0.100000*%
%TD*%
G04 APERTURE END LIST*
D10*
%TO.P,C5,2*%
%TO.N,GND*%
X163067767Y-82432233D03*
%TO.P,C5,1*%
%TO.N,Net-(C5-Pad1)*%
X161300000Y-84200000D03*
%TD*%
%TO.P,C3,2*%
%TO.N,GND*%
X170200000Y-102680000D03*
%TO.P,C3,1*%
%TO.N,Net-(C3-Pad1)*%
X167700000Y-102680000D03*
%TD*%
D11*
%TO.P,L2,2*%
%TO.N,+3V3*%
X180800000Y-52860000D03*
D12*
%TO.P,L2,1*%
%TO.N,Net-(D4-Pad1)*%
X180800000Y-68100000D03*
%TD*%
D10*
%TO.P,C21,2*%
%TO.N,GND*%
X185200000Y-74600000D03*
D13*
%TO.P,C21,1*%
%TO.N,+3V3*%
X185200000Y-71100000D03*
%TD*%
D14*
%TO.P,J1,10*%
%TO.N,N/C*%
X136960154Y-79375744D03*
%TO.P,J1,8*%
X135164102Y-81171795D03*
%TO.P,J1,6*%
%TO.N,GND*%
X133368051Y-82967846D03*
%TO.P,J1,4*%
%TO.N,/SWDIO*%
X131572000Y-84763898D03*
%TO.P,J1,2*%
%TO.N,/SWCLK*%
X129775949Y-86559949D03*
%TO.P,J1,9*%
%TO.N,N/C*%
X138756205Y-81171795D03*
%TO.P,J1,7*%
%TO.N,Net-(J1-Pad7)*%
X136960154Y-82967846D03*
%TO.P,J1,5*%
%TO.N,GND*%
X135164102Y-84763898D03*
%TO.P,J1,3*%
%TO.N,/SWO(SWIM)*%
X133368051Y-86559949D03*
%TO.P,J1,1*%
%TO.N,/NRST*%
%TA.AperFunction,ComponentPad*%
G36*
G01*
X132597305Y-88532777D02*
X131748777Y-89381305D01*
G75*
G02*
X131395223Y-89381305I-176777J176777D01*
G01*
X130546695Y-88532777D01*
G75*
G02*
X130546695Y-88179223I176777J176777D01*
G01*
X131395223Y-87330695D01*
G75*
G02*
X131748777Y-87330695I176777J-176777D01*
G01*
X132597305Y-88179223D01*
G75*
G02*
X132597305Y-88532777I-176777J-176777D01*
G01*
G37*
%TD.AperFunction*%
%TD*%
D15*
%TO.P,J7,3*%
%TO.N,+3V3*%
X109232000Y-132790000D03*
%TO.P,J7,2*%
%TO.N,GND*%
X109232000Y-130290000D03*
%TO.P,J7,1*%
%TO.N,/HALL_1*%
%TA.AperFunction,ComponentPad*%
G36*
G01*
X108507000Y-126940000D02*
X109957000Y-126940000D01*
G75*
G02*
X110207000Y-127190000I0J-250000D01*
G01*
X110207000Y-128390000D01*
G75*
G02*
X109957000Y-128640000I-250000J0D01*
G01*
X108507000Y-128640000D01*
G75*
G02*
X108257000Y-128390000I0J250000D01*
G01*
X108257000Y-127190000D01*
G75*
G02*
X108507000Y-126940000I250000J0D01*
G01*
G37*
%TD.AperFunction*%
%TD*%
%TO.P,J5,3*%
%TO.N,+3V3*%
X109232000Y-117726000D03*
%TO.P,J5,2*%
%TO.N,GND*%
X109232000Y-115226000D03*
%TO.P,J5,1*%
%TO.N,/HALL_2*%
%TA.AperFunction,ComponentPad*%
G36*
G01*
X108507000Y-111876000D02*
X109957000Y-111876000D01*
G75*
G02*
X110207000Y-112126000I0J-250000D01*
G01*
X110207000Y-113326000D01*
G75*
G02*
X109957000Y-113576000I-250000J0D01*
G01*
X108507000Y-113576000D01*
G75*
G02*
X108257000Y-113326000I0J250000D01*
G01*
X108257000Y-112126000D01*
G75*
G02*
X108507000Y-111876000I250000J0D01*
G01*
G37*
%TD.AperFunction*%
%TD*%
%TO.P,J3,3*%
%TO.N,+3V3*%
X109232000Y-102232000D03*
%TO.P,J3,2*%
%TO.N,GND*%
X109232000Y-99732000D03*
%TO.P,J3,1*%
%TO.N,/HALL_3*%
%TA.AperFunction,ComponentPad*%
G36*
G01*
X108507000Y-96382000D02*
X109957000Y-96382000D01*
G75*
G02*
X110207000Y-96632000I0J-250000D01*
G01*
X110207000Y-97832000D01*
G75*
G02*
X109957000Y-98082000I-250000J0D01*
G01*
X108507000Y-98082000D01*
G75*
G02*
X108257000Y-97832000I0J250000D01*
G01*
X108257000Y-96632000D01*
G75*
G02*
X108507000Y-96382000I250000J0D01*
G01*
G37*
%TD.AperFunction*%
%TD*%
D16*
%TO.P,J16,10*%
%TO.N,/PB15*%
X169240000Y-87840000D03*
%TO.P,J16,9*%
%TO.N,GND*%
X169240000Y-85300000D03*
%TO.P,J16,8*%
%TO.N,/PB14*%
X171780000Y-87840000D03*
%TO.P,J16,7*%
%TO.N,/PA10*%
X171780000Y-85300000D03*
%TO.P,J16,6*%
%TO.N,/PB13*%
X174320000Y-87840000D03*
%TO.P,J16,5*%
%TO.N,/PA11*%
X174320000Y-85300000D03*
%TO.P,J16,4*%
%TO.N,/PB12*%
X176860000Y-87840000D03*
%TO.P,J16,3*%
%TO.N,/PA12*%
X176860000Y-85300000D03*
%TO.P,J16,2*%
%TO.N,+3V3*%
X179400000Y-87840000D03*
D17*
%TO.P,J16,1*%
%TO.N,GND*%
X179400000Y-85300000D03*
%TD*%
D18*
%TO.P,J9,2*%
%TO.N,GND*%
X151678000Y-54600000D03*
%TO.P,J9,1*%
%TO.N,Net-(D7-Pad2)*%
%TA.AperFunction,ComponentPad*%
G36*
G01*
X155028000Y-53850000D02*
X155028000Y-55350000D01*
G75*
G02*
X154778000Y-55600000I-250000J0D01*
G01*
X153578000Y-55600000D01*
G75*
G02*
X153328000Y-55350000I0J250000D01*
G01*
X153328000Y-53850000D01*
G75*
G02*
X153578000Y-53600000I250000J0D01*
G01*
X154778000Y-53600000D01*
G75*
G02*
X155028000Y-53850000I0J-250000D01*
G01*
G37*
%TD.AperFunction*%
%TD*%
D15*
%TO.P,J15,4*%
%TO.N,GND*%
X195742000Y-71494000D03*
%TO.P,J15,3*%
%TO.N,/PC12_UART_5_Tx*%
X195742000Y-73994000D03*
%TO.P,J15,2*%
%TO.N,/PD2_UART_5_Rx*%
X195742000Y-76494000D03*
%TO.P,J15,1*%
%TO.N,+3V3*%
%TA.AperFunction,ComponentPad*%
G36*
G01*
X196467000Y-79844000D02*
X195017000Y-79844000D01*
G75*
G02*
X194767000Y-79594000I0J250000D01*
G01*
X194767000Y-78394000D01*
G75*
G02*
X195017000Y-78144000I250000J0D01*
G01*
X196467000Y-78144000D01*
G75*
G02*
X196717000Y-78394000I0J-250000D01*
G01*
X196717000Y-79594000D01*
G75*
G02*
X196467000Y-79844000I-250000J0D01*
G01*
G37*
%TD.AperFunction*%
%TD*%
%TO.P,J14,4*%
%TO.N,GND*%
X195728000Y-87242000D03*
%TO.P,J14,3*%
%TO.N,/PB6_I2C1_SCL*%
X195728000Y-89742000D03*
%TO.P,J14,2*%
%TO.N,/PB7_I2C1_SDA*%
X195728000Y-92242000D03*
%TO.P,J14,1*%
%TO.N,+3V3*%
%TA.AperFunction,ComponentPad*%
G36*
G01*
X196453000Y-95592000D02*
X195003000Y-95592000D01*
G75*
G02*
X194753000Y-95342000I0J250000D01*
G01*
X194753000Y-94142000D01*
G75*
G02*
X195003000Y-93892000I250000J0D01*
G01*
X196453000Y-93892000D01*
G75*
G02*
X196703000Y-94142000I0J-250000D01*
G01*
X196703000Y-95342000D01*
G75*
G02*
X196453000Y-95592000I-250000J0D01*
G01*
G37*
%TD.AperFunction*%
%TD*%
D19*
%TO.P,J11,4*%
%TO.N,GND*%
X182720000Y-140978000D03*
%TO.P,J11,3*%
%TO.N,/TIM3_CH2*%
X180220000Y-140978000D03*
%TO.P,J11,2*%
%TO.N,/TIM3_CH1*%
X177720000Y-140978000D03*
%TO.P,J11,1*%
%TO.N,+3V3*%
%TA.AperFunction,ComponentPad*%
G36*
G01*
X174370000Y-141703000D02*
X174370000Y-140253000D01*
G75*
G02*
X174620000Y-140003000I250000J0D01*
G01*
X175820000Y-140003000D01*
G75*
G02*
X176070000Y-140253000I0J-250000D01*
G01*
X176070000Y-141703000D01*
G75*
G02*
X175820000Y-141953000I-250000J0D01*
G01*
X174620000Y-141953000D01*
G75*
G02*
X174370000Y-141703000I0J250000D01*
G01*
G37*
%TD.AperFunction*%
%TD*%
%TO.P,J10,4*%
%TO.N,GND*%
X157460000Y-140978000D03*
%TO.P,J10,3*%
%TO.N,/TIM8_CH2*%
X154960000Y-140978000D03*
%TO.P,J10,2*%
%TO.N,/TIM8_CH1*%
X152460000Y-140978000D03*
%TO.P,J10,1*%
%TO.N,+3V3*%
%TA.AperFunction,ComponentPad*%
G36*
G01*
X149110000Y-141703000D02*
X149110000Y-140253000D01*
G75*
G02*
X149360000Y-140003000I250000J0D01*
G01*
X150560000Y-140003000D01*
G75*
G02*
X150810000Y-140253000I0J-250000D01*
G01*
X150810000Y-141703000D01*
G75*
G02*
X150560000Y-141953000I-250000J0D01*
G01*
X149360000Y-141953000D01*
G75*
G02*
X149110000Y-141703000I0J250000D01*
G01*
G37*
%TD.AperFunction*%
%TD*%
%TO.P,J8,4*%
%TO.N,GND*%
X132428000Y-140978000D03*
%TO.P,J8,3*%
%TO.N,/TIM4_CH2*%
X129928000Y-140978000D03*
%TO.P,J8,2*%
%TO.N,/TIM4_CH1*%
X127428000Y-140978000D03*
%TO.P,J8,1*%
%TO.N,+3V3*%
%TA.AperFunction,ComponentPad*%
G36*
G01*
X124078000Y-141703000D02*
X124078000Y-140253000D01*
G75*
G02*
X124328000Y-140003000I250000J0D01*
G01*
X125528000Y-140003000D01*
G75*
G02*
X125778000Y-140253000I0J-250000D01*
G01*
X125778000Y-141703000D01*
G75*
G02*
X125528000Y-141953000I-250000J0D01*
G01*
X124328000Y-141953000D01*
G75*
G02*
X124078000Y-141703000I0J250000D01*
G01*
G37*
%TD.AperFunction*%
%TD*%
D15*
%TO.P,J6,3*%
%TO.N,/MOTOR_3_L*%
X195742000Y-130200000D03*
%TO.P,J6,2*%
%TO.N,/MOTOR_3_R*%
X195742000Y-132700000D03*
%TO.P,J6,1*%
%TO.N,/MOTOR_3(PWM)*%
%TA.AperFunction,ComponentPad*%
G36*
G01*
X196467000Y-136050000D02*
X195017000Y-136050000D01*
G75*
G02*
X194767000Y-135800000I0J250000D01*
G01*
X194767000Y-134600000D01*
G75*
G02*
X195017000Y-134350000I250000J0D01*
G01*
X196467000Y-134350000D01*
G75*
G02*
X196717000Y-134600000I0J-250000D01*
G01*
X196717000Y-135800000D01*
G75*
G02*
X196467000Y-136050000I-250000J0D01*
G01*
G37*
%TD.AperFunction*%
%TD*%
%TO.P,J4,3*%
%TO.N,/MOTOR_2_L*%
X195720000Y-117400000D03*
%TO.P,J4,2*%
%TO.N,/MOTOR_2_R*%
X195720000Y-119900000D03*
%TO.P,J4,1*%
%TO.N,/MOTOR_2(PWM)*%
%TA.AperFunction,ComponentPad*%
G36*
G01*
X196445000Y-123250000D02*
X194995000Y-123250000D01*
G75*
G02*
X194745000Y-123000000I0J250000D01*
G01*
X194745000Y-121800000D01*
G75*
G02*
X194995000Y-121550000I250000J0D01*
G01*
X196445000Y-121550000D01*
G75*
G02*
X196695000Y-121800000I0J-250000D01*
G01*
X196695000Y-123000000D01*
G75*
G02*
X196445000Y-123250000I-250000J0D01*
G01*
G37*
%TD.AperFunction*%
%TD*%
%TO.P,J2,3*%
%TO.N,/MOTOR_1_L*%
X195742000Y-104600000D03*
%TO.P,J2,2*%
%TO.N,/MOTOR_1_R*%
X195742000Y-107100000D03*
%TO.P,J2,1*%
%TO.N,/MOTOR_1(PWM)*%
%TA.AperFunction,ComponentPad*%
G36*
G01*
X196467000Y-110450000D02*
X195017000Y-110450000D01*
G75*
G02*
X194767000Y-110200000I0J250000D01*
G01*
X194767000Y-109000000D01*
G75*
G02*
X195017000Y-108750000I250000J0D01*
G01*
X196467000Y-108750000D01*
G75*
G02*
X196717000Y-109000000I0J-250000D01*
G01*
X196717000Y-110200000D01*
G75*
G02*
X196467000Y-110450000I-250000J0D01*
G01*
G37*
%TD.AperFunction*%
%TD*%
D16*
%TO.P,J13,2*%
%TO.N,/HC05_RX*%
X111900000Y-87160000D03*
D17*
%TO.P,J13,1*%
%TO.N,/PA2(Tx)*%
X111900000Y-89700000D03*
%TD*%
D16*
%TO.P,J12,2*%
%TO.N,/HC05_TX*%
X108000000Y-87160000D03*
D17*
%TO.P,J12,1*%
%TO.N,/PA3(Rx)*%
X108000000Y-89700000D03*
%TD*%
D12*
%TO.P,SW1,2*%
%TO.N,GND*%
X129246000Y-126750000D03*
%TO.P,SW1,1*%
%TO.N,/NRST*%
X129246000Y-122250000D03*
%TO.P,SW1,2*%
%TO.N,GND*%
X135746000Y-126750000D03*
%TO.P,SW1,1*%
%TO.N,/NRST*%
X135746000Y-122250000D03*
%TD*%
%TO.P,SW2,1*%
%TO.N,/PE8*%
X173338000Y-122250000D03*
%TO.P,SW2,2*%
%TO.N,GND*%
X173338000Y-126750000D03*
%TO.P,SW2,1*%
%TO.N,/PE8*%
X166838000Y-122250000D03*
%TO.P,SW2,2*%
%TO.N,GND*%
X166838000Y-126750000D03*
%TD*%
%TO.P,SW3,2*%
%TO.N,+3V3*%
X135286000Y-57586000D03*
%TO.P,SW3,1*%
%TO.N,Net-(R7-Pad1)*%
X135286000Y-53086000D03*
%TO.P,SW3,2*%
%TO.N,+3V3*%
X141786000Y-57586000D03*
%TO.P,SW3,1*%
%TO.N,Net-(R7-Pad1)*%
X141786000Y-53086000D03*
%TD*%
D20*
%TO.P,Y1,1*%
%TO.N,Net-(C6-Pad1)*%
X137220000Y-107810000D03*
%TO.P,Y1,2*%
%TO.N,Net-(C7-Pad1)*%
X140670681Y-111260681D03*
%TD*%
D21*
%TO.N,*%
X108000000Y-53000000D03*
%TO.N,GND*%
X197000000Y-142000000D03*
X108000000Y-142000000D03*
D22*
X139100000Y-97400000D03*
X150700000Y-80900000D03*
X157300000Y-109200000D03*
X159200000Y-104700000D03*
X136000000Y-94600000D03*
X151100000Y-118600000D03*
X143900000Y-131700000D03*
X155000000Y-84400000D03*
X117300000Y-85100000D03*
%TO.N,+3V3*%
X166100000Y-99600000D03*
%TO.N,/PE15*%
X161900000Y-102600000D03*
X161200000Y-112100000D03*
D23*
%TO.N,/PA2(Tx)*%
X151800000Y-108799994D03*
%TO.N,/PA3(Rx)*%
X153200013Y-108799994D03*
D22*
%TO.N,/SWO(SWIM)*%
X144250000Y-91750000D03*
%TO.N,/MOTOR_3_L*%
X159025000Y-96175000D03*
X164500000Y-112100000D03*
%TO.N,/MOTOR_3_R*%
X158200000Y-95300000D03*
X163400000Y-112100000D03*
%TO.N,/TIM4_CH2*%
X142700000Y-90100000D03*
X150650000Y-93600000D03*
%TO.N,/TIM4_CH1*%
X142700000Y-89000000D03*
X149000000Y-93600000D03*
%TO.N,/TIM8_CH2*%
X160000000Y-112100000D03*
X153400000Y-95500000D03*
%TO.N,/TIM8_CH1*%
X155100000Y-96400000D03*
X158800000Y-112100000D03*
%TO.N,/PC12_UART_5_Tx*%
X146600000Y-86900000D03*
X153100000Y-82400000D03*
%TO.N,/PD2_UART_5_Rx*%
X146600000Y-88100000D03*
X153100000Y-83500000D03*
%TO.N,/MOTOR_2_L*%
X147800000Y-99800000D03*
%TO.N,/MOTOR_2_R*%
X147800000Y-98300000D03*
%TO.N,/PB6_I2C1_SCL*%
X147800000Y-94600000D03*
X183200000Y-92500000D03*
%TO.N,/PB7_I2C1_SDA*%
X147800000Y-96300000D03*
X183200000Y-94800000D03*
%TO.N,/MOTOR_1_L*%
X158300000Y-107100000D03*
X153400000Y-104200000D03*
%TO.N,/TIM3_CH2*%
X168700000Y-106300000D03*
X168700000Y-115100000D03*
%TO.N,/TIM3_CH1*%
X166000000Y-106300000D03*
X166000000Y-115100000D03*
%TO.N,/PE8*%
X162300000Y-112100000D03*
X162800000Y-104300000D03*
%TD*%
D24*
%TO.N,+3V3*%
X191600000Y-80200000D02*
X192806000Y-78994000D01*
X191600000Y-72600000D02*
X191600000Y-80200000D01*
X108664000Y-102200000D02*
X108632000Y-102232000D01*
X195742000Y-78994000D02*
X192806000Y-78994000D01*
X191600000Y-86700000D02*
X191600000Y-80200000D01*
X141786000Y-68386000D02*
X141786000Y-57586000D01*
X144500000Y-71100000D02*
X141786000Y-68386000D01*
X185200000Y-71100000D02*
X144500000Y-71100000D01*
D25*
X190100000Y-71100000D02*
X191600000Y-72600000D01*
X185200000Y-71100000D02*
X190100000Y-71100000D01*
X191600000Y-86700000D02*
X190460000Y-87840000D01*
X190460000Y-87840000D02*
X179400000Y-87840000D01*
X192931000Y-78994000D02*
X191600000Y-80325000D01*
X195742000Y-78994000D02*
X192931000Y-78994000D01*
X191600000Y-80325000D02*
X191600000Y-86700000D01*
X191600000Y-72600000D02*
X191600000Y-80325000D01*
X191600000Y-93400000D02*
X192942000Y-94742000D01*
X191600000Y-86700000D02*
X191600000Y-93400000D01*
X195728000Y-94742000D02*
X192942000Y-94742000D01*
X194500000Y-99600000D02*
X195728000Y-98372000D01*
X166100000Y-99600000D02*
X194500000Y-99600000D01*
X195728000Y-94742000D02*
X195728000Y-98372000D01*
D26*
%TO.N,/NRST*%
X128875000Y-91053000D02*
X131572000Y-88356000D01*
X128875000Y-94175000D02*
X128875000Y-91053000D01*
X142300000Y-107600000D02*
X128875000Y-94175000D01*
X154699978Y-108549978D02*
X153750000Y-107600000D01*
X154699978Y-112600022D02*
X154699978Y-108549978D01*
X153750000Y-107600000D02*
X142300000Y-107600000D01*
X145050000Y-122250000D02*
X154699978Y-112600022D01*
X135746000Y-122250000D02*
X145050000Y-122250000D01*
%TO.N,/PE15*%
X161200000Y-110000000D02*
X161200000Y-112100000D01*
X161900000Y-109300000D02*
X161200000Y-110000000D01*
X161900000Y-102600000D02*
X161900000Y-109300000D01*
%TO.N,/PA2(Tx)*%
X142499994Y-108799994D02*
X151800000Y-108799994D01*
X123400000Y-89700000D02*
X124350000Y-90650000D01*
X111900000Y-89700000D02*
X123400000Y-89700000D01*
X124350000Y-90650000D02*
X142499994Y-108799994D01*
X124134000Y-90434000D02*
X124350000Y-90650000D01*
%TO.N,/PA3(Rx)*%
X153000000Y-109600000D02*
X153200013Y-109399987D01*
X153200013Y-109399987D02*
X153200013Y-108799994D01*
X153000000Y-109600000D02*
X142400000Y-109600000D01*
X142400000Y-109600000D02*
X125100000Y-92300000D01*
X125100000Y-92300000D02*
X108600000Y-92300000D01*
X108000000Y-91700000D02*
X108600000Y-92300000D01*
X108000000Y-89700000D02*
X108000000Y-91700000D01*
%TO.N,/SWO(SWIM)*%
X133368051Y-86559949D02*
X140708102Y-93900000D01*
X140708102Y-93900000D02*
X142100000Y-93900000D01*
X142100000Y-93900000D02*
X144250000Y-91750000D01*
%TO.N,/MOTOR_3_L*%
X164500000Y-102550000D02*
X164500000Y-112100000D01*
X159025000Y-96175000D02*
X159025000Y-97075000D01*
X159025000Y-97075000D02*
X159125000Y-97175000D01*
X159125000Y-97175000D02*
X164500000Y-102550000D01*
%TO.N,/MOTOR_3_R*%
X157700000Y-95800000D02*
X157700000Y-96700000D01*
X158200000Y-95300000D02*
X157700000Y-95800000D01*
X163100000Y-102100000D02*
X163200000Y-102200000D01*
X157700000Y-96700000D02*
X163100000Y-102100000D01*
X163800000Y-102800000D02*
X163100000Y-102100000D01*
X163800000Y-110600000D02*
X163800000Y-102800000D01*
X163400000Y-111000000D02*
X163675000Y-110725000D01*
X163400000Y-112100000D02*
X163400000Y-111000000D01*
X163675000Y-110725000D02*
X163800000Y-110600000D01*
%TO.N,/TIM4_CH2*%
X146250000Y-89200000D02*
X150650000Y-93600000D01*
X145600000Y-89200000D02*
X146250000Y-89200000D01*
X142700000Y-87300000D02*
X143700000Y-87300000D01*
X143700000Y-87300000D02*
X145600000Y-89200000D01*
X141600000Y-88400000D02*
X142700000Y-87300000D01*
X141600000Y-89000000D02*
X141600000Y-88400000D01*
X142700000Y-90100000D02*
X141600000Y-89000000D01*
%TO.N,/TIM4_CH1*%
X144400000Y-89000000D02*
X142700000Y-89000000D01*
X149000000Y-93600000D02*
X144400000Y-89000000D01*
%TO.N,/TIM8_CH2*%
X155300000Y-95500000D02*
X153400000Y-95500000D01*
X161000000Y-101200000D02*
X155300000Y-95500000D01*
X161000000Y-108700000D02*
X161000000Y-101200000D01*
X160000000Y-109700000D02*
X161000000Y-108700000D01*
X160000000Y-112100000D02*
X160000000Y-109700000D01*
%TO.N,/TIM8_CH1*%
X155100000Y-96400000D02*
X160300000Y-101600000D01*
X160300000Y-101600000D02*
X160300000Y-108100000D01*
X158800000Y-109600000D02*
X158800000Y-112100000D01*
X160300000Y-108100000D02*
X158800000Y-109600000D01*
%TO.N,/PC12_UART_5_Tx*%
X151800000Y-82400000D02*
X153100000Y-82400000D01*
X149100000Y-82400000D02*
X149500000Y-82400000D01*
X149500000Y-82400000D02*
X151800000Y-82400000D01*
X148425000Y-82400000D02*
X149500000Y-82400000D01*
X146600000Y-84225000D02*
X148425000Y-82400000D01*
X146600000Y-86900000D02*
X146600000Y-84225000D01*
%TO.N,/PD2_UART_5_Rx*%
X147500000Y-88100000D02*
X146600000Y-88100000D01*
X148100000Y-87500000D02*
X147500000Y-88100000D01*
X148100000Y-84400000D02*
X148100000Y-87500000D01*
X149000000Y-83500000D02*
X148100000Y-84400000D01*
X149000000Y-83500000D02*
X151400000Y-83500000D01*
X151400000Y-83500000D02*
X151300000Y-83500000D01*
X153100000Y-83500000D02*
X151400000Y-83500000D01*
%TO.N,/MOTOR_2_L*%
X155800000Y-107800000D02*
X155800000Y-116200000D01*
X148600000Y-106200000D02*
X154200000Y-106200000D01*
X154200000Y-106200000D02*
X155800000Y-107800000D01*
X147800000Y-99800000D02*
X147800000Y-105400000D01*
X157000000Y-117400000D02*
X195720000Y-117400000D01*
X147800000Y-105400000D02*
X148600000Y-106200000D01*
X155800000Y-116200000D02*
X157000000Y-117400000D01*
%TO.N,/MOTOR_2_R*%
X147600000Y-106900000D02*
X146300000Y-105600000D01*
X153975000Y-106900000D02*
X147600000Y-106900000D01*
X155249989Y-108174989D02*
X153975000Y-106900000D01*
X158722167Y-119900000D02*
X155249989Y-116427822D01*
X155249989Y-116427822D02*
X155249989Y-108174989D01*
X195720000Y-119900000D02*
X158722167Y-119900000D01*
X147800000Y-98300000D02*
X146750000Y-98300000D01*
X146750000Y-98300000D02*
X146300000Y-98750000D01*
X146300000Y-98750000D02*
X146300000Y-99875000D01*
X146300000Y-99875000D02*
X146300000Y-99800000D01*
X146300000Y-105600000D02*
X146300000Y-99875000D01*
%TO.N,/PB6_I2C1_SCL*%
X153500000Y-92500000D02*
X183200000Y-92500000D01*
X151400000Y-94600000D02*
X153500000Y-92500000D01*
X147800000Y-94600000D02*
X151400000Y-94600000D01*
%TO.N,/PB7_I2C1_SDA*%
X183200000Y-94800000D02*
X183200000Y-94800000D01*
X179900000Y-93400000D02*
X153900000Y-93400000D01*
X181300000Y-94800000D02*
X179900000Y-93400000D01*
X183200000Y-94800000D02*
X181300000Y-94800000D01*
X147800000Y-96300000D02*
X151000000Y-96300000D01*
X151000000Y-96300000D02*
X151850000Y-95450000D01*
X151850000Y-95450000D02*
X151700000Y-95600000D01*
X153900000Y-93400000D02*
X151850000Y-95450000D01*
%TO.N,/MOTOR_1_L*%
X156300000Y-107100000D02*
X153400000Y-104200000D01*
X158300000Y-107100000D02*
X156300000Y-107100000D01*
%TO.N,/TIM3_CH2*%
X168700000Y-115100000D02*
X168700000Y-106300000D01*
%TO.N,/TIM3_CH1*%
X166000000Y-106300000D02*
X166000000Y-115100000D01*
%TO.N,/PE8*%
X162300000Y-112100000D02*
X162300000Y-110600000D01*
X162300000Y-110600000D02*
X162800000Y-110100000D01*
X162800000Y-110100000D02*
X162800000Y-104300000D01*
X162800000Y-104300000D02*
X162800000Y-104300000D01*
%TD*%
D27*
%TO.N,GND*%
X199215001Y-144215000D02*
X105785000Y-144215000D01*
X105785000Y-140253000D01*
X123439928Y-140253000D01*
X123439928Y-141703000D01*
X123456992Y-141876254D01*
X123507528Y-142042850D01*
X123589595Y-142196386D01*
X123700038Y-142330962D01*
X123834614Y-142441405D01*
X123988150Y-142523472D01*
X124154746Y-142574008D01*
X124328000Y-142591072D01*
X125528000Y-142591072D01*
X125701254Y-142574008D01*
X125867850Y-142523472D01*
X126021386Y-142441405D01*
X126155962Y-142330962D01*
X126266405Y-142196386D01*
X126320777Y-142094663D01*
X126372866Y-142158134D01*
X126598987Y-142343706D01*
X126856967Y-142481599D01*
X127136890Y-142566513D01*
X127428000Y-142595185D01*
X127719111Y-142566513D01*
X127999034Y-142481599D01*
X128257014Y-142343706D01*
X128483134Y-142158134D01*
X128668706Y-141932014D01*
X128678000Y-141914626D01*
X128687294Y-141932014D01*
X128872866Y-142158134D01*
X129098987Y-142343706D01*
X129356967Y-142481599D01*
X129636890Y-142566513D01*
X129928000Y-142595185D01*
X130219111Y-142566513D01*
X130499034Y-142481599D01*
X130757014Y-142343706D01*
X130983134Y-142158134D01*
X131168706Y-141932014D01*
X131182462Y-141906278D01*
X131338951Y-142112429D01*
X131556807Y-142305496D01*
X131808142Y-142452352D01*
X132071110Y-142544476D01*
X132301000Y-142423155D01*
X132301000Y-141105000D01*
X132555000Y-141105000D01*
X132555000Y-142423155D01*
X132784890Y-142544476D01*
X133047858Y-142452352D01*
X133299193Y-142305496D01*
X133517049Y-142112429D01*
X133693053Y-141880570D01*
X133820442Y-141618830D01*
X133894320Y-141337267D01*
X133754165Y-141105000D01*
X132555000Y-141105000D01*
X132301000Y-141105000D01*
X132281000Y-141105000D01*
X132281000Y-140851000D01*
X132301000Y-140851000D01*
X132301000Y-139532845D01*
X132555000Y-139532845D01*
X132555000Y-140851000D01*
X133754165Y-140851000D01*
X133894320Y-140618733D01*
X133820442Y-140337170D01*
X133779477Y-140253000D01*
X148471928Y-140253000D01*
X148471928Y-141703000D01*
X148488992Y-141876254D01*
X148539528Y-142042850D01*
X148621595Y-142196386D01*
X148732038Y-142330962D01*
X148866614Y-142441405D01*
X149020150Y-142523472D01*
X149186746Y-142574008D01*
X149360000Y-142591072D01*
X150560000Y-142591072D01*
X150733254Y-142574008D01*
X150899850Y-142523472D01*
X151053386Y-142441405D01*
X151187962Y-142330962D01*
X151298405Y-142196386D01*
X151352777Y-142094663D01*
X151404866Y-142158134D01*
X151630987Y-142343706D01*
X151888967Y-142481599D01*
X152168890Y-142566513D01*
X152460000Y-142595185D01*
X152751111Y-142566513D01*
X153031034Y-142481599D01*
X153289014Y-142343706D01*
X153515134Y-142158134D01*
X153700706Y-141932014D01*
X153710000Y-141914626D01*
X153719294Y-141932014D01*
X153904866Y-142158134D01*
X154130987Y-142343706D01*
X154388967Y-142481599D01*
X154668890Y-142566513D01*
X154960000Y-142595185D01*
X155251111Y-142566513D01*
X155531034Y-142481599D01*
X155789014Y-142343706D01*
X156015134Y-142158134D01*
X156200706Y-141932014D01*
X156214462Y-141906278D01*
X156370951Y-142112429D01*
X156588807Y-142305496D01*
X156840142Y-142452352D01*
X157103110Y-142544476D01*
X157333000Y-142423155D01*
X157333000Y-141105000D01*
X157587000Y-141105000D01*
X157587000Y-142423155D01*
X157816890Y-142544476D01*
X158079858Y-142452352D01*
X158331193Y-142305496D01*
X158549049Y-142112429D01*
X158725053Y-141880570D01*
X158852442Y-141618830D01*
X158926320Y-141337267D01*
X158786165Y-141105000D01*
X157587000Y-141105000D01*
X157333000Y-141105000D01*
X157313000Y-141105000D01*
X157313000Y-140851000D01*
X157333000Y-140851000D01*
X157333000Y-139532845D01*
X157587000Y-139532845D01*
X157587000Y-140851000D01*
X158786165Y-140851000D01*
X158926320Y-140618733D01*
X158852442Y-140337170D01*
X158811477Y-140253000D01*
X173731928Y-140253000D01*
X173731928Y-141703000D01*
X173748992Y-141876254D01*
X173799528Y-142042850D01*
X173881595Y-142196386D01*
X173992038Y-142330962D01*
X174126614Y-142441405D01*
X174280150Y-142523472D01*
X174446746Y-142574008D01*
X174620000Y-142591072D01*
X175820000Y-142591072D01*
X175993254Y-142574008D01*
X176159850Y-142523472D01*
X176313386Y-142441405D01*
X176447962Y-142330962D01*
X176558405Y-142196386D01*
X176612777Y-142094663D01*
X176664866Y-142158134D01*
X176890987Y-142343706D01*
X177148967Y-142481599D01*
X177428890Y-142566513D01*
X177720000Y-142595185D01*
X178011111Y-142566513D01*
X178291034Y-142481599D01*
X178549014Y-142343706D01*
X178775134Y-142158134D01*
X178960706Y-141932014D01*
X178970000Y-141914626D01*
X178979294Y-141932014D01*
X179164866Y-142158134D01*
X179390987Y-142343706D01*
X179648967Y-142481599D01*
X179928890Y-142566513D01*
X180220000Y-142595185D01*
X180511111Y-142566513D01*
X180791034Y-142481599D01*
X181049014Y-142343706D01*
X181275134Y-142158134D01*
X181460706Y-141932014D01*
X181474462Y-141906278D01*
X181630951Y-142112429D01*
X181848807Y-142305496D01*
X182100142Y-142452352D01*
X182363110Y-142544476D01*
X182593000Y-142423155D01*
X182593000Y-141105000D01*
X182847000Y-141105000D01*
X182847000Y-142423155D01*
X183076890Y-142544476D01*
X183339858Y-142452352D01*
X183591193Y-142305496D01*
X183809049Y-142112429D01*
X183985053Y-141880570D01*
X184112442Y-141618830D01*
X184186320Y-141337267D01*
X184046165Y-141105000D01*
X182847000Y-141105000D01*
X182593000Y-141105000D01*
X182573000Y-141105000D01*
X182573000Y-140851000D01*
X182593000Y-140851000D01*
X182593000Y-139532845D01*
X182847000Y-139532845D01*
X182847000Y-140851000D01*
X184046165Y-140851000D01*
X184186320Y-140618733D01*
X184112442Y-140337170D01*
X183985053Y-140075430D01*
X183809049Y-139843571D01*
X183591193Y-139650504D01*
X183339858Y-139503648D01*
X183076890Y-139411524D01*
X182847000Y-139532845D01*
X182593000Y-139532845D01*
X182363110Y-139411524D01*
X182100142Y-139503648D01*
X181848807Y-139650504D01*
X181630951Y-139843571D01*
X181474462Y-140049722D01*
X181460706Y-140023986D01*
X181275134Y-139797866D01*
X181049013Y-139612294D01*
X180791033Y-139474401D01*
X180511110Y-139389487D01*
X180220000Y-139360815D01*
X179928889Y-139389487D01*
X179648966Y-139474401D01*
X179390986Y-139612294D01*
X179164866Y-139797866D01*
X178979294Y-140023987D01*
X178970000Y-140041374D01*
X178960706Y-140023986D01*
X178775134Y-139797866D01*
X178549013Y-139612294D01*
X178291033Y-139474401D01*
X178011110Y-139389487D01*
X177720000Y-139360815D01*
X177428889Y-139389487D01*
X177148966Y-139474401D01*
X176890986Y-139612294D01*
X176664866Y-139797866D01*
X176612777Y-139861337D01*
X176558405Y-139759614D01*
X176447962Y-139625038D01*
X176313386Y-139514595D01*
X176159850Y-139432528D01*
X175993254Y-139381992D01*
X175820000Y-139364928D01*
X174620000Y-139364928D01*
X174446746Y-139381992D01*
X174280150Y-139432528D01*
X174126614Y-139514595D01*
X173992038Y-139625038D01*
X173881595Y-139759614D01*
X173799528Y-139913150D01*
X173748992Y-140079746D01*
X173731928Y-140253000D01*
X158811477Y-140253000D01*
X158725053Y-140075430D01*
X158549049Y-139843571D01*
X158331193Y-139650504D01*
X158079858Y-139503648D01*
X157816890Y-139411524D01*
X157587000Y-139532845D01*
X157333000Y-139532845D01*
X157103110Y-139411524D01*
X156840142Y-139503648D01*
X156588807Y-139650504D01*
X156370951Y-139843571D01*
X156214462Y-140049722D01*
X156200706Y-140023986D01*
X156015134Y-139797866D01*
X155789013Y-139612294D01*
X155531033Y-139474401D01*
X155251110Y-139389487D01*
X154960000Y-139360815D01*
X154668889Y-139389487D01*
X154388966Y-139474401D01*
X154130986Y-139612294D01*
X153904866Y-139797866D01*
X153719294Y-140023987D01*
X153710000Y-140041374D01*
X153700706Y-140023986D01*
X153515134Y-139797866D01*
X153289013Y-139612294D01*
X153031033Y-139474401D01*
X152751110Y-139389487D01*
X152460000Y-139360815D01*
X152168889Y-139389487D01*
X151888966Y-139474401D01*
X151630986Y-139612294D01*
X151404866Y-139797866D01*
X151352777Y-139861337D01*
X151298405Y-139759614D01*
X151187962Y-139625038D01*
X151053386Y-139514595D01*
X150899850Y-139432528D01*
X150733254Y-139381992D01*
X150560000Y-139364928D01*
X149360000Y-139364928D01*
X149186746Y-139381992D01*
X149020150Y-139432528D01*
X148866614Y-139514595D01*
X148732038Y-139625038D01*
X148621595Y-139759614D01*
X148539528Y-139913150D01*
X148488992Y-140079746D01*
X148471928Y-140253000D01*
X133779477Y-140253000D01*
X133693053Y-140075430D01*
X133517049Y-139843571D01*
X133299193Y-139650504D01*
X133047858Y-139503648D01*
X132784890Y-139411524D01*
X132555000Y-139532845D01*
X132301000Y-139532845D01*
X132071110Y-139411524D01*
X131808142Y-139503648D01*
X131556807Y-139650504D01*
X131338951Y-139843571D01*
X131182462Y-140049722D01*
X131168706Y-140023986D01*
X130983134Y-139797866D01*
X130757013Y-139612294D01*
X130499033Y-139474401D01*
X130219110Y-139389487D01*
X129928000Y-139360815D01*
X129636889Y-139389487D01*
X129356966Y-139474401D01*
X129098986Y-139612294D01*
X128872866Y-139797866D01*
X128687294Y-140023987D01*
X128678000Y-140041374D01*
X128668706Y-140023986D01*
X128483134Y-139797866D01*
X128257013Y-139612294D01*
X127999033Y-139474401D01*
X127719110Y-139389487D01*
X127428000Y-139360815D01*
X127136889Y-139389487D01*
X126856966Y-139474401D01*
X126598986Y-139612294D01*
X126372866Y-139797866D01*
X126320777Y-139861337D01*
X126266405Y-139759614D01*
X126155962Y-139625038D01*
X126021386Y-139514595D01*
X125867850Y-139432528D01*
X125701254Y-139381992D01*
X125528000Y-139364928D01*
X124328000Y-139364928D01*
X124154746Y-139381992D01*
X123988150Y-139432528D01*
X123834614Y-139514595D01*
X123700038Y-139625038D01*
X123589595Y-139759614D01*
X123507528Y-139913150D01*
X123456992Y-140079746D01*
X123439928Y-140253000D01*
X105785000Y-140253000D01*
X105785000Y-132790000D01*
X107614815Y-132790000D01*
X107643487Y-133081111D01*
X107728401Y-133361034D01*
X107866294Y-133619014D01*
X108051866Y-133845134D01*
X108277986Y-134030706D01*
X108535966Y-134168599D01*
X108815889Y-134253513D01*
X109034050Y-134275000D01*
X109429950Y-134275000D01*
X109648111Y-134253513D01*
X109928034Y-134168599D01*
X110186014Y-134030706D01*
X110412134Y-133845134D01*
X110597706Y-133619014D01*
X110735599Y-133361034D01*
X110820513Y-133081111D01*
X110849185Y-132790000D01*
X110820513Y-132498889D01*
X110735599Y-132218966D01*
X110597706Y-131960986D01*
X110412134Y-131734866D01*
X110186014Y-131549294D01*
X110160278Y-131535538D01*
X110366429Y-131379049D01*
X110559496Y-131161193D01*
X110706352Y-130909858D01*
X110798476Y-130646890D01*
X110677155Y-130417000D01*
X109359000Y-130417000D01*
X109359000Y-130437000D01*
X109105000Y-130437000D01*
X109105000Y-130417000D01*
X107786845Y-130417000D01*
X107665524Y-130646890D01*
X107757648Y-130909858D01*
X107904504Y-131161193D01*
X108097571Y-131379049D01*
X108303722Y-131535538D01*
X108277986Y-131549294D01*
X108051866Y-131734866D01*
X107866294Y-131960986D01*
X107728401Y-132218966D01*
X107643487Y-132498889D01*
X107614815Y-132790000D01*
X105785000Y-132790000D01*
X105785000Y-130200000D01*
X194124815Y-130200000D01*
X194153487Y-130491111D01*
X194238401Y-130771034D01*
X194376294Y-131029014D01*
X194561866Y-131255134D01*
X194787986Y-131440706D01*
X194805374Y-131450000D01*
X194787986Y-131459294D01*
X194561866Y-131644866D01*
X194376294Y-131870986D01*
X194238401Y-132128966D01*
X194153487Y-132408889D01*
X194124815Y-132700000D01*
X194153487Y-132991111D01*
X194238401Y-133271034D01*
X194376294Y-133529014D01*
X194561866Y-133755134D01*
X194625337Y-133807223D01*
X194523614Y-133861595D01*
X194389038Y-133972038D01*
X194278595Y-134106614D01*
X194196528Y-134260150D01*
X194145992Y-134426746D01*
X194128928Y-134600000D01*
X194128928Y-135800000D01*
X194145992Y-135973254D01*
X194196528Y-136139850D01*
X194278595Y-136293386D01*
X194389038Y-136427962D01*
X194523614Y-136538405D01*
X194677150Y-136620472D01*
X194843746Y-136671008D01*
X195017000Y-136688072D01*
X196467000Y-136688072D01*
X196640254Y-136671008D01*
X196806850Y-136620472D01*
X196960386Y-136538405D01*
X197094962Y-136427962D01*
X197205405Y-136293386D01*
X197287472Y-136139850D01*
X197338008Y-135973254D01*
X197355072Y-135800000D01*
X197355072Y-134600000D01*
X197338008Y-134426746D01*
X197287472Y-134260150D01*
X197205405Y-134106614D01*
X197094962Y-133972038D01*
X196960386Y-133861595D01*
X196858663Y-133807223D01*
X196922134Y-133755134D01*
X197107706Y-133529014D01*
X197245599Y-133271034D01*
X197330513Y-132991111D01*
X197359185Y-132700000D01*
X197330513Y-132408889D01*
X197245599Y-132128966D01*
X197107706Y-131870986D01*
X196922134Y-131644866D01*
X196696014Y-131459294D01*
X196678626Y-131450000D01*
X196696014Y-131440706D01*
X196922134Y-131255134D01*
X197107706Y-131029014D01*
X197245599Y-130771034D01*
X197330513Y-130491111D01*
X197359185Y-130200000D01*
X197330513Y-129908889D01*
X197245599Y-129628966D01*
X197107706Y-129370986D01*
X196922134Y-129144866D01*
X196696014Y-128959294D01*
X196438034Y-128821401D01*
X196158111Y-128736487D01*
X195939950Y-128715000D01*
X195544050Y-128715000D01*
X195325889Y-128736487D01*
X195045966Y-128821401D01*
X194787986Y-128959294D01*
X194561866Y-129144866D01*
X194376294Y-129370986D01*
X194238401Y-129628966D01*
X194153487Y-129908889D01*
X194124815Y-130200000D01*
X105785000Y-130200000D01*
X105785000Y-127190000D01*
X107618928Y-127190000D01*
X107618928Y-128390000D01*
X107635992Y-128563254D01*
X107686528Y-128729850D01*
X107768595Y-128883386D01*
X107879038Y-129017962D01*
X108013614Y-129128405D01*
X108118961Y-129184714D01*
X108097571Y-129200951D01*
X107904504Y-129418807D01*
X107757648Y-129670142D01*
X107665524Y-129933110D01*
X107786845Y-130163000D01*
X109105000Y-130163000D01*
X109105000Y-130143000D01*
X109359000Y-130143000D01*
X109359000Y-130163000D01*
X110677155Y-130163000D01*
X110798476Y-129933110D01*
X110706352Y-129670142D01*
X110559496Y-129418807D01*
X110366429Y-129200951D01*
X110345039Y-129184714D01*
X110450386Y-129128405D01*
X110584962Y-129017962D01*
X110695405Y-128883386D01*
X110777472Y-128729850D01*
X110828008Y-128563254D01*
X110845072Y-128390000D01*
X110845072Y-127885413D01*
X128290192Y-127885413D01*
X128385956Y-128149814D01*
X128675571Y-128290704D01*
X128987108Y-128372384D01*
X129308595Y-128391718D01*
X129627675Y-128347961D01*
X129932088Y-128242795D01*
X130106044Y-128149814D01*
X130201808Y-127885413D01*
X134790192Y-127885413D01*
X134885956Y-128149814D01*
X135175571Y-128290704D01*
X135487108Y-128372384D01*
X135808595Y-128391718D01*
X136127675Y-128347961D01*
X136432088Y-128242795D01*
X136606044Y-128149814D01*
X136701808Y-127885413D01*
X165882192Y-127885413D01*
X165977956Y-128149814D01*
X166267571Y-128290704D01*
X166579108Y-128372384D01*
X166900595Y-128391718D01*
X167219675Y-128347961D01*
X167524088Y-128242795D01*
X167698044Y-128149814D01*
X167793808Y-127885413D01*
X172382192Y-127885413D01*
X172477956Y-128149814D01*
X172767571Y-128290704D01*
X173079108Y-128372384D01*
X173400595Y-128391718D01*
X173719675Y-128347961D01*
X174024088Y-128242795D01*
X174198044Y-128149814D01*
X174293808Y-127885413D01*
X173338000Y-126929605D01*
X172382192Y-127885413D01*
X167793808Y-127885413D01*
X166838000Y-126929605D01*
X165882192Y-127885413D01*
X136701808Y-127885413D01*
X135746000Y-126929605D01*
X134790192Y-127885413D01*
X130201808Y-127885413D01*
X129246000Y-126929605D01*
X128290192Y-127885413D01*
X110845072Y-127885413D01*
X110845072Y-127190000D01*
X110828008Y-127016746D01*
X110777472Y-126850150D01*
X110757399Y-126812595D01*
X127604282Y-126812595D01*
X127648039Y-127131675D01*
X127753205Y-127436088D01*
X127846186Y-127610044D01*
X128110587Y-127705808D01*
X129066395Y-126750000D01*
X129425605Y-126750000D01*
X130381413Y-127705808D01*
X130645814Y-127610044D01*
X130786704Y-127320429D01*
X130868384Y-127008892D01*
X130880189Y-126812595D01*
X134104282Y-126812595D01*
X134148039Y-127131675D01*
X134253205Y-127436088D01*
X134346186Y-127610044D01*
X134610587Y-127705808D01*
X135566395Y-126750000D01*
X135925605Y-126750000D01*
X136881413Y-127705808D01*
X137145814Y-127610044D01*
X137286704Y-127320429D01*
X137368384Y-127008892D01*
X137380189Y-126812595D01*
X165196282Y-126812595D01*
X165240039Y-127131675D01*
X165345205Y-127436088D01*
X165438186Y-127610044D01*
X165702587Y-127705808D01*
X166658395Y-126750000D01*
X167017605Y-126750000D01*
X167973413Y-127705808D01*
X168237814Y-127610044D01*
X168378704Y-127320429D01*
X168460384Y-127008892D01*
X168472189Y-126812595D01*
X171696282Y-126812595D01*
X171740039Y-127131675D01*
X171845205Y-127436088D01*
X171938186Y-127610044D01*
X172202587Y-127705808D01*
X173158395Y-126750000D01*
X173517605Y-126750000D01*
X174473413Y-127705808D01*
X174737814Y-127610044D01*
X174878704Y-127320429D01*
X174960384Y-127008892D01*
X174979718Y-126687405D01*
X174935961Y-126368325D01*
X174830795Y-126063912D01*
X174737814Y-125889956D01*
X174473413Y-125794192D01*
X173517605Y-126750000D01*
X173158395Y-126750000D01*
X172202587Y-125794192D01*
X171938186Y-125889956D01*
X171797296Y-126179571D01*
X171715616Y-126491108D01*
X171696282Y-126812595D01*
X168472189Y-126812595D01*
X168479718Y-126687405D01*
X168435961Y-126368325D01*
X168330795Y-126063912D01*
X168237814Y-125889956D01*
X167973413Y-125794192D01*
X167017605Y-126750000D01*
X166658395Y-126750000D01*
X165702587Y-125794192D01*
X165438186Y-125889956D01*
X165297296Y-126179571D01*
X165215616Y-126491108D01*
X165196282Y-126812595D01*
X137380189Y-126812595D01*
X137387718Y-126687405D01*
X137343961Y-126368325D01*
X137238795Y-126063912D01*
X137145814Y-125889956D01*
X136881413Y-125794192D01*
X135925605Y-126750000D01*
X135566395Y-126750000D01*
X134610587Y-125794192D01*
X134346186Y-125889956D01*
X134205296Y-126179571D01*
X134123616Y-126491108D01*
X134104282Y-126812595D01*
X130880189Y-126812595D01*
X130887718Y-126687405D01*
X130843961Y-126368325D01*
X130738795Y-126063912D01*
X130645814Y-125889956D01*
X130381413Y-125794192D01*
X129425605Y-126750000D01*
X129066395Y-126750000D01*
X128110587Y-125794192D01*
X127846186Y-125889956D01*
X127705296Y-126179571D01*
X127623616Y-126491108D01*
X127604282Y-126812595D01*
X110757399Y-126812595D01*
X110695405Y-126696614D01*
X110584962Y-126562038D01*
X110450386Y-126451595D01*
X110296850Y-126369528D01*
X110130254Y-126318992D01*
X109957000Y-126301928D01*
X108507000Y-126301928D01*
X108333746Y-126318992D01*
X108167150Y-126369528D01*
X108013614Y-126451595D01*
X107879038Y-126562038D01*
X107768595Y-126696614D01*
X107686528Y-126850150D01*
X107635992Y-127016746D01*
X107618928Y-127190000D01*
X105785000Y-127190000D01*
X105785000Y-125614587D01*
X128290192Y-125614587D01*
X129246000Y-126570395D01*
X130201808Y-125614587D01*
X134790192Y-125614587D01*
X135746000Y-126570395D01*
X136701808Y-125614587D01*
X165882192Y-125614587D01*
X166838000Y-126570395D01*
X167793808Y-125614587D01*
X172382192Y-125614587D01*
X173338000Y-126570395D01*
X174293808Y-125614587D01*
X174198044Y-125350186D01*
X173908429Y-125209296D01*
X173596892Y-125127616D01*
X173275405Y-125108282D01*
X172956325Y-125152039D01*
X172651912Y-125257205D01*
X172477956Y-125350186D01*
X172382192Y-125614587D01*
X167793808Y-125614587D01*
X167698044Y-125350186D01*
X167408429Y-125209296D01*
X167096892Y-125127616D01*
X166775405Y-125108282D01*
X166456325Y-125152039D01*
X166151912Y-125257205D01*
X165977956Y-125350186D01*
X165882192Y-125614587D01*
X136701808Y-125614587D01*
X136606044Y-125350186D01*
X136316429Y-125209296D01*
X136004892Y-125127616D01*
X135683405Y-125108282D01*
X135364325Y-125152039D01*
X135059912Y-125257205D01*
X134885956Y-125350186D01*
X134790192Y-125614587D01*
X130201808Y-125614587D01*
X130106044Y-125350186D01*
X129816429Y-125209296D01*
X129504892Y-125127616D01*
X129183405Y-125108282D01*
X128864325Y-125152039D01*
X128559912Y-125257205D01*
X128385956Y-125350186D01*
X128290192Y-125614587D01*
X105785000Y-125614587D01*
X105785000Y-122088967D01*
X127611000Y-122088967D01*
X127611000Y-122411033D01*
X127673832Y-122726912D01*
X127797082Y-123024463D01*
X127976013Y-123292252D01*
X128203748Y-123519987D01*
X128471537Y-123698918D01*
X128769088Y-123822168D01*
X129084967Y-123885000D01*
X129407033Y-123885000D01*
X129722912Y-123822168D01*
X130020463Y-123698918D01*
X130288252Y-123519987D01*
X130515987Y-123292252D01*
X130694918Y-123024463D01*
X130818168Y-122726912D01*
X130881000Y-122411033D01*
X130881000Y-122088967D01*
X130818168Y-121773088D01*
X130694918Y-121475537D01*
X130515987Y-121207748D01*
X130288252Y-120980013D01*
X130020463Y-120801082D01*
X129722912Y-120677832D01*
X129407033Y-120615000D01*
X129084967Y-120615000D01*
X128769088Y-120677832D01*
X128471537Y-120801082D01*
X128203748Y-120980013D01*
X127976013Y-121207748D01*
X127797082Y-121475537D01*
X127673832Y-121773088D01*
X127611000Y-122088967D01*
X105785000Y-122088967D01*
X105785000Y-117726000D01*
X107614815Y-117726000D01*
X107643487Y-118017111D01*
X107728401Y-118297034D01*
X107866294Y-118555014D01*
X108051866Y-118781134D01*
X108277986Y-118966706D01*
X108535966Y-119104599D01*
X108815889Y-119189513D01*
X109034050Y-119211000D01*
X109429950Y-119211000D01*
X109648111Y-119189513D01*
X109928034Y-119104599D01*
X110186014Y-118966706D01*
X110412134Y-118781134D01*
X110597706Y-118555014D01*
X110735599Y-118297034D01*
X110820513Y-118017111D01*
X110849185Y-117726000D01*
X110820513Y-117434889D01*
X110735599Y-117154966D01*
X110597706Y-116896986D01*
X110412134Y-116670866D01*
X110186014Y-116485294D01*
X110160278Y-116471538D01*
X110366429Y-116315049D01*
X110559496Y-116097193D01*
X110706352Y-115845858D01*
X110798476Y-115582890D01*
X110677155Y-115353000D01*
X109359000Y-115353000D01*
X109359000Y-115373000D01*
X109105000Y-115373000D01*
X109105000Y-115353000D01*
X107786845Y-115353000D01*
X107665524Y-115582890D01*
X107757648Y-115845858D01*
X107904504Y-116097193D01*
X108097571Y-116315049D01*
X108303722Y-116471538D01*
X108277986Y-116485294D01*
X108051866Y-116670866D01*
X107866294Y-116896986D01*
X107728401Y-117154966D01*
X107643487Y-117434889D01*
X107614815Y-117726000D01*
X105785000Y-117726000D01*
X105785000Y-112126000D01*
X107618928Y-112126000D01*
X107618928Y-113326000D01*
X107635992Y-113499254D01*
X107686528Y-113665850D01*
X107768595Y-113819386D01*
X107879038Y-113953962D01*
X108013614Y-114064405D01*
X108118961Y-114120714D01*
X108097571Y-114136951D01*
X107904504Y-114354807D01*
X107757648Y-114606142D01*
X107665524Y-114869110D01*
X107786845Y-115099000D01*
X109105000Y-115099000D01*
X109105000Y-115079000D01*
X109359000Y-115079000D01*
X109359000Y-115099000D01*
X110677155Y-115099000D01*
X110798476Y-114869110D01*
X110706352Y-114606142D01*
X110559496Y-114354807D01*
X110366429Y-114136951D01*
X110345039Y-114120714D01*
X110450386Y-114064405D01*
X110584962Y-113953962D01*
X110695405Y-113819386D01*
X110777472Y-113665850D01*
X110828008Y-113499254D01*
X110845072Y-113326000D01*
X110845072Y-112126000D01*
X110828008Y-111952746D01*
X110777472Y-111786150D01*
X110695405Y-111632614D01*
X110584962Y-111498038D01*
X110450386Y-111387595D01*
X110296850Y-111305528D01*
X110130254Y-111254992D01*
X109957000Y-111237928D01*
X108507000Y-111237928D01*
X108333746Y-111254992D01*
X108167150Y-111305528D01*
X108013614Y-111387595D01*
X107879038Y-111498038D01*
X107768595Y-111632614D01*
X107686528Y-111786150D01*
X107635992Y-111952746D01*
X107618928Y-112126000D01*
X105785000Y-112126000D01*
X105785000Y-111124270D01*
X139285681Y-111124270D01*
X139285681Y-111397092D01*
X139338906Y-111664670D01*
X139443310Y-111916724D01*
X139594882Y-112143567D01*
X139787795Y-112336480D01*
X140014638Y-112488052D01*
X140266692Y-112592456D01*
X140534270Y-112645681D01*
X140807092Y-112645681D01*
X141074670Y-112592456D01*
X141326724Y-112488052D01*
X141553567Y-112336480D01*
X141746480Y-112143567D01*
X141898052Y-111916724D01*
X142002456Y-111664670D01*
X142055681Y-111397092D01*
X142055681Y-111124270D01*
X142002456Y-110856692D01*
X141898052Y-110604638D01*
X141746480Y-110377795D01*
X141553567Y-110184882D01*
X141326724Y-110033310D01*
X141074670Y-109928906D01*
X140807092Y-109875681D01*
X140534270Y-109875681D01*
X140266692Y-109928906D01*
X140014638Y-110033310D01*
X139787795Y-110184882D01*
X139594882Y-110377795D01*
X139443310Y-110604638D01*
X139338906Y-110856692D01*
X139285681Y-111124270D01*
X105785000Y-111124270D01*
X105785000Y-107673589D01*
X135835000Y-107673589D01*
X135835000Y-107946411D01*
X135888225Y-108213989D01*
X135992629Y-108466043D01*
X136144201Y-108692886D01*
X136337114Y-108885799D01*
X136563957Y-109037371D01*
X136816011Y-109141775D01*
X137083589Y-109195000D01*
X137356411Y-109195000D01*
X137623989Y-109141775D01*
X137876043Y-109037371D01*
X138102886Y-108885799D01*
X138295799Y-108692886D01*
X138447371Y-108466043D01*
X138551775Y-108213989D01*
X138605000Y-107946411D01*
X138605000Y-107673589D01*
X138551775Y-107406011D01*
X138447371Y-107153957D01*
X138295799Y-106927114D01*
X138102886Y-106734201D01*
X137876043Y-106582629D01*
X137623989Y-106478225D01*
X137356411Y-106425000D01*
X137083589Y-106425000D01*
X136816011Y-106478225D01*
X136563957Y-106582629D01*
X136337114Y-106734201D01*
X136144201Y-106927114D01*
X135992629Y-107153957D01*
X135888225Y-107406011D01*
X135835000Y-107673589D01*
X105785000Y-107673589D01*
X105785000Y-102232000D01*
X107614815Y-102232000D01*
X107643487Y-102523111D01*
X107728401Y-102803034D01*
X107866294Y-103061014D01*
X108051866Y-103287134D01*
X108277986Y-103472706D01*
X108535966Y-103610599D01*
X108815889Y-103695513D01*
X109034050Y-103717000D01*
X109429950Y-103717000D01*
X109648111Y-103695513D01*
X109928034Y-103610599D01*
X110186014Y-103472706D01*
X110412134Y-103287134D01*
X110597706Y-103061014D01*
X110735599Y-102803034D01*
X110820513Y-102523111D01*
X110849185Y-102232000D01*
X110820513Y-101940889D01*
X110735599Y-101660966D01*
X110597706Y-101402986D01*
X110412134Y-101176866D01*
X110186014Y-100991294D01*
X110160278Y-100977538D01*
X110366429Y-100821049D01*
X110559496Y-100603193D01*
X110706352Y-100351858D01*
X110798476Y-100088890D01*
X110677155Y-99859000D01*
X109359000Y-99859000D01*
X109359000Y-99879000D01*
X109105000Y-99879000D01*
X109105000Y-99859000D01*
X107786845Y-99859000D01*
X107665524Y-100088890D01*
X107757648Y-100351858D01*
X107904504Y-100603193D01*
X108097571Y-100821049D01*
X108303722Y-100977538D01*
X108277986Y-100991294D01*
X108051866Y-101176866D01*
X107866294Y-101402986D01*
X107728401Y-101660966D01*
X107643487Y-101940889D01*
X107614815Y-102232000D01*
X105785000Y-102232000D01*
X105785000Y-96632000D01*
X107618928Y-96632000D01*
X107618928Y-97832000D01*
X107635992Y-98005254D01*
X107686528Y-98171850D01*
X107768595Y-98325386D01*
X107879038Y-98459962D01*
X108013614Y-98570405D01*
X108118961Y-98626714D01*
X108097571Y-98642951D01*
X107904504Y-98860807D01*
X107757648Y-99112142D01*
X107665524Y-99375110D01*
X107786845Y-99605000D01*
X109105000Y-99605000D01*
X109105000Y-99585000D01*
X109359000Y-99585000D01*
X109359000Y-99605000D01*
X110677155Y-99605000D01*
X110798476Y-99375110D01*
X110706352Y-99112142D01*
X110559496Y-98860807D01*
X110366429Y-98642951D01*
X110345039Y-98626714D01*
X110450386Y-98570405D01*
X110584962Y-98459962D01*
X110695405Y-98325386D01*
X110777472Y-98171850D01*
X110828008Y-98005254D01*
X110845072Y-97832000D01*
X110845072Y-96632000D01*
X110828008Y-96458746D01*
X110777472Y-96292150D01*
X110695405Y-96138614D01*
X110584962Y-96004038D01*
X110450386Y-95893595D01*
X110296850Y-95811528D01*
X110130254Y-95760992D01*
X109957000Y-95743928D01*
X108507000Y-95743928D01*
X108333746Y-95760992D01*
X108167150Y-95811528D01*
X108013614Y-95893595D01*
X107879038Y-96004038D01*
X107768595Y-96138614D01*
X107686528Y-96292150D01*
X107635992Y-96458746D01*
X107618928Y-96632000D01*
X105785000Y-96632000D01*
X105785000Y-88850000D01*
X106511928Y-88850000D01*
X106511928Y-90550000D01*
X106524188Y-90674482D01*
X106560498Y-90794180D01*
X106619463Y-90904494D01*
X106698815Y-91001185D01*
X106795506Y-91080537D01*
X106905820Y-91139502D01*
X107025518Y-91175812D01*
X107150000Y-91188072D01*
X107240001Y-91188072D01*
X107240001Y-91662668D01*
X107236324Y-91700000D01*
X107240001Y-91737333D01*
X107250998Y-91848986D01*
X107259109Y-91875724D01*
X107294454Y-91992246D01*
X107365026Y-92124276D01*
X107436201Y-92211002D01*
X107460000Y-92240001D01*
X107488998Y-92263799D01*
X108036200Y-92811002D01*
X108059999Y-92840001D01*
X108088997Y-92863799D01*
X108175723Y-92934974D01*
X108279148Y-92990256D01*
X108307753Y-93005546D01*
X108451014Y-93049003D01*
X108562667Y-93060000D01*
X108562676Y-93060000D01*
X108599999Y-93063676D01*
X108637322Y-93060000D01*
X124785199Y-93060000D01*
X141836201Y-110111003D01*
X141859999Y-110140001D01*
X141888997Y-110163799D01*
X141975724Y-110234974D01*
X142107753Y-110305546D01*
X142251014Y-110349003D01*
X142400000Y-110363677D01*
X142437333Y-110360000D01*
X152962678Y-110360000D01*
X153000000Y-110363676D01*
X153037322Y-110360000D01*
X153037333Y-110360000D01*
X153148986Y-110349003D01*
X153292247Y-110305546D01*
X153424276Y-110234974D01*
X153540001Y-110140001D01*
X153563804Y-110110997D01*
X153711011Y-109963790D01*
X153740014Y-109939988D01*
X153834987Y-109824263D01*
X153905559Y-109692234D01*
X153933149Y-109601280D01*
X153939979Y-109594450D01*
X153939978Y-112285220D01*
X144735199Y-121490000D01*
X137200909Y-121490000D01*
X137194918Y-121475537D01*
X137015987Y-121207748D01*
X136788252Y-120980013D01*
X136520463Y-120801082D01*
X136222912Y-120677832D01*
X135907033Y-120615000D01*
X135584967Y-120615000D01*
X135269088Y-120677832D01*
X134971537Y-120801082D01*
X134703748Y-120980013D01*
X134476013Y-121207748D01*
X134297082Y-121475537D01*
X134173832Y-121773088D01*
X134111000Y-122088967D01*
X134111000Y-122411033D01*
X134173832Y-122726912D01*
X134297082Y-123024463D01*
X134476013Y-123292252D01*
X134703748Y-123519987D01*
X134971537Y-123698918D01*
X135269088Y-123822168D01*
X135584967Y-123885000D01*
X135907033Y-123885000D01*
X136222912Y-123822168D01*
X136520463Y-123698918D01*
X136788252Y-123519987D01*
X137015987Y-123292252D01*
X137194918Y-123024463D01*
X137200909Y-123010000D01*
X145012678Y-123010000D01*
X145050000Y-123013676D01*
X145087322Y-123010000D01*
X145087333Y-123010000D01*
X145198986Y-122999003D01*
X145342247Y-122955546D01*
X145474276Y-122884974D01*
X145590001Y-122790001D01*
X145613804Y-122760997D01*
X154489989Y-113884813D01*
X154489989Y-116390500D01*
X154486313Y-116427822D01*
X154489989Y-116465144D01*
X154489989Y-116465154D01*
X154500986Y-116576807D01*
X154523491Y-116650997D01*
X154544443Y-116720068D01*
X154615015Y-116852098D01*
X154645298Y-116888997D01*
X154709988Y-116967823D01*
X154738992Y-116991626D01*
X158158368Y-120411003D01*
X158182166Y-120440001D01*
X158297891Y-120534974D01*
X158429920Y-120605546D01*
X158573181Y-120649003D01*
X158684834Y-120660000D01*
X158684843Y-120660000D01*
X158722166Y-120663676D01*
X158759489Y-120660000D01*
X166450736Y-120660000D01*
X166361088Y-120677832D01*
X166063537Y-120801082D01*
X165795748Y-120980013D01*
X165568013Y-121207748D01*
X165389082Y-121475537D01*
X165265832Y-121773088D01*
X165203000Y-122088967D01*
X165203000Y-122411033D01*
X165265832Y-122726912D01*
X165389082Y-123024463D01*
X165568013Y-123292252D01*
X165795748Y-123519987D01*
X166063537Y-123698918D01*
X166361088Y-123822168D01*
X166676967Y-123885000D01*
X166999033Y-123885000D01*
X167314912Y-123822168D01*
X167612463Y-123698918D01*
X167880252Y-123519987D01*
X168107987Y-123292252D01*
X168286918Y-123024463D01*
X168410168Y-122726912D01*
X168473000Y-122411033D01*
X168473000Y-122088967D01*
X168410168Y-121773088D01*
X168286918Y-121475537D01*
X168107987Y-121207748D01*
X167880252Y-120980013D01*
X167612463Y-120801082D01*
X167314912Y-120677832D01*
X167225264Y-120660000D01*
X172950736Y-120660000D01*
X172861088Y-120677832D01*
X172563537Y-120801082D01*
X172295748Y-120980013D01*
X172068013Y-121207748D01*
X171889082Y-121475537D01*
X171765832Y-121773088D01*
X171703000Y-122088967D01*
X171703000Y-122411033D01*
X171765832Y-122726912D01*
X171889082Y-123024463D01*
X172068013Y-123292252D01*
X172295748Y-123519987D01*
X172563537Y-123698918D01*
X172861088Y-123822168D01*
X173176967Y-123885000D01*
X173499033Y-123885000D01*
X173814912Y-123822168D01*
X174112463Y-123698918D01*
X174380252Y-123519987D01*
X174607987Y-123292252D01*
X174786918Y-123024463D01*
X174910168Y-122726912D01*
X174973000Y-122411033D01*
X174973000Y-122088967D01*
X174910168Y-121773088D01*
X174786918Y-121475537D01*
X174607987Y-121207748D01*
X174380252Y-120980013D01*
X174112463Y-120801082D01*
X173814912Y-120677832D01*
X173725264Y-120660000D01*
X194317405Y-120660000D01*
X194354294Y-120729014D01*
X194539866Y-120955134D01*
X194603337Y-121007223D01*
X194501614Y-121061595D01*
X194367038Y-121172038D01*
X194256595Y-121306614D01*
X194174528Y-121460150D01*
X194123992Y-121626746D01*
X194106928Y-121800000D01*
X194106928Y-123000000D01*
X194123992Y-123173254D01*
X194174528Y-123339850D01*
X194256595Y-123493386D01*
X194367038Y-123627962D01*
X194501614Y-123738405D01*
X194655150Y-123820472D01*
X194821746Y-123871008D01*
X194995000Y-123888072D01*
X196445000Y-123888072D01*
X196618254Y-123871008D01*
X196784850Y-123820472D01*
X196938386Y-123738405D01*
X197072962Y-123627962D01*
X197183405Y-123493386D01*
X197265472Y-123339850D01*
X197316008Y-123173254D01*
X197333072Y-123000000D01*
X197333072Y-121800000D01*
X197316008Y-121626746D01*
X197265472Y-121460150D01*
X197183405Y-121306614D01*
X197072962Y-121172038D01*
X196938386Y-121061595D01*
X196836663Y-121007223D01*
X196900134Y-120955134D01*
X197085706Y-120729014D01*
X197223599Y-120471034D01*
X197308513Y-120191111D01*
X197337185Y-119900000D01*
X197308513Y-119608889D01*
X197223599Y-119328966D01*
X197085706Y-119070986D01*
X196900134Y-118844866D01*
X196674014Y-118659294D01*
X196656626Y-118650000D01*
X196674014Y-118640706D01*
X196900134Y-118455134D01*
X197085706Y-118229014D01*
X197223599Y-117971034D01*
X197308513Y-117691111D01*
X197337185Y-117400000D01*
X197308513Y-117108889D01*
X197223599Y-116828966D01*
X197085706Y-116570986D01*
X196900134Y-116344866D01*
X196674014Y-116159294D01*
X196416034Y-116021401D01*
X196136111Y-115936487D01*
X195917950Y-115915000D01*
X195522050Y-115915000D01*
X195303889Y-115936487D01*
X195023966Y-116021401D01*
X194765986Y-116159294D01*
X194539866Y-116344866D01*
X194354294Y-116570986D01*
X194317405Y-116640000D01*
X157314802Y-116640000D01*
X156560000Y-115885199D01*
X156560000Y-107860000D01*
X157596289Y-107860000D01*
X157640226Y-107903937D01*
X157809744Y-108017205D01*
X157998102Y-108095226D01*
X158198061Y-108135000D01*
X158401939Y-108135000D01*
X158601898Y-108095226D01*
X158790256Y-108017205D01*
X158959774Y-107903937D01*
X159103937Y-107759774D01*
X159217205Y-107590256D01*
X159295226Y-107401898D01*
X159335000Y-107201939D01*
X159335000Y-106998061D01*
X159295226Y-106798102D01*
X159217205Y-106609744D01*
X159103937Y-106440226D01*
X158959774Y-106296063D01*
X158790256Y-106182795D01*
X158601898Y-106104774D01*
X158401939Y-106065000D01*
X158198061Y-106065000D01*
X157998102Y-106104774D01*
X157809744Y-106182795D01*
X157640226Y-106296063D01*
X157596289Y-106340000D01*
X156614802Y-106340000D01*
X154435000Y-104160199D01*
X154435000Y-104098061D01*
X154395226Y-103898102D01*
X154317205Y-103709744D01*
X154203937Y-103540226D01*
X154059774Y-103396063D01*
X153890256Y-103282795D01*
X153701898Y-103204774D01*
X153501939Y-103165000D01*
X153298061Y-103165000D01*
X153098102Y-103204774D01*
X152909744Y-103282795D01*
X152740226Y-103396063D01*
X152596063Y-103540226D01*
X152482795Y-103709744D01*
X152404774Y-103898102D01*
X152365000Y-104098061D01*
X152365000Y-104301939D01*
X152404774Y-104501898D01*
X152482795Y-104690256D01*
X152596063Y-104859774D01*
X152740226Y-105003937D01*
X152909744Y-105117205D01*
X153098102Y-105195226D01*
X153298061Y-105235000D01*
X153360199Y-105235000D01*
X153565199Y-105440000D01*
X148914802Y-105440000D01*
X148560000Y-105085199D01*
X148560000Y-100503711D01*
X148603937Y-100459774D01*
X148717205Y-100290256D01*
X148795226Y-100101898D01*
X148835000Y-99901939D01*
X148835000Y-99698061D01*
X148795226Y-99498102D01*
X148717205Y-99309744D01*
X148603937Y-99140226D01*
X148513711Y-99050000D01*
X148603937Y-98959774D01*
X148717205Y-98790256D01*
X148795226Y-98601898D01*
X148835000Y-98401939D01*
X148835000Y-98198061D01*
X148795226Y-97998102D01*
X148717205Y-97809744D01*
X148603937Y-97640226D01*
X148459774Y-97496063D01*
X148290256Y-97382795D01*
X148101898Y-97304774D01*
X148077897Y-97300000D01*
X148101898Y-97295226D01*
X148290256Y-97217205D01*
X148459774Y-97103937D01*
X148503711Y-97060000D01*
X150962678Y-97060000D01*
X151000000Y-97063676D01*
X151037322Y-97060000D01*
X151037333Y-97060000D01*
X151148986Y-97049003D01*
X151292247Y-97005546D01*
X151424276Y-96934974D01*
X151540001Y-96840001D01*
X151563803Y-96810998D01*
X152413799Y-95961003D01*
X152413803Y-95960998D01*
X152454018Y-95920783D01*
X152482795Y-95990256D01*
X152596063Y-96159774D01*
X152740226Y-96303937D01*
X152909744Y-96417205D01*
X153098102Y-96495226D01*
X153298061Y-96535000D01*
X153501939Y-96535000D01*
X153701898Y-96495226D01*
X153890256Y-96417205D01*
X154059774Y-96303937D01*
X154065000Y-96298711D01*
X154065000Y-96501939D01*
X154104774Y-96701898D01*
X154182795Y-96890256D01*
X154296063Y-97059774D01*
X154440226Y-97203937D01*
X154609744Y-97317205D01*
X154798102Y-97395226D01*
X154998061Y-97435000D01*
X155060199Y-97435000D01*
X159540000Y-101914802D01*
X159540001Y-107785197D01*
X158289003Y-109036196D01*
X158259999Y-109059999D01*
X158220819Y-109107741D01*
X158165026Y-109175724D01*
X158124789Y-109251002D01*
X158094454Y-109307754D01*
X158050997Y-109451015D01*
X158040000Y-109562668D01*
X158040000Y-109562678D01*
X158036324Y-109600000D01*
X158040000Y-109637323D01*
X158040001Y-111396288D01*
X157996063Y-111440226D01*
X157882795Y-111609744D01*
X157804774Y-111798102D01*
X157765000Y-111998061D01*
X157765000Y-112201939D01*
X157804774Y-112401898D01*
X157882795Y-112590256D01*
X157996063Y-112759774D01*
X158140226Y-112903937D01*
X158309744Y-113017205D01*
X158498102Y-113095226D01*
X158698061Y-113135000D01*
X158901939Y-113135000D01*
X159101898Y-113095226D01*
X159290256Y-113017205D01*
X159400000Y-112943877D01*
X159509744Y-113017205D01*
X159698102Y-113095226D01*
X159898061Y-113135000D01*
X160101939Y-113135000D01*
X160301898Y-113095226D01*
X160490256Y-113017205D01*
X160600000Y-112943877D01*
X160709744Y-113017205D01*
X160898102Y-113095226D01*
X161098061Y-113135000D01*
X161301939Y-113135000D01*
X161501898Y-113095226D01*
X161690256Y-113017205D01*
X161750000Y-112977285D01*
X161809744Y-113017205D01*
X161998102Y-113095226D01*
X162198061Y-113135000D01*
X162401939Y-113135000D01*
X162601898Y-113095226D01*
X162790256Y-113017205D01*
X162850000Y-112977285D01*
X162909744Y-113017205D01*
X163098102Y-113095226D01*
X163298061Y-113135000D01*
X163501939Y-113135000D01*
X163701898Y-113095226D01*
X163890256Y-113017205D01*
X163950000Y-112977285D01*
X164009744Y-113017205D01*
X164198102Y-113095226D01*
X164398061Y-113135000D01*
X164601939Y-113135000D01*
X164801898Y-113095226D01*
X164990256Y-113017205D01*
X165159774Y-112903937D01*
X165240001Y-112823710D01*
X165240001Y-114396288D01*
X165196063Y-114440226D01*
X165082795Y-114609744D01*
X165004774Y-114798102D01*
X164965000Y-114998061D01*
X164965000Y-115201939D01*
X165004774Y-115401898D01*
X165082795Y-115590256D01*
X165196063Y-115759774D01*
X165340226Y-115903937D01*
X165509744Y-116017205D01*
X165698102Y-116095226D01*
X165898061Y-116135000D01*
X166101939Y-116135000D01*
X166301898Y-116095226D01*
X166490256Y-116017205D01*
X166659774Y-115903937D01*
X166803937Y-115759774D01*
X166917205Y-115590256D01*
X166995226Y-115401898D01*
X167035000Y-115201939D01*
X167035000Y-114998061D01*
X166995226Y-114798102D01*
X166917205Y-114609744D01*
X166803937Y-114440226D01*
X166760000Y-114396289D01*
X166760000Y-107003711D01*
X166803937Y-106959774D01*
X166917205Y-106790256D01*
X166995226Y-106601898D01*
X167035000Y-106401939D01*
X167035000Y-106198061D01*
X167665000Y-106198061D01*
X167665000Y-106401939D01*
X167704774Y-106601898D01*
X167782795Y-106790256D01*
X167896063Y-106959774D01*
X167940001Y-107003712D01*
X167940000Y-114396289D01*
X167896063Y-114440226D01*
X167782795Y-114609744D01*
X167704774Y-114798102D01*
X167665000Y-114998061D01*
X167665000Y-115201939D01*
X167704774Y-115401898D01*
X167782795Y-115590256D01*
X167896063Y-115759774D01*
X168040226Y-115903937D01*
X168209744Y-116017205D01*
X168398102Y-116095226D01*
X168598061Y-116135000D01*
X168801939Y-116135000D01*
X169001898Y-116095226D01*
X169190256Y-116017205D01*
X169359774Y-115903937D01*
X169503937Y-115759774D01*
X169617205Y-115590256D01*
X169695226Y-115401898D01*
X169735000Y-115201939D01*
X169735000Y-114998061D01*
X169695226Y-114798102D01*
X169617205Y-114609744D01*
X169503937Y-114440226D01*
X169460000Y-114396289D01*
X169460000Y-107003711D01*
X169503937Y-106959774D01*
X169617205Y-106790256D01*
X169695226Y-106601898D01*
X169735000Y-106401939D01*
X169735000Y-106198061D01*
X169695226Y-105998102D01*
X169617205Y-105809744D01*
X169503937Y-105640226D01*
X169359774Y-105496063D01*
X169190256Y-105382795D01*
X169001898Y-105304774D01*
X168801939Y-105265000D01*
X168598061Y-105265000D01*
X168398102Y-105304774D01*
X168209744Y-105382795D01*
X168040226Y-105496063D01*
X167896063Y-105640226D01*
X167782795Y-105809744D01*
X167704774Y-105998102D01*
X167665000Y-106198061D01*
X167035000Y-106198061D01*
X166995226Y-105998102D01*
X166917205Y-105809744D01*
X166803937Y-105640226D01*
X166659774Y-105496063D01*
X166490256Y-105382795D01*
X166301898Y-105304774D01*
X166101939Y-105265000D01*
X165898061Y-105265000D01*
X165698102Y-105304774D01*
X165509744Y-105382795D01*
X165340226Y-105496063D01*
X165260000Y-105576289D01*
X165260000Y-104600000D01*
X194124815Y-104600000D01*
X194153487Y-104891111D01*
X194238401Y-105171034D01*
X194376294Y-105429014D01*
X194561866Y-105655134D01*
X194787986Y-105840706D01*
X194805374Y-105850000D01*
X194787986Y-105859294D01*
X194561866Y-106044866D01*
X194376294Y-106270986D01*
X194238401Y-106528966D01*
X194153487Y-106808889D01*
X194124815Y-107100000D01*
X194153487Y-107391111D01*
X194238401Y-107671034D01*
X194376294Y-107929014D01*
X194561866Y-108155134D01*
X194625337Y-108207223D01*
X194523614Y-108261595D01*
X194389038Y-108372038D01*
X194278595Y-108506614D01*
X194196528Y-108660150D01*
X194145992Y-108826746D01*
X194128928Y-109000000D01*
X194128928Y-110200000D01*
X194145992Y-110373254D01*
X194196528Y-110539850D01*
X194278595Y-110693386D01*
X194389038Y-110827962D01*
X194523614Y-110938405D01*
X194677150Y-111020472D01*
X194843746Y-111071008D01*
X195017000Y-111088072D01*
X196467000Y-111088072D01*
X196640254Y-111071008D01*
X196806850Y-111020472D01*
X196960386Y-110938405D01*
X197094962Y-110827962D01*
X197205405Y-110693386D01*
X197287472Y-110539850D01*
X197338008Y-110373254D01*
X197355072Y-110200000D01*
X197355072Y-109000000D01*
X197338008Y-108826746D01*
X197287472Y-108660150D01*
X197205405Y-108506614D01*
X197094962Y-108372038D01*
X196960386Y-108261595D01*
X196858663Y-108207223D01*
X196922134Y-108155134D01*
X197107706Y-107929014D01*
X197245599Y-107671034D01*
X197330513Y-107391111D01*
X197359185Y-107100000D01*
X197330513Y-106808889D01*
X197245599Y-106528966D01*
X197107706Y-106270986D01*
X196922134Y-106044866D01*
X196696014Y-105859294D01*
X196678626Y-105850000D01*
X196696014Y-105840706D01*
X196922134Y-105655134D01*
X197107706Y-105429014D01*
X197245599Y-105171034D01*
X197330513Y-104891111D01*
X197359185Y-104600000D01*
X197330513Y-104308889D01*
X197245599Y-104028966D01*
X197107706Y-103770986D01*
X196922134Y-103544866D01*
X196696014Y-103359294D01*
X196438034Y-103221401D01*
X196158111Y-103136487D01*
X195939950Y-103115000D01*
X195544050Y-103115000D01*
X195325889Y-103136487D01*
X195045966Y-103221401D01*
X194787986Y-103359294D01*
X194561866Y-103544866D01*
X194376294Y-103770986D01*
X194238401Y-104028966D01*
X194153487Y-104308889D01*
X194124815Y-104600000D01*
X165260000Y-104600000D01*
X165260000Y-102587323D01*
X165263676Y-102550000D01*
X165262560Y-102538665D01*
X166265000Y-102538665D01*
X166265000Y-102821335D01*
X166320147Y-103098574D01*
X166428320Y-103359727D01*
X166585363Y-103594759D01*
X166785241Y-103794637D01*
X167020273Y-103951680D01*
X167281426Y-104059853D01*
X167558665Y-104115000D01*
X167841335Y-104115000D01*
X168118574Y-104059853D01*
X168379727Y-103951680D01*
X168614759Y-103794637D01*
X168736694Y-103672702D01*
X169386903Y-103672702D01*
X169458486Y-103916671D01*
X169713996Y-104037571D01*
X169988184Y-104106300D01*
X170270512Y-104120217D01*
X170550130Y-104078787D01*
X170816292Y-103983603D01*
X170941514Y-103916671D01*
X171013097Y-103672702D01*
X170200000Y-102859605D01*
X169386903Y-103672702D01*
X168736694Y-103672702D01*
X168814637Y-103594759D01*
X168948692Y-103394131D01*
X168963329Y-103421514D01*
X169207298Y-103493097D01*
X170020395Y-102680000D01*
X170379605Y-102680000D01*
X171192702Y-103493097D01*
X171436671Y-103421514D01*
X171557571Y-103166004D01*
X171626300Y-102891816D01*
X171640217Y-102609488D01*
X171598787Y-102329870D01*
X171503603Y-102063708D01*
X171436671Y-101938486D01*
X171192702Y-101866903D01*
X170379605Y-102680000D01*
X170020395Y-102680000D01*
X169207298Y-101866903D01*
X168963329Y-101938486D01*
X168949676Y-101967341D01*
X168814637Y-101765241D01*
X168736694Y-101687298D01*
X169386903Y-101687298D01*
X170200000Y-102500395D01*
X171013097Y-101687298D01*
X170941514Y-101443329D01*
X170686004Y-101322429D01*
X170411816Y-101253700D01*
X170129488Y-101239783D01*
X169849870Y-101281213D01*
X169583708Y-101376397D01*
X169458486Y-101443329D01*
X169386903Y-101687298D01*
X168736694Y-101687298D01*
X168614759Y-101565363D01*
X168379727Y-101408320D01*
X168118574Y-101300147D01*
X167841335Y-101245000D01*
X167558665Y-101245000D01*
X167281426Y-101300147D01*
X167020273Y-101408320D01*
X166785241Y-101565363D01*
X166585363Y-101765241D01*
X166428320Y-102000273D01*
X166320147Y-102261426D01*
X166265000Y-102538665D01*
X165262560Y-102538665D01*
X165260000Y-102512677D01*
X165260000Y-102512667D01*
X165249003Y-102401014D01*
X165205546Y-102257753D01*
X165174676Y-102200000D01*
X165134974Y-102125723D01*
X165063799Y-102038997D01*
X165040001Y-102009999D01*
X165011004Y-101986202D01*
X159841209Y-96816408D01*
X159942205Y-96665256D01*
X160020226Y-96476898D01*
X160060000Y-96276939D01*
X160060000Y-96073061D01*
X160020226Y-95873102D01*
X159942205Y-95684744D01*
X159828937Y-95515226D01*
X159684774Y-95371063D01*
X159515256Y-95257795D01*
X159326898Y-95179774D01*
X159227427Y-95159988D01*
X159195226Y-94998102D01*
X159117205Y-94809744D01*
X159003937Y-94640226D01*
X158859774Y-94496063D01*
X158690256Y-94382795D01*
X158501898Y-94304774D01*
X158301939Y-94265000D01*
X158098061Y-94265000D01*
X157898102Y-94304774D01*
X157709744Y-94382795D01*
X157540226Y-94496063D01*
X157396063Y-94640226D01*
X157282795Y-94809744D01*
X157204774Y-94998102D01*
X157165000Y-95198061D01*
X157165000Y-95255895D01*
X157159999Y-95259999D01*
X157122620Y-95305546D01*
X157065026Y-95375724D01*
X157025324Y-95450001D01*
X156994454Y-95507754D01*
X156950997Y-95651015D01*
X156940000Y-95762668D01*
X156940000Y-95762678D01*
X156936324Y-95800000D01*
X156940000Y-95837322D01*
X156940000Y-96065199D01*
X155863804Y-94989003D01*
X155840001Y-94959999D01*
X155724276Y-94865026D01*
X155592247Y-94794454D01*
X155448986Y-94750997D01*
X155337333Y-94740000D01*
X155337322Y-94740000D01*
X155300000Y-94736324D01*
X155262678Y-94740000D01*
X154103711Y-94740000D01*
X154059774Y-94696063D01*
X153890256Y-94582795D01*
X153820783Y-94554018D01*
X154214802Y-94160000D01*
X179585199Y-94160000D01*
X180736201Y-95311003D01*
X180759999Y-95340001D01*
X180788997Y-95363799D01*
X180875723Y-95434974D01*
X180965189Y-95482795D01*
X181007753Y-95505546D01*
X181151014Y-95549003D01*
X181262667Y-95560000D01*
X181262677Y-95560000D01*
X181300000Y-95563676D01*
X181337322Y-95560000D01*
X182496289Y-95560000D01*
X182540226Y-95603937D01*
X182709744Y-95717205D01*
X182898102Y-95795226D01*
X183098061Y-95835000D01*
X183301939Y-95835000D01*
X183501898Y-95795226D01*
X183690256Y-95717205D01*
X183859774Y-95603937D01*
X184003937Y-95459774D01*
X184117205Y-95290256D01*
X184195226Y-95101898D01*
X184235000Y-94901939D01*
X184235000Y-94698061D01*
X184195226Y-94498102D01*
X184117205Y-94309744D01*
X184003937Y-94140226D01*
X183859774Y-93996063D01*
X183690256Y-93882795D01*
X183501898Y-93804774D01*
X183301939Y-93765000D01*
X183098061Y-93765000D01*
X182898102Y-93804774D01*
X182709744Y-93882795D01*
X182540226Y-93996063D01*
X182496289Y-94040000D01*
X181614802Y-94040000D01*
X180834801Y-93260000D01*
X182496289Y-93260000D01*
X182540226Y-93303937D01*
X182709744Y-93417205D01*
X182898102Y-93495226D01*
X183098061Y-93535000D01*
X183301939Y-93535000D01*
X183501898Y-93495226D01*
X183690256Y-93417205D01*
X183859774Y-93303937D01*
X184003937Y-93159774D01*
X184117205Y-92990256D01*
X184195226Y-92801898D01*
X184235000Y-92601939D01*
X184235000Y-92398061D01*
X184195226Y-92198102D01*
X184117205Y-92009744D01*
X184003937Y-91840226D01*
X183859774Y-91696063D01*
X183690256Y-91582795D01*
X183501898Y-91504774D01*
X183301939Y-91465000D01*
X183098061Y-91465000D01*
X182898102Y-91504774D01*
X182709744Y-91582795D01*
X182540226Y-91696063D01*
X182496289Y-91740000D01*
X153537322Y-91740000D01*
X153499999Y-91736324D01*
X153462676Y-91740000D01*
X153462667Y-91740000D01*
X153351014Y-91750997D01*
X153207753Y-91794454D01*
X153075724Y-91865026D01*
X153075722Y-91865027D01*
X153075723Y-91865027D01*
X152988996Y-91936201D01*
X152988992Y-91936205D01*
X152959999Y-91959999D01*
X152936205Y-91988992D01*
X151639916Y-93285282D01*
X151567205Y-93109744D01*
X151453937Y-92940226D01*
X151309774Y-92796063D01*
X151140256Y-92682795D01*
X150951898Y-92604774D01*
X150751939Y-92565000D01*
X150689802Y-92565000D01*
X147121278Y-88996477D01*
X147259774Y-88903937D01*
X147303711Y-88860000D01*
X147462678Y-88860000D01*
X147500000Y-88863676D01*
X147537322Y-88860000D01*
X147537333Y-88860000D01*
X147648986Y-88849003D01*
X147792247Y-88805546D01*
X147924276Y-88734974D01*
X148040001Y-88640001D01*
X148063803Y-88610998D01*
X148611002Y-88063800D01*
X148640001Y-88040001D01*
X148713031Y-87951014D01*
X148734974Y-87924277D01*
X148805546Y-87792247D01*
X148832334Y-87703937D01*
X148849003Y-87648986D01*
X148860000Y-87537333D01*
X148860000Y-87537324D01*
X148863676Y-87500001D01*
X148860000Y-87462678D01*
X148860000Y-84714801D01*
X149314802Y-84260000D01*
X152396289Y-84260000D01*
X152440226Y-84303937D01*
X152609744Y-84417205D01*
X152798102Y-84495226D01*
X152998061Y-84535000D01*
X153201939Y-84535000D01*
X153401898Y-84495226D01*
X153590256Y-84417205D01*
X153759774Y-84303937D01*
X153903937Y-84159774D01*
X153971495Y-84058665D01*
X159865000Y-84058665D01*
X159865000Y-84341335D01*
X159920147Y-84618574D01*
X160028320Y-84879727D01*
X160185363Y-85114759D01*
X160385241Y-85314637D01*
X160620273Y-85471680D01*
X160881426Y-85579853D01*
X161158665Y-85635000D01*
X161441335Y-85635000D01*
X161718574Y-85579853D01*
X161979727Y-85471680D01*
X162214759Y-85314637D01*
X162414637Y-85114759D01*
X162529329Y-84943109D01*
X167798519Y-84943109D01*
X167919186Y-85173000D01*
X169113000Y-85173000D01*
X169113000Y-83979845D01*
X168883110Y-83858524D01*
X168735901Y-83903175D01*
X168473080Y-84028359D01*
X168239731Y-84202412D01*
X168044822Y-84418645D01*
X167895843Y-84668748D01*
X167798519Y-84943109D01*
X162529329Y-84943109D01*
X162571680Y-84879727D01*
X162679853Y-84618574D01*
X162735000Y-84341335D01*
X162735000Y-84058665D01*
X162687925Y-83822008D01*
X162717638Y-83831021D01*
X162940767Y-83709126D01*
X162940767Y-82738841D01*
X163053626Y-82625982D01*
X162986877Y-82559233D01*
X163194767Y-82559233D01*
X163194767Y-83709126D01*
X163417896Y-83831021D01*
X163684058Y-83735837D01*
X163926537Y-83590556D01*
X164136014Y-83400761D01*
X164304438Y-83173746D01*
X164425338Y-82918235D01*
X164466555Y-82782362D01*
X164344660Y-82559233D01*
X163194767Y-82559233D01*
X162986877Y-82559233D01*
X162874018Y-82446374D01*
X162761159Y-82559233D01*
X161790874Y-82559233D01*
X161668979Y-82782362D01*
X161679728Y-82812420D01*
X161441335Y-82765000D01*
X161158665Y-82765000D01*
X160881426Y-82820147D01*
X160620273Y-82928320D01*
X160385241Y-83085363D01*
X160185363Y-83285241D01*
X160028320Y-83520273D01*
X159920147Y-83781426D01*
X159865000Y-84058665D01*
X153971495Y-84058665D01*
X154017205Y-83990256D01*
X154095226Y-83801898D01*
X154135000Y-83601939D01*
X154135000Y-83398061D01*
X154095226Y-83198102D01*
X154017205Y-83009744D01*
X153977285Y-82950000D01*
X154017205Y-82890256D01*
X154095226Y-82701898D01*
X154135000Y-82501939D01*
X154135000Y-82298061D01*
X154095226Y-82098102D01*
X154088600Y-82082104D01*
X161668979Y-82082104D01*
X161790874Y-82305233D01*
X162940767Y-82305233D01*
X162940767Y-81155340D01*
X163194767Y-81155340D01*
X163194767Y-82305233D01*
X164344660Y-82305233D01*
X164466555Y-82082104D01*
X164371371Y-81815942D01*
X164226090Y-81573463D01*
X164036295Y-81363986D01*
X163809280Y-81195562D01*
X163553769Y-81074662D01*
X163417896Y-81033445D01*
X163194767Y-81155340D01*
X162940767Y-81155340D01*
X162717638Y-81033445D01*
X162451476Y-81128629D01*
X162208997Y-81273910D01*
X161999520Y-81463705D01*
X161831096Y-81690720D01*
X161710196Y-81946231D01*
X161668979Y-82082104D01*
X154088600Y-82082104D01*
X154017205Y-81909744D01*
X153903937Y-81740226D01*
X153759774Y-81596063D01*
X153590256Y-81482795D01*
X153401898Y-81404774D01*
X153201939Y-81365000D01*
X152998061Y-81365000D01*
X152798102Y-81404774D01*
X152609744Y-81482795D01*
X152440226Y-81596063D01*
X152396289Y-81640000D01*
X148462325Y-81640000D01*
X148425000Y-81636324D01*
X148387675Y-81640000D01*
X148387667Y-81640000D01*
X148276014Y-81650997D01*
X148132753Y-81694454D01*
X148000724Y-81765026D01*
X147884999Y-81859999D01*
X147861201Y-81888997D01*
X146088998Y-83661201D01*
X146060000Y-83684999D01*
X146036202Y-83713997D01*
X146036201Y-83713998D01*
X145965026Y-83800724D01*
X145894454Y-83932754D01*
X145865454Y-84028359D01*
X145852724Y-84070326D01*
X145850998Y-84076015D01*
X145836324Y-84225000D01*
X145840001Y-84262332D01*
X145840000Y-86196289D01*
X145796063Y-86240226D01*
X145682795Y-86409744D01*
X145604774Y-86598102D01*
X145565000Y-86798061D01*
X145565000Y-87001939D01*
X145604774Y-87201898D01*
X145682795Y-87390256D01*
X145756123Y-87500000D01*
X145682795Y-87609744D01*
X145604774Y-87798102D01*
X145565000Y-87998061D01*
X145565000Y-88090198D01*
X144263804Y-86789003D01*
X144240001Y-86759999D01*
X144124276Y-86665026D01*
X143992247Y-86594454D01*
X143848986Y-86550997D01*
X143737333Y-86540000D01*
X143737322Y-86540000D01*
X143700000Y-86536324D01*
X143662678Y-86540000D01*
X142737323Y-86540000D01*
X142700000Y-86536324D01*
X142662677Y-86540000D01*
X142662667Y-86540000D01*
X142551014Y-86550997D01*
X142407753Y-86594454D01*
X142275723Y-86665026D01*
X142225542Y-86706209D01*
X142159999Y-86759999D01*
X142136201Y-86788997D01*
X141088998Y-87836201D01*
X141060000Y-87859999D01*
X141036202Y-87888997D01*
X141036201Y-87888998D01*
X140965026Y-87975724D01*
X140949086Y-88005546D01*
X140894454Y-88107753D01*
X140850997Y-88251014D01*
X140840000Y-88362667D01*
X140840000Y-88362678D01*
X140836324Y-88400000D01*
X140840000Y-88437322D01*
X140840000Y-88962678D01*
X140836324Y-89000000D01*
X140840000Y-89037322D01*
X140840000Y-89037332D01*
X140850997Y-89148985D01*
X140894454Y-89292246D01*
X140965026Y-89424276D01*
X140986867Y-89450889D01*
X141059999Y-89540001D01*
X141089002Y-89563804D01*
X141665000Y-90139802D01*
X141665000Y-90201939D01*
X141704774Y-90401898D01*
X141782795Y-90590256D01*
X141896063Y-90759774D01*
X142040226Y-90903937D01*
X142209744Y-91017205D01*
X142398102Y-91095226D01*
X142598061Y-91135000D01*
X142801939Y-91135000D01*
X143001898Y-91095226D01*
X143190256Y-91017205D01*
X143359774Y-90903937D01*
X143503937Y-90759774D01*
X143617205Y-90590256D01*
X143695226Y-90401898D01*
X143735000Y-90201939D01*
X143735000Y-89998061D01*
X143695226Y-89798102D01*
X143679444Y-89760000D01*
X144085199Y-89760000D01*
X147890197Y-93565000D01*
X147698061Y-93565000D01*
X147498102Y-93604774D01*
X147309744Y-93682795D01*
X147140226Y-93796063D01*
X146996063Y-93940226D01*
X146882795Y-94109744D01*
X146804774Y-94298102D01*
X146765000Y-94498061D01*
X146765000Y-94701939D01*
X146804774Y-94901898D01*
X146882795Y-95090256D01*
X146996063Y-95259774D01*
X147140226Y-95403937D01*
X147209164Y-95450000D01*
X147140226Y-95496063D01*
X146996063Y-95640226D01*
X146882795Y-95809744D01*
X146804774Y-95998102D01*
X146765000Y-96198061D01*
X146765000Y-96401939D01*
X146804774Y-96601898D01*
X146882795Y-96790256D01*
X146996063Y-96959774D01*
X147140226Y-97103937D01*
X147309744Y-97217205D01*
X147498102Y-97295226D01*
X147522103Y-97300000D01*
X147498102Y-97304774D01*
X147309744Y-97382795D01*
X147140226Y-97496063D01*
X147096289Y-97540000D01*
X146787322Y-97540000D01*
X146749999Y-97536324D01*
X146712676Y-97540000D01*
X146712667Y-97540000D01*
X146601014Y-97550997D01*
X146485616Y-97586002D01*
X146457753Y-97594454D01*
X146325723Y-97665026D01*
X146283146Y-97699969D01*
X146209999Y-97759999D01*
X146186196Y-97789003D01*
X145789003Y-98186196D01*
X145759999Y-98209999D01*
X145714303Y-98265680D01*
X145665026Y-98325724D01*
X145610491Y-98427752D01*
X145594454Y-98457754D01*
X145550997Y-98601015D01*
X145540000Y-98712668D01*
X145540000Y-98712678D01*
X145536324Y-98750000D01*
X145540000Y-98787323D01*
X145540001Y-99762658D01*
X145540000Y-99762667D01*
X145540000Y-99912332D01*
X145540001Y-99912342D01*
X145540000Y-105562677D01*
X145536324Y-105600000D01*
X145540000Y-105637322D01*
X145540000Y-105637332D01*
X145550997Y-105748985D01*
X145594454Y-105892246D01*
X145665026Y-106024276D01*
X145697227Y-106063513D01*
X145759999Y-106140001D01*
X145789003Y-106163804D01*
X146465198Y-106840000D01*
X142614802Y-106840000D01*
X129635000Y-93860199D01*
X129635000Y-91367801D01*
X131068318Y-89934483D01*
X131078614Y-89942933D01*
X131232150Y-90025000D01*
X131398746Y-90075536D01*
X131572000Y-90092600D01*
X131745254Y-90075536D01*
X131911850Y-90025000D01*
X132065386Y-89942933D01*
X132199962Y-89832490D01*
X133048490Y-88983962D01*
X133158933Y-88849386D01*
X133241000Y-88695850D01*
X133291536Y-88529254D01*
X133308600Y-88356000D01*
X133291536Y-88182746D01*
X133249736Y-88044949D01*
X133514311Y-88044949D01*
X133734459Y-88001158D01*
X140144303Y-94411003D01*
X140168101Y-94440001D01*
X140283826Y-94534974D01*
X140415855Y-94605546D01*
X140559116Y-94649003D01*
X140670769Y-94660000D01*
X140670777Y-94660000D01*
X140708102Y-94663676D01*
X140745427Y-94660000D01*
X142062678Y-94660000D01*
X142100000Y-94663676D01*
X142137322Y-94660000D01*
X142137333Y-94660000D01*
X142248986Y-94649003D01*
X142392247Y-94605546D01*
X142524276Y-94534974D01*
X142640001Y-94440001D01*
X142663804Y-94410997D01*
X144289802Y-92785000D01*
X144351939Y-92785000D01*
X144551898Y-92745226D01*
X144740256Y-92667205D01*
X144909774Y-92553937D01*
X145053937Y-92409774D01*
X145167205Y-92240256D01*
X145245226Y-92051898D01*
X145285000Y-91851939D01*
X145285000Y-91648061D01*
X145245226Y-91448102D01*
X145167205Y-91259744D01*
X145053937Y-91090226D01*
X144909774Y-90946063D01*
X144740256Y-90832795D01*
X144551898Y-90754774D01*
X144351939Y-90715000D01*
X144148061Y-90715000D01*
X143948102Y-90754774D01*
X143759744Y-90832795D01*
X143590226Y-90946063D01*
X143446063Y-91090226D01*
X143332795Y-91259744D01*
X143254774Y-91448102D01*
X143215000Y-91648061D01*
X143215000Y-91710198D01*
X141785199Y-93140000D01*
X141022904Y-93140000D01*
X134809260Y-86926357D01*
X134853051Y-86706209D01*
X134853051Y-86413689D01*
X134812374Y-86209196D01*
X135037102Y-86091271D01*
X135037102Y-85070506D01*
X135149961Y-84957647D01*
X135083212Y-84890898D01*
X135291102Y-84890898D01*
X135291102Y-86091271D01*
X135522121Y-86212497D01*
X135797849Y-86114817D01*
X136049223Y-85965222D01*
X136266582Y-85769460D01*
X136441574Y-85535055D01*
X136567473Y-85271015D01*
X136612701Y-85121917D01*
X136491475Y-84890898D01*
X135291102Y-84890898D01*
X135083212Y-84890898D01*
X134970353Y-84778039D01*
X134857494Y-84890898D01*
X133836729Y-84890898D01*
X133718804Y-85115626D01*
X133514311Y-85074949D01*
X133221791Y-85074949D01*
X133016082Y-85115867D01*
X133057000Y-84910158D01*
X133057000Y-84617638D01*
X133016323Y-84413144D01*
X133241051Y-84295219D01*
X133241051Y-83274454D01*
X133353910Y-83161595D01*
X133382192Y-83161595D01*
X133495051Y-83274454D01*
X133495051Y-84295219D01*
X133719139Y-84412808D01*
X133836729Y-84636898D01*
X134857494Y-84636898D01*
X134970353Y-84749757D01*
X135149961Y-84570149D01*
X135037102Y-84457290D01*
X135037102Y-83436525D01*
X134813014Y-83318936D01*
X134695424Y-83094846D01*
X133674659Y-83094846D01*
X133561800Y-82981987D01*
X133382192Y-83161595D01*
X133353910Y-83161595D01*
X133174302Y-82981987D01*
X133061443Y-83094846D01*
X132040678Y-83094846D01*
X131922753Y-83319574D01*
X131718260Y-83278898D01*
X131425740Y-83278898D01*
X131138842Y-83335966D01*
X130868589Y-83447908D01*
X130625368Y-83610423D01*
X130418525Y-83817266D01*
X130256010Y-84060487D01*
X130144068Y-84330740D01*
X130087000Y-84617638D01*
X130087000Y-84910158D01*
X130127918Y-85115867D01*
X129922209Y-85074949D01*
X129629689Y-85074949D01*
X129342791Y-85132017D01*
X129072538Y-85243959D01*
X128829317Y-85406474D01*
X128622474Y-85613317D01*
X128459959Y-85856538D01*
X128348017Y-86126791D01*
X128290949Y-86413689D01*
X128290949Y-86706209D01*
X128348017Y-86993107D01*
X128459959Y-87263360D01*
X128622474Y-87506581D01*
X128829317Y-87713424D01*
X129072538Y-87875939D01*
X129342791Y-87987881D01*
X129629689Y-88044949D01*
X129894264Y-88044949D01*
X129852464Y-88182746D01*
X129835400Y-88356000D01*
X129852464Y-88529254D01*
X129903000Y-88695850D01*
X129985067Y-88849386D01*
X129993517Y-88859682D01*
X128363998Y-90489201D01*
X128335000Y-90512999D01*
X128311202Y-90541997D01*
X128311201Y-90541998D01*
X128240026Y-90628724D01*
X128169454Y-90760754D01*
X128142685Y-90849002D01*
X128125998Y-90904014D01*
X128121370Y-90950998D01*
X128111324Y-91053000D01*
X128115001Y-91090332D01*
X128115000Y-93340199D01*
X124913804Y-90139003D01*
X124913799Y-90138997D01*
X123963804Y-89189002D01*
X123940001Y-89159999D01*
X123824276Y-89065026D01*
X123692247Y-88994454D01*
X123548986Y-88950997D01*
X123437333Y-88940000D01*
X123437322Y-88940000D01*
X123400000Y-88936324D01*
X123362678Y-88940000D01*
X113388072Y-88940000D01*
X113388072Y-88850000D01*
X113375812Y-88725518D01*
X113339502Y-88605820D01*
X113280537Y-88495506D01*
X113201185Y-88398815D01*
X113104494Y-88319463D01*
X112994180Y-88260498D01*
X112921620Y-88238487D01*
X113053475Y-88106632D01*
X113215990Y-87863411D01*
X113327932Y-87593158D01*
X113385000Y-87306260D01*
X113385000Y-87013740D01*
X113327932Y-86726842D01*
X113215990Y-86456589D01*
X113053475Y-86213368D01*
X112846632Y-86006525D01*
X112603411Y-85844010D01*
X112333158Y-85732068D01*
X112046260Y-85675000D01*
X111753740Y-85675000D01*
X111466842Y-85732068D01*
X111196589Y-85844010D01*
X110953368Y-86006525D01*
X110746525Y-86213368D01*
X110584010Y-86456589D01*
X110472068Y-86726842D01*
X110415000Y-87013740D01*
X110415000Y-87306260D01*
X110472068Y-87593158D01*
X110584010Y-87863411D01*
X110746525Y-88106632D01*
X110878380Y-88238487D01*
X110805820Y-88260498D01*
X110695506Y-88319463D01*
X110598815Y-88398815D01*
X110519463Y-88495506D01*
X110460498Y-88605820D01*
X110424188Y-88725518D01*
X110411928Y-88850000D01*
X110411928Y-90550000D01*
X110424188Y-90674482D01*
X110460498Y-90794180D01*
X110519463Y-90904494D01*
X110598815Y-91001185D01*
X110695506Y-91080537D01*
X110805820Y-91139502D01*
X110925518Y-91175812D01*
X111050000Y-91188072D01*
X112750000Y-91188072D01*
X112874482Y-91175812D01*
X112994180Y-91139502D01*
X113104494Y-91080537D01*
X113201185Y-91001185D01*
X113280537Y-90904494D01*
X113339502Y-90794180D01*
X113375812Y-90674482D01*
X113388072Y-90550000D01*
X113388072Y-90460000D01*
X123085199Y-90460000D01*
X123838997Y-91213799D01*
X123839003Y-91213804D01*
X124165199Y-91540000D01*
X108914802Y-91540000D01*
X108760000Y-91385199D01*
X108760000Y-91188072D01*
X108850000Y-91188072D01*
X108974482Y-91175812D01*
X109094180Y-91139502D01*
X109204494Y-91080537D01*
X109301185Y-91001185D01*
X109380537Y-90904494D01*
X109439502Y-90794180D01*
X109475812Y-90674482D01*
X109488072Y-90550000D01*
X109488072Y-88850000D01*
X109475812Y-88725518D01*
X109439502Y-88605820D01*
X109380537Y-88495506D01*
X109301185Y-88398815D01*
X109204494Y-88319463D01*
X109094180Y-88260498D01*
X109021620Y-88238487D01*
X109153475Y-88106632D01*
X109315990Y-87863411D01*
X109427932Y-87593158D01*
X109485000Y-87306260D01*
X109485000Y-87013740D01*
X109427932Y-86726842D01*
X109315990Y-86456589D01*
X109153475Y-86213368D01*
X108946632Y-86006525D01*
X108703411Y-85844010D01*
X108433158Y-85732068D01*
X108146260Y-85675000D01*
X107853740Y-85675000D01*
X107566842Y-85732068D01*
X107296589Y-85844010D01*
X107053368Y-86006525D01*
X106846525Y-86213368D01*
X106684010Y-86456589D01*
X106572068Y-86726842D01*
X106515000Y-87013740D01*
X106515000Y-87306260D01*
X106572068Y-87593158D01*
X106684010Y-87863411D01*
X106846525Y-88106632D01*
X106978380Y-88238487D01*
X106905820Y-88260498D01*
X106795506Y-88319463D01*
X106698815Y-88398815D01*
X106619463Y-88495506D01*
X106560498Y-88605820D01*
X106524188Y-88725518D01*
X106511928Y-88850000D01*
X105785000Y-88850000D01*
X105785000Y-82609827D01*
X131919452Y-82609827D01*
X132040678Y-82840846D01*
X133241051Y-82840846D01*
X133241051Y-82774097D01*
X133382192Y-82774097D01*
X133561800Y-82953705D01*
X133674659Y-82840846D01*
X134695424Y-82840846D01*
X134813349Y-82616118D01*
X135017842Y-82656795D01*
X135310362Y-82656795D01*
X135516073Y-82615876D01*
X135475154Y-82821586D01*
X135475154Y-83114106D01*
X135515831Y-83318600D01*
X135291102Y-83436525D01*
X135291102Y-84457290D01*
X135178243Y-84570149D01*
X135357851Y-84749757D01*
X135470710Y-84636898D01*
X136491475Y-84636898D01*
X136609400Y-84412169D01*
X136813894Y-84452846D01*
X137106414Y-84452846D01*
X137393312Y-84395778D01*
X137663565Y-84283836D01*
X137906786Y-84121321D01*
X138113629Y-83914478D01*
X138276144Y-83671257D01*
X138388086Y-83401004D01*
X138445154Y-83114106D01*
X138445154Y-82821586D01*
X138404236Y-82615877D01*
X138609945Y-82656795D01*
X138902465Y-82656795D01*
X139189363Y-82599727D01*
X139459616Y-82487785D01*
X139702837Y-82325270D01*
X139909680Y-82118427D01*
X140072195Y-81875206D01*
X140184137Y-81604953D01*
X140241205Y-81318055D01*
X140241205Y-81025535D01*
X140184137Y-80738637D01*
X140072195Y-80468384D01*
X139909680Y-80225163D01*
X139702837Y-80018320D01*
X139459616Y-79855805D01*
X139189363Y-79743863D01*
X138902465Y-79686795D01*
X138609945Y-79686795D01*
X138404236Y-79727713D01*
X138445154Y-79522004D01*
X138445154Y-79229484D01*
X138388086Y-78942586D01*
X138276144Y-78672333D01*
X138113629Y-78429112D01*
X137906786Y-78222269D01*
X137663565Y-78059754D01*
X137393312Y-77947812D01*
X137106414Y-77890744D01*
X136813894Y-77890744D01*
X136526996Y-77947812D01*
X136256743Y-78059754D01*
X136013522Y-78222269D01*
X135806679Y-78429112D01*
X135644164Y-78672333D01*
X135532222Y-78942586D01*
X135475154Y-79229484D01*
X135475154Y-79522004D01*
X135516073Y-79727714D01*
X135310362Y-79686795D01*
X135017842Y-79686795D01*
X134730944Y-79743863D01*
X134460691Y-79855805D01*
X134217470Y-80018320D01*
X134010627Y-80225163D01*
X133848112Y-80468384D01*
X133736170Y-80738637D01*
X133679102Y-81025535D01*
X133679102Y-81318055D01*
X133719779Y-81522548D01*
X133495051Y-81640473D01*
X133495051Y-82661238D01*
X133382192Y-82774097D01*
X133241051Y-82774097D01*
X133241051Y-81640473D01*
X133010032Y-81519247D01*
X132734304Y-81616927D01*
X132482930Y-81766522D01*
X132265571Y-81962284D01*
X132090579Y-82196689D01*
X131964680Y-82460729D01*
X131919452Y-82609827D01*
X105785000Y-82609827D01*
X105785000Y-75592702D01*
X184386903Y-75592702D01*
X184458486Y-75836671D01*
X184713996Y-75957571D01*
X184988184Y-76026300D01*
X185270512Y-76040217D01*
X185550130Y-75998787D01*
X185816292Y-75903603D01*
X185941514Y-75836671D01*
X186013097Y-75592702D01*
X185200000Y-74779605D01*
X184386903Y-75592702D01*
X105785000Y-75592702D01*
X105785000Y-74670512D01*
X183759783Y-74670512D01*
X183801213Y-74950130D01*
X183896397Y-75216292D01*
X183963329Y-75341514D01*
X184207298Y-75413097D01*
X185020395Y-74600000D01*
X185379605Y-74600000D01*
X186192702Y-75413097D01*
X186436671Y-75341514D01*
X186557571Y-75086004D01*
X186626300Y-74811816D01*
X186640217Y-74529488D01*
X186598787Y-74249870D01*
X186503603Y-73983708D01*
X186436671Y-73858486D01*
X186192702Y-73786903D01*
X185379605Y-74600000D01*
X185020395Y-74600000D01*
X184207298Y-73786903D01*
X183963329Y-73858486D01*
X183842429Y-74113996D01*
X183773700Y-74388184D01*
X183759783Y-74670512D01*
X105785000Y-74670512D01*
X105785000Y-73607298D01*
X184386903Y-73607298D01*
X185200000Y-74420395D01*
X186013097Y-73607298D01*
X185941514Y-73363329D01*
X185686004Y-73242429D01*
X185411816Y-73173700D01*
X185129488Y-73159783D01*
X184849870Y-73201213D01*
X184583708Y-73296397D01*
X184458486Y-73363329D01*
X184386903Y-73607298D01*
X105785000Y-73607298D01*
X105785000Y-59127000D01*
X127000000Y-59127000D01*
X127024776Y-59124560D01*
X127048601Y-59117333D01*
X127070557Y-59105597D01*
X127089803Y-59089803D01*
X127105597Y-59070557D01*
X127117333Y-59048601D01*
X127124560Y-59024776D01*
X127127000Y-59000000D01*
X127127000Y-57424967D01*
X133651000Y-57424967D01*
X133651000Y-57747033D01*
X133713832Y-58062912D01*
X133837082Y-58360463D01*
X134016013Y-58628252D01*
X134243748Y-58855987D01*
X134511537Y-59034918D01*
X134809088Y-59158168D01*
X135124967Y-59221000D01*
X135447033Y-59221000D01*
X135762912Y-59158168D01*
X136060463Y-59034918D01*
X136328252Y-58855987D01*
X136555987Y-58628252D01*
X136734918Y-58360463D01*
X136858168Y-58062912D01*
X136921000Y-57747033D01*
X136921000Y-57424967D01*
X140151000Y-57424967D01*
X140151000Y-57747033D01*
X140213832Y-58062912D01*
X140337082Y-58360463D01*
X140516013Y-58628252D01*
X140743748Y-58855987D01*
X140901001Y-58961060D01*
X140901000Y-68342531D01*
X140896719Y-68386000D01*
X140901000Y-68429469D01*
X140901000Y-68429476D01*
X140913805Y-68559489D01*
X140964411Y-68726312D01*
X141046589Y-68880058D01*
X141157183Y-69014817D01*
X141190956Y-69042534D01*
X143843470Y-71695049D01*
X143871183Y-71728817D01*
X143904951Y-71756530D01*
X143904953Y-71756532D01*
X144005941Y-71839411D01*
X144159686Y-71921589D01*
X144307328Y-71966376D01*
X144326510Y-71972195D01*
X144456523Y-71985000D01*
X144456531Y-71985000D01*
X144500000Y-71989281D01*
X144543469Y-71985000D01*
X183770299Y-71985000D01*
X183774188Y-72024482D01*
X183810498Y-72144180D01*
X183869463Y-72254494D01*
X183948815Y-72351185D01*
X184045506Y-72430537D01*
X184155820Y-72489502D01*
X184275518Y-72525812D01*
X184400000Y-72538072D01*
X186000000Y-72538072D01*
X186124482Y-72525812D01*
X186244180Y-72489502D01*
X186354494Y-72430537D01*
X186451185Y-72351185D01*
X186530537Y-72254494D01*
X186540957Y-72235000D01*
X189629869Y-72235000D01*
X190465000Y-73070132D01*
X190465001Y-80269239D01*
X190459509Y-80325000D01*
X190465000Y-80380752D01*
X190465001Y-86229867D01*
X189989869Y-86705000D01*
X180558728Y-86705000D01*
X180604494Y-86680537D01*
X180701185Y-86601185D01*
X180780537Y-86504494D01*
X180839502Y-86394180D01*
X180875812Y-86274482D01*
X180888072Y-86150000D01*
X180885000Y-85585750D01*
X180726250Y-85427000D01*
X179527000Y-85427000D01*
X179527000Y-85447000D01*
X179273000Y-85447000D01*
X179273000Y-85427000D01*
X179253000Y-85427000D01*
X179253000Y-85173000D01*
X179273000Y-85173000D01*
X179273000Y-83973750D01*
X179527000Y-83973750D01*
X179527000Y-85173000D01*
X180726250Y-85173000D01*
X180885000Y-85014250D01*
X180888072Y-84450000D01*
X180875812Y-84325518D01*
X180839502Y-84205820D01*
X180780537Y-84095506D01*
X180701185Y-83998815D01*
X180604494Y-83919463D01*
X180494180Y-83860498D01*
X180374482Y-83824188D01*
X180250000Y-83811928D01*
X179685750Y-83815000D01*
X179527000Y-83973750D01*
X179273000Y-83973750D01*
X179114250Y-83815000D01*
X178550000Y-83811928D01*
X178425518Y-83824188D01*
X178305820Y-83860498D01*
X178195506Y-83919463D01*
X178098815Y-83998815D01*
X178019463Y-84095506D01*
X177960498Y-84205820D01*
X177938487Y-84278380D01*
X177806632Y-84146525D01*
X177563411Y-83984010D01*
X177293158Y-83872068D01*
X177006260Y-83815000D01*
X176713740Y-83815000D01*
X176426842Y-83872068D01*
X176156589Y-83984010D01*
X175913368Y-84146525D01*
X175706525Y-84353368D01*
X175590000Y-84527760D01*
X175473475Y-84353368D01*
X175266632Y-84146525D01*
X175023411Y-83984010D01*
X174753158Y-83872068D01*
X174466260Y-83815000D01*
X174173740Y-83815000D01*
X173886842Y-83872068D01*
X173616589Y-83984010D01*
X173373368Y-84146525D01*
X173166525Y-84353368D01*
X173050000Y-84527760D01*
X172933475Y-84353368D01*
X172726632Y-84146525D01*
X172483411Y-83984010D01*
X172213158Y-83872068D01*
X171926260Y-83815000D01*
X171633740Y-83815000D01*
X171346842Y-83872068D01*
X171076589Y-83984010D01*
X170833368Y-84146525D01*
X170626525Y-84353368D01*
X170504805Y-84535534D01*
X170435178Y-84418645D01*
X170240269Y-84202412D01*
X170006920Y-84028359D01*
X169744099Y-83903175D01*
X169596890Y-83858524D01*
X169367000Y-83979845D01*
X169367000Y-85173000D01*
X169387000Y-85173000D01*
X169387000Y-85427000D01*
X169367000Y-85427000D01*
X169367000Y-85447000D01*
X169113000Y-85447000D01*
X169113000Y-85427000D01*
X167919186Y-85427000D01*
X167798519Y-85656891D01*
X167895843Y-85931252D01*
X168044822Y-86181355D01*
X168239731Y-86397588D01*
X168469406Y-86568900D01*
X168293368Y-86686525D01*
X168086525Y-86893368D01*
X167924010Y-87136589D01*
X167812068Y-87406842D01*
X167755000Y-87693740D01*
X167755000Y-87986260D01*
X167812068Y-88273158D01*
X167924010Y-88543411D01*
X168086525Y-88786632D01*
X168293368Y-88993475D01*
X168536589Y-89155990D01*
X168806842Y-89267932D01*
X169093740Y-89325000D01*
X169386260Y-89325000D01*
X169673158Y-89267932D01*
X169943411Y-89155990D01*
X170186632Y-88993475D01*
X170393475Y-88786632D01*
X170510000Y-88612240D01*
X170626525Y-88786632D01*
X170833368Y-88993475D01*
X171076589Y-89155990D01*
X171346842Y-89267932D01*
X171633740Y-89325000D01*
X171926260Y-89325000D01*
X172213158Y-89267932D01*
X172483411Y-89155990D01*
X172726632Y-88993475D01*
X172933475Y-88786632D01*
X173050000Y-88612240D01*
X173166525Y-88786632D01*
X173373368Y-88993475D01*
X173616589Y-89155990D01*
X173886842Y-89267932D01*
X174173740Y-89325000D01*
X174466260Y-89325000D01*
X174753158Y-89267932D01*
X175023411Y-89155990D01*
X175266632Y-88993475D01*
X175473475Y-88786632D01*
X175590000Y-88612240D01*
X175706525Y-88786632D01*
X175913368Y-88993475D01*
X176156589Y-89155990D01*
X176426842Y-89267932D01*
X176713740Y-89325000D01*
X177006260Y-89325000D01*
X177293158Y-89267932D01*
X177563411Y-89155990D01*
X177806632Y-88993475D01*
X178013475Y-88786632D01*
X178130000Y-88612240D01*
X178246525Y-88786632D01*
X178453368Y-88993475D01*
X178696589Y-89155990D01*
X178966842Y-89267932D01*
X179253740Y-89325000D01*
X179546260Y-89325000D01*
X179833158Y-89267932D01*
X180103411Y-89155990D01*
X180346632Y-88993475D01*
X180365107Y-88975000D01*
X190404249Y-88975000D01*
X190460000Y-88980491D01*
X190465000Y-88979999D01*
X190465001Y-93344239D01*
X190459509Y-93400000D01*
X190481423Y-93622498D01*
X190546324Y-93836446D01*
X190581309Y-93901898D01*
X190651717Y-94033623D01*
X190793552Y-94206449D01*
X190836860Y-94241991D01*
X192100013Y-95505146D01*
X192135551Y-95548449D01*
X192178854Y-95583987D01*
X192178856Y-95583989D01*
X192308377Y-95690284D01*
X192505553Y-95795676D01*
X192719501Y-95860577D01*
X192873293Y-95875724D01*
X192942000Y-95882491D01*
X192997752Y-95877000D01*
X194298747Y-95877000D01*
X194375038Y-95969962D01*
X194509614Y-96080405D01*
X194593000Y-96124976D01*
X194593001Y-97901867D01*
X194029869Y-98465000D01*
X166044248Y-98465000D01*
X165877501Y-98481423D01*
X165663553Y-98546324D01*
X165466377Y-98651716D01*
X165293551Y-98793551D01*
X165151716Y-98966377D01*
X165046324Y-99163553D01*
X164981423Y-99377501D01*
X164959509Y-99600000D01*
X164981423Y-99822499D01*
X165046324Y-100036447D01*
X165151716Y-100233623D01*
X165293551Y-100406449D01*
X165466377Y-100548284D01*
X165663553Y-100653676D01*
X165877501Y-100718577D01*
X166044248Y-100735000D01*
X194444249Y-100735000D01*
X194500000Y-100740491D01*
X194555751Y-100735000D01*
X194555752Y-100735000D01*
X194722499Y-100718577D01*
X194936447Y-100653676D01*
X195133623Y-100548284D01*
X195306449Y-100406449D01*
X195341996Y-100363135D01*
X196491140Y-99213992D01*
X196534449Y-99178449D01*
X196676284Y-99005623D01*
X196781676Y-98808447D01*
X196846577Y-98594499D01*
X196863000Y-98427752D01*
X196863000Y-98427743D01*
X196868490Y-98372001D01*
X196863000Y-98316259D01*
X196863000Y-96124976D01*
X196946386Y-96080405D01*
X197080962Y-95969962D01*
X197191405Y-95835386D01*
X197273472Y-95681850D01*
X197324008Y-95515254D01*
X197341072Y-95342000D01*
X197341072Y-94142000D01*
X197324008Y-93968746D01*
X197273472Y-93802150D01*
X197191405Y-93648614D01*
X197080962Y-93514038D01*
X196946386Y-93403595D01*
X196844663Y-93349223D01*
X196908134Y-93297134D01*
X197093706Y-93071014D01*
X197231599Y-92813034D01*
X197316513Y-92533111D01*
X197345185Y-92242000D01*
X197316513Y-91950889D01*
X197231599Y-91670966D01*
X197093706Y-91412986D01*
X196908134Y-91186866D01*
X196682014Y-91001294D01*
X196664626Y-90992000D01*
X196682014Y-90982706D01*
X196908134Y-90797134D01*
X197093706Y-90571014D01*
X197231599Y-90313034D01*
X197316513Y-90033111D01*
X197345185Y-89742000D01*
X197316513Y-89450889D01*
X197231599Y-89170966D01*
X197093706Y-88912986D01*
X196908134Y-88686866D01*
X196682014Y-88501294D01*
X196656278Y-88487538D01*
X196862429Y-88331049D01*
X197055496Y-88113193D01*
X197202352Y-87861858D01*
X197294476Y-87598890D01*
X197173155Y-87369000D01*
X195855000Y-87369000D01*
X195855000Y-87389000D01*
X195601000Y-87389000D01*
X195601000Y-87369000D01*
X194282845Y-87369000D01*
X194161524Y-87598890D01*
X194253648Y-87861858D01*
X194400504Y-88113193D01*
X194593571Y-88331049D01*
X194799722Y-88487538D01*
X194773986Y-88501294D01*
X194547866Y-88686866D01*
X194362294Y-88912986D01*
X194224401Y-89170966D01*
X194139487Y-89450889D01*
X194110815Y-89742000D01*
X194139487Y-90033111D01*
X194224401Y-90313034D01*
X194362294Y-90571014D01*
X194547866Y-90797134D01*
X194773986Y-90982706D01*
X194791374Y-90992000D01*
X194773986Y-91001294D01*
X194547866Y-91186866D01*
X194362294Y-91412986D01*
X194224401Y-91670966D01*
X194139487Y-91950889D01*
X194110815Y-92242000D01*
X194139487Y-92533111D01*
X194224401Y-92813034D01*
X194362294Y-93071014D01*
X194547866Y-93297134D01*
X194611337Y-93349223D01*
X194509614Y-93403595D01*
X194375038Y-93514038D01*
X194298747Y-93607000D01*
X193412132Y-93607000D01*
X192735000Y-92929868D01*
X192735000Y-86885110D01*
X194161524Y-86885110D01*
X194282845Y-87115000D01*
X195601000Y-87115000D01*
X195601000Y-85915835D01*
X195855000Y-85915835D01*
X195855000Y-87115000D01*
X197173155Y-87115000D01*
X197294476Y-86885110D01*
X197202352Y-86622142D01*
X197055496Y-86370807D01*
X196862429Y-86152951D01*
X196630570Y-85976947D01*
X196368830Y-85849558D01*
X196087267Y-85775680D01*
X195855000Y-85915835D01*
X195601000Y-85915835D01*
X195368733Y-85775680D01*
X195087170Y-85849558D01*
X194825430Y-85976947D01*
X194593571Y-86152951D01*
X194400504Y-86370807D01*
X194253648Y-86622142D01*
X194161524Y-86885110D01*
X192735000Y-86885110D01*
X192735000Y-86755743D01*
X192740490Y-86700001D01*
X192735000Y-86644259D01*
X192735000Y-80795131D01*
X193401132Y-80129000D01*
X194312747Y-80129000D01*
X194389038Y-80221962D01*
X194523614Y-80332405D01*
X194677150Y-80414472D01*
X194843746Y-80465008D01*
X195017000Y-80482072D01*
X196467000Y-80482072D01*
X196640254Y-80465008D01*
X196806850Y-80414472D01*
X196960386Y-80332405D01*
X197094962Y-80221962D01*
X197205405Y-80087386D01*
X197287472Y-79933850D01*
X197338008Y-79767254D01*
X197355072Y-79594000D01*
X197355072Y-78394000D01*
X197338008Y-78220746D01*
X197287472Y-78054150D01*
X197205405Y-77900614D01*
X197094962Y-77766038D01*
X196960386Y-77655595D01*
X196858663Y-77601223D01*
X196922134Y-77549134D01*
X197107706Y-77323014D01*
X197245599Y-77065034D01*
X197330513Y-76785111D01*
X197359185Y-76494000D01*
X197330513Y-76202889D01*
X197245599Y-75922966D01*
X197107706Y-75664986D01*
X196922134Y-75438866D01*
X196696014Y-75253294D01*
X196678626Y-75244000D01*
X196696014Y-75234706D01*
X196922134Y-75049134D01*
X197107706Y-74823014D01*
X197245599Y-74565034D01*
X197330513Y-74285111D01*
X197359185Y-73994000D01*
X197330513Y-73702889D01*
X197245599Y-73422966D01*
X197107706Y-73164986D01*
X196922134Y-72938866D01*
X196696014Y-72753294D01*
X196670278Y-72739538D01*
X196876429Y-72583049D01*
X197069496Y-72365193D01*
X197216352Y-72113858D01*
X197308476Y-71850890D01*
X197187155Y-71621000D01*
X195869000Y-71621000D01*
X195869000Y-71641000D01*
X195615000Y-71641000D01*
X195615000Y-71621000D01*
X194296845Y-71621000D01*
X194175524Y-71850890D01*
X194267648Y-72113858D01*
X194414504Y-72365193D01*
X194607571Y-72583049D01*
X194813722Y-72739538D01*
X194787986Y-72753294D01*
X194561866Y-72938866D01*
X194376294Y-73164986D01*
X194238401Y-73422966D01*
X194153487Y-73702889D01*
X194124815Y-73994000D01*
X194153487Y-74285111D01*
X194238401Y-74565034D01*
X194376294Y-74823014D01*
X194561866Y-75049134D01*
X194787986Y-75234706D01*
X194805374Y-75244000D01*
X194787986Y-75253294D01*
X194561866Y-75438866D01*
X194376294Y-75664986D01*
X194238401Y-75922966D01*
X194153487Y-76202889D01*
X194124815Y-76494000D01*
X194153487Y-76785111D01*
X194238401Y-77065034D01*
X194376294Y-77323014D01*
X194561866Y-77549134D01*
X194625337Y-77601223D01*
X194523614Y-77655595D01*
X194389038Y-77766038D01*
X194312747Y-77859000D01*
X192986741Y-77859000D01*
X192930999Y-77853510D01*
X192875257Y-77859000D01*
X192875248Y-77859000D01*
X192735000Y-77872813D01*
X192735000Y-72655741D01*
X192740490Y-72599999D01*
X192735000Y-72544257D01*
X192735000Y-72544248D01*
X192718577Y-72377501D01*
X192653676Y-72163553D01*
X192548284Y-71966377D01*
X192406449Y-71793551D01*
X192363140Y-71758008D01*
X191742242Y-71137110D01*
X194175524Y-71137110D01*
X194296845Y-71367000D01*
X195615000Y-71367000D01*
X195615000Y-70167835D01*
X195869000Y-70167835D01*
X195869000Y-71367000D01*
X197187155Y-71367000D01*
X197308476Y-71137110D01*
X197216352Y-70874142D01*
X197069496Y-70622807D01*
X196876429Y-70404951D01*
X196644570Y-70228947D01*
X196382830Y-70101558D01*
X196101267Y-70027680D01*
X195869000Y-70167835D01*
X195615000Y-70167835D01*
X195382733Y-70027680D01*
X195101170Y-70101558D01*
X194839430Y-70228947D01*
X194607571Y-70404951D01*
X194414504Y-70622807D01*
X194267648Y-70874142D01*
X194175524Y-71137110D01*
X191742242Y-71137110D01*
X190941996Y-70336865D01*
X190906449Y-70293551D01*
X190733623Y-70151716D01*
X190536447Y-70046324D01*
X190322499Y-69981423D01*
X190155752Y-69965000D01*
X190155751Y-69965000D01*
X190100000Y-69959509D01*
X190044249Y-69965000D01*
X186540957Y-69965000D01*
X186530537Y-69945506D01*
X186451185Y-69848815D01*
X186354494Y-69769463D01*
X186244180Y-69710498D01*
X186124482Y-69674188D01*
X186000000Y-69661928D01*
X184400000Y-69661928D01*
X184275518Y-69674188D01*
X184155820Y-69710498D01*
X184045506Y-69769463D01*
X183948815Y-69848815D01*
X183869463Y-69945506D01*
X183810498Y-70055820D01*
X183774188Y-70175518D01*
X183770299Y-70215000D01*
X144866579Y-70215000D01*
X142671000Y-68019422D01*
X142671000Y-67938967D01*
X179165000Y-67938967D01*
X179165000Y-68261033D01*
X179227832Y-68576912D01*
X179351082Y-68874463D01*
X179530013Y-69142252D01*
X179757748Y-69369987D01*
X180025537Y-69548918D01*
X180323088Y-69672168D01*
X180638967Y-69735000D01*
X180961033Y-69735000D01*
X181276912Y-69672168D01*
X181574463Y-69548918D01*
X181842252Y-69369987D01*
X182069987Y-69142252D01*
X182248918Y-68874463D01*
X182372168Y-68576912D01*
X182435000Y-68261033D01*
X182435000Y-67938967D01*
X182372168Y-67623088D01*
X182248918Y-67325537D01*
X182069987Y-67057748D01*
X181842252Y-66830013D01*
X181574463Y-66651082D01*
X181276912Y-66527832D01*
X180961033Y-66465000D01*
X180638967Y-66465000D01*
X180323088Y-66527832D01*
X180025537Y-66651082D01*
X179757748Y-66830013D01*
X179530013Y-67057748D01*
X179351082Y-67325537D01*
X179227832Y-67623088D01*
X179165000Y-67938967D01*
X142671000Y-67938967D01*
X142671000Y-58961059D01*
X142828252Y-58855987D01*
X143055987Y-58628252D01*
X143234918Y-58360463D01*
X143358168Y-58062912D01*
X143421000Y-57747033D01*
X143421000Y-57424967D01*
X143358168Y-57109088D01*
X143234918Y-56811537D01*
X143055987Y-56543748D01*
X142828252Y-56316013D01*
X142560463Y-56137082D01*
X142262912Y-56013832D01*
X141947033Y-55951000D01*
X141624967Y-55951000D01*
X141309088Y-56013832D01*
X141011537Y-56137082D01*
X140743748Y-56316013D01*
X140516013Y-56543748D01*
X140337082Y-56811537D01*
X140213832Y-57109088D01*
X140151000Y-57424967D01*
X136921000Y-57424967D01*
X136858168Y-57109088D01*
X136734918Y-56811537D01*
X136555987Y-56543748D01*
X136328252Y-56316013D01*
X136060463Y-56137082D01*
X135762912Y-56013832D01*
X135447033Y-55951000D01*
X135124967Y-55951000D01*
X134809088Y-56013832D01*
X134511537Y-56137082D01*
X134243748Y-56316013D01*
X134016013Y-56543748D01*
X133837082Y-56811537D01*
X133713832Y-57109088D01*
X133651000Y-57424967D01*
X127127000Y-57424967D01*
X127127000Y-54959742D01*
X150206715Y-54959742D01*
X150275904Y-55242745D01*
X150398975Y-55506812D01*
X150571198Y-55741795D01*
X150785954Y-55938664D01*
X151034991Y-56089854D01*
X151308739Y-56189554D01*
X151321110Y-56191476D01*
X151551000Y-56070155D01*
X151551000Y-54727000D01*
X150350768Y-54727000D01*
X150206715Y-54959742D01*
X127127000Y-54959742D01*
X127127000Y-52924967D01*
X133651000Y-52924967D01*
X133651000Y-53247033D01*
X133713832Y-53562912D01*
X133837082Y-53860463D01*
X134016013Y-54128252D01*
X134243748Y-54355987D01*
X134511537Y-54534918D01*
X134809088Y-54658168D01*
X135124967Y-54721000D01*
X135447033Y-54721000D01*
X135762912Y-54658168D01*
X136060463Y-54534918D01*
X136328252Y-54355987D01*
X136555987Y-54128252D01*
X136734918Y-53860463D01*
X136858168Y-53562912D01*
X136921000Y-53247033D01*
X136921000Y-52924967D01*
X140151000Y-52924967D01*
X140151000Y-53247033D01*
X140213832Y-53562912D01*
X140337082Y-53860463D01*
X140516013Y-54128252D01*
X140743748Y-54355987D01*
X141011537Y-54534918D01*
X141309088Y-54658168D01*
X141624967Y-54721000D01*
X141947033Y-54721000D01*
X142262912Y-54658168D01*
X142560463Y-54534918D01*
X142828252Y-54355987D01*
X142943981Y-54240258D01*
X150206715Y-54240258D01*
X150350768Y-54473000D01*
X151551000Y-54473000D01*
X151551000Y-53129845D01*
X151805000Y-53129845D01*
X151805000Y-54473000D01*
X151825000Y-54473000D01*
X151825000Y-54727000D01*
X151805000Y-54727000D01*
X151805000Y-56070155D01*
X152034890Y-56191476D01*
X152047261Y-56189554D01*
X152321009Y-56089854D01*
X152570046Y-55938664D01*
X152784802Y-55741795D01*
X152785086Y-55741407D01*
X152839595Y-55843386D01*
X152950038Y-55977962D01*
X153084614Y-56088405D01*
X153238150Y-56170472D01*
X153404746Y-56221008D01*
X153578000Y-56238072D01*
X154778000Y-56238072D01*
X154951254Y-56221008D01*
X155117850Y-56170472D01*
X155271386Y-56088405D01*
X155405962Y-55977962D01*
X155516405Y-55843386D01*
X155598472Y-55689850D01*
X155649008Y-55523254D01*
X155666072Y-55350000D01*
X155666072Y-53850000D01*
X155649008Y-53676746D01*
X155598472Y-53510150D01*
X155516405Y-53356614D01*
X155405962Y-53222038D01*
X155271386Y-53111595D01*
X155117850Y-53029528D01*
X154951254Y-52978992D01*
X154778000Y-52961928D01*
X153578000Y-52961928D01*
X153404746Y-52978992D01*
X153238150Y-53029528D01*
X153084614Y-53111595D01*
X152950038Y-53222038D01*
X152839595Y-53356614D01*
X152785086Y-53458593D01*
X152784802Y-53458205D01*
X152570046Y-53261336D01*
X152321009Y-53110146D01*
X152047261Y-53010446D01*
X152034890Y-53008524D01*
X151805000Y-53129845D01*
X151551000Y-53129845D01*
X151321110Y-53008524D01*
X151308739Y-53010446D01*
X151034991Y-53110146D01*
X150785954Y-53261336D01*
X150571198Y-53458205D01*
X150398975Y-53693188D01*
X150275904Y-53957255D01*
X150206715Y-54240258D01*
X142943981Y-54240258D01*
X143055987Y-54128252D01*
X143234918Y-53860463D01*
X143358168Y-53562912D01*
X143421000Y-53247033D01*
X143421000Y-52924967D01*
X143376046Y-52698967D01*
X179165000Y-52698967D01*
X179165000Y-53021033D01*
X179227832Y-53336912D01*
X179351082Y-53634463D01*
X179530013Y-53902252D01*
X179757748Y-54129987D01*
X180025537Y-54308918D01*
X180323088Y-54432168D01*
X180638967Y-54495000D01*
X180961033Y-54495000D01*
X181276912Y-54432168D01*
X181574463Y-54308918D01*
X181842252Y-54129987D01*
X182069987Y-53902252D01*
X182248918Y-53634463D01*
X182372168Y-53336912D01*
X182435000Y-53021033D01*
X182435000Y-52698967D01*
X182372168Y-52383088D01*
X182248918Y-52085537D01*
X182069987Y-51817748D01*
X181842252Y-51590013D01*
X181574463Y-51411082D01*
X181276912Y-51287832D01*
X180961033Y-51225000D01*
X180638967Y-51225000D01*
X180323088Y-51287832D01*
X180025537Y-51411082D01*
X179757748Y-51590013D01*
X179530013Y-51817748D01*
X179351082Y-52085537D01*
X179227832Y-52383088D01*
X179165000Y-52698967D01*
X143376046Y-52698967D01*
X143358168Y-52609088D01*
X143234918Y-52311537D01*
X143055987Y-52043748D01*
X142828252Y-51816013D01*
X142560463Y-51637082D01*
X142262912Y-51513832D01*
X141947033Y-51451000D01*
X141624967Y-51451000D01*
X141309088Y-51513832D01*
X141011537Y-51637082D01*
X140743748Y-51816013D01*
X140516013Y-52043748D01*
X140337082Y-52311537D01*
X140213832Y-52609088D01*
X140151000Y-52924967D01*
X136921000Y-52924967D01*
X136858168Y-52609088D01*
X136734918Y-52311537D01*
X136555987Y-52043748D01*
X136328252Y-51816013D01*
X136060463Y-51637082D01*
X135762912Y-51513832D01*
X135447033Y-51451000D01*
X135124967Y-51451000D01*
X134809088Y-51513832D01*
X134511537Y-51637082D01*
X134243748Y-51816013D01*
X134016013Y-52043748D01*
X133837082Y-52311537D01*
X133713832Y-52609088D01*
X133651000Y-52924967D01*
X127127000Y-52924967D01*
X127127000Y-50785000D01*
X199215000Y-50785000D01*
X199215001Y-144215000D01*
%TA.AperFunction,Conductor*%
D28*
G36*
X199215001Y-144215000D02*
G01*
X105785000Y-144215000D01*
X105785000Y-140253000D01*
X123439928Y-140253000D01*
X123439928Y-141703000D01*
X123456992Y-141876254D01*
X123507528Y-142042850D01*
X123589595Y-142196386D01*
X123700038Y-142330962D01*
X123834614Y-142441405D01*
X123988150Y-142523472D01*
X124154746Y-142574008D01*
X124328000Y-142591072D01*
X125528000Y-142591072D01*
X125701254Y-142574008D01*
X125867850Y-142523472D01*
X126021386Y-142441405D01*
X126155962Y-142330962D01*
X126266405Y-142196386D01*
X126320777Y-142094663D01*
X126372866Y-142158134D01*
X126598987Y-142343706D01*
X126856967Y-142481599D01*
X127136890Y-142566513D01*
X127428000Y-142595185D01*
X127719111Y-142566513D01*
X127999034Y-142481599D01*
X128257014Y-142343706D01*
X128483134Y-142158134D01*
X128668706Y-141932014D01*
X128678000Y-141914626D01*
X128687294Y-141932014D01*
X128872866Y-142158134D01*
X129098987Y-142343706D01*
X129356967Y-142481599D01*
X129636890Y-142566513D01*
X129928000Y-142595185D01*
X130219111Y-142566513D01*
X130499034Y-142481599D01*
X130757014Y-142343706D01*
X130983134Y-142158134D01*
X131168706Y-141932014D01*
X131182462Y-141906278D01*
X131338951Y-142112429D01*
X131556807Y-142305496D01*
X131808142Y-142452352D01*
X132071110Y-142544476D01*
X132301000Y-142423155D01*
X132301000Y-141105000D01*
X132555000Y-141105000D01*
X132555000Y-142423155D01*
X132784890Y-142544476D01*
X133047858Y-142452352D01*
X133299193Y-142305496D01*
X133517049Y-142112429D01*
X133693053Y-141880570D01*
X133820442Y-141618830D01*
X133894320Y-141337267D01*
X133754165Y-141105000D01*
X132555000Y-141105000D01*
X132301000Y-141105000D01*
X132281000Y-141105000D01*
X132281000Y-140851000D01*
X132301000Y-140851000D01*
X132301000Y-139532845D01*
X132555000Y-139532845D01*
X132555000Y-140851000D01*
X133754165Y-140851000D01*
X133894320Y-140618733D01*
X133820442Y-140337170D01*
X133779477Y-140253000D01*
X148471928Y-140253000D01*
X148471928Y-141703000D01*
X148488992Y-141876254D01*
X148539528Y-142042850D01*
X148621595Y-142196386D01*
X148732038Y-142330962D01*
X148866614Y-142441405D01*
X149020150Y-142523472D01*
X149186746Y-142574008D01*
X149360000Y-142591072D01*
X150560000Y-142591072D01*
X150733254Y-142574008D01*
X150899850Y-142523472D01*
X151053386Y-142441405D01*
X151187962Y-142330962D01*
X151298405Y-142196386D01*
X151352777Y-142094663D01*
X151404866Y-142158134D01*
X151630987Y-142343706D01*
X151888967Y-142481599D01*
X152168890Y-142566513D01*
X152460000Y-142595185D01*
X152751111Y-142566513D01*
X153031034Y-142481599D01*
X153289014Y-142343706D01*
X153515134Y-142158134D01*
X153700706Y-141932014D01*
X153710000Y-141914626D01*
X153719294Y-141932014D01*
X153904866Y-142158134D01*
X154130987Y-142343706D01*
X154388967Y-142481599D01*
X154668890Y-142566513D01*
X154960000Y-142595185D01*
X155251111Y-142566513D01*
X155531034Y-142481599D01*
X155789014Y-142343706D01*
X156015134Y-142158134D01*
X156200706Y-141932014D01*
X156214462Y-141906278D01*
X156370951Y-142112429D01*
X156588807Y-142305496D01*
X156840142Y-142452352D01*
X157103110Y-142544476D01*
X157333000Y-142423155D01*
X157333000Y-141105000D01*
X157587000Y-141105000D01*
X157587000Y-142423155D01*
X157816890Y-142544476D01*
X158079858Y-142452352D01*
X158331193Y-142305496D01*
X158549049Y-142112429D01*
X158725053Y-141880570D01*
X158852442Y-141618830D01*
X158926320Y-141337267D01*
X158786165Y-141105000D01*
X157587000Y-141105000D01*
X157333000Y-141105000D01*
X157313000Y-141105000D01*
X157313000Y-140851000D01*
X157333000Y-140851000D01*
X157333000Y-139532845D01*
X157587000Y-139532845D01*
X157587000Y-140851000D01*
X158786165Y-140851000D01*
X158926320Y-140618733D01*
X158852442Y-140337170D01*
X158811477Y-140253000D01*
X173731928Y-140253000D01*
X173731928Y-141703000D01*
X173748992Y-141876254D01*
X173799528Y-142042850D01*
X173881595Y-142196386D01*
X173992038Y-142330962D01*
X174126614Y-142441405D01*
X174280150Y-142523472D01*
X174446746Y-142574008D01*
X174620000Y-142591072D01*
X175820000Y-142591072D01*
X175993254Y-142574008D01*
X176159850Y-142523472D01*
X176313386Y-142441405D01*
X176447962Y-142330962D01*
X176558405Y-142196386D01*
X176612777Y-142094663D01*
X176664866Y-142158134D01*
X176890987Y-142343706D01*
X177148967Y-142481599D01*
X177428890Y-142566513D01*
X177720000Y-142595185D01*
X178011111Y-142566513D01*
X178291034Y-142481599D01*
X178549014Y-142343706D01*
X178775134Y-142158134D01*
X178960706Y-141932014D01*
X178970000Y-141914626D01*
X178979294Y-141932014D01*
X179164866Y-142158134D01*
X179390987Y-142343706D01*
X179648967Y-142481599D01*
X179928890Y-142566513D01*
X180220000Y-142595185D01*
X180511111Y-142566513D01*
X180791034Y-142481599D01*
X181049014Y-142343706D01*
X181275134Y-142158134D01*
X181460706Y-141932014D01*
X181474462Y-141906278D01*
X181630951Y-142112429D01*
X181848807Y-142305496D01*
X182100142Y-142452352D01*
X182363110Y-142544476D01*
X182593000Y-142423155D01*
X182593000Y-141105000D01*
X182847000Y-141105000D01*
X182847000Y-142423155D01*
X183076890Y-142544476D01*
X183339858Y-142452352D01*
X183591193Y-142305496D01*
X183809049Y-142112429D01*
X183985053Y-141880570D01*
X184112442Y-141618830D01*
X184186320Y-141337267D01*
X184046165Y-141105000D01*
X182847000Y-141105000D01*
X182593000Y-141105000D01*
X182573000Y-141105000D01*
X182573000Y-140851000D01*
X182593000Y-140851000D01*
X182593000Y-139532845D01*
X182847000Y-139532845D01*
X182847000Y-140851000D01*
X184046165Y-140851000D01*
X184186320Y-140618733D01*
X184112442Y-140337170D01*
X183985053Y-140075430D01*
X183809049Y-139843571D01*
X183591193Y-139650504D01*
X183339858Y-139503648D01*
X183076890Y-139411524D01*
X182847000Y-139532845D01*
X182593000Y-139532845D01*
X182363110Y-139411524D01*
X182100142Y-139503648D01*
X181848807Y-139650504D01*
X181630951Y-139843571D01*
X181474462Y-140049722D01*
X181460706Y-140023986D01*
X181275134Y-139797866D01*
X181049013Y-139612294D01*
X180791033Y-139474401D01*
X180511110Y-139389487D01*
X180220000Y-139360815D01*
X179928889Y-139389487D01*
X179648966Y-139474401D01*
X179390986Y-139612294D01*
X179164866Y-139797866D01*
X178979294Y-140023987D01*
X178970000Y-140041374D01*
X178960706Y-140023986D01*
X178775134Y-139797866D01*
X178549013Y-139612294D01*
X178291033Y-139474401D01*
X178011110Y-139389487D01*
X177720000Y-139360815D01*
X177428889Y-139389487D01*
X177148966Y-139474401D01*
X176890986Y-139612294D01*
X176664866Y-139797866D01*
X176612777Y-139861337D01*
X176558405Y-139759614D01*
X176447962Y-139625038D01*
X176313386Y-139514595D01*
X176159850Y-139432528D01*
X175993254Y-139381992D01*
X175820000Y-139364928D01*
X174620000Y-139364928D01*
X174446746Y-139381992D01*
X174280150Y-139432528D01*
X174126614Y-139514595D01*
X173992038Y-139625038D01*
X173881595Y-139759614D01*
X173799528Y-139913150D01*
X173748992Y-140079746D01*
X173731928Y-140253000D01*
X158811477Y-140253000D01*
X158725053Y-140075430D01*
X158549049Y-139843571D01*
X158331193Y-139650504D01*
X158079858Y-139503648D01*
X157816890Y-139411524D01*
X157587000Y-139532845D01*
X157333000Y-139532845D01*
X157103110Y-139411524D01*
X156840142Y-139503648D01*
X156588807Y-139650504D01*
X156370951Y-139843571D01*
X156214462Y-140049722D01*
X156200706Y-140023986D01*
X156015134Y-139797866D01*
X155789013Y-139612294D01*
X155531033Y-139474401D01*
X155251110Y-139389487D01*
X154960000Y-139360815D01*
X154668889Y-139389487D01*
X154388966Y-139474401D01*
X154130986Y-139612294D01*
X153904866Y-139797866D01*
X153719294Y-140023987D01*
X153710000Y-140041374D01*
X153700706Y-140023986D01*
X153515134Y-139797866D01*
X153289013Y-139612294D01*
X153031033Y-139474401D01*
X152751110Y-139389487D01*
X152460000Y-139360815D01*
X152168889Y-139389487D01*
X151888966Y-139474401D01*
X151630986Y-139612294D01*
X151404866Y-139797866D01*
X151352777Y-139861337D01*
X151298405Y-139759614D01*
X151187962Y-139625038D01*
X151053386Y-139514595D01*
X150899850Y-139432528D01*
X150733254Y-139381992D01*
X150560000Y-139364928D01*
X149360000Y-139364928D01*
X149186746Y-139381992D01*
X149020150Y-139432528D01*
X148866614Y-139514595D01*
X148732038Y-139625038D01*
X148621595Y-139759614D01*
X148539528Y-139913150D01*
X148488992Y-140079746D01*
X148471928Y-140253000D01*
X133779477Y-140253000D01*
X133693053Y-140075430D01*
X133517049Y-139843571D01*
X133299193Y-139650504D01*
X133047858Y-139503648D01*
X132784890Y-139411524D01*
X132555000Y-139532845D01*
X132301000Y-139532845D01*
X132071110Y-139411524D01*
X131808142Y-139503648D01*
X131556807Y-139650504D01*
X131338951Y-139843571D01*
X131182462Y-140049722D01*
X131168706Y-140023986D01*
X130983134Y-139797866D01*
X130757013Y-139612294D01*
X130499033Y-139474401D01*
X130219110Y-139389487D01*
X129928000Y-139360815D01*
X129636889Y-139389487D01*
X129356966Y-139474401D01*
X129098986Y-139612294D01*
X128872866Y-139797866D01*
X128687294Y-140023987D01*
X128678000Y-140041374D01*
X128668706Y-140023986D01*
X128483134Y-139797866D01*
X128257013Y-139612294D01*
X127999033Y-139474401D01*
X127719110Y-139389487D01*
X127428000Y-139360815D01*
X127136889Y-139389487D01*
X126856966Y-139474401D01*
X126598986Y-139612294D01*
X126372866Y-139797866D01*
X126320777Y-139861337D01*
X126266405Y-139759614D01*
X126155962Y-139625038D01*
X126021386Y-139514595D01*
X125867850Y-139432528D01*
X125701254Y-139381992D01*
X125528000Y-139364928D01*
X124328000Y-139364928D01*
X124154746Y-139381992D01*
X123988150Y-139432528D01*
X123834614Y-139514595D01*
X123700038Y-139625038D01*
X123589595Y-139759614D01*
X123507528Y-139913150D01*
X123456992Y-140079746D01*
X123439928Y-140253000D01*
X105785000Y-140253000D01*
X105785000Y-132790000D01*
X107614815Y-132790000D01*
X107643487Y-133081111D01*
X107728401Y-133361034D01*
X107866294Y-133619014D01*
X108051866Y-133845134D01*
X108277986Y-134030706D01*
X108535966Y-134168599D01*
X108815889Y-134253513D01*
X109034050Y-134275000D01*
X109429950Y-134275000D01*
X109648111Y-134253513D01*
X109928034Y-134168599D01*
X110186014Y-134030706D01*
X110412134Y-133845134D01*
X110597706Y-133619014D01*
X110735599Y-133361034D01*
X110820513Y-133081111D01*
X110849185Y-132790000D01*
X110820513Y-132498889D01*
X110735599Y-132218966D01*
X110597706Y-131960986D01*
X110412134Y-131734866D01*
X110186014Y-131549294D01*
X110160278Y-131535538D01*
X110366429Y-131379049D01*
X110559496Y-131161193D01*
X110706352Y-130909858D01*
X110798476Y-130646890D01*
X110677155Y-130417000D01*
X109359000Y-130417000D01*
X109359000Y-130437000D01*
X109105000Y-130437000D01*
X109105000Y-130417000D01*
X107786845Y-130417000D01*
X107665524Y-130646890D01*
X107757648Y-130909858D01*
X107904504Y-131161193D01*
X108097571Y-131379049D01*
X108303722Y-131535538D01*
X108277986Y-131549294D01*
X108051866Y-131734866D01*
X107866294Y-131960986D01*
X107728401Y-132218966D01*
X107643487Y-132498889D01*
X107614815Y-132790000D01*
X105785000Y-132790000D01*
X105785000Y-130200000D01*
X194124815Y-130200000D01*
X194153487Y-130491111D01*
X194238401Y-130771034D01*
X194376294Y-131029014D01*
X194561866Y-131255134D01*
X194787986Y-131440706D01*
X194805374Y-131450000D01*
X194787986Y-131459294D01*
X194561866Y-131644866D01*
X194376294Y-131870986D01*
X194238401Y-132128966D01*
X194153487Y-132408889D01*
X194124815Y-132700000D01*
X194153487Y-132991111D01*
X194238401Y-133271034D01*
X194376294Y-133529014D01*
X194561866Y-133755134D01*
X194625337Y-133807223D01*
X194523614Y-133861595D01*
X194389038Y-133972038D01*
X194278595Y-134106614D01*
X194196528Y-134260150D01*
X194145992Y-134426746D01*
X194128928Y-134600000D01*
X194128928Y-135800000D01*
X194145992Y-135973254D01*
X194196528Y-136139850D01*
X194278595Y-136293386D01*
X194389038Y-136427962D01*
X194523614Y-136538405D01*
X194677150Y-136620472D01*
X194843746Y-136671008D01*
X195017000Y-136688072D01*
X196467000Y-136688072D01*
X196640254Y-136671008D01*
X196806850Y-136620472D01*
X196960386Y-136538405D01*
X197094962Y-136427962D01*
X197205405Y-136293386D01*
X197287472Y-136139850D01*
X197338008Y-135973254D01*
X197355072Y-135800000D01*
X197355072Y-134600000D01*
X197338008Y-134426746D01*
X197287472Y-134260150D01*
X197205405Y-134106614D01*
X197094962Y-133972038D01*
X196960386Y-133861595D01*
X196858663Y-133807223D01*
X196922134Y-133755134D01*
X197107706Y-133529014D01*
X197245599Y-133271034D01*
X197330513Y-132991111D01*
X197359185Y-132700000D01*
X197330513Y-132408889D01*
X197245599Y-132128966D01*
X197107706Y-131870986D01*
X196922134Y-131644866D01*
X196696014Y-131459294D01*
X196678626Y-131450000D01*
X196696014Y-131440706D01*
X196922134Y-131255134D01*
X197107706Y-131029014D01*
X197245599Y-130771034D01*
X197330513Y-130491111D01*
X197359185Y-130200000D01*
X197330513Y-129908889D01*
X197245599Y-129628966D01*
X197107706Y-129370986D01*
X196922134Y-129144866D01*
X196696014Y-128959294D01*
X196438034Y-128821401D01*
X196158111Y-128736487D01*
X195939950Y-128715000D01*
X195544050Y-128715000D01*
X195325889Y-128736487D01*
X195045966Y-128821401D01*
X194787986Y-128959294D01*
X194561866Y-129144866D01*
X194376294Y-129370986D01*
X194238401Y-129628966D01*
X194153487Y-129908889D01*
X194124815Y-130200000D01*
X105785000Y-130200000D01*
X105785000Y-127190000D01*
X107618928Y-127190000D01*
X107618928Y-128390000D01*
X107635992Y-128563254D01*
X107686528Y-128729850D01*
X107768595Y-128883386D01*
X107879038Y-129017962D01*
X108013614Y-129128405D01*
X108118961Y-129184714D01*
X108097571Y-129200951D01*
X107904504Y-129418807D01*
X107757648Y-129670142D01*
X107665524Y-129933110D01*
X107786845Y-130163000D01*
X109105000Y-130163000D01*
X109105000Y-130143000D01*
X109359000Y-130143000D01*
X109359000Y-130163000D01*
X110677155Y-130163000D01*
X110798476Y-129933110D01*
X110706352Y-129670142D01*
X110559496Y-129418807D01*
X110366429Y-129200951D01*
X110345039Y-129184714D01*
X110450386Y-129128405D01*
X110584962Y-129017962D01*
X110695405Y-128883386D01*
X110777472Y-128729850D01*
X110828008Y-128563254D01*
X110845072Y-128390000D01*
X110845072Y-127885413D01*
X128290192Y-127885413D01*
X128385956Y-128149814D01*
X128675571Y-128290704D01*
X128987108Y-128372384D01*
X129308595Y-128391718D01*
X129627675Y-128347961D01*
X129932088Y-128242795D01*
X130106044Y-128149814D01*
X130201808Y-127885413D01*
X134790192Y-127885413D01*
X134885956Y-128149814D01*
X135175571Y-128290704D01*
X135487108Y-128372384D01*
X135808595Y-128391718D01*
X136127675Y-128347961D01*
X136432088Y-128242795D01*
X136606044Y-128149814D01*
X136701808Y-127885413D01*
X165882192Y-127885413D01*
X165977956Y-128149814D01*
X166267571Y-128290704D01*
X166579108Y-128372384D01*
X166900595Y-128391718D01*
X167219675Y-128347961D01*
X167524088Y-128242795D01*
X167698044Y-128149814D01*
X167793808Y-127885413D01*
X172382192Y-127885413D01*
X172477956Y-128149814D01*
X172767571Y-128290704D01*
X173079108Y-128372384D01*
X173400595Y-128391718D01*
X173719675Y-128347961D01*
X174024088Y-128242795D01*
X174198044Y-128149814D01*
X174293808Y-127885413D01*
X173338000Y-126929605D01*
X172382192Y-127885413D01*
X167793808Y-127885413D01*
X166838000Y-126929605D01*
X165882192Y-127885413D01*
X136701808Y-127885413D01*
X135746000Y-126929605D01*
X134790192Y-127885413D01*
X130201808Y-127885413D01*
X129246000Y-126929605D01*
X128290192Y-127885413D01*
X110845072Y-127885413D01*
X110845072Y-127190000D01*
X110828008Y-127016746D01*
X110777472Y-126850150D01*
X110757399Y-126812595D01*
X127604282Y-126812595D01*
X127648039Y-127131675D01*
X127753205Y-127436088D01*
X127846186Y-127610044D01*
X128110587Y-127705808D01*
X129066395Y-126750000D01*
X129425605Y-126750000D01*
X130381413Y-127705808D01*
X130645814Y-127610044D01*
X130786704Y-127320429D01*
X130868384Y-127008892D01*
X130880189Y-126812595D01*
X134104282Y-126812595D01*
X134148039Y-127131675D01*
X134253205Y-127436088D01*
X134346186Y-127610044D01*
X134610587Y-127705808D01*
X135566395Y-126750000D01*
X135925605Y-126750000D01*
X136881413Y-127705808D01*
X137145814Y-127610044D01*
X137286704Y-127320429D01*
X137368384Y-127008892D01*
X137380189Y-126812595D01*
X165196282Y-126812595D01*
X165240039Y-127131675D01*
X165345205Y-127436088D01*
X165438186Y-127610044D01*
X165702587Y-127705808D01*
X166658395Y-126750000D01*
X167017605Y-126750000D01*
X167973413Y-127705808D01*
X168237814Y-127610044D01*
X168378704Y-127320429D01*
X168460384Y-127008892D01*
X168472189Y-126812595D01*
X171696282Y-126812595D01*
X171740039Y-127131675D01*
X171845205Y-127436088D01*
X171938186Y-127610044D01*
X172202587Y-127705808D01*
X173158395Y-126750000D01*
X173517605Y-126750000D01*
X174473413Y-127705808D01*
X174737814Y-127610044D01*
X174878704Y-127320429D01*
X174960384Y-127008892D01*
X174979718Y-126687405D01*
X174935961Y-126368325D01*
X174830795Y-126063912D01*
X174737814Y-125889956D01*
X174473413Y-125794192D01*
X173517605Y-126750000D01*
X173158395Y-126750000D01*
X172202587Y-125794192D01*
X171938186Y-125889956D01*
X171797296Y-126179571D01*
X171715616Y-126491108D01*
X171696282Y-126812595D01*
X168472189Y-126812595D01*
X168479718Y-126687405D01*
X168435961Y-126368325D01*
X168330795Y-126063912D01*
X168237814Y-125889956D01*
X167973413Y-125794192D01*
X167017605Y-126750000D01*
X166658395Y-126750000D01*
X165702587Y-125794192D01*
X165438186Y-125889956D01*
X165297296Y-126179571D01*
X165215616Y-126491108D01*
X165196282Y-126812595D01*
X137380189Y-126812595D01*
X137387718Y-126687405D01*
X137343961Y-126368325D01*
X137238795Y-126063912D01*
X137145814Y-125889956D01*
X136881413Y-125794192D01*
X135925605Y-126750000D01*
X135566395Y-126750000D01*
X134610587Y-125794192D01*
X134346186Y-125889956D01*
X134205296Y-126179571D01*
X134123616Y-126491108D01*
X134104282Y-126812595D01*
X130880189Y-126812595D01*
X130887718Y-126687405D01*
X130843961Y-126368325D01*
X130738795Y-126063912D01*
X130645814Y-125889956D01*
X130381413Y-125794192D01*
X129425605Y-126750000D01*
X129066395Y-126750000D01*
X128110587Y-125794192D01*
X127846186Y-125889956D01*
X127705296Y-126179571D01*
X127623616Y-126491108D01*
X127604282Y-126812595D01*
X110757399Y-126812595D01*
X110695405Y-126696614D01*
X110584962Y-126562038D01*
X110450386Y-126451595D01*
X110296850Y-126369528D01*
X110130254Y-126318992D01*
X109957000Y-126301928D01*
X108507000Y-126301928D01*
X108333746Y-126318992D01*
X108167150Y-126369528D01*
X108013614Y-126451595D01*
X107879038Y-126562038D01*
X107768595Y-126696614D01*
X107686528Y-126850150D01*
X107635992Y-127016746D01*
X107618928Y-127190000D01*
X105785000Y-127190000D01*
X105785000Y-125614587D01*
X128290192Y-125614587D01*
X129246000Y-126570395D01*
X130201808Y-125614587D01*
X134790192Y-125614587D01*
X135746000Y-126570395D01*
X136701808Y-125614587D01*
X165882192Y-125614587D01*
X166838000Y-126570395D01*
X167793808Y-125614587D01*
X172382192Y-125614587D01*
X173338000Y-126570395D01*
X174293808Y-125614587D01*
X174198044Y-125350186D01*
X173908429Y-125209296D01*
X173596892Y-125127616D01*
X173275405Y-125108282D01*
X172956325Y-125152039D01*
X172651912Y-125257205D01*
X172477956Y-125350186D01*
X172382192Y-125614587D01*
X167793808Y-125614587D01*
X167698044Y-125350186D01*
X167408429Y-125209296D01*
X167096892Y-125127616D01*
X166775405Y-125108282D01*
X166456325Y-125152039D01*
X166151912Y-125257205D01*
X165977956Y-125350186D01*
X165882192Y-125614587D01*
X136701808Y-125614587D01*
X136606044Y-125350186D01*
X136316429Y-125209296D01*
X136004892Y-125127616D01*
X135683405Y-125108282D01*
X135364325Y-125152039D01*
X135059912Y-125257205D01*
X134885956Y-125350186D01*
X134790192Y-125614587D01*
X130201808Y-125614587D01*
X130106044Y-125350186D01*
X129816429Y-125209296D01*
X129504892Y-125127616D01*
X129183405Y-125108282D01*
X128864325Y-125152039D01*
X128559912Y-125257205D01*
X128385956Y-125350186D01*
X128290192Y-125614587D01*
X105785000Y-125614587D01*
X105785000Y-122088967D01*
X127611000Y-122088967D01*
X127611000Y-122411033D01*
X127673832Y-122726912D01*
X127797082Y-123024463D01*
X127976013Y-123292252D01*
X128203748Y-123519987D01*
X128471537Y-123698918D01*
X128769088Y-123822168D01*
X129084967Y-123885000D01*
X129407033Y-123885000D01*
X129722912Y-123822168D01*
X130020463Y-123698918D01*
X130288252Y-123519987D01*
X130515987Y-123292252D01*
X130694918Y-123024463D01*
X130818168Y-122726912D01*
X130881000Y-122411033D01*
X130881000Y-122088967D01*
X130818168Y-121773088D01*
X130694918Y-121475537D01*
X130515987Y-121207748D01*
X130288252Y-120980013D01*
X130020463Y-120801082D01*
X129722912Y-120677832D01*
X129407033Y-120615000D01*
X129084967Y-120615000D01*
X128769088Y-120677832D01*
X128471537Y-120801082D01*
X128203748Y-120980013D01*
X127976013Y-121207748D01*
X127797082Y-121475537D01*
X127673832Y-121773088D01*
X127611000Y-122088967D01*
X105785000Y-122088967D01*
X105785000Y-117726000D01*
X107614815Y-117726000D01*
X107643487Y-118017111D01*
X107728401Y-118297034D01*
X107866294Y-118555014D01*
X108051866Y-118781134D01*
X108277986Y-118966706D01*
X108535966Y-119104599D01*
X108815889Y-119189513D01*
X109034050Y-119211000D01*
X109429950Y-119211000D01*
X109648111Y-119189513D01*
X109928034Y-119104599D01*
X110186014Y-118966706D01*
X110412134Y-118781134D01*
X110597706Y-118555014D01*
X110735599Y-118297034D01*
X110820513Y-118017111D01*
X110849185Y-117726000D01*
X110820513Y-117434889D01*
X110735599Y-117154966D01*
X110597706Y-116896986D01*
X110412134Y-116670866D01*
X110186014Y-116485294D01*
X110160278Y-116471538D01*
X110366429Y-116315049D01*
X110559496Y-116097193D01*
X110706352Y-115845858D01*
X110798476Y-115582890D01*
X110677155Y-115353000D01*
X109359000Y-115353000D01*
X109359000Y-115373000D01*
X109105000Y-115373000D01*
X109105000Y-115353000D01*
X107786845Y-115353000D01*
X107665524Y-115582890D01*
X107757648Y-115845858D01*
X107904504Y-116097193D01*
X108097571Y-116315049D01*
X108303722Y-116471538D01*
X108277986Y-116485294D01*
X108051866Y-116670866D01*
X107866294Y-116896986D01*
X107728401Y-117154966D01*
X107643487Y-117434889D01*
X107614815Y-117726000D01*
X105785000Y-117726000D01*
X105785000Y-112126000D01*
X107618928Y-112126000D01*
X107618928Y-113326000D01*
X107635992Y-113499254D01*
X107686528Y-113665850D01*
X107768595Y-113819386D01*
X107879038Y-113953962D01*
X108013614Y-114064405D01*
X108118961Y-114120714D01*
X108097571Y-114136951D01*
X107904504Y-114354807D01*
X107757648Y-114606142D01*
X107665524Y-114869110D01*
X107786845Y-115099000D01*
X109105000Y-115099000D01*
X109105000Y-115079000D01*
X109359000Y-115079000D01*
X109359000Y-115099000D01*
X110677155Y-115099000D01*
X110798476Y-114869110D01*
X110706352Y-114606142D01*
X110559496Y-114354807D01*
X110366429Y-114136951D01*
X110345039Y-114120714D01*
X110450386Y-114064405D01*
X110584962Y-113953962D01*
X110695405Y-113819386D01*
X110777472Y-113665850D01*
X110828008Y-113499254D01*
X110845072Y-113326000D01*
X110845072Y-112126000D01*
X110828008Y-111952746D01*
X110777472Y-111786150D01*
X110695405Y-111632614D01*
X110584962Y-111498038D01*
X110450386Y-111387595D01*
X110296850Y-111305528D01*
X110130254Y-111254992D01*
X109957000Y-111237928D01*
X108507000Y-111237928D01*
X108333746Y-111254992D01*
X108167150Y-111305528D01*
X108013614Y-111387595D01*
X107879038Y-111498038D01*
X107768595Y-111632614D01*
X107686528Y-111786150D01*
X107635992Y-111952746D01*
X107618928Y-112126000D01*
X105785000Y-112126000D01*
X105785000Y-111124270D01*
X139285681Y-111124270D01*
X139285681Y-111397092D01*
X139338906Y-111664670D01*
X139443310Y-111916724D01*
X139594882Y-112143567D01*
X139787795Y-112336480D01*
X140014638Y-112488052D01*
X140266692Y-112592456D01*
X140534270Y-112645681D01*
X140807092Y-112645681D01*
X141074670Y-112592456D01*
X141326724Y-112488052D01*
X141553567Y-112336480D01*
X141746480Y-112143567D01*
X141898052Y-111916724D01*
X142002456Y-111664670D01*
X142055681Y-111397092D01*
X142055681Y-111124270D01*
X142002456Y-110856692D01*
X141898052Y-110604638D01*
X141746480Y-110377795D01*
X141553567Y-110184882D01*
X141326724Y-110033310D01*
X141074670Y-109928906D01*
X140807092Y-109875681D01*
X140534270Y-109875681D01*
X140266692Y-109928906D01*
X140014638Y-110033310D01*
X139787795Y-110184882D01*
X139594882Y-110377795D01*
X139443310Y-110604638D01*
X139338906Y-110856692D01*
X139285681Y-111124270D01*
X105785000Y-111124270D01*
X105785000Y-107673589D01*
X135835000Y-107673589D01*
X135835000Y-107946411D01*
X135888225Y-108213989D01*
X135992629Y-108466043D01*
X136144201Y-108692886D01*
X136337114Y-108885799D01*
X136563957Y-109037371D01*
X136816011Y-109141775D01*
X137083589Y-109195000D01*
X137356411Y-109195000D01*
X137623989Y-109141775D01*
X137876043Y-109037371D01*
X138102886Y-108885799D01*
X138295799Y-108692886D01*
X138447371Y-108466043D01*
X138551775Y-108213989D01*
X138605000Y-107946411D01*
X138605000Y-107673589D01*
X138551775Y-107406011D01*
X138447371Y-107153957D01*
X138295799Y-106927114D01*
X138102886Y-106734201D01*
X137876043Y-106582629D01*
X137623989Y-106478225D01*
X137356411Y-106425000D01*
X137083589Y-106425000D01*
X136816011Y-106478225D01*
X136563957Y-106582629D01*
X136337114Y-106734201D01*
X136144201Y-106927114D01*
X135992629Y-107153957D01*
X135888225Y-107406011D01*
X135835000Y-107673589D01*
X105785000Y-107673589D01*
X105785000Y-102232000D01*
X107614815Y-102232000D01*
X107643487Y-102523111D01*
X107728401Y-102803034D01*
X107866294Y-103061014D01*
X108051866Y-103287134D01*
X108277986Y-103472706D01*
X108535966Y-103610599D01*
X108815889Y-103695513D01*
X109034050Y-103717000D01*
X109429950Y-103717000D01*
X109648111Y-103695513D01*
X109928034Y-103610599D01*
X110186014Y-103472706D01*
X110412134Y-103287134D01*
X110597706Y-103061014D01*
X110735599Y-102803034D01*
X110820513Y-102523111D01*
X110849185Y-102232000D01*
X110820513Y-101940889D01*
X110735599Y-101660966D01*
X110597706Y-101402986D01*
X110412134Y-101176866D01*
X110186014Y-100991294D01*
X110160278Y-100977538D01*
X110366429Y-100821049D01*
X110559496Y-100603193D01*
X110706352Y-100351858D01*
X110798476Y-100088890D01*
X110677155Y-99859000D01*
X109359000Y-99859000D01*
X109359000Y-99879000D01*
X109105000Y-99879000D01*
X109105000Y-99859000D01*
X107786845Y-99859000D01*
X107665524Y-100088890D01*
X107757648Y-100351858D01*
X107904504Y-100603193D01*
X108097571Y-100821049D01*
X108303722Y-100977538D01*
X108277986Y-100991294D01*
X108051866Y-101176866D01*
X107866294Y-101402986D01*
X107728401Y-101660966D01*
X107643487Y-101940889D01*
X107614815Y-102232000D01*
X105785000Y-102232000D01*
X105785000Y-96632000D01*
X107618928Y-96632000D01*
X107618928Y-97832000D01*
X107635992Y-98005254D01*
X107686528Y-98171850D01*
X107768595Y-98325386D01*
X107879038Y-98459962D01*
X108013614Y-98570405D01*
X108118961Y-98626714D01*
X108097571Y-98642951D01*
X107904504Y-98860807D01*
X107757648Y-99112142D01*
X107665524Y-99375110D01*
X107786845Y-99605000D01*
X109105000Y-99605000D01*
X109105000Y-99585000D01*
X109359000Y-99585000D01*
X109359000Y-99605000D01*
X110677155Y-99605000D01*
X110798476Y-99375110D01*
X110706352Y-99112142D01*
X110559496Y-98860807D01*
X110366429Y-98642951D01*
X110345039Y-98626714D01*
X110450386Y-98570405D01*
X110584962Y-98459962D01*
X110695405Y-98325386D01*
X110777472Y-98171850D01*
X110828008Y-98005254D01*
X110845072Y-97832000D01*
X110845072Y-96632000D01*
X110828008Y-96458746D01*
X110777472Y-96292150D01*
X110695405Y-96138614D01*
X110584962Y-96004038D01*
X110450386Y-95893595D01*
X110296850Y-95811528D01*
X110130254Y-95760992D01*
X109957000Y-95743928D01*
X108507000Y-95743928D01*
X108333746Y-95760992D01*
X108167150Y-95811528D01*
X108013614Y-95893595D01*
X107879038Y-96004038D01*
X107768595Y-96138614D01*
X107686528Y-96292150D01*
X107635992Y-96458746D01*
X107618928Y-96632000D01*
X105785000Y-96632000D01*
X105785000Y-88850000D01*
X106511928Y-88850000D01*
X106511928Y-90550000D01*
X106524188Y-90674482D01*
X106560498Y-90794180D01*
X106619463Y-90904494D01*
X106698815Y-91001185D01*
X106795506Y-91080537D01*
X106905820Y-91139502D01*
X107025518Y-91175812D01*
X107150000Y-91188072D01*
X107240001Y-91188072D01*
X107240001Y-91662668D01*
X107236324Y-91700000D01*
X107240001Y-91737333D01*
X107250998Y-91848986D01*
X107259109Y-91875724D01*
X107294454Y-91992246D01*
X107365026Y-92124276D01*
X107436201Y-92211002D01*
X107460000Y-92240001D01*
X107488998Y-92263799D01*
X108036200Y-92811002D01*
X108059999Y-92840001D01*
X108088997Y-92863799D01*
X108175723Y-92934974D01*
X108279148Y-92990256D01*
X108307753Y-93005546D01*
X108451014Y-93049003D01*
X108562667Y-93060000D01*
X108562676Y-93060000D01*
X108599999Y-93063676D01*
X108637322Y-93060000D01*
X124785199Y-93060000D01*
X141836201Y-110111003D01*
X141859999Y-110140001D01*
X141888997Y-110163799D01*
X141975724Y-110234974D01*
X142107753Y-110305546D01*
X142251014Y-110349003D01*
X142400000Y-110363677D01*
X142437333Y-110360000D01*
X152962678Y-110360000D01*
X153000000Y-110363676D01*
X153037322Y-110360000D01*
X153037333Y-110360000D01*
X153148986Y-110349003D01*
X153292247Y-110305546D01*
X153424276Y-110234974D01*
X153540001Y-110140001D01*
X153563804Y-110110997D01*
X153711011Y-109963790D01*
X153740014Y-109939988D01*
X153834987Y-109824263D01*
X153905559Y-109692234D01*
X153933149Y-109601280D01*
X153939979Y-109594450D01*
X153939978Y-112285220D01*
X144735199Y-121490000D01*
X137200909Y-121490000D01*
X137194918Y-121475537D01*
X137015987Y-121207748D01*
X136788252Y-120980013D01*
X136520463Y-120801082D01*
X136222912Y-120677832D01*
X135907033Y-120615000D01*
X135584967Y-120615000D01*
X135269088Y-120677832D01*
X134971537Y-120801082D01*
X134703748Y-120980013D01*
X134476013Y-121207748D01*
X134297082Y-121475537D01*
X134173832Y-121773088D01*
X134111000Y-122088967D01*
X134111000Y-122411033D01*
X134173832Y-122726912D01*
X134297082Y-123024463D01*
X134476013Y-123292252D01*
X134703748Y-123519987D01*
X134971537Y-123698918D01*
X135269088Y-123822168D01*
X135584967Y-123885000D01*
X135907033Y-123885000D01*
X136222912Y-123822168D01*
X136520463Y-123698918D01*
X136788252Y-123519987D01*
X137015987Y-123292252D01*
X137194918Y-123024463D01*
X137200909Y-123010000D01*
X145012678Y-123010000D01*
X145050000Y-123013676D01*
X145087322Y-123010000D01*
X145087333Y-123010000D01*
X145198986Y-122999003D01*
X145342247Y-122955546D01*
X145474276Y-122884974D01*
X145590001Y-122790001D01*
X145613804Y-122760997D01*
X154489989Y-113884813D01*
X154489989Y-116390500D01*
X154486313Y-116427822D01*
X154489989Y-116465144D01*
X154489989Y-116465154D01*
X154500986Y-116576807D01*
X154523491Y-116650997D01*
X154544443Y-116720068D01*
X154615015Y-116852098D01*
X154645298Y-116888997D01*
X154709988Y-116967823D01*
X154738992Y-116991626D01*
X158158368Y-120411003D01*
X158182166Y-120440001D01*
X158297891Y-120534974D01*
X158429920Y-120605546D01*
X158573181Y-120649003D01*
X158684834Y-120660000D01*
X158684843Y-120660000D01*
X158722166Y-120663676D01*
X158759489Y-120660000D01*
X166450736Y-120660000D01*
X166361088Y-120677832D01*
X166063537Y-120801082D01*
X165795748Y-120980013D01*
X165568013Y-121207748D01*
X165389082Y-121475537D01*
X165265832Y-121773088D01*
X165203000Y-122088967D01*
X165203000Y-122411033D01*
X165265832Y-122726912D01*
X165389082Y-123024463D01*
X165568013Y-123292252D01*
X165795748Y-123519987D01*
X166063537Y-123698918D01*
X166361088Y-123822168D01*
X166676967Y-123885000D01*
X166999033Y-123885000D01*
X167314912Y-123822168D01*
X167612463Y-123698918D01*
X167880252Y-123519987D01*
X168107987Y-123292252D01*
X168286918Y-123024463D01*
X168410168Y-122726912D01*
X168473000Y-122411033D01*
X168473000Y-122088967D01*
X168410168Y-121773088D01*
X168286918Y-121475537D01*
X168107987Y-121207748D01*
X167880252Y-120980013D01*
X167612463Y-120801082D01*
X167314912Y-120677832D01*
X167225264Y-120660000D01*
X172950736Y-120660000D01*
X172861088Y-120677832D01*
X172563537Y-120801082D01*
X172295748Y-120980013D01*
X172068013Y-121207748D01*
X171889082Y-121475537D01*
X171765832Y-121773088D01*
X171703000Y-122088967D01*
X171703000Y-122411033D01*
X171765832Y-122726912D01*
X171889082Y-123024463D01*
X172068013Y-123292252D01*
X172295748Y-123519987D01*
X172563537Y-123698918D01*
X172861088Y-123822168D01*
X173176967Y-123885000D01*
X173499033Y-123885000D01*
X173814912Y-123822168D01*
X174112463Y-123698918D01*
X174380252Y-123519987D01*
X174607987Y-123292252D01*
X174786918Y-123024463D01*
X174910168Y-122726912D01*
X174973000Y-122411033D01*
X174973000Y-122088967D01*
X174910168Y-121773088D01*
X174786918Y-121475537D01*
X174607987Y-121207748D01*
X174380252Y-120980013D01*
X174112463Y-120801082D01*
X173814912Y-120677832D01*
X173725264Y-120660000D01*
X194317405Y-120660000D01*
X194354294Y-120729014D01*
X194539866Y-120955134D01*
X194603337Y-121007223D01*
X194501614Y-121061595D01*
X194367038Y-121172038D01*
X194256595Y-121306614D01*
X194174528Y-121460150D01*
X194123992Y-121626746D01*
X194106928Y-121800000D01*
X194106928Y-123000000D01*
X194123992Y-123173254D01*
X194174528Y-123339850D01*
X194256595Y-123493386D01*
X194367038Y-123627962D01*
X194501614Y-123738405D01*
X194655150Y-123820472D01*
X194821746Y-123871008D01*
X194995000Y-123888072D01*
X196445000Y-123888072D01*
X196618254Y-123871008D01*
X196784850Y-123820472D01*
X196938386Y-123738405D01*
X197072962Y-123627962D01*
X197183405Y-123493386D01*
X197265472Y-123339850D01*
X197316008Y-123173254D01*
X197333072Y-123000000D01*
X197333072Y-121800000D01*
X197316008Y-121626746D01*
X197265472Y-121460150D01*
X197183405Y-121306614D01*
X197072962Y-121172038D01*
X196938386Y-121061595D01*
X196836663Y-121007223D01*
X196900134Y-120955134D01*
X197085706Y-120729014D01*
X197223599Y-120471034D01*
X197308513Y-120191111D01*
X197337185Y-119900000D01*
X197308513Y-119608889D01*
X197223599Y-119328966D01*
X197085706Y-119070986D01*
X196900134Y-118844866D01*
X196674014Y-118659294D01*
X196656626Y-118650000D01*
X196674014Y-118640706D01*
X196900134Y-118455134D01*
X197085706Y-118229014D01*
X197223599Y-117971034D01*
X197308513Y-117691111D01*
X197337185Y-117400000D01*
X197308513Y-117108889D01*
X197223599Y-116828966D01*
X197085706Y-116570986D01*
X196900134Y-116344866D01*
X196674014Y-116159294D01*
X196416034Y-116021401D01*
X196136111Y-115936487D01*
X195917950Y-115915000D01*
X195522050Y-115915000D01*
X195303889Y-115936487D01*
X195023966Y-116021401D01*
X194765986Y-116159294D01*
X194539866Y-116344866D01*
X194354294Y-116570986D01*
X194317405Y-116640000D01*
X157314802Y-116640000D01*
X156560000Y-115885199D01*
X156560000Y-107860000D01*
X157596289Y-107860000D01*
X157640226Y-107903937D01*
X157809744Y-108017205D01*
X157998102Y-108095226D01*
X158198061Y-108135000D01*
X158401939Y-108135000D01*
X158601898Y-108095226D01*
X158790256Y-108017205D01*
X158959774Y-107903937D01*
X159103937Y-107759774D01*
X159217205Y-107590256D01*
X159295226Y-107401898D01*
X159335000Y-107201939D01*
X159335000Y-106998061D01*
X159295226Y-106798102D01*
X159217205Y-106609744D01*
X159103937Y-106440226D01*
X158959774Y-106296063D01*
X158790256Y-106182795D01*
X158601898Y-106104774D01*
X158401939Y-106065000D01*
X158198061Y-106065000D01*
X157998102Y-106104774D01*
X157809744Y-106182795D01*
X157640226Y-106296063D01*
X157596289Y-106340000D01*
X156614802Y-106340000D01*
X154435000Y-104160199D01*
X154435000Y-104098061D01*
X154395226Y-103898102D01*
X154317205Y-103709744D01*
X154203937Y-103540226D01*
X154059774Y-103396063D01*
X153890256Y-103282795D01*
X153701898Y-103204774D01*
X153501939Y-103165000D01*
X153298061Y-103165000D01*
X153098102Y-103204774D01*
X152909744Y-103282795D01*
X152740226Y-103396063D01*
X152596063Y-103540226D01*
X152482795Y-103709744D01*
X152404774Y-103898102D01*
X152365000Y-104098061D01*
X152365000Y-104301939D01*
X152404774Y-104501898D01*
X152482795Y-104690256D01*
X152596063Y-104859774D01*
X152740226Y-105003937D01*
X152909744Y-105117205D01*
X153098102Y-105195226D01*
X153298061Y-105235000D01*
X153360199Y-105235000D01*
X153565199Y-105440000D01*
X148914802Y-105440000D01*
X148560000Y-105085199D01*
X148560000Y-100503711D01*
X148603937Y-100459774D01*
X148717205Y-100290256D01*
X148795226Y-100101898D01*
X148835000Y-99901939D01*
X148835000Y-99698061D01*
X148795226Y-99498102D01*
X148717205Y-99309744D01*
X148603937Y-99140226D01*
X148513711Y-99050000D01*
X148603937Y-98959774D01*
X148717205Y-98790256D01*
X148795226Y-98601898D01*
X148835000Y-98401939D01*
X148835000Y-98198061D01*
X148795226Y-97998102D01*
X148717205Y-97809744D01*
X148603937Y-97640226D01*
X148459774Y-97496063D01*
X148290256Y-97382795D01*
X148101898Y-97304774D01*
X148077897Y-97300000D01*
X148101898Y-97295226D01*
X148290256Y-97217205D01*
X148459774Y-97103937D01*
X148503711Y-97060000D01*
X150962678Y-97060000D01*
X151000000Y-97063676D01*
X151037322Y-97060000D01*
X151037333Y-97060000D01*
X151148986Y-97049003D01*
X151292247Y-97005546D01*
X151424276Y-96934974D01*
X151540001Y-96840001D01*
X151563803Y-96810998D01*
X152413799Y-95961003D01*
X152413803Y-95960998D01*
X152454018Y-95920783D01*
X152482795Y-95990256D01*
X152596063Y-96159774D01*
X152740226Y-96303937D01*
X152909744Y-96417205D01*
X153098102Y-96495226D01*
X153298061Y-96535000D01*
X153501939Y-96535000D01*
X153701898Y-96495226D01*
X153890256Y-96417205D01*
X154059774Y-96303937D01*
X154065000Y-96298711D01*
X154065000Y-96501939D01*
X154104774Y-96701898D01*
X154182795Y-96890256D01*
X154296063Y-97059774D01*
X154440226Y-97203937D01*
X154609744Y-97317205D01*
X154798102Y-97395226D01*
X154998061Y-97435000D01*
X155060199Y-97435000D01*
X159540000Y-101914802D01*
X159540001Y-107785197D01*
X158289003Y-109036196D01*
X158259999Y-109059999D01*
X158220819Y-109107741D01*
X158165026Y-109175724D01*
X158124789Y-109251002D01*
X158094454Y-109307754D01*
X158050997Y-109451015D01*
X158040000Y-109562668D01*
X158040000Y-109562678D01*
X158036324Y-109600000D01*
X158040000Y-109637323D01*
X158040001Y-111396288D01*
X157996063Y-111440226D01*
X157882795Y-111609744D01*
X157804774Y-111798102D01*
X157765000Y-111998061D01*
X157765000Y-112201939D01*
X157804774Y-112401898D01*
X157882795Y-112590256D01*
X157996063Y-112759774D01*
X158140226Y-112903937D01*
X158309744Y-113017205D01*
X158498102Y-113095226D01*
X158698061Y-113135000D01*
X158901939Y-113135000D01*
X159101898Y-113095226D01*
X159290256Y-113017205D01*
X159400000Y-112943877D01*
X159509744Y-113017205D01*
X159698102Y-113095226D01*
X159898061Y-113135000D01*
X160101939Y-113135000D01*
X160301898Y-113095226D01*
X160490256Y-113017205D01*
X160600000Y-112943877D01*
X160709744Y-113017205D01*
X160898102Y-113095226D01*
X161098061Y-113135000D01*
X161301939Y-113135000D01*
X161501898Y-113095226D01*
X161690256Y-113017205D01*
X161750000Y-112977285D01*
X161809744Y-113017205D01*
X161998102Y-113095226D01*
X162198061Y-113135000D01*
X162401939Y-113135000D01*
X162601898Y-113095226D01*
X162790256Y-113017205D01*
X162850000Y-112977285D01*
X162909744Y-113017205D01*
X163098102Y-113095226D01*
X163298061Y-113135000D01*
X163501939Y-113135000D01*
X163701898Y-113095226D01*
X163890256Y-113017205D01*
X163950000Y-112977285D01*
X164009744Y-113017205D01*
X164198102Y-113095226D01*
X164398061Y-113135000D01*
X164601939Y-113135000D01*
X164801898Y-113095226D01*
X164990256Y-113017205D01*
X165159774Y-112903937D01*
X165240001Y-112823710D01*
X165240001Y-114396288D01*
X165196063Y-114440226D01*
X165082795Y-114609744D01*
X165004774Y-114798102D01*
X164965000Y-114998061D01*
X164965000Y-115201939D01*
X165004774Y-115401898D01*
X165082795Y-115590256D01*
X165196063Y-115759774D01*
X165340226Y-115903937D01*
X165509744Y-116017205D01*
X165698102Y-116095226D01*
X165898061Y-116135000D01*
X166101939Y-116135000D01*
X166301898Y-116095226D01*
X166490256Y-116017205D01*
X166659774Y-115903937D01*
X166803937Y-115759774D01*
X166917205Y-115590256D01*
X166995226Y-115401898D01*
X167035000Y-115201939D01*
X167035000Y-114998061D01*
X166995226Y-114798102D01*
X166917205Y-114609744D01*
X166803937Y-114440226D01*
X166760000Y-114396289D01*
X166760000Y-107003711D01*
X166803937Y-106959774D01*
X166917205Y-106790256D01*
X166995226Y-106601898D01*
X167035000Y-106401939D01*
X167035000Y-106198061D01*
X167665000Y-106198061D01*
X167665000Y-106401939D01*
X167704774Y-106601898D01*
X167782795Y-106790256D01*
X167896063Y-106959774D01*
X167940001Y-107003712D01*
X167940000Y-114396289D01*
X167896063Y-114440226D01*
X167782795Y-114609744D01*
X167704774Y-114798102D01*
X167665000Y-114998061D01*
X167665000Y-115201939D01*
X167704774Y-115401898D01*
X167782795Y-115590256D01*
X167896063Y-115759774D01*
X168040226Y-115903937D01*
X168209744Y-116017205D01*
X168398102Y-116095226D01*
X168598061Y-116135000D01*
X168801939Y-116135000D01*
X169001898Y-116095226D01*
X169190256Y-116017205D01*
X169359774Y-115903937D01*
X169503937Y-115759774D01*
X169617205Y-115590256D01*
X169695226Y-115401898D01*
X169735000Y-115201939D01*
X169735000Y-114998061D01*
X169695226Y-114798102D01*
X169617205Y-114609744D01*
X169503937Y-114440226D01*
X169460000Y-114396289D01*
X169460000Y-107003711D01*
X169503937Y-106959774D01*
X169617205Y-106790256D01*
X169695226Y-106601898D01*
X169735000Y-106401939D01*
X169735000Y-106198061D01*
X169695226Y-105998102D01*
X169617205Y-105809744D01*
X169503937Y-105640226D01*
X169359774Y-105496063D01*
X169190256Y-105382795D01*
X169001898Y-105304774D01*
X168801939Y-105265000D01*
X168598061Y-105265000D01*
X168398102Y-105304774D01*
X168209744Y-105382795D01*
X168040226Y-105496063D01*
X167896063Y-105640226D01*
X167782795Y-105809744D01*
X167704774Y-105998102D01*
X167665000Y-106198061D01*
X167035000Y-106198061D01*
X166995226Y-105998102D01*
X166917205Y-105809744D01*
X166803937Y-105640226D01*
X166659774Y-105496063D01*
X166490256Y-105382795D01*
X166301898Y-105304774D01*
X166101939Y-105265000D01*
X165898061Y-105265000D01*
X165698102Y-105304774D01*
X165509744Y-105382795D01*
X165340226Y-105496063D01*
X165260000Y-105576289D01*
X165260000Y-104600000D01*
X194124815Y-104600000D01*
X194153487Y-104891111D01*
X194238401Y-105171034D01*
X194376294Y-105429014D01*
X194561866Y-105655134D01*
X194787986Y-105840706D01*
X194805374Y-105850000D01*
X194787986Y-105859294D01*
X194561866Y-106044866D01*
X194376294Y-106270986D01*
X194238401Y-106528966D01*
X194153487Y-106808889D01*
X194124815Y-107100000D01*
X194153487Y-107391111D01*
X194238401Y-107671034D01*
X194376294Y-107929014D01*
X194561866Y-108155134D01*
X194625337Y-108207223D01*
X194523614Y-108261595D01*
X194389038Y-108372038D01*
X194278595Y-108506614D01*
X194196528Y-108660150D01*
X194145992Y-108826746D01*
X194128928Y-109000000D01*
X194128928Y-110200000D01*
X194145992Y-110373254D01*
X194196528Y-110539850D01*
X194278595Y-110693386D01*
X194389038Y-110827962D01*
X194523614Y-110938405D01*
X194677150Y-111020472D01*
X194843746Y-111071008D01*
X195017000Y-111088072D01*
X196467000Y-111088072D01*
X196640254Y-111071008D01*
X196806850Y-111020472D01*
X196960386Y-110938405D01*
X197094962Y-110827962D01*
X197205405Y-110693386D01*
X197287472Y-110539850D01*
X197338008Y-110373254D01*
X197355072Y-110200000D01*
X197355072Y-109000000D01*
X197338008Y-108826746D01*
X197287472Y-108660150D01*
X197205405Y-108506614D01*
X197094962Y-108372038D01*
X196960386Y-108261595D01*
X196858663Y-108207223D01*
X196922134Y-108155134D01*
X197107706Y-107929014D01*
X197245599Y-107671034D01*
X197330513Y-107391111D01*
X197359185Y-107100000D01*
X197330513Y-106808889D01*
X197245599Y-106528966D01*
X197107706Y-106270986D01*
X196922134Y-106044866D01*
X196696014Y-105859294D01*
X196678626Y-105850000D01*
X196696014Y-105840706D01*
X196922134Y-105655134D01*
X197107706Y-105429014D01*
X197245599Y-105171034D01*
X197330513Y-104891111D01*
X197359185Y-104600000D01*
X197330513Y-104308889D01*
X197245599Y-104028966D01*
X197107706Y-103770986D01*
X196922134Y-103544866D01*
X196696014Y-103359294D01*
X196438034Y-103221401D01*
X196158111Y-103136487D01*
X195939950Y-103115000D01*
X195544050Y-103115000D01*
X195325889Y-103136487D01*
X195045966Y-103221401D01*
X194787986Y-103359294D01*
X194561866Y-103544866D01*
X194376294Y-103770986D01*
X194238401Y-104028966D01*
X194153487Y-104308889D01*
X194124815Y-104600000D01*
X165260000Y-104600000D01*
X165260000Y-102587323D01*
X165263676Y-102550000D01*
X165262560Y-102538665D01*
X166265000Y-102538665D01*
X166265000Y-102821335D01*
X166320147Y-103098574D01*
X166428320Y-103359727D01*
X166585363Y-103594759D01*
X166785241Y-103794637D01*
X167020273Y-103951680D01*
X167281426Y-104059853D01*
X167558665Y-104115000D01*
X167841335Y-104115000D01*
X168118574Y-104059853D01*
X168379727Y-103951680D01*
X168614759Y-103794637D01*
X168736694Y-103672702D01*
X169386903Y-103672702D01*
X169458486Y-103916671D01*
X169713996Y-104037571D01*
X169988184Y-104106300D01*
X170270512Y-104120217D01*
X170550130Y-104078787D01*
X170816292Y-103983603D01*
X170941514Y-103916671D01*
X171013097Y-103672702D01*
X170200000Y-102859605D01*
X169386903Y-103672702D01*
X168736694Y-103672702D01*
X168814637Y-103594759D01*
X168948692Y-103394131D01*
X168963329Y-103421514D01*
X169207298Y-103493097D01*
X170020395Y-102680000D01*
X170379605Y-102680000D01*
X171192702Y-103493097D01*
X171436671Y-103421514D01*
X171557571Y-103166004D01*
X171626300Y-102891816D01*
X171640217Y-102609488D01*
X171598787Y-102329870D01*
X171503603Y-102063708D01*
X171436671Y-101938486D01*
X171192702Y-101866903D01*
X170379605Y-102680000D01*
X170020395Y-102680000D01*
X169207298Y-101866903D01*
X168963329Y-101938486D01*
X168949676Y-101967341D01*
X168814637Y-101765241D01*
X168736694Y-101687298D01*
X169386903Y-101687298D01*
X170200000Y-102500395D01*
X171013097Y-101687298D01*
X170941514Y-101443329D01*
X170686004Y-101322429D01*
X170411816Y-101253700D01*
X170129488Y-101239783D01*
X169849870Y-101281213D01*
X169583708Y-101376397D01*
X169458486Y-101443329D01*
X169386903Y-101687298D01*
X168736694Y-101687298D01*
X168614759Y-101565363D01*
X168379727Y-101408320D01*
X168118574Y-101300147D01*
X167841335Y-101245000D01*
X167558665Y-101245000D01*
X167281426Y-101300147D01*
X167020273Y-101408320D01*
X166785241Y-101565363D01*
X166585363Y-101765241D01*
X166428320Y-102000273D01*
X166320147Y-102261426D01*
X166265000Y-102538665D01*
X165262560Y-102538665D01*
X165260000Y-102512677D01*
X165260000Y-102512667D01*
X165249003Y-102401014D01*
X165205546Y-102257753D01*
X165174676Y-102200000D01*
X165134974Y-102125723D01*
X165063799Y-102038997D01*
X165040001Y-102009999D01*
X165011004Y-101986202D01*
X159841209Y-96816408D01*
X159942205Y-96665256D01*
X160020226Y-96476898D01*
X160060000Y-96276939D01*
X160060000Y-96073061D01*
X160020226Y-95873102D01*
X159942205Y-95684744D01*
X159828937Y-95515226D01*
X159684774Y-95371063D01*
X159515256Y-95257795D01*
X159326898Y-95179774D01*
X159227427Y-95159988D01*
X159195226Y-94998102D01*
X159117205Y-94809744D01*
X159003937Y-94640226D01*
X158859774Y-94496063D01*
X158690256Y-94382795D01*
X158501898Y-94304774D01*
X158301939Y-94265000D01*
X158098061Y-94265000D01*
X157898102Y-94304774D01*
X157709744Y-94382795D01*
X157540226Y-94496063D01*
X157396063Y-94640226D01*
X157282795Y-94809744D01*
X157204774Y-94998102D01*
X157165000Y-95198061D01*
X157165000Y-95255895D01*
X157159999Y-95259999D01*
X157122620Y-95305546D01*
X157065026Y-95375724D01*
X157025324Y-95450001D01*
X156994454Y-95507754D01*
X156950997Y-95651015D01*
X156940000Y-95762668D01*
X156940000Y-95762678D01*
X156936324Y-95800000D01*
X156940000Y-95837322D01*
X156940000Y-96065199D01*
X155863804Y-94989003D01*
X155840001Y-94959999D01*
X155724276Y-94865026D01*
X155592247Y-94794454D01*
X155448986Y-94750997D01*
X155337333Y-94740000D01*
X155337322Y-94740000D01*
X155300000Y-94736324D01*
X155262678Y-94740000D01*
X154103711Y-94740000D01*
X154059774Y-94696063D01*
X153890256Y-94582795D01*
X153820783Y-94554018D01*
X154214802Y-94160000D01*
X179585199Y-94160000D01*
X180736201Y-95311003D01*
X180759999Y-95340001D01*
X180788997Y-95363799D01*
X180875723Y-95434974D01*
X180965189Y-95482795D01*
X181007753Y-95505546D01*
X181151014Y-95549003D01*
X181262667Y-95560000D01*
X181262677Y-95560000D01*
X181300000Y-95563676D01*
X181337322Y-95560000D01*
X182496289Y-95560000D01*
X182540226Y-95603937D01*
X182709744Y-95717205D01*
X182898102Y-95795226D01*
X183098061Y-95835000D01*
X183301939Y-95835000D01*
X183501898Y-95795226D01*
X183690256Y-95717205D01*
X183859774Y-95603937D01*
X184003937Y-95459774D01*
X184117205Y-95290256D01*
X184195226Y-95101898D01*
X184235000Y-94901939D01*
X184235000Y-94698061D01*
X184195226Y-94498102D01*
X184117205Y-94309744D01*
X184003937Y-94140226D01*
X183859774Y-93996063D01*
X183690256Y-93882795D01*
X183501898Y-93804774D01*
X183301939Y-93765000D01*
X183098061Y-93765000D01*
X182898102Y-93804774D01*
X182709744Y-93882795D01*
X182540226Y-93996063D01*
X182496289Y-94040000D01*
X181614802Y-94040000D01*
X180834801Y-93260000D01*
X182496289Y-93260000D01*
X182540226Y-93303937D01*
X182709744Y-93417205D01*
X182898102Y-93495226D01*
X183098061Y-93535000D01*
X183301939Y-93535000D01*
X183501898Y-93495226D01*
X183690256Y-93417205D01*
X183859774Y-93303937D01*
X184003937Y-93159774D01*
X184117205Y-92990256D01*
X184195226Y-92801898D01*
X184235000Y-92601939D01*
X184235000Y-92398061D01*
X184195226Y-92198102D01*
X184117205Y-92009744D01*
X184003937Y-91840226D01*
X183859774Y-91696063D01*
X183690256Y-91582795D01*
X183501898Y-91504774D01*
X183301939Y-91465000D01*
X183098061Y-91465000D01*
X182898102Y-91504774D01*
X182709744Y-91582795D01*
X182540226Y-91696063D01*
X182496289Y-91740000D01*
X153537322Y-91740000D01*
X153499999Y-91736324D01*
X153462676Y-91740000D01*
X153462667Y-91740000D01*
X153351014Y-91750997D01*
X153207753Y-91794454D01*
X153075724Y-91865026D01*
X153075722Y-91865027D01*
X153075723Y-91865027D01*
X152988996Y-91936201D01*
X152988992Y-91936205D01*
X152959999Y-91959999D01*
X152936205Y-91988992D01*
X151639916Y-93285282D01*
X151567205Y-93109744D01*
X151453937Y-92940226D01*
X151309774Y-92796063D01*
X151140256Y-92682795D01*
X150951898Y-92604774D01*
X150751939Y-92565000D01*
X150689802Y-92565000D01*
X147121278Y-88996477D01*
X147259774Y-88903937D01*
X147303711Y-88860000D01*
X147462678Y-88860000D01*
X147500000Y-88863676D01*
X147537322Y-88860000D01*
X147537333Y-88860000D01*
X147648986Y-88849003D01*
X147792247Y-88805546D01*
X147924276Y-88734974D01*
X148040001Y-88640001D01*
X148063803Y-88610998D01*
X148611002Y-88063800D01*
X148640001Y-88040001D01*
X148713031Y-87951014D01*
X148734974Y-87924277D01*
X148805546Y-87792247D01*
X148832334Y-87703937D01*
X148849003Y-87648986D01*
X148860000Y-87537333D01*
X148860000Y-87537324D01*
X148863676Y-87500001D01*
X148860000Y-87462678D01*
X148860000Y-84714801D01*
X149314802Y-84260000D01*
X152396289Y-84260000D01*
X152440226Y-84303937D01*
X152609744Y-84417205D01*
X152798102Y-84495226D01*
X152998061Y-84535000D01*
X153201939Y-84535000D01*
X153401898Y-84495226D01*
X153590256Y-84417205D01*
X153759774Y-84303937D01*
X153903937Y-84159774D01*
X153971495Y-84058665D01*
X159865000Y-84058665D01*
X159865000Y-84341335D01*
X159920147Y-84618574D01*
X160028320Y-84879727D01*
X160185363Y-85114759D01*
X160385241Y-85314637D01*
X160620273Y-85471680D01*
X160881426Y-85579853D01*
X161158665Y-85635000D01*
X161441335Y-85635000D01*
X161718574Y-85579853D01*
X161979727Y-85471680D01*
X162214759Y-85314637D01*
X162414637Y-85114759D01*
X162529329Y-84943109D01*
X167798519Y-84943109D01*
X167919186Y-85173000D01*
X169113000Y-85173000D01*
X169113000Y-83979845D01*
X168883110Y-83858524D01*
X168735901Y-83903175D01*
X168473080Y-84028359D01*
X168239731Y-84202412D01*
X168044822Y-84418645D01*
X167895843Y-84668748D01*
X167798519Y-84943109D01*
X162529329Y-84943109D01*
X162571680Y-84879727D01*
X162679853Y-84618574D01*
X162735000Y-84341335D01*
X162735000Y-84058665D01*
X162687925Y-83822008D01*
X162717638Y-83831021D01*
X162940767Y-83709126D01*
X162940767Y-82738841D01*
X163053626Y-82625982D01*
X162986877Y-82559233D01*
X163194767Y-82559233D01*
X163194767Y-83709126D01*
X163417896Y-83831021D01*
X163684058Y-83735837D01*
X163926537Y-83590556D01*
X164136014Y-83400761D01*
X164304438Y-83173746D01*
X164425338Y-82918235D01*
X164466555Y-82782362D01*
X164344660Y-82559233D01*
X163194767Y-82559233D01*
X162986877Y-82559233D01*
X162874018Y-82446374D01*
X162761159Y-82559233D01*
X161790874Y-82559233D01*
X161668979Y-82782362D01*
X161679728Y-82812420D01*
X161441335Y-82765000D01*
X161158665Y-82765000D01*
X160881426Y-82820147D01*
X160620273Y-82928320D01*
X160385241Y-83085363D01*
X160185363Y-83285241D01*
X160028320Y-83520273D01*
X159920147Y-83781426D01*
X159865000Y-84058665D01*
X153971495Y-84058665D01*
X154017205Y-83990256D01*
X154095226Y-83801898D01*
X154135000Y-83601939D01*
X154135000Y-83398061D01*
X154095226Y-83198102D01*
X154017205Y-83009744D01*
X153977285Y-82950000D01*
X154017205Y-82890256D01*
X154095226Y-82701898D01*
X154135000Y-82501939D01*
X154135000Y-82298061D01*
X154095226Y-82098102D01*
X154088600Y-82082104D01*
X161668979Y-82082104D01*
X161790874Y-82305233D01*
X162940767Y-82305233D01*
X162940767Y-81155340D01*
X163194767Y-81155340D01*
X163194767Y-82305233D01*
X164344660Y-82305233D01*
X164466555Y-82082104D01*
X164371371Y-81815942D01*
X164226090Y-81573463D01*
X164036295Y-81363986D01*
X163809280Y-81195562D01*
X163553769Y-81074662D01*
X163417896Y-81033445D01*
X163194767Y-81155340D01*
X162940767Y-81155340D01*
X162717638Y-81033445D01*
X162451476Y-81128629D01*
X162208997Y-81273910D01*
X161999520Y-81463705D01*
X161831096Y-81690720D01*
X161710196Y-81946231D01*
X161668979Y-82082104D01*
X154088600Y-82082104D01*
X154017205Y-81909744D01*
X153903937Y-81740226D01*
X153759774Y-81596063D01*
X153590256Y-81482795D01*
X153401898Y-81404774D01*
X153201939Y-81365000D01*
X152998061Y-81365000D01*
X152798102Y-81404774D01*
X152609744Y-81482795D01*
X152440226Y-81596063D01*
X152396289Y-81640000D01*
X148462325Y-81640000D01*
X148425000Y-81636324D01*
X148387675Y-81640000D01*
X148387667Y-81640000D01*
X148276014Y-81650997D01*
X148132753Y-81694454D01*
X148000724Y-81765026D01*
X147884999Y-81859999D01*
X147861201Y-81888997D01*
X146088998Y-83661201D01*
X146060000Y-83684999D01*
X146036202Y-83713997D01*
X146036201Y-83713998D01*
X145965026Y-83800724D01*
X145894454Y-83932754D01*
X145865454Y-84028359D01*
X145852724Y-84070326D01*
X145850998Y-84076015D01*
X145836324Y-84225000D01*
X145840001Y-84262332D01*
X145840000Y-86196289D01*
X145796063Y-86240226D01*
X145682795Y-86409744D01*
X145604774Y-86598102D01*
X145565000Y-86798061D01*
X145565000Y-87001939D01*
X145604774Y-87201898D01*
X145682795Y-87390256D01*
X145756123Y-87500000D01*
X145682795Y-87609744D01*
X145604774Y-87798102D01*
X145565000Y-87998061D01*
X145565000Y-88090198D01*
X144263804Y-86789003D01*
X144240001Y-86759999D01*
X144124276Y-86665026D01*
X143992247Y-86594454D01*
X143848986Y-86550997D01*
X143737333Y-86540000D01*
X143737322Y-86540000D01*
X143700000Y-86536324D01*
X143662678Y-86540000D01*
X142737323Y-86540000D01*
X142700000Y-86536324D01*
X142662677Y-86540000D01*
X142662667Y-86540000D01*
X142551014Y-86550997D01*
X142407753Y-86594454D01*
X142275723Y-86665026D01*
X142225542Y-86706209D01*
X142159999Y-86759999D01*
X142136201Y-86788997D01*
X141088998Y-87836201D01*
X141060000Y-87859999D01*
X141036202Y-87888997D01*
X141036201Y-87888998D01*
X140965026Y-87975724D01*
X140949086Y-88005546D01*
X140894454Y-88107753D01*
X140850997Y-88251014D01*
X140840000Y-88362667D01*
X140840000Y-88362678D01*
X140836324Y-88400000D01*
X140840000Y-88437322D01*
X140840000Y-88962678D01*
X140836324Y-89000000D01*
X140840000Y-89037322D01*
X140840000Y-89037332D01*
X140850997Y-89148985D01*
X140894454Y-89292246D01*
X140965026Y-89424276D01*
X140986867Y-89450889D01*
X141059999Y-89540001D01*
X141089002Y-89563804D01*
X141665000Y-90139802D01*
X141665000Y-90201939D01*
X141704774Y-90401898D01*
X141782795Y-90590256D01*
X141896063Y-90759774D01*
X142040226Y-90903937D01*
X142209744Y-91017205D01*
X142398102Y-91095226D01*
X142598061Y-91135000D01*
X142801939Y-91135000D01*
X143001898Y-91095226D01*
X143190256Y-91017205D01*
X143359774Y-90903937D01*
X143503937Y-90759774D01*
X143617205Y-90590256D01*
X143695226Y-90401898D01*
X143735000Y-90201939D01*
X143735000Y-89998061D01*
X143695226Y-89798102D01*
X143679444Y-89760000D01*
X144085199Y-89760000D01*
X147890197Y-93565000D01*
X147698061Y-93565000D01*
X147498102Y-93604774D01*
X147309744Y-93682795D01*
X147140226Y-93796063D01*
X146996063Y-93940226D01*
X146882795Y-94109744D01*
X146804774Y-94298102D01*
X146765000Y-94498061D01*
X146765000Y-94701939D01*
X146804774Y-94901898D01*
X146882795Y-95090256D01*
X146996063Y-95259774D01*
X147140226Y-95403937D01*
X147209164Y-95450000D01*
X147140226Y-95496063D01*
X146996063Y-95640226D01*
X146882795Y-95809744D01*
X146804774Y-95998102D01*
X146765000Y-96198061D01*
X146765000Y-96401939D01*
X146804774Y-96601898D01*
X146882795Y-96790256D01*
X146996063Y-96959774D01*
X147140226Y-97103937D01*
X147309744Y-97217205D01*
X147498102Y-97295226D01*
X147522103Y-97300000D01*
X147498102Y-97304774D01*
X147309744Y-97382795D01*
X147140226Y-97496063D01*
X147096289Y-97540000D01*
X146787322Y-97540000D01*
X146749999Y-97536324D01*
X146712676Y-97540000D01*
X146712667Y-97540000D01*
X146601014Y-97550997D01*
X146485616Y-97586002D01*
X146457753Y-97594454D01*
X146325723Y-97665026D01*
X146283146Y-97699969D01*
X146209999Y-97759999D01*
X146186196Y-97789003D01*
X145789003Y-98186196D01*
X145759999Y-98209999D01*
X145714303Y-98265680D01*
X145665026Y-98325724D01*
X145610491Y-98427752D01*
X145594454Y-98457754D01*
X145550997Y-98601015D01*
X145540000Y-98712668D01*
X145540000Y-98712678D01*
X145536324Y-98750000D01*
X145540000Y-98787323D01*
X145540001Y-99762658D01*
X145540000Y-99762667D01*
X145540000Y-99912332D01*
X145540001Y-99912342D01*
X145540000Y-105562677D01*
X145536324Y-105600000D01*
X145540000Y-105637322D01*
X145540000Y-105637332D01*
X145550997Y-105748985D01*
X145594454Y-105892246D01*
X145665026Y-106024276D01*
X145697227Y-106063513D01*
X145759999Y-106140001D01*
X145789003Y-106163804D01*
X146465198Y-106840000D01*
X142614802Y-106840000D01*
X129635000Y-93860199D01*
X129635000Y-91367801D01*
X131068318Y-89934483D01*
X131078614Y-89942933D01*
X131232150Y-90025000D01*
X131398746Y-90075536D01*
X131572000Y-90092600D01*
X131745254Y-90075536D01*
X131911850Y-90025000D01*
X132065386Y-89942933D01*
X132199962Y-89832490D01*
X133048490Y-88983962D01*
X133158933Y-88849386D01*
X133241000Y-88695850D01*
X133291536Y-88529254D01*
X133308600Y-88356000D01*
X133291536Y-88182746D01*
X133249736Y-88044949D01*
X133514311Y-88044949D01*
X133734459Y-88001158D01*
X140144303Y-94411003D01*
X140168101Y-94440001D01*
X140283826Y-94534974D01*
X140415855Y-94605546D01*
X140559116Y-94649003D01*
X140670769Y-94660000D01*
X140670777Y-94660000D01*
X140708102Y-94663676D01*
X140745427Y-94660000D01*
X142062678Y-94660000D01*
X142100000Y-94663676D01*
X142137322Y-94660000D01*
X142137333Y-94660000D01*
X142248986Y-94649003D01*
X142392247Y-94605546D01*
X142524276Y-94534974D01*
X142640001Y-94440001D01*
X142663804Y-94410997D01*
X144289802Y-92785000D01*
X144351939Y-92785000D01*
X144551898Y-92745226D01*
X144740256Y-92667205D01*
X144909774Y-92553937D01*
X145053937Y-92409774D01*
X145167205Y-92240256D01*
X145245226Y-92051898D01*
X145285000Y-91851939D01*
X145285000Y-91648061D01*
X145245226Y-91448102D01*
X145167205Y-91259744D01*
X145053937Y-91090226D01*
X144909774Y-90946063D01*
X144740256Y-90832795D01*
X144551898Y-90754774D01*
X144351939Y-90715000D01*
X144148061Y-90715000D01*
X143948102Y-90754774D01*
X143759744Y-90832795D01*
X143590226Y-90946063D01*
X143446063Y-91090226D01*
X143332795Y-91259744D01*
X143254774Y-91448102D01*
X143215000Y-91648061D01*
X143215000Y-91710198D01*
X141785199Y-93140000D01*
X141022904Y-93140000D01*
X134809260Y-86926357D01*
X134853051Y-86706209D01*
X134853051Y-86413689D01*
X134812374Y-86209196D01*
X135037102Y-86091271D01*
X135037102Y-85070506D01*
X135149961Y-84957647D01*
X135083212Y-84890898D01*
X135291102Y-84890898D01*
X135291102Y-86091271D01*
X135522121Y-86212497D01*
X135797849Y-86114817D01*
X136049223Y-85965222D01*
X136266582Y-85769460D01*
X136441574Y-85535055D01*
X136567473Y-85271015D01*
X136612701Y-85121917D01*
X136491475Y-84890898D01*
X135291102Y-84890898D01*
X135083212Y-84890898D01*
X134970353Y-84778039D01*
X134857494Y-84890898D01*
X133836729Y-84890898D01*
X133718804Y-85115626D01*
X133514311Y-85074949D01*
X133221791Y-85074949D01*
X133016082Y-85115867D01*
X133057000Y-84910158D01*
X133057000Y-84617638D01*
X133016323Y-84413144D01*
X133241051Y-84295219D01*
X133241051Y-83274454D01*
X133353910Y-83161595D01*
X133382192Y-83161595D01*
X133495051Y-83274454D01*
X133495051Y-84295219D01*
X133719139Y-84412808D01*
X133836729Y-84636898D01*
X134857494Y-84636898D01*
X134970353Y-84749757D01*
X135149961Y-84570149D01*
X135037102Y-84457290D01*
X135037102Y-83436525D01*
X134813014Y-83318936D01*
X134695424Y-83094846D01*
X133674659Y-83094846D01*
X133561800Y-82981987D01*
X133382192Y-83161595D01*
X133353910Y-83161595D01*
X133174302Y-82981987D01*
X133061443Y-83094846D01*
X132040678Y-83094846D01*
X131922753Y-83319574D01*
X131718260Y-83278898D01*
X131425740Y-83278898D01*
X131138842Y-83335966D01*
X130868589Y-83447908D01*
X130625368Y-83610423D01*
X130418525Y-83817266D01*
X130256010Y-84060487D01*
X130144068Y-84330740D01*
X130087000Y-84617638D01*
X130087000Y-84910158D01*
X130127918Y-85115867D01*
X129922209Y-85074949D01*
X129629689Y-85074949D01*
X129342791Y-85132017D01*
X129072538Y-85243959D01*
X128829317Y-85406474D01*
X128622474Y-85613317D01*
X128459959Y-85856538D01*
X128348017Y-86126791D01*
X128290949Y-86413689D01*
X128290949Y-86706209D01*
X128348017Y-86993107D01*
X128459959Y-87263360D01*
X128622474Y-87506581D01*
X128829317Y-87713424D01*
X129072538Y-87875939D01*
X129342791Y-87987881D01*
X129629689Y-88044949D01*
X129894264Y-88044949D01*
X129852464Y-88182746D01*
X129835400Y-88356000D01*
X129852464Y-88529254D01*
X129903000Y-88695850D01*
X129985067Y-88849386D01*
X129993517Y-88859682D01*
X128363998Y-90489201D01*
X128335000Y-90512999D01*
X128311202Y-90541997D01*
X128311201Y-90541998D01*
X128240026Y-90628724D01*
X128169454Y-90760754D01*
X128142685Y-90849002D01*
X128125998Y-90904014D01*
X128121370Y-90950998D01*
X128111324Y-91053000D01*
X128115001Y-91090332D01*
X128115000Y-93340199D01*
X124913804Y-90139003D01*
X124913799Y-90138997D01*
X123963804Y-89189002D01*
X123940001Y-89159999D01*
X123824276Y-89065026D01*
X123692247Y-88994454D01*
X123548986Y-88950997D01*
X123437333Y-88940000D01*
X123437322Y-88940000D01*
X123400000Y-88936324D01*
X123362678Y-88940000D01*
X113388072Y-88940000D01*
X113388072Y-88850000D01*
X113375812Y-88725518D01*
X113339502Y-88605820D01*
X113280537Y-88495506D01*
X113201185Y-88398815D01*
X113104494Y-88319463D01*
X112994180Y-88260498D01*
X112921620Y-88238487D01*
X113053475Y-88106632D01*
X113215990Y-87863411D01*
X113327932Y-87593158D01*
X113385000Y-87306260D01*
X113385000Y-87013740D01*
X113327932Y-86726842D01*
X113215990Y-86456589D01*
X113053475Y-86213368D01*
X112846632Y-86006525D01*
X112603411Y-85844010D01*
X112333158Y-85732068D01*
X112046260Y-85675000D01*
X111753740Y-85675000D01*
X111466842Y-85732068D01*
X111196589Y-85844010D01*
X110953368Y-86006525D01*
X110746525Y-86213368D01*
X110584010Y-86456589D01*
X110472068Y-86726842D01*
X110415000Y-87013740D01*
X110415000Y-87306260D01*
X110472068Y-87593158D01*
X110584010Y-87863411D01*
X110746525Y-88106632D01*
X110878380Y-88238487D01*
X110805820Y-88260498D01*
X110695506Y-88319463D01*
X110598815Y-88398815D01*
X110519463Y-88495506D01*
X110460498Y-88605820D01*
X110424188Y-88725518D01*
X110411928Y-88850000D01*
X110411928Y-90550000D01*
X110424188Y-90674482D01*
X110460498Y-90794180D01*
X110519463Y-90904494D01*
X110598815Y-91001185D01*
X110695506Y-91080537D01*
X110805820Y-91139502D01*
X110925518Y-91175812D01*
X111050000Y-91188072D01*
X112750000Y-91188072D01*
X112874482Y-91175812D01*
X112994180Y-91139502D01*
X113104494Y-91080537D01*
X113201185Y-91001185D01*
X113280537Y-90904494D01*
X113339502Y-90794180D01*
X113375812Y-90674482D01*
X113388072Y-90550000D01*
X113388072Y-90460000D01*
X123085199Y-90460000D01*
X123838997Y-91213799D01*
X123839003Y-91213804D01*
X124165199Y-91540000D01*
X108914802Y-91540000D01*
X108760000Y-91385199D01*
X108760000Y-91188072D01*
X108850000Y-91188072D01*
X108974482Y-91175812D01*
X109094180Y-91139502D01*
X109204494Y-91080537D01*
X109301185Y-91001185D01*
X109380537Y-90904494D01*
X109439502Y-90794180D01*
X109475812Y-90674482D01*
X109488072Y-90550000D01*
X109488072Y-88850000D01*
X109475812Y-88725518D01*
X109439502Y-88605820D01*
X109380537Y-88495506D01*
X109301185Y-88398815D01*
X109204494Y-88319463D01*
X109094180Y-88260498D01*
X109021620Y-88238487D01*
X109153475Y-88106632D01*
X109315990Y-87863411D01*
X109427932Y-87593158D01*
X109485000Y-87306260D01*
X109485000Y-87013740D01*
X109427932Y-86726842D01*
X109315990Y-86456589D01*
X109153475Y-86213368D01*
X108946632Y-86006525D01*
X108703411Y-85844010D01*
X108433158Y-85732068D01*
X108146260Y-85675000D01*
X107853740Y-85675000D01*
X107566842Y-85732068D01*
X107296589Y-85844010D01*
X107053368Y-86006525D01*
X106846525Y-86213368D01*
X106684010Y-86456589D01*
X106572068Y-86726842D01*
X106515000Y-87013740D01*
X106515000Y-87306260D01*
X106572068Y-87593158D01*
X106684010Y-87863411D01*
X106846525Y-88106632D01*
X106978380Y-88238487D01*
X106905820Y-88260498D01*
X106795506Y-88319463D01*
X106698815Y-88398815D01*
X106619463Y-88495506D01*
X106560498Y-88605820D01*
X106524188Y-88725518D01*
X106511928Y-88850000D01*
X105785000Y-88850000D01*
X105785000Y-82609827D01*
X131919452Y-82609827D01*
X132040678Y-82840846D01*
X133241051Y-82840846D01*
X133241051Y-82774097D01*
X133382192Y-82774097D01*
X133561800Y-82953705D01*
X133674659Y-82840846D01*
X134695424Y-82840846D01*
X134813349Y-82616118D01*
X135017842Y-82656795D01*
X135310362Y-82656795D01*
X135516073Y-82615876D01*
X135475154Y-82821586D01*
X135475154Y-83114106D01*
X135515831Y-83318600D01*
X135291102Y-83436525D01*
X135291102Y-84457290D01*
X135178243Y-84570149D01*
X135357851Y-84749757D01*
X135470710Y-84636898D01*
X136491475Y-84636898D01*
X136609400Y-84412169D01*
X136813894Y-84452846D01*
X137106414Y-84452846D01*
X137393312Y-84395778D01*
X137663565Y-84283836D01*
X137906786Y-84121321D01*
X138113629Y-83914478D01*
X138276144Y-83671257D01*
X138388086Y-83401004D01*
X138445154Y-83114106D01*
X138445154Y-82821586D01*
X138404236Y-82615877D01*
X138609945Y-82656795D01*
X138902465Y-82656795D01*
X139189363Y-82599727D01*
X139459616Y-82487785D01*
X139702837Y-82325270D01*
X139909680Y-82118427D01*
X140072195Y-81875206D01*
X140184137Y-81604953D01*
X140241205Y-81318055D01*
X140241205Y-81025535D01*
X140184137Y-80738637D01*
X140072195Y-80468384D01*
X139909680Y-80225163D01*
X139702837Y-80018320D01*
X139459616Y-79855805D01*
X139189363Y-79743863D01*
X138902465Y-79686795D01*
X138609945Y-79686795D01*
X138404236Y-79727713D01*
X138445154Y-79522004D01*
X138445154Y-79229484D01*
X138388086Y-78942586D01*
X138276144Y-78672333D01*
X138113629Y-78429112D01*
X137906786Y-78222269D01*
X137663565Y-78059754D01*
X137393312Y-77947812D01*
X137106414Y-77890744D01*
X136813894Y-77890744D01*
X136526996Y-77947812D01*
X136256743Y-78059754D01*
X136013522Y-78222269D01*
X135806679Y-78429112D01*
X135644164Y-78672333D01*
X135532222Y-78942586D01*
X135475154Y-79229484D01*
X135475154Y-79522004D01*
X135516073Y-79727714D01*
X135310362Y-79686795D01*
X135017842Y-79686795D01*
X134730944Y-79743863D01*
X134460691Y-79855805D01*
X134217470Y-80018320D01*
X134010627Y-80225163D01*
X133848112Y-80468384D01*
X133736170Y-80738637D01*
X133679102Y-81025535D01*
X133679102Y-81318055D01*
X133719779Y-81522548D01*
X133495051Y-81640473D01*
X133495051Y-82661238D01*
X133382192Y-82774097D01*
X133241051Y-82774097D01*
X133241051Y-81640473D01*
X133010032Y-81519247D01*
X132734304Y-81616927D01*
X132482930Y-81766522D01*
X132265571Y-81962284D01*
X132090579Y-82196689D01*
X131964680Y-82460729D01*
X131919452Y-82609827D01*
X105785000Y-82609827D01*
X105785000Y-75592702D01*
X184386903Y-75592702D01*
X184458486Y-75836671D01*
X184713996Y-75957571D01*
X184988184Y-76026300D01*
X185270512Y-76040217D01*
X185550130Y-75998787D01*
X185816292Y-75903603D01*
X185941514Y-75836671D01*
X186013097Y-75592702D01*
X185200000Y-74779605D01*
X184386903Y-75592702D01*
X105785000Y-75592702D01*
X105785000Y-74670512D01*
X183759783Y-74670512D01*
X183801213Y-74950130D01*
X183896397Y-75216292D01*
X183963329Y-75341514D01*
X184207298Y-75413097D01*
X185020395Y-74600000D01*
X185379605Y-74600000D01*
X186192702Y-75413097D01*
X186436671Y-75341514D01*
X186557571Y-75086004D01*
X186626300Y-74811816D01*
X186640217Y-74529488D01*
X186598787Y-74249870D01*
X186503603Y-73983708D01*
X186436671Y-73858486D01*
X186192702Y-73786903D01*
X185379605Y-74600000D01*
X185020395Y-74600000D01*
X184207298Y-73786903D01*
X183963329Y-73858486D01*
X183842429Y-74113996D01*
X183773700Y-74388184D01*
X183759783Y-74670512D01*
X105785000Y-74670512D01*
X105785000Y-73607298D01*
X184386903Y-73607298D01*
X185200000Y-74420395D01*
X186013097Y-73607298D01*
X185941514Y-73363329D01*
X185686004Y-73242429D01*
X185411816Y-73173700D01*
X185129488Y-73159783D01*
X184849870Y-73201213D01*
X184583708Y-73296397D01*
X184458486Y-73363329D01*
X184386903Y-73607298D01*
X105785000Y-73607298D01*
X105785000Y-59127000D01*
X127000000Y-59127000D01*
X127024776Y-59124560D01*
X127048601Y-59117333D01*
X127070557Y-59105597D01*
X127089803Y-59089803D01*
X127105597Y-59070557D01*
X127117333Y-59048601D01*
X127124560Y-59024776D01*
X127127000Y-59000000D01*
X127127000Y-57424967D01*
X133651000Y-57424967D01*
X133651000Y-57747033D01*
X133713832Y-58062912D01*
X133837082Y-58360463D01*
X134016013Y-58628252D01*
X134243748Y-58855987D01*
X134511537Y-59034918D01*
X134809088Y-59158168D01*
X135124967Y-59221000D01*
X135447033Y-59221000D01*
X135762912Y-59158168D01*
X136060463Y-59034918D01*
X136328252Y-58855987D01*
X136555987Y-58628252D01*
X136734918Y-58360463D01*
X136858168Y-58062912D01*
X136921000Y-57747033D01*
X136921000Y-57424967D01*
X140151000Y-57424967D01*
X140151000Y-57747033D01*
X140213832Y-58062912D01*
X140337082Y-58360463D01*
X140516013Y-58628252D01*
X140743748Y-58855987D01*
X140901001Y-58961060D01*
X140901000Y-68342531D01*
X140896719Y-68386000D01*
X140901000Y-68429469D01*
X140901000Y-68429476D01*
X140913805Y-68559489D01*
X140964411Y-68726312D01*
X141046589Y-68880058D01*
X141157183Y-69014817D01*
X141190956Y-69042534D01*
X143843470Y-71695049D01*
X143871183Y-71728817D01*
X143904951Y-71756530D01*
X143904953Y-71756532D01*
X144005941Y-71839411D01*
X144159686Y-71921589D01*
X144307328Y-71966376D01*
X144326510Y-71972195D01*
X144456523Y-71985000D01*
X144456531Y-71985000D01*
X144500000Y-71989281D01*
X144543469Y-71985000D01*
X183770299Y-71985000D01*
X183774188Y-72024482D01*
X183810498Y-72144180D01*
X183869463Y-72254494D01*
X183948815Y-72351185D01*
X184045506Y-72430537D01*
X184155820Y-72489502D01*
X184275518Y-72525812D01*
X184400000Y-72538072D01*
X186000000Y-72538072D01*
X186124482Y-72525812D01*
X186244180Y-72489502D01*
X186354494Y-72430537D01*
X186451185Y-72351185D01*
X186530537Y-72254494D01*
X186540957Y-72235000D01*
X189629869Y-72235000D01*
X190465000Y-73070132D01*
X190465001Y-80269239D01*
X190459509Y-80325000D01*
X190465000Y-80380752D01*
X190465001Y-86229867D01*
X189989869Y-86705000D01*
X180558728Y-86705000D01*
X180604494Y-86680537D01*
X180701185Y-86601185D01*
X180780537Y-86504494D01*
X180839502Y-86394180D01*
X180875812Y-86274482D01*
X180888072Y-86150000D01*
X180885000Y-85585750D01*
X180726250Y-85427000D01*
X179527000Y-85427000D01*
X179527000Y-85447000D01*
X179273000Y-85447000D01*
X179273000Y-85427000D01*
X179253000Y-85427000D01*
X179253000Y-85173000D01*
X179273000Y-85173000D01*
X179273000Y-83973750D01*
X179527000Y-83973750D01*
X179527000Y-85173000D01*
X180726250Y-85173000D01*
X180885000Y-85014250D01*
X180888072Y-84450000D01*
X180875812Y-84325518D01*
X180839502Y-84205820D01*
X180780537Y-84095506D01*
X180701185Y-83998815D01*
X180604494Y-83919463D01*
X180494180Y-83860498D01*
X180374482Y-83824188D01*
X180250000Y-83811928D01*
X179685750Y-83815000D01*
X179527000Y-83973750D01*
X179273000Y-83973750D01*
X179114250Y-83815000D01*
X178550000Y-83811928D01*
X178425518Y-83824188D01*
X178305820Y-83860498D01*
X178195506Y-83919463D01*
X178098815Y-83998815D01*
X178019463Y-84095506D01*
X177960498Y-84205820D01*
X177938487Y-84278380D01*
X177806632Y-84146525D01*
X177563411Y-83984010D01*
X177293158Y-83872068D01*
X177006260Y-83815000D01*
X176713740Y-83815000D01*
X176426842Y-83872068D01*
X176156589Y-83984010D01*
X175913368Y-84146525D01*
X175706525Y-84353368D01*
X175590000Y-84527760D01*
X175473475Y-84353368D01*
X175266632Y-84146525D01*
X175023411Y-83984010D01*
X174753158Y-83872068D01*
X174466260Y-83815000D01*
X174173740Y-83815000D01*
X173886842Y-83872068D01*
X173616589Y-83984010D01*
X173373368Y-84146525D01*
X173166525Y-84353368D01*
X173050000Y-84527760D01*
X172933475Y-84353368D01*
X172726632Y-84146525D01*
X172483411Y-83984010D01*
X172213158Y-83872068D01*
X171926260Y-83815000D01*
X171633740Y-83815000D01*
X171346842Y-83872068D01*
X171076589Y-83984010D01*
X170833368Y-84146525D01*
X170626525Y-84353368D01*
X170504805Y-84535534D01*
X170435178Y-84418645D01*
X170240269Y-84202412D01*
X170006920Y-84028359D01*
X169744099Y-83903175D01*
X169596890Y-83858524D01*
X169367000Y-83979845D01*
X169367000Y-85173000D01*
X169387000Y-85173000D01*
X169387000Y-85427000D01*
X169367000Y-85427000D01*
X169367000Y-85447000D01*
X169113000Y-85447000D01*
X169113000Y-85427000D01*
X167919186Y-85427000D01*
X167798519Y-85656891D01*
X167895843Y-85931252D01*
X168044822Y-86181355D01*
X168239731Y-86397588D01*
X168469406Y-86568900D01*
X168293368Y-86686525D01*
X168086525Y-86893368D01*
X167924010Y-87136589D01*
X167812068Y-87406842D01*
X167755000Y-87693740D01*
X167755000Y-87986260D01*
X167812068Y-88273158D01*
X167924010Y-88543411D01*
X168086525Y-88786632D01*
X168293368Y-88993475D01*
X168536589Y-89155990D01*
X168806842Y-89267932D01*
X169093740Y-89325000D01*
X169386260Y-89325000D01*
X169673158Y-89267932D01*
X169943411Y-89155990D01*
X170186632Y-88993475D01*
X170393475Y-88786632D01*
X170510000Y-88612240D01*
X170626525Y-88786632D01*
X170833368Y-88993475D01*
X171076589Y-89155990D01*
X171346842Y-89267932D01*
X171633740Y-89325000D01*
X171926260Y-89325000D01*
X172213158Y-89267932D01*
X172483411Y-89155990D01*
X172726632Y-88993475D01*
X172933475Y-88786632D01*
X173050000Y-88612240D01*
X173166525Y-88786632D01*
X173373368Y-88993475D01*
X173616589Y-89155990D01*
X173886842Y-89267932D01*
X174173740Y-89325000D01*
X174466260Y-89325000D01*
X174753158Y-89267932D01*
X175023411Y-89155990D01*
X175266632Y-88993475D01*
X175473475Y-88786632D01*
X175590000Y-88612240D01*
X175706525Y-88786632D01*
X175913368Y-88993475D01*
X176156589Y-89155990D01*
X176426842Y-89267932D01*
X176713740Y-89325000D01*
X177006260Y-89325000D01*
X177293158Y-89267932D01*
X177563411Y-89155990D01*
X177806632Y-88993475D01*
X178013475Y-88786632D01*
X178130000Y-88612240D01*
X178246525Y-88786632D01*
X178453368Y-88993475D01*
X178696589Y-89155990D01*
X178966842Y-89267932D01*
X179253740Y-89325000D01*
X179546260Y-89325000D01*
X179833158Y-89267932D01*
X180103411Y-89155990D01*
X180346632Y-88993475D01*
X180365107Y-88975000D01*
X190404249Y-88975000D01*
X190460000Y-88980491D01*
X190465000Y-88979999D01*
X190465001Y-93344239D01*
X190459509Y-93400000D01*
X190481423Y-93622498D01*
X190546324Y-93836446D01*
X190581309Y-93901898D01*
X190651717Y-94033623D01*
X190793552Y-94206449D01*
X190836860Y-94241991D01*
X192100013Y-95505146D01*
X192135551Y-95548449D01*
X192178854Y-95583987D01*
X192178856Y-95583989D01*
X192308377Y-95690284D01*
X192505553Y-95795676D01*
X192719501Y-95860577D01*
X192873293Y-95875724D01*
X192942000Y-95882491D01*
X192997752Y-95877000D01*
X194298747Y-95877000D01*
X194375038Y-95969962D01*
X194509614Y-96080405D01*
X194593000Y-96124976D01*
X194593001Y-97901867D01*
X194029869Y-98465000D01*
X166044248Y-98465000D01*
X165877501Y-98481423D01*
X165663553Y-98546324D01*
X165466377Y-98651716D01*
X165293551Y-98793551D01*
X165151716Y-98966377D01*
X165046324Y-99163553D01*
X164981423Y-99377501D01*
X164959509Y-99600000D01*
X164981423Y-99822499D01*
X165046324Y-100036447D01*
X165151716Y-100233623D01*
X165293551Y-100406449D01*
X165466377Y-100548284D01*
X165663553Y-100653676D01*
X165877501Y-100718577D01*
X166044248Y-100735000D01*
X194444249Y-100735000D01*
X194500000Y-100740491D01*
X194555751Y-100735000D01*
X194555752Y-100735000D01*
X194722499Y-100718577D01*
X194936447Y-100653676D01*
X195133623Y-100548284D01*
X195306449Y-100406449D01*
X195341996Y-100363135D01*
X196491140Y-99213992D01*
X196534449Y-99178449D01*
X196676284Y-99005623D01*
X196781676Y-98808447D01*
X196846577Y-98594499D01*
X196863000Y-98427752D01*
X196863000Y-98427743D01*
X196868490Y-98372001D01*
X196863000Y-98316259D01*
X196863000Y-96124976D01*
X196946386Y-96080405D01*
X197080962Y-95969962D01*
X197191405Y-95835386D01*
X197273472Y-95681850D01*
X197324008Y-95515254D01*
X197341072Y-95342000D01*
X197341072Y-94142000D01*
X197324008Y-93968746D01*
X197273472Y-93802150D01*
X197191405Y-93648614D01*
X197080962Y-93514038D01*
X196946386Y-93403595D01*
X196844663Y-93349223D01*
X196908134Y-93297134D01*
X197093706Y-93071014D01*
X197231599Y-92813034D01*
X197316513Y-92533111D01*
X197345185Y-92242000D01*
X197316513Y-91950889D01*
X197231599Y-91670966D01*
X197093706Y-91412986D01*
X196908134Y-91186866D01*
X196682014Y-91001294D01*
X196664626Y-90992000D01*
X196682014Y-90982706D01*
X196908134Y-90797134D01*
X197093706Y-90571014D01*
X197231599Y-90313034D01*
X197316513Y-90033111D01*
X197345185Y-89742000D01*
X197316513Y-89450889D01*
X197231599Y-89170966D01*
X197093706Y-88912986D01*
X196908134Y-88686866D01*
X196682014Y-88501294D01*
X196656278Y-88487538D01*
X196862429Y-88331049D01*
X197055496Y-88113193D01*
X197202352Y-87861858D01*
X197294476Y-87598890D01*
X197173155Y-87369000D01*
X195855000Y-87369000D01*
X195855000Y-87389000D01*
X195601000Y-87389000D01*
X195601000Y-87369000D01*
X194282845Y-87369000D01*
X194161524Y-87598890D01*
X194253648Y-87861858D01*
X194400504Y-88113193D01*
X194593571Y-88331049D01*
X194799722Y-88487538D01*
X194773986Y-88501294D01*
X194547866Y-88686866D01*
X194362294Y-88912986D01*
X194224401Y-89170966D01*
X194139487Y-89450889D01*
X194110815Y-89742000D01*
X194139487Y-90033111D01*
X194224401Y-90313034D01*
X194362294Y-90571014D01*
X194547866Y-90797134D01*
X194773986Y-90982706D01*
X194791374Y-90992000D01*
X194773986Y-91001294D01*
X194547866Y-91186866D01*
X194362294Y-91412986D01*
X194224401Y-91670966D01*
X194139487Y-91950889D01*
X194110815Y-92242000D01*
X194139487Y-92533111D01*
X194224401Y-92813034D01*
X194362294Y-93071014D01*
X194547866Y-93297134D01*
X194611337Y-93349223D01*
X194509614Y-93403595D01*
X194375038Y-93514038D01*
X194298747Y-93607000D01*
X193412132Y-93607000D01*
X192735000Y-92929868D01*
X192735000Y-86885110D01*
X194161524Y-86885110D01*
X194282845Y-87115000D01*
X195601000Y-87115000D01*
X195601000Y-85915835D01*
X195855000Y-85915835D01*
X195855000Y-87115000D01*
X197173155Y-87115000D01*
X197294476Y-86885110D01*
X197202352Y-86622142D01*
X197055496Y-86370807D01*
X196862429Y-86152951D01*
X196630570Y-85976947D01*
X196368830Y-85849558D01*
X196087267Y-85775680D01*
X195855000Y-85915835D01*
X195601000Y-85915835D01*
X195368733Y-85775680D01*
X195087170Y-85849558D01*
X194825430Y-85976947D01*
X194593571Y-86152951D01*
X194400504Y-86370807D01*
X194253648Y-86622142D01*
X194161524Y-86885110D01*
X192735000Y-86885110D01*
X192735000Y-86755743D01*
X192740490Y-86700001D01*
X192735000Y-86644259D01*
X192735000Y-80795131D01*
X193401132Y-80129000D01*
X194312747Y-80129000D01*
X194389038Y-80221962D01*
X194523614Y-80332405D01*
X194677150Y-80414472D01*
X194843746Y-80465008D01*
X195017000Y-80482072D01*
X196467000Y-80482072D01*
X196640254Y-80465008D01*
X196806850Y-80414472D01*
X196960386Y-80332405D01*
X197094962Y-80221962D01*
X197205405Y-80087386D01*
X197287472Y-79933850D01*
X197338008Y-79767254D01*
X197355072Y-79594000D01*
X197355072Y-78394000D01*
X197338008Y-78220746D01*
X197287472Y-78054150D01*
X197205405Y-77900614D01*
X197094962Y-77766038D01*
X196960386Y-77655595D01*
X196858663Y-77601223D01*
X196922134Y-77549134D01*
X197107706Y-77323014D01*
X197245599Y-77065034D01*
X197330513Y-76785111D01*
X197359185Y-76494000D01*
X197330513Y-76202889D01*
X197245599Y-75922966D01*
X197107706Y-75664986D01*
X196922134Y-75438866D01*
X196696014Y-75253294D01*
X196678626Y-75244000D01*
X196696014Y-75234706D01*
X196922134Y-75049134D01*
X197107706Y-74823014D01*
X197245599Y-74565034D01*
X197330513Y-74285111D01*
X197359185Y-73994000D01*
X197330513Y-73702889D01*
X197245599Y-73422966D01*
X197107706Y-73164986D01*
X196922134Y-72938866D01*
X196696014Y-72753294D01*
X196670278Y-72739538D01*
X196876429Y-72583049D01*
X197069496Y-72365193D01*
X197216352Y-72113858D01*
X197308476Y-71850890D01*
X197187155Y-71621000D01*
X195869000Y-71621000D01*
X195869000Y-71641000D01*
X195615000Y-71641000D01*
X195615000Y-71621000D01*
X194296845Y-71621000D01*
X194175524Y-71850890D01*
X194267648Y-72113858D01*
X194414504Y-72365193D01*
X194607571Y-72583049D01*
X194813722Y-72739538D01*
X194787986Y-72753294D01*
X194561866Y-72938866D01*
X194376294Y-73164986D01*
X194238401Y-73422966D01*
X194153487Y-73702889D01*
X194124815Y-73994000D01*
X194153487Y-74285111D01*
X194238401Y-74565034D01*
X194376294Y-74823014D01*
X194561866Y-75049134D01*
X194787986Y-75234706D01*
X194805374Y-75244000D01*
X194787986Y-75253294D01*
X194561866Y-75438866D01*
X194376294Y-75664986D01*
X194238401Y-75922966D01*
X194153487Y-76202889D01*
X194124815Y-76494000D01*
X194153487Y-76785111D01*
X194238401Y-77065034D01*
X194376294Y-77323014D01*
X194561866Y-77549134D01*
X194625337Y-77601223D01*
X194523614Y-77655595D01*
X194389038Y-77766038D01*
X194312747Y-77859000D01*
X192986741Y-77859000D01*
X192930999Y-77853510D01*
X192875257Y-77859000D01*
X192875248Y-77859000D01*
X192735000Y-77872813D01*
X192735000Y-72655741D01*
X192740490Y-72599999D01*
X192735000Y-72544257D01*
X192735000Y-72544248D01*
X192718577Y-72377501D01*
X192653676Y-72163553D01*
X192548284Y-71966377D01*
X192406449Y-71793551D01*
X192363140Y-71758008D01*
X191742242Y-71137110D01*
X194175524Y-71137110D01*
X194296845Y-71367000D01*
X195615000Y-71367000D01*
X195615000Y-70167835D01*
X195869000Y-70167835D01*
X195869000Y-71367000D01*
X197187155Y-71367000D01*
X197308476Y-71137110D01*
X197216352Y-70874142D01*
X197069496Y-70622807D01*
X196876429Y-70404951D01*
X196644570Y-70228947D01*
X196382830Y-70101558D01*
X196101267Y-70027680D01*
X195869000Y-70167835D01*
X195615000Y-70167835D01*
X195382733Y-70027680D01*
X195101170Y-70101558D01*
X194839430Y-70228947D01*
X194607571Y-70404951D01*
X194414504Y-70622807D01*
X194267648Y-70874142D01*
X194175524Y-71137110D01*
X191742242Y-71137110D01*
X190941996Y-70336865D01*
X190906449Y-70293551D01*
X190733623Y-70151716D01*
X190536447Y-70046324D01*
X190322499Y-69981423D01*
X190155752Y-69965000D01*
X190155751Y-69965000D01*
X190100000Y-69959509D01*
X190044249Y-69965000D01*
X186540957Y-69965000D01*
X186530537Y-69945506D01*
X186451185Y-69848815D01*
X186354494Y-69769463D01*
X186244180Y-69710498D01*
X186124482Y-69674188D01*
X186000000Y-69661928D01*
X184400000Y-69661928D01*
X184275518Y-69674188D01*
X184155820Y-69710498D01*
X184045506Y-69769463D01*
X183948815Y-69848815D01*
X183869463Y-69945506D01*
X183810498Y-70055820D01*
X183774188Y-70175518D01*
X183770299Y-70215000D01*
X144866579Y-70215000D01*
X142671000Y-68019422D01*
X142671000Y-67938967D01*
X179165000Y-67938967D01*
X179165000Y-68261033D01*
X179227832Y-68576912D01*
X179351082Y-68874463D01*
X179530013Y-69142252D01*
X179757748Y-69369987D01*
X180025537Y-69548918D01*
X180323088Y-69672168D01*
X180638967Y-69735000D01*
X180961033Y-69735000D01*
X181276912Y-69672168D01*
X181574463Y-69548918D01*
X181842252Y-69369987D01*
X182069987Y-69142252D01*
X182248918Y-68874463D01*
X182372168Y-68576912D01*
X182435000Y-68261033D01*
X182435000Y-67938967D01*
X182372168Y-67623088D01*
X182248918Y-67325537D01*
X182069987Y-67057748D01*
X181842252Y-66830013D01*
X181574463Y-66651082D01*
X181276912Y-66527832D01*
X180961033Y-66465000D01*
X180638967Y-66465000D01*
X180323088Y-66527832D01*
X180025537Y-66651082D01*
X179757748Y-66830013D01*
X179530013Y-67057748D01*
X179351082Y-67325537D01*
X179227832Y-67623088D01*
X179165000Y-67938967D01*
X142671000Y-67938967D01*
X142671000Y-58961059D01*
X142828252Y-58855987D01*
X143055987Y-58628252D01*
X143234918Y-58360463D01*
X143358168Y-58062912D01*
X143421000Y-57747033D01*
X143421000Y-57424967D01*
X143358168Y-57109088D01*
X143234918Y-56811537D01*
X143055987Y-56543748D01*
X142828252Y-56316013D01*
X142560463Y-56137082D01*
X142262912Y-56013832D01*
X141947033Y-55951000D01*
X141624967Y-55951000D01*
X141309088Y-56013832D01*
X141011537Y-56137082D01*
X140743748Y-56316013D01*
X140516013Y-56543748D01*
X140337082Y-56811537D01*
X140213832Y-57109088D01*
X140151000Y-57424967D01*
X136921000Y-57424967D01*
X136858168Y-57109088D01*
X136734918Y-56811537D01*
X136555987Y-56543748D01*
X136328252Y-56316013D01*
X136060463Y-56137082D01*
X135762912Y-56013832D01*
X135447033Y-55951000D01*
X135124967Y-55951000D01*
X134809088Y-56013832D01*
X134511537Y-56137082D01*
X134243748Y-56316013D01*
X134016013Y-56543748D01*
X133837082Y-56811537D01*
X133713832Y-57109088D01*
X133651000Y-57424967D01*
X127127000Y-57424967D01*
X127127000Y-54959742D01*
X150206715Y-54959742D01*
X150275904Y-55242745D01*
X150398975Y-55506812D01*
X150571198Y-55741795D01*
X150785954Y-55938664D01*
X151034991Y-56089854D01*
X151308739Y-56189554D01*
X151321110Y-56191476D01*
X151551000Y-56070155D01*
X151551000Y-54727000D01*
X150350768Y-54727000D01*
X150206715Y-54959742D01*
X127127000Y-54959742D01*
X127127000Y-52924967D01*
X133651000Y-52924967D01*
X133651000Y-53247033D01*
X133713832Y-53562912D01*
X133837082Y-53860463D01*
X134016013Y-54128252D01*
X134243748Y-54355987D01*
X134511537Y-54534918D01*
X134809088Y-54658168D01*
X135124967Y-54721000D01*
X135447033Y-54721000D01*
X135762912Y-54658168D01*
X136060463Y-54534918D01*
X136328252Y-54355987D01*
X136555987Y-54128252D01*
X136734918Y-53860463D01*
X136858168Y-53562912D01*
X136921000Y-53247033D01*
X136921000Y-52924967D01*
X140151000Y-52924967D01*
X140151000Y-53247033D01*
X140213832Y-53562912D01*
X140337082Y-53860463D01*
X140516013Y-54128252D01*
X140743748Y-54355987D01*
X141011537Y-54534918D01*
X141309088Y-54658168D01*
X141624967Y-54721000D01*
X141947033Y-54721000D01*
X142262912Y-54658168D01*
X142560463Y-54534918D01*
X142828252Y-54355987D01*
X142943981Y-54240258D01*
X150206715Y-54240258D01*
X150350768Y-54473000D01*
X151551000Y-54473000D01*
X151551000Y-53129845D01*
X151805000Y-53129845D01*
X151805000Y-54473000D01*
X151825000Y-54473000D01*
X151825000Y-54727000D01*
X151805000Y-54727000D01*
X151805000Y-56070155D01*
X152034890Y-56191476D01*
X152047261Y-56189554D01*
X152321009Y-56089854D01*
X152570046Y-55938664D01*
X152784802Y-55741795D01*
X152785086Y-55741407D01*
X152839595Y-55843386D01*
X152950038Y-55977962D01*
X153084614Y-56088405D01*
X153238150Y-56170472D01*
X153404746Y-56221008D01*
X153578000Y-56238072D01*
X154778000Y-56238072D01*
X154951254Y-56221008D01*
X155117850Y-56170472D01*
X155271386Y-56088405D01*
X155405962Y-55977962D01*
X155516405Y-55843386D01*
X155598472Y-55689850D01*
X155649008Y-55523254D01*
X155666072Y-55350000D01*
X155666072Y-53850000D01*
X155649008Y-53676746D01*
X155598472Y-53510150D01*
X155516405Y-53356614D01*
X155405962Y-53222038D01*
X155271386Y-53111595D01*
X155117850Y-53029528D01*
X154951254Y-52978992D01*
X154778000Y-52961928D01*
X153578000Y-52961928D01*
X153404746Y-52978992D01*
X153238150Y-53029528D01*
X153084614Y-53111595D01*
X152950038Y-53222038D01*
X152839595Y-53356614D01*
X152785086Y-53458593D01*
X152784802Y-53458205D01*
X152570046Y-53261336D01*
X152321009Y-53110146D01*
X152047261Y-53010446D01*
X152034890Y-53008524D01*
X151805000Y-53129845D01*
X151551000Y-53129845D01*
X151321110Y-53008524D01*
X151308739Y-53010446D01*
X151034991Y-53110146D01*
X150785954Y-53261336D01*
X150571198Y-53458205D01*
X150398975Y-53693188D01*
X150275904Y-53957255D01*
X150206715Y-54240258D01*
X142943981Y-54240258D01*
X143055987Y-54128252D01*
X143234918Y-53860463D01*
X143358168Y-53562912D01*
X143421000Y-53247033D01*
X143421000Y-52924967D01*
X143376046Y-52698967D01*
X179165000Y-52698967D01*
X179165000Y-53021033D01*
X179227832Y-53336912D01*
X179351082Y-53634463D01*
X179530013Y-53902252D01*
X179757748Y-54129987D01*
X180025537Y-54308918D01*
X180323088Y-54432168D01*
X180638967Y-54495000D01*
X180961033Y-54495000D01*
X181276912Y-54432168D01*
X181574463Y-54308918D01*
X181842252Y-54129987D01*
X182069987Y-53902252D01*
X182248918Y-53634463D01*
X182372168Y-53336912D01*
X182435000Y-53021033D01*
X182435000Y-52698967D01*
X182372168Y-52383088D01*
X182248918Y-52085537D01*
X182069987Y-51817748D01*
X181842252Y-51590013D01*
X181574463Y-51411082D01*
X181276912Y-51287832D01*
X180961033Y-51225000D01*
X180638967Y-51225000D01*
X180323088Y-51287832D01*
X180025537Y-51411082D01*
X179757748Y-51590013D01*
X179530013Y-51817748D01*
X179351082Y-52085537D01*
X179227832Y-52383088D01*
X179165000Y-52698967D01*
X143376046Y-52698967D01*
X143358168Y-52609088D01*
X143234918Y-52311537D01*
X143055987Y-52043748D01*
X142828252Y-51816013D01*
X142560463Y-51637082D01*
X142262912Y-51513832D01*
X141947033Y-51451000D01*
X141624967Y-51451000D01*
X141309088Y-51513832D01*
X141011537Y-51637082D01*
X140743748Y-51816013D01*
X140516013Y-52043748D01*
X140337082Y-52311537D01*
X140213832Y-52609088D01*
X140151000Y-52924967D01*
X136921000Y-52924967D01*
X136858168Y-52609088D01*
X136734918Y-52311537D01*
X136555987Y-52043748D01*
X136328252Y-51816013D01*
X136060463Y-51637082D01*
X135762912Y-51513832D01*
X135447033Y-51451000D01*
X135124967Y-51451000D01*
X134809088Y-51513832D01*
X134511537Y-51637082D01*
X134243748Y-51816013D01*
X134016013Y-52043748D01*
X133837082Y-52311537D01*
X133713832Y-52609088D01*
X133651000Y-52924967D01*
X127127000Y-52924967D01*
X127127000Y-50785000D01*
X199215000Y-50785000D01*
X199215001Y-144215000D01*
G37*
%TD.AperFunction*%
%TD*%
M02*
