%TF.GenerationSoftware,KiCad,Pcbnew,(5.1.10)-1*%
%TF.CreationDate,2021-10-14T00:36:54-03:00*%
%TF.ProjectId,3ARA_PCB,33415241-5f50-4434-922e-6b696361645f,rev?*%
%TF.SameCoordinates,Original*%
%TF.FileFunction,Legend,Bot*%
%TF.FilePolarity,Positive*%
%FSLAX46Y46*%
G04 Gerber Fmt 4.6, Leading zero omitted, Abs format (unit mm)*
G04 Created by KiCad (PCBNEW (5.1.10)-1) date 2021-10-14 00:36:54*
%MOMM*%
%LPD*%
G01*
G04 APERTURE LIST*
%ADD10C,0.375000*%
%ADD11C,0.010000*%
G04 APERTURE END LIST*
D10*
X190947619Y-60954761D02*
X190947619Y-58954761D01*
X189138095Y-59621428D02*
X189138095Y-61240476D01*
X189233333Y-61430952D01*
X189328571Y-61526190D01*
X189519047Y-61621428D01*
X189804761Y-61621428D01*
X189995238Y-61526190D01*
X189138095Y-60859523D02*
X189328571Y-60954761D01*
X189709523Y-60954761D01*
X189900000Y-60859523D01*
X189995238Y-60764285D01*
X190090476Y-60573809D01*
X190090476Y-60002380D01*
X189995238Y-59811904D01*
X189900000Y-59716666D01*
X189709523Y-59621428D01*
X189328571Y-59621428D01*
X189138095Y-59716666D01*
X188185714Y-59621428D02*
X188185714Y-60954761D01*
X188185714Y-59811904D02*
X188090476Y-59716666D01*
X187900000Y-59621428D01*
X187614285Y-59621428D01*
X187423809Y-59716666D01*
X187328571Y-59907142D01*
X187328571Y-60954761D01*
X185519047Y-60954761D02*
X185519047Y-59907142D01*
X185614285Y-59716666D01*
X185804761Y-59621428D01*
X186185714Y-59621428D01*
X186376190Y-59716666D01*
X185519047Y-60859523D02*
X185709523Y-60954761D01*
X186185714Y-60954761D01*
X186376190Y-60859523D01*
X186471428Y-60669047D01*
X186471428Y-60478571D01*
X186376190Y-60288095D01*
X186185714Y-60192857D01*
X185709523Y-60192857D01*
X185519047Y-60097619D01*
X183709523Y-60859523D02*
X183900000Y-60954761D01*
X184280952Y-60954761D01*
X184471428Y-60859523D01*
X184566666Y-60764285D01*
X184661904Y-60573809D01*
X184661904Y-60002380D01*
X184566666Y-59811904D01*
X184471428Y-59716666D01*
X184280952Y-59621428D01*
X183900000Y-59621428D01*
X183709523Y-59716666D01*
X182852380Y-60954761D02*
X182852380Y-59621428D01*
X182852380Y-58954761D02*
X182947619Y-59050000D01*
X182852380Y-59145238D01*
X182757142Y-59050000D01*
X182852380Y-58954761D01*
X182852380Y-59145238D01*
X181614285Y-60954761D02*
X181804761Y-60859523D01*
X181900000Y-60764285D01*
X181995238Y-60573809D01*
X181995238Y-60002380D01*
X181900000Y-59811904D01*
X181804761Y-59716666D01*
X181614285Y-59621428D01*
X181328571Y-59621428D01*
X181138095Y-59716666D01*
X181042857Y-59811904D01*
X180947619Y-60002380D01*
X180947619Y-60573809D01*
X181042857Y-60764285D01*
X181138095Y-60859523D01*
X181328571Y-60954761D01*
X181614285Y-60954761D01*
X177995238Y-58954761D02*
X177995238Y-60383333D01*
X178090476Y-60669047D01*
X178280952Y-60859523D01*
X178566666Y-60954761D01*
X178757142Y-60954761D01*
X177042857Y-60764285D02*
X176947619Y-60859523D01*
X177042857Y-60954761D01*
X177138095Y-60859523D01*
X177042857Y-60764285D01*
X177042857Y-60954761D01*
X173423809Y-60764285D02*
X173519047Y-60859523D01*
X173804761Y-60954761D01*
X173995238Y-60954761D01*
X174280952Y-60859523D01*
X174471428Y-60669047D01*
X174566666Y-60478571D01*
X174661904Y-60097619D01*
X174661904Y-59811904D01*
X174566666Y-59430952D01*
X174471428Y-59240476D01*
X174280952Y-59050000D01*
X173995238Y-58954761D01*
X173804761Y-58954761D01*
X173519047Y-59050000D01*
X173423809Y-59145238D01*
X172566666Y-60954761D02*
X172566666Y-59621428D01*
X172566666Y-58954761D02*
X172661904Y-59050000D01*
X172566666Y-59145238D01*
X172471428Y-59050000D01*
X172566666Y-58954761D01*
X172566666Y-59145238D01*
X171614285Y-59621428D02*
X171614285Y-61621428D01*
X171614285Y-59716666D02*
X171423809Y-59621428D01*
X171042857Y-59621428D01*
X170852380Y-59716666D01*
X170757142Y-59811904D01*
X170661904Y-60002380D01*
X170661904Y-60573809D01*
X170757142Y-60764285D01*
X170852380Y-60859523D01*
X171042857Y-60954761D01*
X171423809Y-60954761D01*
X171614285Y-60859523D01*
X169519047Y-60954761D02*
X169709523Y-60859523D01*
X169804761Y-60764285D01*
X169900000Y-60573809D01*
X169900000Y-60002380D01*
X169804761Y-59811904D01*
X169709523Y-59716666D01*
X169519047Y-59621428D01*
X169233333Y-59621428D01*
X169042857Y-59716666D01*
X168947619Y-59811904D01*
X168852380Y-60002380D01*
X168852380Y-60573809D01*
X168947619Y-60764285D01*
X169042857Y-60859523D01*
X169233333Y-60954761D01*
X169519047Y-60954761D01*
X167709523Y-60954761D02*
X167900000Y-60859523D01*
X167995238Y-60669047D01*
X167995238Y-58954761D01*
X166090476Y-60954761D02*
X166090476Y-59907142D01*
X166185714Y-59716666D01*
X166376190Y-59621428D01*
X166757142Y-59621428D01*
X166947619Y-59716666D01*
X166090476Y-60859523D02*
X166280952Y-60954761D01*
X166757142Y-60954761D01*
X166947619Y-60859523D01*
X167042857Y-60669047D01*
X167042857Y-60478571D01*
X166947619Y-60288095D01*
X166757142Y-60192857D01*
X166280952Y-60192857D01*
X166090476Y-60097619D01*
X165423809Y-59621428D02*
X164661904Y-59621428D01*
X165138095Y-58954761D02*
X165138095Y-60669047D01*
X165042857Y-60859523D01*
X164852380Y-60954761D01*
X164661904Y-60954761D01*
X164280952Y-59621428D02*
X163519047Y-59621428D01*
X163995238Y-58954761D02*
X163995238Y-60669047D01*
X163900000Y-60859523D01*
X163709523Y-60954761D01*
X163519047Y-60954761D01*
X162852380Y-60954761D02*
X162852380Y-59621428D01*
X162852380Y-58954761D02*
X162947619Y-59050000D01*
X162852380Y-59145238D01*
X162757142Y-59050000D01*
X162852380Y-58954761D01*
X162852380Y-59145238D01*
D11*
%TO.C,G\u002A\u002A\u002A*%
G36*
X118976833Y-79491662D02*
G01*
X120606666Y-79468667D01*
X120629541Y-77661097D01*
X120635977Y-77044567D01*
X120643424Y-76581068D01*
X120660607Y-76254474D01*
X120696251Y-76048658D01*
X120759082Y-75947494D01*
X120857824Y-75934855D01*
X121001202Y-75994614D01*
X121197942Y-76110646D01*
X121401511Y-76234276D01*
X121908175Y-76618267D01*
X122377977Y-77129692D01*
X122782497Y-77726860D01*
X123093312Y-78368082D01*
X123276922Y-78985213D01*
X123380364Y-79511000D01*
X126666165Y-79511000D01*
X126613119Y-79066500D01*
X126396146Y-77929785D01*
X126027543Y-76865298D01*
X125511647Y-75879327D01*
X124852797Y-74978160D01*
X124055330Y-74168085D01*
X123123582Y-73455391D01*
X122469333Y-73059083D01*
X122046000Y-72825401D01*
X126575666Y-72822333D01*
X126575666Y-69522746D01*
X123930947Y-69500373D01*
X121286227Y-69478000D01*
X121877780Y-69245607D01*
X122700809Y-68849167D01*
X123512201Y-68322553D01*
X124265370Y-67701279D01*
X124913733Y-67020859D01*
X125092887Y-66794544D01*
X125543834Y-66108009D01*
X125937150Y-65339711D01*
X126254382Y-64536485D01*
X126477076Y-63745168D01*
X126586780Y-63012593D01*
X126587556Y-63001000D01*
X126618000Y-62535333D01*
X125003440Y-62512392D01*
X123388881Y-62489451D01*
X123290143Y-63020392D01*
X123196010Y-63387757D01*
X123052241Y-63800654D01*
X122921747Y-64101667D01*
X122649211Y-64548989D01*
X122276679Y-65012173D01*
X121848302Y-65445460D01*
X121408231Y-65803090D01*
X121094700Y-65995332D01*
X120652438Y-66219443D01*
X120606666Y-62704667D01*
X117347000Y-62658677D01*
X117347000Y-64396172D01*
X117345023Y-64999250D01*
X117338273Y-65451833D01*
X117325517Y-65772719D01*
X117305522Y-65980708D01*
X117277057Y-66094602D01*
X117238890Y-66133199D01*
X117233126Y-66133667D01*
X117065614Y-66079809D01*
X116812179Y-65935966D01*
X116509709Y-65728736D01*
X116195091Y-65484717D01*
X115905213Y-65230507D01*
X115720960Y-65043314D01*
X115290614Y-64457617D01*
X114949267Y-63777276D01*
X114728975Y-63067118D01*
X114718542Y-63016065D01*
X114615635Y-62493000D01*
X113022981Y-62493000D01*
X112520951Y-62496664D01*
X112079129Y-62506857D01*
X111724633Y-62522383D01*
X111484580Y-62542047D01*
X111386091Y-62564652D01*
X111385695Y-62565215D01*
X111374113Y-62689975D01*
X111395828Y-62940300D01*
X111444814Y-63277050D01*
X111515041Y-63661086D01*
X111600481Y-64053270D01*
X111638788Y-64208418D01*
X111973728Y-65181191D01*
X112458880Y-66108404D01*
X113077161Y-66970680D01*
X113811488Y-67748644D01*
X114644777Y-68422920D01*
X115559943Y-68974132D01*
X116034666Y-69194093D01*
X116712000Y-69478000D01*
X114066166Y-69500373D01*
X111420333Y-69522746D01*
X111420333Y-72822333D01*
X113685166Y-72822338D01*
X115950000Y-72822343D01*
X115235842Y-73224505D01*
X114476328Y-73730647D01*
X113748552Y-74363976D01*
X113083125Y-75089529D01*
X112510662Y-75872341D01*
X112061774Y-76677447D01*
X111916913Y-77015223D01*
X111601641Y-78000873D01*
X111400655Y-79014644D01*
X111388450Y-79108833D01*
X111338906Y-79511000D01*
X114615635Y-79511000D01*
X114714651Y-79007712D01*
X114931394Y-78302586D01*
X115287086Y-77615690D01*
X115753794Y-76986070D01*
X116303586Y-76452769D01*
X116775732Y-76126708D01*
X117021521Y-75991229D01*
X117207986Y-75898514D01*
X117283500Y-75871128D01*
X117302139Y-75951479D01*
X117318616Y-76176740D01*
X117332079Y-76522492D01*
X117341677Y-76964316D01*
X117346558Y-77477793D01*
X117347000Y-77692495D01*
X117346999Y-79514657D01*
X118976833Y-79491662D01*
G37*
X118976833Y-79491662D02*
X120606666Y-79468667D01*
X120629541Y-77661097D01*
X120635977Y-77044567D01*
X120643424Y-76581068D01*
X120660607Y-76254474D01*
X120696251Y-76048658D01*
X120759082Y-75947494D01*
X120857824Y-75934855D01*
X121001202Y-75994614D01*
X121197942Y-76110646D01*
X121401511Y-76234276D01*
X121908175Y-76618267D01*
X122377977Y-77129692D01*
X122782497Y-77726860D01*
X123093312Y-78368082D01*
X123276922Y-78985213D01*
X123380364Y-79511000D01*
X126666165Y-79511000D01*
X126613119Y-79066500D01*
X126396146Y-77929785D01*
X126027543Y-76865298D01*
X125511647Y-75879327D01*
X124852797Y-74978160D01*
X124055330Y-74168085D01*
X123123582Y-73455391D01*
X122469333Y-73059083D01*
X122046000Y-72825401D01*
X126575666Y-72822333D01*
X126575666Y-69522746D01*
X123930947Y-69500373D01*
X121286227Y-69478000D01*
X121877780Y-69245607D01*
X122700809Y-68849167D01*
X123512201Y-68322553D01*
X124265370Y-67701279D01*
X124913733Y-67020859D01*
X125092887Y-66794544D01*
X125543834Y-66108009D01*
X125937150Y-65339711D01*
X126254382Y-64536485D01*
X126477076Y-63745168D01*
X126586780Y-63012593D01*
X126587556Y-63001000D01*
X126618000Y-62535333D01*
X125003440Y-62512392D01*
X123388881Y-62489451D01*
X123290143Y-63020392D01*
X123196010Y-63387757D01*
X123052241Y-63800654D01*
X122921747Y-64101667D01*
X122649211Y-64548989D01*
X122276679Y-65012173D01*
X121848302Y-65445460D01*
X121408231Y-65803090D01*
X121094700Y-65995332D01*
X120652438Y-66219443D01*
X120606666Y-62704667D01*
X117347000Y-62658677D01*
X117347000Y-64396172D01*
X117345023Y-64999250D01*
X117338273Y-65451833D01*
X117325517Y-65772719D01*
X117305522Y-65980708D01*
X117277057Y-66094602D01*
X117238890Y-66133199D01*
X117233126Y-66133667D01*
X117065614Y-66079809D01*
X116812179Y-65935966D01*
X116509709Y-65728736D01*
X116195091Y-65484717D01*
X115905213Y-65230507D01*
X115720960Y-65043314D01*
X115290614Y-64457617D01*
X114949267Y-63777276D01*
X114728975Y-63067118D01*
X114718542Y-63016065D01*
X114615635Y-62493000D01*
X113022981Y-62493000D01*
X112520951Y-62496664D01*
X112079129Y-62506857D01*
X111724633Y-62522383D01*
X111484580Y-62542047D01*
X111386091Y-62564652D01*
X111385695Y-62565215D01*
X111374113Y-62689975D01*
X111395828Y-62940300D01*
X111444814Y-63277050D01*
X111515041Y-63661086D01*
X111600481Y-64053270D01*
X111638788Y-64208418D01*
X111973728Y-65181191D01*
X112458880Y-66108404D01*
X113077161Y-66970680D01*
X113811488Y-67748644D01*
X114644777Y-68422920D01*
X115559943Y-68974132D01*
X116034666Y-69194093D01*
X116712000Y-69478000D01*
X114066166Y-69500373D01*
X111420333Y-69522746D01*
X111420333Y-72822333D01*
X113685166Y-72822338D01*
X115950000Y-72822343D01*
X115235842Y-73224505D01*
X114476328Y-73730647D01*
X113748552Y-74363976D01*
X113083125Y-75089529D01*
X112510662Y-75872341D01*
X112061774Y-76677447D01*
X111916913Y-77015223D01*
X111601641Y-78000873D01*
X111400655Y-79014644D01*
X111388450Y-79108833D01*
X111338906Y-79511000D01*
X114615635Y-79511000D01*
X114714651Y-79007712D01*
X114931394Y-78302586D01*
X115287086Y-77615690D01*
X115753794Y-76986070D01*
X116303586Y-76452769D01*
X116775732Y-76126708D01*
X117021521Y-75991229D01*
X117207986Y-75898514D01*
X117283500Y-75871128D01*
X117302139Y-75951479D01*
X117318616Y-76176740D01*
X117332079Y-76522492D01*
X117341677Y-76964316D01*
X117346558Y-77477793D01*
X117347000Y-77692495D01*
X117346999Y-79514657D01*
X118976833Y-79491662D01*
%TD*%
M02*
