%TF.GenerationSoftware,KiCad,Pcbnew,(5.1.10)-1*%
%TF.CreationDate,2021-10-14T00:36:54-03:00*%
%TF.ProjectId,3ARA_PCB,33415241-5f50-4434-922e-6b696361645f,rev?*%
%TF.SameCoordinates,Original*%
%TF.FileFunction,Legend,Top*%
%TF.FilePolarity,Positive*%
%FSLAX46Y46*%
G04 Gerber Fmt 4.6, Leading zero omitted, Abs format (unit mm)*
G04 Created by KiCad (PCBNEW (5.1.10)-1) date 2021-10-14 00:36:54*
%MOMM*%
%LPD*%
G01*
G04 APERTURE LIST*
%ADD10C,0.150000*%
%ADD11C,0.250000*%
%ADD12C,0.120000*%
%ADD13C,0.127000*%
%ADD14C,0.200000*%
G04 APERTURE END LIST*
D10*
X190663095Y-70950000D02*
X190567857Y-70902380D01*
X190425000Y-70902380D01*
X190282142Y-70950000D01*
X190186904Y-71045238D01*
X190139285Y-71140476D01*
X190091666Y-71330952D01*
X190091666Y-71473809D01*
X190139285Y-71664285D01*
X190186904Y-71759523D01*
X190282142Y-71854761D01*
X190425000Y-71902380D01*
X190520238Y-71902380D01*
X190663095Y-71854761D01*
X190710714Y-71807142D01*
X190710714Y-71473809D01*
X190520238Y-71473809D01*
X191139285Y-71902380D02*
X191139285Y-70902380D01*
X191710714Y-71902380D01*
X191710714Y-70902380D01*
X192186904Y-71902380D02*
X192186904Y-70902380D01*
X192425000Y-70902380D01*
X192567857Y-70950000D01*
X192663095Y-71045238D01*
X192710714Y-71140476D01*
X192758333Y-71330952D01*
X192758333Y-71473809D01*
X192710714Y-71664285D01*
X192663095Y-71759523D01*
X192567857Y-71854761D01*
X192425000Y-71902380D01*
X192186904Y-71902380D01*
X190983333Y-76877380D02*
X190650000Y-76401190D01*
X190411904Y-76877380D02*
X190411904Y-75877380D01*
X190792857Y-75877380D01*
X190888095Y-75925000D01*
X190935714Y-75972619D01*
X190983333Y-76067857D01*
X190983333Y-76210714D01*
X190935714Y-76305952D01*
X190888095Y-76353571D01*
X190792857Y-76401190D01*
X190411904Y-76401190D01*
X191316666Y-75877380D02*
X191983333Y-76877380D01*
X191983333Y-75877380D02*
X191316666Y-76877380D01*
X190463095Y-73427380D02*
X191034523Y-73427380D01*
X190748809Y-74427380D02*
X190748809Y-73427380D01*
X191272619Y-73427380D02*
X191939285Y-74427380D01*
X191939285Y-73427380D02*
X191272619Y-74427380D01*
X189748809Y-78452380D02*
X190367857Y-78452380D01*
X190034523Y-78833333D01*
X190177380Y-78833333D01*
X190272619Y-78880952D01*
X190320238Y-78928571D01*
X190367857Y-79023809D01*
X190367857Y-79261904D01*
X190320238Y-79357142D01*
X190272619Y-79404761D01*
X190177380Y-79452380D01*
X189891666Y-79452380D01*
X189796428Y-79404761D01*
X189748809Y-79357142D01*
X190796428Y-79357142D02*
X190844047Y-79404761D01*
X190796428Y-79452380D01*
X190748809Y-79404761D01*
X190796428Y-79357142D01*
X190796428Y-79452380D01*
X191177380Y-78452380D02*
X191796428Y-78452380D01*
X191463095Y-78833333D01*
X191605952Y-78833333D01*
X191701190Y-78880952D01*
X191748809Y-78928571D01*
X191796428Y-79023809D01*
X191796428Y-79261904D01*
X191748809Y-79357142D01*
X191701190Y-79404761D01*
X191605952Y-79452380D01*
X191320238Y-79452380D01*
X191225000Y-79404761D01*
X191177380Y-79357142D01*
X192082142Y-78452380D02*
X192415476Y-79452380D01*
X192748809Y-78452380D01*
X190488095Y-86775000D02*
X190392857Y-86727380D01*
X190250000Y-86727380D01*
X190107142Y-86775000D01*
X190011904Y-86870238D01*
X189964285Y-86965476D01*
X189916666Y-87155952D01*
X189916666Y-87298809D01*
X189964285Y-87489285D01*
X190011904Y-87584523D01*
X190107142Y-87679761D01*
X190250000Y-87727380D01*
X190345238Y-87727380D01*
X190488095Y-87679761D01*
X190535714Y-87632142D01*
X190535714Y-87298809D01*
X190345238Y-87298809D01*
X190964285Y-87727380D02*
X190964285Y-86727380D01*
X191535714Y-87727380D01*
X191535714Y-86727380D01*
X192011904Y-87727380D02*
X192011904Y-86727380D01*
X192250000Y-86727380D01*
X192392857Y-86775000D01*
X192488095Y-86870238D01*
X192535714Y-86965476D01*
X192583333Y-87155952D01*
X192583333Y-87298809D01*
X192535714Y-87489285D01*
X192488095Y-87584523D01*
X192392857Y-87679761D01*
X192250000Y-87727380D01*
X192011904Y-87727380D01*
X189798809Y-94202380D02*
X190417857Y-94202380D01*
X190084523Y-94583333D01*
X190227380Y-94583333D01*
X190322619Y-94630952D01*
X190370238Y-94678571D01*
X190417857Y-94773809D01*
X190417857Y-95011904D01*
X190370238Y-95107142D01*
X190322619Y-95154761D01*
X190227380Y-95202380D01*
X189941666Y-95202380D01*
X189846428Y-95154761D01*
X189798809Y-95107142D01*
X190846428Y-95107142D02*
X190894047Y-95154761D01*
X190846428Y-95202380D01*
X190798809Y-95154761D01*
X190846428Y-95107142D01*
X190846428Y-95202380D01*
X191227380Y-94202380D02*
X191846428Y-94202380D01*
X191513095Y-94583333D01*
X191655952Y-94583333D01*
X191751190Y-94630952D01*
X191798809Y-94678571D01*
X191846428Y-94773809D01*
X191846428Y-95011904D01*
X191798809Y-95107142D01*
X191751190Y-95154761D01*
X191655952Y-95202380D01*
X191370238Y-95202380D01*
X191275000Y-95154761D01*
X191227380Y-95107142D01*
X192132142Y-94202380D02*
X192465476Y-95202380D01*
X192798809Y-94202380D01*
X190109523Y-90179761D02*
X190252380Y-90227380D01*
X190490476Y-90227380D01*
X190585714Y-90179761D01*
X190633333Y-90132142D01*
X190680952Y-90036904D01*
X190680952Y-89941666D01*
X190633333Y-89846428D01*
X190585714Y-89798809D01*
X190490476Y-89751190D01*
X190300000Y-89703571D01*
X190204761Y-89655952D01*
X190157142Y-89608333D01*
X190109523Y-89513095D01*
X190109523Y-89417857D01*
X190157142Y-89322619D01*
X190204761Y-89275000D01*
X190300000Y-89227380D01*
X190538095Y-89227380D01*
X190680952Y-89275000D01*
X191680952Y-90132142D02*
X191633333Y-90179761D01*
X191490476Y-90227380D01*
X191395238Y-90227380D01*
X191252380Y-90179761D01*
X191157142Y-90084523D01*
X191109523Y-89989285D01*
X191061904Y-89798809D01*
X191061904Y-89655952D01*
X191109523Y-89465476D01*
X191157142Y-89370238D01*
X191252380Y-89275000D01*
X191395238Y-89227380D01*
X191490476Y-89227380D01*
X191633333Y-89275000D01*
X191680952Y-89322619D01*
X192585714Y-90227380D02*
X192109523Y-90227380D01*
X192109523Y-89227380D01*
X190010714Y-92429761D02*
X190153571Y-92477380D01*
X190391666Y-92477380D01*
X190486904Y-92429761D01*
X190534523Y-92382142D01*
X190582142Y-92286904D01*
X190582142Y-92191666D01*
X190534523Y-92096428D01*
X190486904Y-92048809D01*
X190391666Y-92001190D01*
X190201190Y-91953571D01*
X190105952Y-91905952D01*
X190058333Y-91858333D01*
X190010714Y-91763095D01*
X190010714Y-91667857D01*
X190058333Y-91572619D01*
X190105952Y-91525000D01*
X190201190Y-91477380D01*
X190439285Y-91477380D01*
X190582142Y-91525000D01*
X191010714Y-92477380D02*
X191010714Y-91477380D01*
X191248809Y-91477380D01*
X191391666Y-91525000D01*
X191486904Y-91620238D01*
X191534523Y-91715476D01*
X191582142Y-91905952D01*
X191582142Y-92048809D01*
X191534523Y-92239285D01*
X191486904Y-92334523D01*
X191391666Y-92429761D01*
X191248809Y-92477380D01*
X191010714Y-92477380D01*
X191963095Y-92191666D02*
X192439285Y-92191666D01*
X191867857Y-92477380D02*
X192201190Y-91477380D01*
X192534523Y-92477380D01*
X178952380Y-93126190D02*
X178952380Y-92507142D01*
X179333333Y-92840476D01*
X179333333Y-92697619D01*
X179380952Y-92602380D01*
X179428571Y-92554761D01*
X179523809Y-92507142D01*
X179761904Y-92507142D01*
X179857142Y-92554761D01*
X179904761Y-92602380D01*
X179952380Y-92697619D01*
X179952380Y-92983333D01*
X179904761Y-93078571D01*
X179857142Y-93126190D01*
X179857142Y-92078571D02*
X179904761Y-92030952D01*
X179952380Y-92078571D01*
X179904761Y-92126190D01*
X179857142Y-92078571D01*
X179952380Y-92078571D01*
X178952380Y-91697619D02*
X178952380Y-91078571D01*
X179333333Y-91411904D01*
X179333333Y-91269047D01*
X179380952Y-91173809D01*
X179428571Y-91126190D01*
X179523809Y-91078571D01*
X179761904Y-91078571D01*
X179857142Y-91126190D01*
X179904761Y-91173809D01*
X179952380Y-91269047D01*
X179952380Y-91554761D01*
X179904761Y-91650000D01*
X179857142Y-91697619D01*
X178952380Y-90792857D02*
X179952380Y-90459523D01*
X178952380Y-90126190D01*
X177227380Y-93489285D02*
X176227380Y-93489285D01*
X176227380Y-93108333D01*
X176275000Y-93013095D01*
X176322619Y-92965476D01*
X176417857Y-92917857D01*
X176560714Y-92917857D01*
X176655952Y-92965476D01*
X176703571Y-93013095D01*
X176751190Y-93108333D01*
X176751190Y-93489285D01*
X176703571Y-92155952D02*
X176751190Y-92013095D01*
X176798809Y-91965476D01*
X176894047Y-91917857D01*
X177036904Y-91917857D01*
X177132142Y-91965476D01*
X177179761Y-92013095D01*
X177227380Y-92108333D01*
X177227380Y-92489285D01*
X176227380Y-92489285D01*
X176227380Y-92155952D01*
X176275000Y-92060714D01*
X176322619Y-92013095D01*
X176417857Y-91965476D01*
X176513095Y-91965476D01*
X176608333Y-92013095D01*
X176655952Y-92060714D01*
X176703571Y-92155952D01*
X176703571Y-92489285D01*
X177227380Y-90965476D02*
X177227380Y-91536904D01*
X177227380Y-91251190D02*
X176227380Y-91251190D01*
X176370238Y-91346428D01*
X176465476Y-91441666D01*
X176513095Y-91536904D01*
X176322619Y-90584523D02*
X176275000Y-90536904D01*
X176227380Y-90441666D01*
X176227380Y-90203571D01*
X176275000Y-90108333D01*
X176322619Y-90060714D01*
X176417857Y-90013095D01*
X176513095Y-90013095D01*
X176655952Y-90060714D01*
X177227380Y-90632142D01*
X177227380Y-90013095D01*
X174702380Y-93464285D02*
X173702380Y-93464285D01*
X173702380Y-93083333D01*
X173750000Y-92988095D01*
X173797619Y-92940476D01*
X173892857Y-92892857D01*
X174035714Y-92892857D01*
X174130952Y-92940476D01*
X174178571Y-92988095D01*
X174226190Y-93083333D01*
X174226190Y-93464285D01*
X174178571Y-92130952D02*
X174226190Y-91988095D01*
X174273809Y-91940476D01*
X174369047Y-91892857D01*
X174511904Y-91892857D01*
X174607142Y-91940476D01*
X174654761Y-91988095D01*
X174702380Y-92083333D01*
X174702380Y-92464285D01*
X173702380Y-92464285D01*
X173702380Y-92130952D01*
X173750000Y-92035714D01*
X173797619Y-91988095D01*
X173892857Y-91940476D01*
X173988095Y-91940476D01*
X174083333Y-91988095D01*
X174130952Y-92035714D01*
X174178571Y-92130952D01*
X174178571Y-92464285D01*
X174702380Y-90940476D02*
X174702380Y-91511904D01*
X174702380Y-91226190D02*
X173702380Y-91226190D01*
X173845238Y-91321428D01*
X173940476Y-91416666D01*
X173988095Y-91511904D01*
X173702380Y-90607142D02*
X173702380Y-89988095D01*
X174083333Y-90321428D01*
X174083333Y-90178571D01*
X174130952Y-90083333D01*
X174178571Y-90035714D01*
X174273809Y-89988095D01*
X174511904Y-89988095D01*
X174607142Y-90035714D01*
X174654761Y-90083333D01*
X174702380Y-90178571D01*
X174702380Y-90464285D01*
X174654761Y-90559523D01*
X174607142Y-90607142D01*
X172177380Y-93464285D02*
X171177380Y-93464285D01*
X171177380Y-93083333D01*
X171225000Y-92988095D01*
X171272619Y-92940476D01*
X171367857Y-92892857D01*
X171510714Y-92892857D01*
X171605952Y-92940476D01*
X171653571Y-92988095D01*
X171701190Y-93083333D01*
X171701190Y-93464285D01*
X171653571Y-92130952D02*
X171701190Y-91988095D01*
X171748809Y-91940476D01*
X171844047Y-91892857D01*
X171986904Y-91892857D01*
X172082142Y-91940476D01*
X172129761Y-91988095D01*
X172177380Y-92083333D01*
X172177380Y-92464285D01*
X171177380Y-92464285D01*
X171177380Y-92130952D01*
X171225000Y-92035714D01*
X171272619Y-91988095D01*
X171367857Y-91940476D01*
X171463095Y-91940476D01*
X171558333Y-91988095D01*
X171605952Y-92035714D01*
X171653571Y-92130952D01*
X171653571Y-92464285D01*
X172177380Y-90940476D02*
X172177380Y-91511904D01*
X172177380Y-91226190D02*
X171177380Y-91226190D01*
X171320238Y-91321428D01*
X171415476Y-91416666D01*
X171463095Y-91511904D01*
X171510714Y-90083333D02*
X172177380Y-90083333D01*
X171129761Y-90321428D02*
X171844047Y-90559523D01*
X171844047Y-89940476D01*
X169727380Y-93464285D02*
X168727380Y-93464285D01*
X168727380Y-93083333D01*
X168775000Y-92988095D01*
X168822619Y-92940476D01*
X168917857Y-92892857D01*
X169060714Y-92892857D01*
X169155952Y-92940476D01*
X169203571Y-92988095D01*
X169251190Y-93083333D01*
X169251190Y-93464285D01*
X169203571Y-92130952D02*
X169251190Y-91988095D01*
X169298809Y-91940476D01*
X169394047Y-91892857D01*
X169536904Y-91892857D01*
X169632142Y-91940476D01*
X169679761Y-91988095D01*
X169727380Y-92083333D01*
X169727380Y-92464285D01*
X168727380Y-92464285D01*
X168727380Y-92130952D01*
X168775000Y-92035714D01*
X168822619Y-91988095D01*
X168917857Y-91940476D01*
X169013095Y-91940476D01*
X169108333Y-91988095D01*
X169155952Y-92035714D01*
X169203571Y-92130952D01*
X169203571Y-92464285D01*
X169727380Y-90940476D02*
X169727380Y-91511904D01*
X169727380Y-91226190D02*
X168727380Y-91226190D01*
X168870238Y-91321428D01*
X168965476Y-91416666D01*
X169013095Y-91511904D01*
X168727380Y-90035714D02*
X168727380Y-90511904D01*
X169203571Y-90559523D01*
X169155952Y-90511904D01*
X169108333Y-90416666D01*
X169108333Y-90178571D01*
X169155952Y-90083333D01*
X169203571Y-90035714D01*
X169298809Y-89988095D01*
X169536904Y-89988095D01*
X169632142Y-90035714D01*
X169679761Y-90083333D01*
X169727380Y-90178571D01*
X169727380Y-90416666D01*
X169679761Y-90511904D01*
X169632142Y-90559523D01*
X168775000Y-82536904D02*
X168727380Y-82632142D01*
X168727380Y-82775000D01*
X168775000Y-82917857D01*
X168870238Y-83013095D01*
X168965476Y-83060714D01*
X169155952Y-83108333D01*
X169298809Y-83108333D01*
X169489285Y-83060714D01*
X169584523Y-83013095D01*
X169679761Y-82917857D01*
X169727380Y-82775000D01*
X169727380Y-82679761D01*
X169679761Y-82536904D01*
X169632142Y-82489285D01*
X169298809Y-82489285D01*
X169298809Y-82679761D01*
X169727380Y-82060714D02*
X168727380Y-82060714D01*
X169727380Y-81489285D01*
X168727380Y-81489285D01*
X169727380Y-81013095D02*
X168727380Y-81013095D01*
X168727380Y-80775000D01*
X168775000Y-80632142D01*
X168870238Y-80536904D01*
X168965476Y-80489285D01*
X169155952Y-80441666D01*
X169298809Y-80441666D01*
X169489285Y-80489285D01*
X169584523Y-80536904D01*
X169679761Y-80632142D01*
X169727380Y-80775000D01*
X169727380Y-81013095D01*
X178800000Y-82586904D02*
X178752380Y-82682142D01*
X178752380Y-82825000D01*
X178800000Y-82967857D01*
X178895238Y-83063095D01*
X178990476Y-83110714D01*
X179180952Y-83158333D01*
X179323809Y-83158333D01*
X179514285Y-83110714D01*
X179609523Y-83063095D01*
X179704761Y-82967857D01*
X179752380Y-82825000D01*
X179752380Y-82729761D01*
X179704761Y-82586904D01*
X179657142Y-82539285D01*
X179323809Y-82539285D01*
X179323809Y-82729761D01*
X179752380Y-82110714D02*
X178752380Y-82110714D01*
X179752380Y-81539285D01*
X178752380Y-81539285D01*
X179752380Y-81063095D02*
X178752380Y-81063095D01*
X178752380Y-80825000D01*
X178800000Y-80682142D01*
X178895238Y-80586904D01*
X178990476Y-80539285D01*
X179180952Y-80491666D01*
X179323809Y-80491666D01*
X179514285Y-80539285D01*
X179609523Y-80586904D01*
X179704761Y-80682142D01*
X179752380Y-80825000D01*
X179752380Y-81063095D01*
X177327380Y-83142857D02*
X176327380Y-83142857D01*
X176327380Y-82761904D01*
X176375000Y-82666666D01*
X176422619Y-82619047D01*
X176517857Y-82571428D01*
X176660714Y-82571428D01*
X176755952Y-82619047D01*
X176803571Y-82666666D01*
X176851190Y-82761904D01*
X176851190Y-83142857D01*
X177041666Y-82190476D02*
X177041666Y-81714285D01*
X177327380Y-82285714D02*
X176327380Y-81952380D01*
X177327380Y-81619047D01*
X177327380Y-80761904D02*
X177327380Y-81333333D01*
X177327380Y-81047619D02*
X176327380Y-81047619D01*
X176470238Y-81142857D01*
X176565476Y-81238095D01*
X176613095Y-81333333D01*
X176422619Y-80380952D02*
X176375000Y-80333333D01*
X176327380Y-80238095D01*
X176327380Y-80000000D01*
X176375000Y-79904761D01*
X176422619Y-79857142D01*
X176517857Y-79809523D01*
X176613095Y-79809523D01*
X176755952Y-79857142D01*
X177327380Y-80428571D01*
X177327380Y-79809523D01*
X174777380Y-83167857D02*
X173777380Y-83167857D01*
X173777380Y-82786904D01*
X173825000Y-82691666D01*
X173872619Y-82644047D01*
X173967857Y-82596428D01*
X174110714Y-82596428D01*
X174205952Y-82644047D01*
X174253571Y-82691666D01*
X174301190Y-82786904D01*
X174301190Y-83167857D01*
X174491666Y-82215476D02*
X174491666Y-81739285D01*
X174777380Y-82310714D02*
X173777380Y-81977380D01*
X174777380Y-81644047D01*
X174777380Y-80786904D02*
X174777380Y-81358333D01*
X174777380Y-81072619D02*
X173777380Y-81072619D01*
X173920238Y-81167857D01*
X174015476Y-81263095D01*
X174063095Y-81358333D01*
X174777380Y-79834523D02*
X174777380Y-80405952D01*
X174777380Y-80120238D02*
X173777380Y-80120238D01*
X173920238Y-80215476D01*
X174015476Y-80310714D01*
X174063095Y-80405952D01*
X172252380Y-83117857D02*
X171252380Y-83117857D01*
X171252380Y-82736904D01*
X171300000Y-82641666D01*
X171347619Y-82594047D01*
X171442857Y-82546428D01*
X171585714Y-82546428D01*
X171680952Y-82594047D01*
X171728571Y-82641666D01*
X171776190Y-82736904D01*
X171776190Y-83117857D01*
X171966666Y-82165476D02*
X171966666Y-81689285D01*
X172252380Y-82260714D02*
X171252380Y-81927380D01*
X172252380Y-81594047D01*
X172252380Y-80736904D02*
X172252380Y-81308333D01*
X172252380Y-81022619D02*
X171252380Y-81022619D01*
X171395238Y-81117857D01*
X171490476Y-81213095D01*
X171538095Y-81308333D01*
X171252380Y-80117857D02*
X171252380Y-80022619D01*
X171300000Y-79927380D01*
X171347619Y-79879761D01*
X171442857Y-79832142D01*
X171633333Y-79784523D01*
X171871428Y-79784523D01*
X172061904Y-79832142D01*
X172157142Y-79879761D01*
X172204761Y-79927380D01*
X172252380Y-80022619D01*
X172252380Y-80117857D01*
X172204761Y-80213095D01*
X172157142Y-80260714D01*
X172061904Y-80308333D01*
X171871428Y-80355952D01*
X171633333Y-80355952D01*
X171442857Y-80308333D01*
X171347619Y-80260714D01*
X171300000Y-80213095D01*
X171252380Y-80117857D01*
X131197619Y-119527380D02*
X130864285Y-119051190D01*
X130626190Y-119527380D02*
X130626190Y-118527380D01*
X131007142Y-118527380D01*
X131102380Y-118575000D01*
X131150000Y-118622619D01*
X131197619Y-118717857D01*
X131197619Y-118860714D01*
X131150000Y-118955952D01*
X131102380Y-119003571D01*
X131007142Y-119051190D01*
X130626190Y-119051190D01*
X131626190Y-119003571D02*
X131959523Y-119003571D01*
X132102380Y-119527380D02*
X131626190Y-119527380D01*
X131626190Y-118527380D01*
X132102380Y-118527380D01*
X132483333Y-119479761D02*
X132626190Y-119527380D01*
X132864285Y-119527380D01*
X132959523Y-119479761D01*
X133007142Y-119432142D01*
X133054761Y-119336904D01*
X133054761Y-119241666D01*
X133007142Y-119146428D01*
X132959523Y-119098809D01*
X132864285Y-119051190D01*
X132673809Y-119003571D01*
X132578571Y-118955952D01*
X132530952Y-118908333D01*
X132483333Y-118813095D01*
X132483333Y-118717857D01*
X132530952Y-118622619D01*
X132578571Y-118575000D01*
X132673809Y-118527380D01*
X132911904Y-118527380D01*
X133054761Y-118575000D01*
X133483333Y-119003571D02*
X133816666Y-119003571D01*
X133959523Y-119527380D02*
X133483333Y-119527380D01*
X133483333Y-118527380D01*
X133959523Y-118527380D01*
X134245238Y-118527380D02*
X134816666Y-118527380D01*
X134530952Y-119527380D02*
X134530952Y-118527380D01*
X112244047Y-100302380D02*
X112244047Y-99302380D01*
X112244047Y-99778571D02*
X112815476Y-99778571D01*
X112815476Y-100302380D02*
X112815476Y-99302380D01*
X113244047Y-100016666D02*
X113720238Y-100016666D01*
X113148809Y-100302380D02*
X113482142Y-99302380D01*
X113815476Y-100302380D01*
X114625000Y-100302380D02*
X114148809Y-100302380D01*
X114148809Y-99302380D01*
X115434523Y-100302380D02*
X114958333Y-100302380D01*
X114958333Y-99302380D01*
X116434523Y-99302380D02*
X117053571Y-99302380D01*
X116720238Y-99683333D01*
X116863095Y-99683333D01*
X116958333Y-99730952D01*
X117005952Y-99778571D01*
X117053571Y-99873809D01*
X117053571Y-100111904D01*
X117005952Y-100207142D01*
X116958333Y-100254761D01*
X116863095Y-100302380D01*
X116577380Y-100302380D01*
X116482142Y-100254761D01*
X116434523Y-100207142D01*
X112144047Y-115627380D02*
X112144047Y-114627380D01*
X112144047Y-115103571D02*
X112715476Y-115103571D01*
X112715476Y-115627380D02*
X112715476Y-114627380D01*
X113144047Y-115341666D02*
X113620238Y-115341666D01*
X113048809Y-115627380D02*
X113382142Y-114627380D01*
X113715476Y-115627380D01*
X114525000Y-115627380D02*
X114048809Y-115627380D01*
X114048809Y-114627380D01*
X115334523Y-115627380D02*
X114858333Y-115627380D01*
X114858333Y-114627380D01*
X116382142Y-114722619D02*
X116429761Y-114675000D01*
X116525000Y-114627380D01*
X116763095Y-114627380D01*
X116858333Y-114675000D01*
X116905952Y-114722619D01*
X116953571Y-114817857D01*
X116953571Y-114913095D01*
X116905952Y-115055952D01*
X116334523Y-115627380D01*
X116953571Y-115627380D01*
X112069047Y-130902380D02*
X112069047Y-129902380D01*
X112069047Y-130378571D02*
X112640476Y-130378571D01*
X112640476Y-130902380D02*
X112640476Y-129902380D01*
X113069047Y-130616666D02*
X113545238Y-130616666D01*
X112973809Y-130902380D02*
X113307142Y-129902380D01*
X113640476Y-130902380D01*
X114450000Y-130902380D02*
X113973809Y-130902380D01*
X113973809Y-129902380D01*
X115259523Y-130902380D02*
X114783333Y-130902380D01*
X114783333Y-129902380D01*
X116878571Y-130902380D02*
X116307142Y-130902380D01*
X116592857Y-130902380D02*
X116592857Y-129902380D01*
X116497619Y-130045238D01*
X116402380Y-130140476D01*
X116307142Y-130188095D01*
X186330952Y-133027380D02*
X186330952Y-132027380D01*
X186664285Y-132741666D01*
X186997619Y-132027380D01*
X186997619Y-133027380D01*
X187664285Y-132027380D02*
X187854761Y-132027380D01*
X187950000Y-132075000D01*
X188045238Y-132170238D01*
X188092857Y-132360714D01*
X188092857Y-132694047D01*
X188045238Y-132884523D01*
X187950000Y-132979761D01*
X187854761Y-133027380D01*
X187664285Y-133027380D01*
X187569047Y-132979761D01*
X187473809Y-132884523D01*
X187426190Y-132694047D01*
X187426190Y-132360714D01*
X187473809Y-132170238D01*
X187569047Y-132075000D01*
X187664285Y-132027380D01*
X188378571Y-132027380D02*
X188950000Y-132027380D01*
X188664285Y-133027380D02*
X188664285Y-132027380D01*
X189473809Y-132027380D02*
X189664285Y-132027380D01*
X189759523Y-132075000D01*
X189854761Y-132170238D01*
X189902380Y-132360714D01*
X189902380Y-132694047D01*
X189854761Y-132884523D01*
X189759523Y-132979761D01*
X189664285Y-133027380D01*
X189473809Y-133027380D01*
X189378571Y-132979761D01*
X189283333Y-132884523D01*
X189235714Y-132694047D01*
X189235714Y-132360714D01*
X189283333Y-132170238D01*
X189378571Y-132075000D01*
X189473809Y-132027380D01*
X190902380Y-133027380D02*
X190569047Y-132551190D01*
X190330952Y-133027380D02*
X190330952Y-132027380D01*
X190711904Y-132027380D01*
X190807142Y-132075000D01*
X190854761Y-132122619D01*
X190902380Y-132217857D01*
X190902380Y-132360714D01*
X190854761Y-132455952D01*
X190807142Y-132503571D01*
X190711904Y-132551190D01*
X190330952Y-132551190D01*
X191997619Y-132027380D02*
X192616666Y-132027380D01*
X192283333Y-132408333D01*
X192426190Y-132408333D01*
X192521428Y-132455952D01*
X192569047Y-132503571D01*
X192616666Y-132598809D01*
X192616666Y-132836904D01*
X192569047Y-132932142D01*
X192521428Y-132979761D01*
X192426190Y-133027380D01*
X192140476Y-133027380D01*
X192045238Y-132979761D01*
X191997619Y-132932142D01*
X186055952Y-120177380D02*
X186055952Y-119177380D01*
X186389285Y-119891666D01*
X186722619Y-119177380D01*
X186722619Y-120177380D01*
X187389285Y-119177380D02*
X187579761Y-119177380D01*
X187675000Y-119225000D01*
X187770238Y-119320238D01*
X187817857Y-119510714D01*
X187817857Y-119844047D01*
X187770238Y-120034523D01*
X187675000Y-120129761D01*
X187579761Y-120177380D01*
X187389285Y-120177380D01*
X187294047Y-120129761D01*
X187198809Y-120034523D01*
X187151190Y-119844047D01*
X187151190Y-119510714D01*
X187198809Y-119320238D01*
X187294047Y-119225000D01*
X187389285Y-119177380D01*
X188103571Y-119177380D02*
X188675000Y-119177380D01*
X188389285Y-120177380D02*
X188389285Y-119177380D01*
X189198809Y-119177380D02*
X189389285Y-119177380D01*
X189484523Y-119225000D01*
X189579761Y-119320238D01*
X189627380Y-119510714D01*
X189627380Y-119844047D01*
X189579761Y-120034523D01*
X189484523Y-120129761D01*
X189389285Y-120177380D01*
X189198809Y-120177380D01*
X189103571Y-120129761D01*
X189008333Y-120034523D01*
X188960714Y-119844047D01*
X188960714Y-119510714D01*
X189008333Y-119320238D01*
X189103571Y-119225000D01*
X189198809Y-119177380D01*
X190627380Y-120177380D02*
X190294047Y-119701190D01*
X190055952Y-120177380D02*
X190055952Y-119177380D01*
X190436904Y-119177380D01*
X190532142Y-119225000D01*
X190579761Y-119272619D01*
X190627380Y-119367857D01*
X190627380Y-119510714D01*
X190579761Y-119605952D01*
X190532142Y-119653571D01*
X190436904Y-119701190D01*
X190055952Y-119701190D01*
X191770238Y-119272619D02*
X191817857Y-119225000D01*
X191913095Y-119177380D01*
X192151190Y-119177380D01*
X192246428Y-119225000D01*
X192294047Y-119272619D01*
X192341666Y-119367857D01*
X192341666Y-119463095D01*
X192294047Y-119605952D01*
X191722619Y-120177380D01*
X192341666Y-120177380D01*
X186730952Y-107327380D02*
X186730952Y-106327380D01*
X187064285Y-107041666D01*
X187397619Y-106327380D01*
X187397619Y-107327380D01*
X188064285Y-106327380D02*
X188254761Y-106327380D01*
X188350000Y-106375000D01*
X188445238Y-106470238D01*
X188492857Y-106660714D01*
X188492857Y-106994047D01*
X188445238Y-107184523D01*
X188350000Y-107279761D01*
X188254761Y-107327380D01*
X188064285Y-107327380D01*
X187969047Y-107279761D01*
X187873809Y-107184523D01*
X187826190Y-106994047D01*
X187826190Y-106660714D01*
X187873809Y-106470238D01*
X187969047Y-106375000D01*
X188064285Y-106327380D01*
X188778571Y-106327380D02*
X189350000Y-106327380D01*
X189064285Y-107327380D02*
X189064285Y-106327380D01*
X189873809Y-106327380D02*
X190064285Y-106327380D01*
X190159523Y-106375000D01*
X190254761Y-106470238D01*
X190302380Y-106660714D01*
X190302380Y-106994047D01*
X190254761Y-107184523D01*
X190159523Y-107279761D01*
X190064285Y-107327380D01*
X189873809Y-107327380D01*
X189778571Y-107279761D01*
X189683333Y-107184523D01*
X189635714Y-106994047D01*
X189635714Y-106660714D01*
X189683333Y-106470238D01*
X189778571Y-106375000D01*
X189873809Y-106327380D01*
X191302380Y-107327380D02*
X190969047Y-106851190D01*
X190730952Y-107327380D02*
X190730952Y-106327380D01*
X191111904Y-106327380D01*
X191207142Y-106375000D01*
X191254761Y-106422619D01*
X191302380Y-106517857D01*
X191302380Y-106660714D01*
X191254761Y-106755952D01*
X191207142Y-106803571D01*
X191111904Y-106851190D01*
X190730952Y-106851190D01*
X193016666Y-107327380D02*
X192445238Y-107327380D01*
X192730952Y-107327380D02*
X192730952Y-106327380D01*
X192635714Y-106470238D01*
X192540476Y-106565476D01*
X192445238Y-106613095D01*
D11*
X174539285Y-137339285D02*
X174939285Y-137339285D01*
X175110714Y-137967857D02*
X174539285Y-137967857D01*
X174539285Y-136767857D01*
X175110714Y-136767857D01*
X175625000Y-137967857D02*
X175625000Y-136767857D01*
X176310714Y-137967857D01*
X176310714Y-136767857D01*
X177567857Y-137853571D02*
X177510714Y-137910714D01*
X177339285Y-137967857D01*
X177225000Y-137967857D01*
X177053571Y-137910714D01*
X176939285Y-137796428D01*
X176882142Y-137682142D01*
X176825000Y-137453571D01*
X176825000Y-137282142D01*
X176882142Y-137053571D01*
X176939285Y-136939285D01*
X177053571Y-136825000D01*
X177225000Y-136767857D01*
X177339285Y-136767857D01*
X177510714Y-136825000D01*
X177567857Y-136882142D01*
X178310714Y-136767857D02*
X178539285Y-136767857D01*
X178653571Y-136825000D01*
X178767857Y-136939285D01*
X178825000Y-137167857D01*
X178825000Y-137567857D01*
X178767857Y-137796428D01*
X178653571Y-137910714D01*
X178539285Y-137967857D01*
X178310714Y-137967857D01*
X178196428Y-137910714D01*
X178082142Y-137796428D01*
X178025000Y-137567857D01*
X178025000Y-137167857D01*
X178082142Y-136939285D01*
X178196428Y-136825000D01*
X178310714Y-136767857D01*
X179339285Y-137967857D02*
X179339285Y-136767857D01*
X179625000Y-136767857D01*
X179796428Y-136825000D01*
X179910714Y-136939285D01*
X179967857Y-137053571D01*
X180025000Y-137282142D01*
X180025000Y-137453571D01*
X179967857Y-137682142D01*
X179910714Y-137796428D01*
X179796428Y-137910714D01*
X179625000Y-137967857D01*
X179339285Y-137967857D01*
X180539285Y-137339285D02*
X180939285Y-137339285D01*
X181110714Y-137967857D02*
X180539285Y-137967857D01*
X180539285Y-136767857D01*
X181110714Y-136767857D01*
X182310714Y-137967857D02*
X181910714Y-137396428D01*
X181625000Y-137967857D02*
X181625000Y-136767857D01*
X182082142Y-136767857D01*
X182196428Y-136825000D01*
X182253571Y-136882142D01*
X182310714Y-136996428D01*
X182310714Y-137167857D01*
X182253571Y-137282142D01*
X182196428Y-137339285D01*
X182082142Y-137396428D01*
X181625000Y-137396428D01*
X183625000Y-136767857D02*
X184367857Y-136767857D01*
X183967857Y-137225000D01*
X184139285Y-137225000D01*
X184253571Y-137282142D01*
X184310714Y-137339285D01*
X184367857Y-137453571D01*
X184367857Y-137739285D01*
X184310714Y-137853571D01*
X184253571Y-137910714D01*
X184139285Y-137967857D01*
X183796428Y-137967857D01*
X183682142Y-137910714D01*
X183625000Y-137853571D01*
X149239285Y-137239285D02*
X149639285Y-137239285D01*
X149810714Y-137867857D02*
X149239285Y-137867857D01*
X149239285Y-136667857D01*
X149810714Y-136667857D01*
X150325000Y-137867857D02*
X150325000Y-136667857D01*
X151010714Y-137867857D01*
X151010714Y-136667857D01*
X152267857Y-137753571D02*
X152210714Y-137810714D01*
X152039285Y-137867857D01*
X151925000Y-137867857D01*
X151753571Y-137810714D01*
X151639285Y-137696428D01*
X151582142Y-137582142D01*
X151525000Y-137353571D01*
X151525000Y-137182142D01*
X151582142Y-136953571D01*
X151639285Y-136839285D01*
X151753571Y-136725000D01*
X151925000Y-136667857D01*
X152039285Y-136667857D01*
X152210714Y-136725000D01*
X152267857Y-136782142D01*
X153010714Y-136667857D02*
X153239285Y-136667857D01*
X153353571Y-136725000D01*
X153467857Y-136839285D01*
X153525000Y-137067857D01*
X153525000Y-137467857D01*
X153467857Y-137696428D01*
X153353571Y-137810714D01*
X153239285Y-137867857D01*
X153010714Y-137867857D01*
X152896428Y-137810714D01*
X152782142Y-137696428D01*
X152725000Y-137467857D01*
X152725000Y-137067857D01*
X152782142Y-136839285D01*
X152896428Y-136725000D01*
X153010714Y-136667857D01*
X154039285Y-137867857D02*
X154039285Y-136667857D01*
X154325000Y-136667857D01*
X154496428Y-136725000D01*
X154610714Y-136839285D01*
X154667857Y-136953571D01*
X154725000Y-137182142D01*
X154725000Y-137353571D01*
X154667857Y-137582142D01*
X154610714Y-137696428D01*
X154496428Y-137810714D01*
X154325000Y-137867857D01*
X154039285Y-137867857D01*
X155239285Y-137239285D02*
X155639285Y-137239285D01*
X155810714Y-137867857D02*
X155239285Y-137867857D01*
X155239285Y-136667857D01*
X155810714Y-136667857D01*
X157010714Y-137867857D02*
X156610714Y-137296428D01*
X156325000Y-137867857D02*
X156325000Y-136667857D01*
X156782142Y-136667857D01*
X156896428Y-136725000D01*
X156953571Y-136782142D01*
X157010714Y-136896428D01*
X157010714Y-137067857D01*
X156953571Y-137182142D01*
X156896428Y-137239285D01*
X156782142Y-137296428D01*
X156325000Y-137296428D01*
X158382142Y-136782142D02*
X158439285Y-136725000D01*
X158553571Y-136667857D01*
X158839285Y-136667857D01*
X158953571Y-136725000D01*
X159010714Y-136782142D01*
X159067857Y-136896428D01*
X159067857Y-137010714D01*
X159010714Y-137182142D01*
X158325000Y-137867857D01*
X159067857Y-137867857D01*
X123814285Y-137289285D02*
X124214285Y-137289285D01*
X124385714Y-137917857D02*
X123814285Y-137917857D01*
X123814285Y-136717857D01*
X124385714Y-136717857D01*
X124900000Y-137917857D02*
X124900000Y-136717857D01*
X125585714Y-137917857D01*
X125585714Y-136717857D01*
X126842857Y-137803571D02*
X126785714Y-137860714D01*
X126614285Y-137917857D01*
X126500000Y-137917857D01*
X126328571Y-137860714D01*
X126214285Y-137746428D01*
X126157142Y-137632142D01*
X126100000Y-137403571D01*
X126100000Y-137232142D01*
X126157142Y-137003571D01*
X126214285Y-136889285D01*
X126328571Y-136775000D01*
X126500000Y-136717857D01*
X126614285Y-136717857D01*
X126785714Y-136775000D01*
X126842857Y-136832142D01*
X127585714Y-136717857D02*
X127814285Y-136717857D01*
X127928571Y-136775000D01*
X128042857Y-136889285D01*
X128100000Y-137117857D01*
X128100000Y-137517857D01*
X128042857Y-137746428D01*
X127928571Y-137860714D01*
X127814285Y-137917857D01*
X127585714Y-137917857D01*
X127471428Y-137860714D01*
X127357142Y-137746428D01*
X127300000Y-137517857D01*
X127300000Y-137117857D01*
X127357142Y-136889285D01*
X127471428Y-136775000D01*
X127585714Y-136717857D01*
X128614285Y-137917857D02*
X128614285Y-136717857D01*
X128900000Y-136717857D01*
X129071428Y-136775000D01*
X129185714Y-136889285D01*
X129242857Y-137003571D01*
X129300000Y-137232142D01*
X129300000Y-137403571D01*
X129242857Y-137632142D01*
X129185714Y-137746428D01*
X129071428Y-137860714D01*
X128900000Y-137917857D01*
X128614285Y-137917857D01*
X129814285Y-137289285D02*
X130214285Y-137289285D01*
X130385714Y-137917857D02*
X129814285Y-137917857D01*
X129814285Y-136717857D01*
X130385714Y-136717857D01*
X131585714Y-137917857D02*
X131185714Y-137346428D01*
X130900000Y-137917857D02*
X130900000Y-136717857D01*
X131357142Y-136717857D01*
X131471428Y-136775000D01*
X131528571Y-136832142D01*
X131585714Y-136946428D01*
X131585714Y-137117857D01*
X131528571Y-137232142D01*
X131471428Y-137289285D01*
X131357142Y-137346428D01*
X130900000Y-137346428D01*
X133642857Y-137917857D02*
X132957142Y-137917857D01*
X133300000Y-137917857D02*
X133300000Y-136717857D01*
X133185714Y-136889285D01*
X133071428Y-137003571D01*
X132957142Y-137060714D01*
D12*
%TO.C,C5*%
X159751436Y-83740381D02*
X162608148Y-80883669D01*
X161759619Y-85748564D02*
X164616331Y-82891852D01*
X159751436Y-83740381D02*
X160193378Y-84182322D01*
X161317678Y-85306622D02*
X161759619Y-85748564D01*
X162608148Y-80883669D02*
X163050089Y-81325611D01*
X164174389Y-82449911D02*
X164616331Y-82891852D01*
%TO.C,C3*%
X166930000Y-101260000D02*
X170970000Y-101260000D01*
X166930000Y-104100000D02*
X170970000Y-104100000D01*
X166930000Y-101260000D02*
X166930000Y-101885000D01*
X166930000Y-103475000D02*
X166930000Y-104100000D01*
X170970000Y-101260000D02*
X170970000Y-101885000D01*
X170970000Y-103475000D02*
X170970000Y-104100000D01*
%TO.C,L2*%
X180800000Y-54100000D02*
X180800000Y-55610000D01*
X180800000Y-66860000D02*
X180800000Y-65350000D01*
X178680000Y-55610000D02*
X178680000Y-65350000D01*
X182920000Y-55610000D02*
X178680000Y-55610000D01*
X182920000Y-65350000D02*
X182920000Y-55610000D01*
X178680000Y-65350000D02*
X182920000Y-65350000D01*
%TO.C,C21*%
X187915000Y-68840302D02*
X187115000Y-68840302D01*
X187515000Y-68440302D02*
X187515000Y-69240302D01*
X185733000Y-76931000D02*
X184667000Y-76931000D01*
X185968000Y-76891000D02*
X184432000Y-76891000D01*
X186148000Y-76851000D02*
X184252000Y-76851000D01*
X186298000Y-76811000D02*
X184102000Y-76811000D01*
X186429000Y-76771000D02*
X183971000Y-76771000D01*
X186546000Y-76731000D02*
X183854000Y-76731000D01*
X186653000Y-76691000D02*
X183747000Y-76691000D01*
X186752000Y-76651000D02*
X183648000Y-76651000D01*
X186845000Y-76611000D02*
X183555000Y-76611000D01*
X186931000Y-76571000D02*
X183469000Y-76571000D01*
X187013000Y-76531000D02*
X183387000Y-76531000D01*
X187090000Y-76491000D02*
X183310000Y-76491000D01*
X187164000Y-76451000D02*
X183236000Y-76451000D01*
X187234000Y-76411000D02*
X183166000Y-76411000D01*
X187302000Y-76371000D02*
X183098000Y-76371000D01*
X187366000Y-76331000D02*
X183034000Y-76331000D01*
X187428000Y-76291000D02*
X182972000Y-76291000D01*
X187487000Y-76251000D02*
X182913000Y-76251000D01*
X187545000Y-76211000D02*
X182855000Y-76211000D01*
X187600000Y-76171000D02*
X182800000Y-76171000D01*
X187654000Y-76131000D02*
X182746000Y-76131000D01*
X187705000Y-76091000D02*
X182695000Y-76091000D01*
X187756000Y-76051000D02*
X182644000Y-76051000D01*
X187804000Y-76011000D02*
X182596000Y-76011000D01*
X187851000Y-75971000D02*
X182549000Y-75971000D01*
X187897000Y-75931000D02*
X182503000Y-75931000D01*
X187941000Y-75891000D02*
X182459000Y-75891000D01*
X187984000Y-75851000D02*
X182416000Y-75851000D01*
X188026000Y-75811000D02*
X182374000Y-75811000D01*
X188067000Y-75771000D02*
X182333000Y-75771000D01*
X188107000Y-75731000D02*
X182293000Y-75731000D01*
X188145000Y-75691000D02*
X182255000Y-75691000D01*
X188183000Y-75651000D02*
X182217000Y-75651000D01*
X184160000Y-75611000D02*
X182181000Y-75611000D01*
X188219000Y-75611000D02*
X186240000Y-75611000D01*
X184160000Y-75571000D02*
X182145000Y-75571000D01*
X188255000Y-75571000D02*
X186240000Y-75571000D01*
X184160000Y-75531000D02*
X182110000Y-75531000D01*
X188290000Y-75531000D02*
X186240000Y-75531000D01*
X184160000Y-75491000D02*
X182076000Y-75491000D01*
X188324000Y-75491000D02*
X186240000Y-75491000D01*
X184160000Y-75451000D02*
X182044000Y-75451000D01*
X188356000Y-75451000D02*
X186240000Y-75451000D01*
X184160000Y-75411000D02*
X182011000Y-75411000D01*
X188389000Y-75411000D02*
X186240000Y-75411000D01*
X184160000Y-75371000D02*
X181980000Y-75371000D01*
X188420000Y-75371000D02*
X186240000Y-75371000D01*
X184160000Y-75331000D02*
X181950000Y-75331000D01*
X188450000Y-75331000D02*
X186240000Y-75331000D01*
X184160000Y-75291000D02*
X181920000Y-75291000D01*
X188480000Y-75291000D02*
X186240000Y-75291000D01*
X184160000Y-75251000D02*
X181891000Y-75251000D01*
X188509000Y-75251000D02*
X186240000Y-75251000D01*
X184160000Y-75211000D02*
X181862000Y-75211000D01*
X188538000Y-75211000D02*
X186240000Y-75211000D01*
X184160000Y-75171000D02*
X181835000Y-75171000D01*
X188565000Y-75171000D02*
X186240000Y-75171000D01*
X184160000Y-75131000D02*
X181808000Y-75131000D01*
X188592000Y-75131000D02*
X186240000Y-75131000D01*
X184160000Y-75091000D02*
X181782000Y-75091000D01*
X188618000Y-75091000D02*
X186240000Y-75091000D01*
X184160000Y-75051000D02*
X181756000Y-75051000D01*
X188644000Y-75051000D02*
X186240000Y-75051000D01*
X184160000Y-75011000D02*
X181731000Y-75011000D01*
X188669000Y-75011000D02*
X186240000Y-75011000D01*
X184160000Y-74971000D02*
X181707000Y-74971000D01*
X188693000Y-74971000D02*
X186240000Y-74971000D01*
X184160000Y-74931000D02*
X181683000Y-74931000D01*
X188717000Y-74931000D02*
X186240000Y-74931000D01*
X184160000Y-74891000D02*
X181660000Y-74891000D01*
X188740000Y-74891000D02*
X186240000Y-74891000D01*
X184160000Y-74851000D02*
X181638000Y-74851000D01*
X188762000Y-74851000D02*
X186240000Y-74851000D01*
X184160000Y-74811000D02*
X181616000Y-74811000D01*
X188784000Y-74811000D02*
X186240000Y-74811000D01*
X184160000Y-74771000D02*
X181594000Y-74771000D01*
X188806000Y-74771000D02*
X186240000Y-74771000D01*
X184160000Y-74731000D02*
X181573000Y-74731000D01*
X188827000Y-74731000D02*
X186240000Y-74731000D01*
X184160000Y-74691000D02*
X181553000Y-74691000D01*
X188847000Y-74691000D02*
X186240000Y-74691000D01*
X184160000Y-74651000D02*
X181534000Y-74651000D01*
X188866000Y-74651000D02*
X186240000Y-74651000D01*
X184160000Y-74611000D02*
X181514000Y-74611000D01*
X188886000Y-74611000D02*
X186240000Y-74611000D01*
X184160000Y-74571000D02*
X181496000Y-74571000D01*
X188904000Y-74571000D02*
X186240000Y-74571000D01*
X184160000Y-74531000D02*
X181478000Y-74531000D01*
X188922000Y-74531000D02*
X186240000Y-74531000D01*
X184160000Y-74491000D02*
X181460000Y-74491000D01*
X188940000Y-74491000D02*
X186240000Y-74491000D01*
X184160000Y-74451000D02*
X181443000Y-74451000D01*
X188957000Y-74451000D02*
X186240000Y-74451000D01*
X184160000Y-74411000D02*
X181426000Y-74411000D01*
X188974000Y-74411000D02*
X186240000Y-74411000D01*
X184160000Y-74371000D02*
X181410000Y-74371000D01*
X188990000Y-74371000D02*
X186240000Y-74371000D01*
X184160000Y-74331000D02*
X181395000Y-74331000D01*
X189005000Y-74331000D02*
X186240000Y-74331000D01*
X184160000Y-74291000D02*
X181379000Y-74291000D01*
X189021000Y-74291000D02*
X186240000Y-74291000D01*
X184160000Y-74251000D02*
X181365000Y-74251000D01*
X189035000Y-74251000D02*
X186240000Y-74251000D01*
X184160000Y-74211000D02*
X181350000Y-74211000D01*
X189050000Y-74211000D02*
X186240000Y-74211000D01*
X184160000Y-74171000D02*
X181337000Y-74171000D01*
X189063000Y-74171000D02*
X186240000Y-74171000D01*
X184160000Y-74131000D02*
X181323000Y-74131000D01*
X189077000Y-74131000D02*
X186240000Y-74131000D01*
X184160000Y-74091000D02*
X181311000Y-74091000D01*
X189089000Y-74091000D02*
X186240000Y-74091000D01*
X184160000Y-74051000D02*
X181298000Y-74051000D01*
X189102000Y-74051000D02*
X186240000Y-74051000D01*
X184160000Y-74011000D02*
X181286000Y-74011000D01*
X189114000Y-74011000D02*
X186240000Y-74011000D01*
X184160000Y-73971000D02*
X181275000Y-73971000D01*
X189125000Y-73971000D02*
X186240000Y-73971000D01*
X184160000Y-73931000D02*
X181264000Y-73931000D01*
X189136000Y-73931000D02*
X186240000Y-73931000D01*
X184160000Y-73891000D02*
X181253000Y-73891000D01*
X189147000Y-73891000D02*
X186240000Y-73891000D01*
X184160000Y-73851000D02*
X181243000Y-73851000D01*
X189157000Y-73851000D02*
X186240000Y-73851000D01*
X184160000Y-73811000D02*
X181233000Y-73811000D01*
X189167000Y-73811000D02*
X186240000Y-73811000D01*
X184160000Y-73771000D02*
X181224000Y-73771000D01*
X189176000Y-73771000D02*
X186240000Y-73771000D01*
X184160000Y-73731000D02*
X181215000Y-73731000D01*
X189185000Y-73731000D02*
X186240000Y-73731000D01*
X184160000Y-73691000D02*
X181206000Y-73691000D01*
X189194000Y-73691000D02*
X186240000Y-73691000D01*
X184160000Y-73651000D02*
X181198000Y-73651000D01*
X189202000Y-73651000D02*
X186240000Y-73651000D01*
X184160000Y-73611000D02*
X181190000Y-73611000D01*
X189210000Y-73611000D02*
X186240000Y-73611000D01*
X184160000Y-73571000D02*
X181183000Y-73571000D01*
X189217000Y-73571000D02*
X186240000Y-73571000D01*
X189224000Y-73530000D02*
X181176000Y-73530000D01*
X189230000Y-73490000D02*
X181170000Y-73490000D01*
X189237000Y-73450000D02*
X181163000Y-73450000D01*
X189242000Y-73410000D02*
X181158000Y-73410000D01*
X189248000Y-73370000D02*
X181152000Y-73370000D01*
X189252000Y-73330000D02*
X181148000Y-73330000D01*
X189257000Y-73290000D02*
X181143000Y-73290000D01*
X189261000Y-73250000D02*
X181139000Y-73250000D01*
X189265000Y-73210000D02*
X181135000Y-73210000D01*
X189268000Y-73170000D02*
X181132000Y-73170000D01*
X189271000Y-73130000D02*
X181129000Y-73130000D01*
X189274000Y-73090000D02*
X181126000Y-73090000D01*
X189276000Y-73050000D02*
X181124000Y-73050000D01*
X189277000Y-73010000D02*
X181123000Y-73010000D01*
X189279000Y-72970000D02*
X181121000Y-72970000D01*
X189280000Y-72930000D02*
X181120000Y-72930000D01*
X189280000Y-72890000D02*
X181120000Y-72890000D01*
X189280000Y-72850000D02*
X181120000Y-72850000D01*
X189320000Y-72850000D02*
G75*
G03*
X189320000Y-72850000I-4120000J0D01*
G01*
%TO.C,D1*%
X144865000Y-122000000D02*
X144865000Y-126060000D01*
X144865000Y-126060000D02*
X147135000Y-126060000D01*
X147135000Y-126060000D02*
X147135000Y-122000000D01*
%TO.C,D6*%
X149865000Y-70000000D02*
X149865000Y-74060000D01*
X149865000Y-74060000D02*
X152135000Y-74060000D01*
X152135000Y-74060000D02*
X152135000Y-70000000D01*
%TO.C,R15*%
X139919718Y-91059165D02*
X140240835Y-91380282D01*
X140959165Y-90019718D02*
X141280282Y-90340835D01*
%TO.C,C27*%
X174436252Y-131790000D02*
X173913748Y-131790000D01*
X174436252Y-133260000D02*
X173913748Y-133260000D01*
%TO.C,C26*%
X174436252Y-134190000D02*
X173913748Y-134190000D01*
X174436252Y-135660000D02*
X173913748Y-135660000D01*
%TO.C,C25*%
X149161252Y-134215000D02*
X148638748Y-134215000D01*
X149161252Y-135685000D02*
X148638748Y-135685000D01*
%TO.C,C24*%
X149161252Y-131815000D02*
X148638748Y-131815000D01*
X149161252Y-133285000D02*
X148638748Y-133285000D01*
%TO.C,C23*%
X123638748Y-135695000D02*
X124161252Y-135695000D01*
X123638748Y-134225000D02*
X124161252Y-134225000D01*
%TO.C,C22*%
X123638748Y-133285000D02*
X124161252Y-133285000D01*
X123638748Y-131815000D02*
X124161252Y-131815000D01*
%TO.C,C15*%
X119835000Y-81661252D02*
X119835000Y-81138748D01*
X118365000Y-81661252D02*
X118365000Y-81138748D01*
%TO.C,C14*%
X116035000Y-81661252D02*
X116035000Y-81138748D01*
X114565000Y-81661252D02*
X114565000Y-81138748D01*
%TO.C,D7*%
X147550000Y-67000000D02*
X147550000Y-60100000D01*
X150850000Y-67000000D02*
X150850000Y-60100000D01*
X147550000Y-67000000D02*
X150850000Y-67000000D01*
%TO.C,R14*%
X147165000Y-72327064D02*
X147165000Y-71872936D01*
X148635000Y-72327064D02*
X148635000Y-71872936D01*
%TO.C,J1*%
X135234813Y-91311706D02*
X134174153Y-90958153D01*
X134527706Y-92018813D02*
X135234813Y-91311706D01*
X134174153Y-90958153D02*
X134527706Y-92018813D01*
X138013743Y-84714400D02*
X138940053Y-85640710D01*
X138013743Y-84714400D02*
X138013743Y-84714400D01*
X142921064Y-79807079D02*
X138013743Y-84714400D01*
X138324870Y-75210885D02*
X142921064Y-79807079D01*
X125611090Y-87924665D02*
X138324870Y-75210885D01*
X130207284Y-92520859D02*
X125611090Y-87924665D01*
X135114605Y-87613538D02*
X130207284Y-92520859D01*
X136040915Y-88539848D02*
X135114605Y-87613538D01*
X144766613Y-79814150D02*
X130214355Y-94366408D01*
X138317799Y-73365336D02*
X144766613Y-79814150D01*
X123765541Y-87917594D02*
X138317799Y-73365336D01*
X130214355Y-94366408D02*
X123765541Y-87917594D01*
%TO.C,R1*%
X148635000Y-77772936D02*
X148635000Y-78227064D01*
X147165000Y-77772936D02*
X147165000Y-78227064D01*
%TO.C,D5*%
X149640000Y-77100000D02*
X149640000Y-79960000D01*
X149640000Y-79960000D02*
X151560000Y-79960000D01*
X151560000Y-79960000D02*
X151560000Y-77100000D01*
%TO.C,R13*%
X186027064Y-91765000D02*
X185572936Y-91765000D01*
X186027064Y-93235000D02*
X185572936Y-93235000D01*
%TO.C,R12*%
X186027064Y-94065000D02*
X185572936Y-94065000D01*
X186027064Y-95535000D02*
X185572936Y-95535000D01*
%TO.C,J7*%
X110942000Y-125180000D02*
X106922000Y-125180000D01*
X106922000Y-125180000D02*
X106922000Y-135400000D01*
X106922000Y-135400000D02*
X110942000Y-135400000D01*
X110942000Y-135400000D02*
X110942000Y-125180000D01*
X109232000Y-125180000D02*
X109232000Y-125680000D01*
X109232000Y-125680000D02*
X110442000Y-125680000D01*
X110442000Y-125680000D02*
X110442000Y-134900000D01*
X110442000Y-134900000D02*
X109232000Y-134900000D01*
X109232000Y-134900000D02*
X109232000Y-135400000D01*
X108422000Y-125180000D02*
X108422000Y-126180000D01*
X108422000Y-126180000D02*
X106922000Y-126180000D01*
X108422000Y-135400000D02*
X108422000Y-134400000D01*
X108422000Y-134400000D02*
X106922000Y-134400000D01*
X109122000Y-124880000D02*
X106622000Y-124880000D01*
X106622000Y-124880000D02*
X106622000Y-127380000D01*
%TO.C,J5*%
X110942000Y-110116000D02*
X106922000Y-110116000D01*
X106922000Y-110116000D02*
X106922000Y-120336000D01*
X106922000Y-120336000D02*
X110942000Y-120336000D01*
X110942000Y-120336000D02*
X110942000Y-110116000D01*
X109232000Y-110116000D02*
X109232000Y-110616000D01*
X109232000Y-110616000D02*
X110442000Y-110616000D01*
X110442000Y-110616000D02*
X110442000Y-119836000D01*
X110442000Y-119836000D02*
X109232000Y-119836000D01*
X109232000Y-119836000D02*
X109232000Y-120336000D01*
X108422000Y-110116000D02*
X108422000Y-111116000D01*
X108422000Y-111116000D02*
X106922000Y-111116000D01*
X108422000Y-120336000D02*
X108422000Y-119336000D01*
X108422000Y-119336000D02*
X106922000Y-119336000D01*
X109122000Y-109816000D02*
X106622000Y-109816000D01*
X106622000Y-109816000D02*
X106622000Y-112316000D01*
%TO.C,J3*%
X110942000Y-94622000D02*
X106922000Y-94622000D01*
X106922000Y-94622000D02*
X106922000Y-104842000D01*
X106922000Y-104842000D02*
X110942000Y-104842000D01*
X110942000Y-104842000D02*
X110942000Y-94622000D01*
X109232000Y-94622000D02*
X109232000Y-95122000D01*
X109232000Y-95122000D02*
X110442000Y-95122000D01*
X110442000Y-95122000D02*
X110442000Y-104342000D01*
X110442000Y-104342000D02*
X109232000Y-104342000D01*
X109232000Y-104342000D02*
X109232000Y-104842000D01*
X108422000Y-94622000D02*
X108422000Y-95622000D01*
X108422000Y-95622000D02*
X106922000Y-95622000D01*
X108422000Y-104842000D02*
X108422000Y-103842000D01*
X108422000Y-103842000D02*
X106922000Y-103842000D01*
X109122000Y-94322000D02*
X106622000Y-94322000D01*
X106622000Y-94322000D02*
X106622000Y-96822000D01*
%TO.C,L1*%
X195042000Y-52882000D02*
X198042000Y-52882000D01*
X198042000Y-52882000D02*
X198042000Y-65482000D01*
X198042000Y-65482000D02*
X195042000Y-65482000D01*
X188442000Y-65482000D02*
X185442000Y-65482000D01*
X185442000Y-65482000D02*
X185442000Y-52882000D01*
X185442000Y-52882000D02*
X188442000Y-52882000D01*
%TO.C,J16*%
X167910000Y-83970000D02*
X167910000Y-89170000D01*
X178130000Y-83970000D02*
X167910000Y-83970000D01*
X180730000Y-89170000D02*
X167910000Y-89170000D01*
X178130000Y-83970000D02*
X178130000Y-86570000D01*
X178130000Y-86570000D02*
X180730000Y-86570000D01*
X180730000Y-86570000D02*
X180730000Y-89170000D01*
X179400000Y-83970000D02*
X180730000Y-83970000D01*
X180730000Y-83970000D02*
X180730000Y-85300000D01*
%TO.C,J9*%
X156788000Y-56310000D02*
X156788000Y-52290000D01*
X156788000Y-52290000D02*
X149068000Y-52290000D01*
X149068000Y-52290000D02*
X149068000Y-56310000D01*
X149068000Y-56310000D02*
X156788000Y-56310000D01*
X156788000Y-54600000D02*
X156288000Y-54600000D01*
X156288000Y-54600000D02*
X156288000Y-55810000D01*
X156288000Y-55810000D02*
X149568000Y-55810000D01*
X149568000Y-55810000D02*
X149568000Y-54600000D01*
X149568000Y-54600000D02*
X149068000Y-54600000D01*
X156788000Y-53790000D02*
X155788000Y-53790000D01*
X155788000Y-53790000D02*
X155788000Y-52290000D01*
X149068000Y-53790000D02*
X150068000Y-53790000D01*
X150068000Y-53790000D02*
X150068000Y-52290000D01*
X157088000Y-54490000D02*
X157088000Y-51990000D01*
X157088000Y-51990000D02*
X154588000Y-51990000D01*
%TO.C,J15*%
X198352000Y-81904000D02*
X198352000Y-79404000D01*
X195852000Y-81904000D02*
X198352000Y-81904000D01*
X196552000Y-69884000D02*
X198052000Y-69884000D01*
X196552000Y-68884000D02*
X196552000Y-69884000D01*
X196552000Y-80604000D02*
X198052000Y-80604000D01*
X196552000Y-81604000D02*
X196552000Y-80604000D01*
X195742000Y-69384000D02*
X195742000Y-68884000D01*
X194532000Y-69384000D02*
X195742000Y-69384000D01*
X194532000Y-81104000D02*
X194532000Y-69384000D01*
X195742000Y-81104000D02*
X194532000Y-81104000D01*
X195742000Y-81604000D02*
X195742000Y-81104000D01*
X194032000Y-68884000D02*
X194032000Y-81604000D01*
X198052000Y-68884000D02*
X194032000Y-68884000D01*
X198052000Y-81604000D02*
X198052000Y-68884000D01*
X194032000Y-81604000D02*
X198052000Y-81604000D01*
%TO.C,J14*%
X198338000Y-97652000D02*
X198338000Y-95152000D01*
X195838000Y-97652000D02*
X198338000Y-97652000D01*
X196538000Y-85632000D02*
X198038000Y-85632000D01*
X196538000Y-84632000D02*
X196538000Y-85632000D01*
X196538000Y-96352000D02*
X198038000Y-96352000D01*
X196538000Y-97352000D02*
X196538000Y-96352000D01*
X195728000Y-85132000D02*
X195728000Y-84632000D01*
X194518000Y-85132000D02*
X195728000Y-85132000D01*
X194518000Y-96852000D02*
X194518000Y-85132000D01*
X195728000Y-96852000D02*
X194518000Y-96852000D01*
X195728000Y-97352000D02*
X195728000Y-96852000D01*
X194018000Y-84632000D02*
X194018000Y-97352000D01*
X198038000Y-84632000D02*
X194018000Y-84632000D01*
X198038000Y-97352000D02*
X198038000Y-84632000D01*
X194018000Y-97352000D02*
X198038000Y-97352000D01*
%TO.C,J11*%
X172310000Y-143588000D02*
X174810000Y-143588000D01*
X172310000Y-141088000D02*
X172310000Y-143588000D01*
X184330000Y-141788000D02*
X184330000Y-143288000D01*
X185330000Y-141788000D02*
X184330000Y-141788000D01*
X173610000Y-141788000D02*
X173610000Y-143288000D01*
X172610000Y-141788000D02*
X173610000Y-141788000D01*
X184830000Y-140978000D02*
X185330000Y-140978000D01*
X184830000Y-139768000D02*
X184830000Y-140978000D01*
X173110000Y-139768000D02*
X184830000Y-139768000D01*
X173110000Y-140978000D02*
X173110000Y-139768000D01*
X172610000Y-140978000D02*
X173110000Y-140978000D01*
X185330000Y-139268000D02*
X172610000Y-139268000D01*
X185330000Y-143288000D02*
X185330000Y-139268000D01*
X172610000Y-143288000D02*
X185330000Y-143288000D01*
X172610000Y-139268000D02*
X172610000Y-143288000D01*
%TO.C,J10*%
X147050000Y-143588000D02*
X149550000Y-143588000D01*
X147050000Y-141088000D02*
X147050000Y-143588000D01*
X159070000Y-141788000D02*
X159070000Y-143288000D01*
X160070000Y-141788000D02*
X159070000Y-141788000D01*
X148350000Y-141788000D02*
X148350000Y-143288000D01*
X147350000Y-141788000D02*
X148350000Y-141788000D01*
X159570000Y-140978000D02*
X160070000Y-140978000D01*
X159570000Y-139768000D02*
X159570000Y-140978000D01*
X147850000Y-139768000D02*
X159570000Y-139768000D01*
X147850000Y-140978000D02*
X147850000Y-139768000D01*
X147350000Y-140978000D02*
X147850000Y-140978000D01*
X160070000Y-139268000D02*
X147350000Y-139268000D01*
X160070000Y-143288000D02*
X160070000Y-139268000D01*
X147350000Y-143288000D02*
X160070000Y-143288000D01*
X147350000Y-139268000D02*
X147350000Y-143288000D01*
%TO.C,J8*%
X122018000Y-143588000D02*
X124518000Y-143588000D01*
X122018000Y-141088000D02*
X122018000Y-143588000D01*
X134038000Y-141788000D02*
X134038000Y-143288000D01*
X135038000Y-141788000D02*
X134038000Y-141788000D01*
X123318000Y-141788000D02*
X123318000Y-143288000D01*
X122318000Y-141788000D02*
X123318000Y-141788000D01*
X134538000Y-140978000D02*
X135038000Y-140978000D01*
X134538000Y-139768000D02*
X134538000Y-140978000D01*
X122818000Y-139768000D02*
X134538000Y-139768000D01*
X122818000Y-140978000D02*
X122818000Y-139768000D01*
X122318000Y-140978000D02*
X122818000Y-140978000D01*
X135038000Y-139268000D02*
X122318000Y-139268000D01*
X135038000Y-143288000D02*
X135038000Y-139268000D01*
X122318000Y-143288000D02*
X135038000Y-143288000D01*
X122318000Y-139268000D02*
X122318000Y-143288000D01*
%TO.C,J6*%
X198352000Y-138110000D02*
X198352000Y-135610000D01*
X195852000Y-138110000D02*
X198352000Y-138110000D01*
X196552000Y-128590000D02*
X198052000Y-128590000D01*
X196552000Y-127590000D02*
X196552000Y-128590000D01*
X196552000Y-136810000D02*
X198052000Y-136810000D01*
X196552000Y-137810000D02*
X196552000Y-136810000D01*
X195742000Y-128090000D02*
X195742000Y-127590000D01*
X194532000Y-128090000D02*
X195742000Y-128090000D01*
X194532000Y-137310000D02*
X194532000Y-128090000D01*
X195742000Y-137310000D02*
X194532000Y-137310000D01*
X195742000Y-137810000D02*
X195742000Y-137310000D01*
X194032000Y-127590000D02*
X194032000Y-137810000D01*
X198052000Y-127590000D02*
X194032000Y-127590000D01*
X198052000Y-137810000D02*
X198052000Y-127590000D01*
X194032000Y-137810000D02*
X198052000Y-137810000D01*
%TO.C,J4*%
X198330000Y-125310000D02*
X198330000Y-122810000D01*
X195830000Y-125310000D02*
X198330000Y-125310000D01*
X196530000Y-115790000D02*
X198030000Y-115790000D01*
X196530000Y-114790000D02*
X196530000Y-115790000D01*
X196530000Y-124010000D02*
X198030000Y-124010000D01*
X196530000Y-125010000D02*
X196530000Y-124010000D01*
X195720000Y-115290000D02*
X195720000Y-114790000D01*
X194510000Y-115290000D02*
X195720000Y-115290000D01*
X194510000Y-124510000D02*
X194510000Y-115290000D01*
X195720000Y-124510000D02*
X194510000Y-124510000D01*
X195720000Y-125010000D02*
X195720000Y-124510000D01*
X194010000Y-114790000D02*
X194010000Y-125010000D01*
X198030000Y-114790000D02*
X194010000Y-114790000D01*
X198030000Y-125010000D02*
X198030000Y-114790000D01*
X194010000Y-125010000D02*
X198030000Y-125010000D01*
%TO.C,J2*%
X198352000Y-112510000D02*
X198352000Y-110010000D01*
X195852000Y-112510000D02*
X198352000Y-112510000D01*
X196552000Y-102990000D02*
X198052000Y-102990000D01*
X196552000Y-101990000D02*
X196552000Y-102990000D01*
X196552000Y-111210000D02*
X198052000Y-111210000D01*
X196552000Y-112210000D02*
X196552000Y-111210000D01*
X195742000Y-102490000D02*
X195742000Y-101990000D01*
X194532000Y-102490000D02*
X195742000Y-102490000D01*
X194532000Y-111710000D02*
X194532000Y-102490000D01*
X195742000Y-111710000D02*
X194532000Y-111710000D01*
X195742000Y-112210000D02*
X195742000Y-111710000D01*
X194032000Y-101990000D02*
X194032000Y-112210000D01*
X198052000Y-101990000D02*
X194032000Y-101990000D01*
X198052000Y-112210000D02*
X198052000Y-101990000D01*
X194032000Y-112210000D02*
X198052000Y-112210000D01*
%TO.C,C20*%
X159975250Y-61488250D02*
X159187750Y-61488250D01*
X159581500Y-61094500D02*
X159581500Y-61882000D01*
X155388437Y-62122000D02*
X154324000Y-63186437D01*
X160079563Y-62122000D02*
X161144000Y-63186437D01*
X160079563Y-62122000D02*
X158794000Y-62122000D01*
X155388437Y-62122000D02*
X156674000Y-62122000D01*
X154324000Y-63186437D02*
X154324000Y-68942000D01*
X161144000Y-63186437D02*
X161144000Y-68942000D01*
X161144000Y-68942000D02*
X158794000Y-68942000D01*
X154324000Y-68942000D02*
X156674000Y-68942000D01*
%TO.C,J13*%
X113230000Y-85830000D02*
X110570000Y-85830000D01*
X113230000Y-88430000D02*
X113230000Y-85830000D01*
X110570000Y-88430000D02*
X110570000Y-85830000D01*
X113230000Y-88430000D02*
X110570000Y-88430000D01*
X113230000Y-89700000D02*
X113230000Y-91030000D01*
X113230000Y-91030000D02*
X111900000Y-91030000D01*
%TO.C,J12*%
X109330000Y-85830000D02*
X106670000Y-85830000D01*
X109330000Y-88430000D02*
X109330000Y-85830000D01*
X106670000Y-88430000D02*
X106670000Y-85830000D01*
X109330000Y-88430000D02*
X106670000Y-88430000D01*
X109330000Y-89700000D02*
X109330000Y-91030000D01*
X109330000Y-91030000D02*
X108000000Y-91030000D01*
%TO.C,D4*%
X167512000Y-69514000D02*
X164212000Y-69514000D01*
X164212000Y-69514000D02*
X164212000Y-76414000D01*
X167512000Y-69514000D02*
X167512000Y-76414000D01*
%TO.C,C1*%
X168638748Y-100335000D02*
X169161252Y-100335000D01*
X168638748Y-98865000D02*
X169161252Y-98865000D01*
%TO.C,C2*%
X151825000Y-113320748D02*
X151825000Y-113843252D01*
X150355000Y-113320748D02*
X150355000Y-113843252D01*
%TO.C,C4*%
X153149000Y-113320748D02*
X153149000Y-113843252D01*
X154619000Y-113320748D02*
X154619000Y-113843252D01*
%TO.C,C6*%
X140554457Y-103295010D02*
X140184990Y-102925543D01*
X139515010Y-104334457D02*
X139145543Y-103964990D01*
%TO.C,C7*%
X144165543Y-108814990D02*
X144535010Y-109184457D01*
X145204990Y-107775543D02*
X145574457Y-108145010D01*
%TO.C,C8*%
X135304457Y-99434990D02*
X134934990Y-99804457D01*
X134265010Y-98395543D02*
X133895543Y-98765010D01*
%TO.C,C9*%
X135965010Y-100025543D02*
X135595543Y-100395010D01*
X137004457Y-101064990D02*
X136634990Y-101434457D01*
%TO.C,C10*%
X149031000Y-113320748D02*
X149031000Y-113843252D01*
X147561000Y-113320748D02*
X147561000Y-113843252D01*
%TO.C,C11*%
X139204457Y-92565010D02*
X138834990Y-92195543D01*
X138165010Y-93604457D02*
X137795543Y-93234990D01*
%TO.C,C12*%
X155943000Y-113843252D02*
X155943000Y-113320748D01*
X157413000Y-113843252D02*
X157413000Y-113320748D01*
%TO.C,C13*%
X157295543Y-83165010D02*
X157665010Y-82795543D01*
X158334990Y-84204457D02*
X158704457Y-83834990D01*
%TO.C,C16*%
X170969000Y-71889252D02*
X170969000Y-71366748D01*
X172439000Y-71889252D02*
X172439000Y-71366748D01*
%TO.C,C17*%
X175995000Y-71889252D02*
X175995000Y-71366748D01*
X174525000Y-71889252D02*
X174525000Y-71366748D01*
%TO.C,C18*%
X141973000Y-124765252D02*
X141973000Y-124242748D01*
X143443000Y-124765252D02*
X143443000Y-124242748D01*
%TO.C,C19*%
X159499000Y-124765252D02*
X159499000Y-124242748D01*
X160969000Y-124765252D02*
X160969000Y-124242748D01*
%TO.C,D2*%
X157892000Y-126364000D02*
X157892000Y-123504000D01*
X155972000Y-126364000D02*
X157892000Y-126364000D01*
X155972000Y-123504000D02*
X155972000Y-126364000D01*
%TO.C,D3*%
X135904000Y-64758000D02*
X133044000Y-64758000D01*
X133044000Y-64758000D02*
X133044000Y-66678000D01*
X133044000Y-66678000D02*
X135904000Y-66678000D01*
%TO.C,R2*%
X139179000Y-124276936D02*
X139179000Y-124731064D01*
X140649000Y-124276936D02*
X140649000Y-124731064D01*
%TO.C,R3*%
X162801000Y-124276936D02*
X162801000Y-124731064D01*
X164271000Y-124276936D02*
X164271000Y-124731064D01*
%TO.C,R4*%
X146745000Y-128795064D02*
X146745000Y-128340936D01*
X145275000Y-128795064D02*
X145275000Y-128340936D01*
%TO.C,R5*%
X156197000Y-128795064D02*
X156197000Y-128340936D01*
X157667000Y-128795064D02*
X157667000Y-128340936D01*
%TO.C,R6*%
X130276936Y-61583000D02*
X130731064Y-61583000D01*
X130276936Y-63053000D02*
X130731064Y-63053000D01*
%TO.C,R7*%
X130232936Y-57177000D02*
X130687064Y-57177000D01*
X130232936Y-58647000D02*
X130687064Y-58647000D01*
%TO.C,R8*%
X116735000Y-96452064D02*
X116735000Y-95997936D01*
X115265000Y-96452064D02*
X115265000Y-95997936D01*
%TO.C,R9*%
X115265000Y-111977064D02*
X115265000Y-111522936D01*
X116735000Y-111977064D02*
X116735000Y-111522936D01*
%TO.C,R10*%
X116835000Y-127027064D02*
X116835000Y-126572936D01*
X115365000Y-127027064D02*
X115365000Y-126572936D01*
%TO.C,R11*%
X134716936Y-61583000D02*
X135171064Y-61583000D01*
X134716936Y-63053000D02*
X135171064Y-63053000D01*
%TO.C,SW1*%
X130246000Y-127750000D02*
X134746000Y-127750000D01*
X128996000Y-123750000D02*
X128996000Y-125250000D01*
X134746000Y-121250000D02*
X130246000Y-121250000D01*
X135996000Y-125250000D02*
X135996000Y-123750000D01*
%TO.C,SW2*%
X173588000Y-125250000D02*
X173588000Y-123750000D01*
X172338000Y-121250000D02*
X167838000Y-121250000D01*
X166588000Y-123750000D02*
X166588000Y-125250000D01*
X167838000Y-127750000D02*
X172338000Y-127750000D01*
%TO.C,SW3*%
X136286000Y-58586000D02*
X140786000Y-58586000D01*
X135036000Y-54586000D02*
X135036000Y-56086000D01*
X140786000Y-52086000D02*
X136286000Y-52086000D01*
X142036000Y-56086000D02*
X142036000Y-54586000D01*
%TO.C,U1*%
X162060084Y-97994975D02*
X162555058Y-97500000D01*
X162555058Y-97500000D02*
X162060084Y-97005025D01*
X152994975Y-107060084D02*
X152500000Y-107555058D01*
X152500000Y-107555058D02*
X152005025Y-107060084D01*
X152005025Y-87939916D02*
X152500000Y-87444942D01*
X152500000Y-87444942D02*
X152994975Y-87939916D01*
X142939916Y-97005025D02*
X142444942Y-97500000D01*
X142444942Y-97500000D02*
X142939916Y-97994975D01*
X142939916Y-97994975D02*
X141974716Y-98960176D01*
D13*
%TO.C,U2*%
X112350000Y-57055000D02*
X112350000Y-50375000D01*
X112350000Y-50375000D02*
X125050000Y-50375000D01*
X125050000Y-50375000D02*
X125050000Y-57055000D01*
X112350000Y-76695000D02*
X112350000Y-77375000D01*
X112350000Y-77375000D02*
X112480000Y-77375000D01*
X124920000Y-77375000D02*
X125050000Y-77375000D01*
X125050000Y-77375000D02*
X125050000Y-76695000D01*
D14*
X110800000Y-57700000D02*
G75*
G03*
X110800000Y-57700000I-100000J0D01*
G01*
D12*
%TO.C,U3*%
X164726000Y-60632000D02*
X164726000Y-62132000D01*
X164726000Y-62132000D02*
X165676000Y-62132000D01*
X165676000Y-62132000D02*
X165676000Y-67257000D01*
X175126000Y-60632000D02*
X175126000Y-62132000D01*
X175126000Y-62132000D02*
X174176000Y-62132000D01*
X174176000Y-62132000D02*
X174176000Y-63232000D01*
%TO.C,Y1*%
X138521076Y-105540187D02*
X142940494Y-109959605D01*
X134950187Y-109111076D02*
X139369605Y-113530494D01*
X134950188Y-109111077D02*
G75*
G02*
X138521076Y-105540187I1785444J1785445D01*
G01*
X139369604Y-113530493D02*
G75*
G03*
X142940494Y-109959605I1785445J1785444D01*
G01*
%TO.C,C5*%
D10*
X163909687Y-85520389D02*
X163909687Y-85587732D01*
X163842343Y-85722419D01*
X163775000Y-85789763D01*
X163640312Y-85857106D01*
X163505625Y-85857106D01*
X163404610Y-85823435D01*
X163236251Y-85722419D01*
X163135236Y-85621404D01*
X163034221Y-85453045D01*
X163000549Y-85352030D01*
X163000549Y-85217343D01*
X163067893Y-85082656D01*
X163135236Y-85015312D01*
X163269923Y-84947969D01*
X163337267Y-84947969D01*
X163909687Y-84240862D02*
X163572969Y-84577580D01*
X163876015Y-84947969D01*
X163876015Y-84880625D01*
X163909687Y-84779610D01*
X164078045Y-84611251D01*
X164179061Y-84577580D01*
X164246404Y-84577580D01*
X164347419Y-84611251D01*
X164515778Y-84779610D01*
X164549450Y-84880625D01*
X164549450Y-84947969D01*
X164515778Y-85048984D01*
X164347419Y-85217343D01*
X164246404Y-85251015D01*
X164179061Y-85251015D01*
%TO.C,C3*%
X172133333Y-103057142D02*
X172085714Y-103104761D01*
X171942857Y-103152380D01*
X171847619Y-103152380D01*
X171704761Y-103104761D01*
X171609523Y-103009523D01*
X171561904Y-102914285D01*
X171514285Y-102723809D01*
X171514285Y-102580952D01*
X171561904Y-102390476D01*
X171609523Y-102295238D01*
X171704761Y-102200000D01*
X171847619Y-102152380D01*
X171942857Y-102152380D01*
X172085714Y-102200000D01*
X172133333Y-102247619D01*
X172466666Y-102152380D02*
X173085714Y-102152380D01*
X172752380Y-102533333D01*
X172895238Y-102533333D01*
X172990476Y-102580952D01*
X173038095Y-102628571D01*
X173085714Y-102723809D01*
X173085714Y-102961904D01*
X173038095Y-103057142D01*
X172990476Y-103104761D01*
X172895238Y-103152380D01*
X172609523Y-103152380D01*
X172514285Y-103104761D01*
X172466666Y-103057142D01*
%TO.C,L2*%
X178132380Y-60646666D02*
X178132380Y-61122857D01*
X177132380Y-61122857D01*
X177227619Y-60360952D02*
X177180000Y-60313333D01*
X177132380Y-60218095D01*
X177132380Y-59980000D01*
X177180000Y-59884761D01*
X177227619Y-59837142D01*
X177322857Y-59789523D01*
X177418095Y-59789523D01*
X177560952Y-59837142D01*
X178132380Y-60408571D01*
X178132380Y-59789523D01*
%TO.C,C21*%
X184282142Y-78607142D02*
X184234523Y-78654761D01*
X184091666Y-78702380D01*
X183996428Y-78702380D01*
X183853571Y-78654761D01*
X183758333Y-78559523D01*
X183710714Y-78464285D01*
X183663095Y-78273809D01*
X183663095Y-78130952D01*
X183710714Y-77940476D01*
X183758333Y-77845238D01*
X183853571Y-77750000D01*
X183996428Y-77702380D01*
X184091666Y-77702380D01*
X184234523Y-77750000D01*
X184282142Y-77797619D01*
X184663095Y-77797619D02*
X184710714Y-77750000D01*
X184805952Y-77702380D01*
X185044047Y-77702380D01*
X185139285Y-77750000D01*
X185186904Y-77797619D01*
X185234523Y-77892857D01*
X185234523Y-77988095D01*
X185186904Y-78130952D01*
X184615476Y-78702380D01*
X185234523Y-78702380D01*
X186186904Y-78702380D02*
X185615476Y-78702380D01*
X185901190Y-78702380D02*
X185901190Y-77702380D01*
X185805952Y-77845238D01*
X185710714Y-77940476D01*
X185615476Y-77988095D01*
%TO.C,D1*%
X146452380Y-120738095D02*
X145452380Y-120738095D01*
X145452380Y-120500000D01*
X145500000Y-120357142D01*
X145595238Y-120261904D01*
X145690476Y-120214285D01*
X145880952Y-120166666D01*
X146023809Y-120166666D01*
X146214285Y-120214285D01*
X146309523Y-120261904D01*
X146404761Y-120357142D01*
X146452380Y-120500000D01*
X146452380Y-120738095D01*
X146452380Y-119214285D02*
X146452380Y-119785714D01*
X146452380Y-119500000D02*
X145452380Y-119500000D01*
X145595238Y-119595238D01*
X145690476Y-119690476D01*
X145738095Y-119785714D01*
%TO.C,D6*%
X153452380Y-72638095D02*
X152452380Y-72638095D01*
X152452380Y-72400000D01*
X152500000Y-72257142D01*
X152595238Y-72161904D01*
X152690476Y-72114285D01*
X152880952Y-72066666D01*
X153023809Y-72066666D01*
X153214285Y-72114285D01*
X153309523Y-72161904D01*
X153404761Y-72257142D01*
X153452380Y-72400000D01*
X153452380Y-72638095D01*
X152452380Y-71209523D02*
X152452380Y-71400000D01*
X152500000Y-71495238D01*
X152547619Y-71542857D01*
X152690476Y-71638095D01*
X152880952Y-71685714D01*
X153261904Y-71685714D01*
X153357142Y-71638095D01*
X153404761Y-71590476D01*
X153452380Y-71495238D01*
X153452380Y-71304761D01*
X153404761Y-71209523D01*
X153357142Y-71161904D01*
X153261904Y-71114285D01*
X153023809Y-71114285D01*
X152928571Y-71161904D01*
X152880952Y-71209523D01*
X152833333Y-71304761D01*
X152833333Y-71495238D01*
X152880952Y-71590476D01*
X152928571Y-71638095D01*
X153023809Y-71685714D01*
%TO.C,R15*%
X140125549Y-88465312D02*
X140226564Y-87892893D01*
X139721488Y-88061251D02*
X140428595Y-87354145D01*
X140697969Y-87623519D01*
X140731641Y-87724534D01*
X140731641Y-87791877D01*
X140697969Y-87892893D01*
X140596954Y-87993908D01*
X140495938Y-88027580D01*
X140428595Y-88027580D01*
X140327580Y-87993908D01*
X140058206Y-87724534D01*
X140798984Y-89138748D02*
X140394923Y-88734687D01*
X140596954Y-88936717D02*
X141304061Y-88229610D01*
X141135702Y-88263282D01*
X141001015Y-88263282D01*
X140900000Y-88229610D01*
X142145854Y-89071404D02*
X141809137Y-88734687D01*
X141438748Y-89037732D01*
X141506091Y-89037732D01*
X141607106Y-89071404D01*
X141775465Y-89239763D01*
X141809137Y-89340778D01*
X141809137Y-89408122D01*
X141775465Y-89509137D01*
X141607106Y-89677496D01*
X141506091Y-89711167D01*
X141438748Y-89711167D01*
X141337732Y-89677496D01*
X141169374Y-89509137D01*
X141135702Y-89408122D01*
X141135702Y-89340778D01*
%TO.C,C27*%
X177052142Y-132882142D02*
X177004523Y-132929761D01*
X176861666Y-132977380D01*
X176766428Y-132977380D01*
X176623571Y-132929761D01*
X176528333Y-132834523D01*
X176480714Y-132739285D01*
X176433095Y-132548809D01*
X176433095Y-132405952D01*
X176480714Y-132215476D01*
X176528333Y-132120238D01*
X176623571Y-132025000D01*
X176766428Y-131977380D01*
X176861666Y-131977380D01*
X177004523Y-132025000D01*
X177052142Y-132072619D01*
X177433095Y-132072619D02*
X177480714Y-132025000D01*
X177575952Y-131977380D01*
X177814047Y-131977380D01*
X177909285Y-132025000D01*
X177956904Y-132072619D01*
X178004523Y-132167857D01*
X178004523Y-132263095D01*
X177956904Y-132405952D01*
X177385476Y-132977380D01*
X178004523Y-132977380D01*
X178337857Y-131977380D02*
X179004523Y-131977380D01*
X178575952Y-132977380D01*
%TO.C,C26*%
X177052142Y-135282142D02*
X177004523Y-135329761D01*
X176861666Y-135377380D01*
X176766428Y-135377380D01*
X176623571Y-135329761D01*
X176528333Y-135234523D01*
X176480714Y-135139285D01*
X176433095Y-134948809D01*
X176433095Y-134805952D01*
X176480714Y-134615476D01*
X176528333Y-134520238D01*
X176623571Y-134425000D01*
X176766428Y-134377380D01*
X176861666Y-134377380D01*
X177004523Y-134425000D01*
X177052142Y-134472619D01*
X177433095Y-134472619D02*
X177480714Y-134425000D01*
X177575952Y-134377380D01*
X177814047Y-134377380D01*
X177909285Y-134425000D01*
X177956904Y-134472619D01*
X178004523Y-134567857D01*
X178004523Y-134663095D01*
X177956904Y-134805952D01*
X177385476Y-135377380D01*
X178004523Y-135377380D01*
X178861666Y-134377380D02*
X178671190Y-134377380D01*
X178575952Y-134425000D01*
X178528333Y-134472619D01*
X178433095Y-134615476D01*
X178385476Y-134805952D01*
X178385476Y-135186904D01*
X178433095Y-135282142D01*
X178480714Y-135329761D01*
X178575952Y-135377380D01*
X178766428Y-135377380D01*
X178861666Y-135329761D01*
X178909285Y-135282142D01*
X178956904Y-135186904D01*
X178956904Y-134948809D01*
X178909285Y-134853571D01*
X178861666Y-134805952D01*
X178766428Y-134758333D01*
X178575952Y-134758333D01*
X178480714Y-134805952D01*
X178433095Y-134853571D01*
X178385476Y-134948809D01*
%TO.C,C25*%
X151907142Y-135207142D02*
X151859523Y-135254761D01*
X151716666Y-135302380D01*
X151621428Y-135302380D01*
X151478571Y-135254761D01*
X151383333Y-135159523D01*
X151335714Y-135064285D01*
X151288095Y-134873809D01*
X151288095Y-134730952D01*
X151335714Y-134540476D01*
X151383333Y-134445238D01*
X151478571Y-134350000D01*
X151621428Y-134302380D01*
X151716666Y-134302380D01*
X151859523Y-134350000D01*
X151907142Y-134397619D01*
X152288095Y-134397619D02*
X152335714Y-134350000D01*
X152430952Y-134302380D01*
X152669047Y-134302380D01*
X152764285Y-134350000D01*
X152811904Y-134397619D01*
X152859523Y-134492857D01*
X152859523Y-134588095D01*
X152811904Y-134730952D01*
X152240476Y-135302380D01*
X152859523Y-135302380D01*
X153764285Y-134302380D02*
X153288095Y-134302380D01*
X153240476Y-134778571D01*
X153288095Y-134730952D01*
X153383333Y-134683333D01*
X153621428Y-134683333D01*
X153716666Y-134730952D01*
X153764285Y-134778571D01*
X153811904Y-134873809D01*
X153811904Y-135111904D01*
X153764285Y-135207142D01*
X153716666Y-135254761D01*
X153621428Y-135302380D01*
X153383333Y-135302380D01*
X153288095Y-135254761D01*
X153240476Y-135207142D01*
%TO.C,C24*%
X151857142Y-132807142D02*
X151809523Y-132854761D01*
X151666666Y-132902380D01*
X151571428Y-132902380D01*
X151428571Y-132854761D01*
X151333333Y-132759523D01*
X151285714Y-132664285D01*
X151238095Y-132473809D01*
X151238095Y-132330952D01*
X151285714Y-132140476D01*
X151333333Y-132045238D01*
X151428571Y-131950000D01*
X151571428Y-131902380D01*
X151666666Y-131902380D01*
X151809523Y-131950000D01*
X151857142Y-131997619D01*
X152238095Y-131997619D02*
X152285714Y-131950000D01*
X152380952Y-131902380D01*
X152619047Y-131902380D01*
X152714285Y-131950000D01*
X152761904Y-131997619D01*
X152809523Y-132092857D01*
X152809523Y-132188095D01*
X152761904Y-132330952D01*
X152190476Y-132902380D01*
X152809523Y-132902380D01*
X153666666Y-132235714D02*
X153666666Y-132902380D01*
X153428571Y-131854761D02*
X153190476Y-132569047D01*
X153809523Y-132569047D01*
%TO.C,C23*%
X126857142Y-135307142D02*
X126809523Y-135354761D01*
X126666666Y-135402380D01*
X126571428Y-135402380D01*
X126428571Y-135354761D01*
X126333333Y-135259523D01*
X126285714Y-135164285D01*
X126238095Y-134973809D01*
X126238095Y-134830952D01*
X126285714Y-134640476D01*
X126333333Y-134545238D01*
X126428571Y-134450000D01*
X126571428Y-134402380D01*
X126666666Y-134402380D01*
X126809523Y-134450000D01*
X126857142Y-134497619D01*
X127238095Y-134497619D02*
X127285714Y-134450000D01*
X127380952Y-134402380D01*
X127619047Y-134402380D01*
X127714285Y-134450000D01*
X127761904Y-134497619D01*
X127809523Y-134592857D01*
X127809523Y-134688095D01*
X127761904Y-134830952D01*
X127190476Y-135402380D01*
X127809523Y-135402380D01*
X128142857Y-134402380D02*
X128761904Y-134402380D01*
X128428571Y-134783333D01*
X128571428Y-134783333D01*
X128666666Y-134830952D01*
X128714285Y-134878571D01*
X128761904Y-134973809D01*
X128761904Y-135211904D01*
X128714285Y-135307142D01*
X128666666Y-135354761D01*
X128571428Y-135402380D01*
X128285714Y-135402380D01*
X128190476Y-135354761D01*
X128142857Y-135307142D01*
%TO.C,C22*%
X126857142Y-133007142D02*
X126809523Y-133054761D01*
X126666666Y-133102380D01*
X126571428Y-133102380D01*
X126428571Y-133054761D01*
X126333333Y-132959523D01*
X126285714Y-132864285D01*
X126238095Y-132673809D01*
X126238095Y-132530952D01*
X126285714Y-132340476D01*
X126333333Y-132245238D01*
X126428571Y-132150000D01*
X126571428Y-132102380D01*
X126666666Y-132102380D01*
X126809523Y-132150000D01*
X126857142Y-132197619D01*
X127238095Y-132197619D02*
X127285714Y-132150000D01*
X127380952Y-132102380D01*
X127619047Y-132102380D01*
X127714285Y-132150000D01*
X127761904Y-132197619D01*
X127809523Y-132292857D01*
X127809523Y-132388095D01*
X127761904Y-132530952D01*
X127190476Y-133102380D01*
X127809523Y-133102380D01*
X128190476Y-132197619D02*
X128238095Y-132150000D01*
X128333333Y-132102380D01*
X128571428Y-132102380D01*
X128666666Y-132150000D01*
X128714285Y-132197619D01*
X128761904Y-132292857D01*
X128761904Y-132388095D01*
X128714285Y-132530952D01*
X128142857Y-133102380D01*
X128761904Y-133102380D01*
%TO.C,C15*%
X117777142Y-82042857D02*
X117824761Y-82090476D01*
X117872380Y-82233333D01*
X117872380Y-82328571D01*
X117824761Y-82471428D01*
X117729523Y-82566666D01*
X117634285Y-82614285D01*
X117443809Y-82661904D01*
X117300952Y-82661904D01*
X117110476Y-82614285D01*
X117015238Y-82566666D01*
X116920000Y-82471428D01*
X116872380Y-82328571D01*
X116872380Y-82233333D01*
X116920000Y-82090476D01*
X116967619Y-82042857D01*
X117872380Y-81090476D02*
X117872380Y-81661904D01*
X117872380Y-81376190D02*
X116872380Y-81376190D01*
X117015238Y-81471428D01*
X117110476Y-81566666D01*
X117158095Y-81661904D01*
X116872380Y-80185714D02*
X116872380Y-80661904D01*
X117348571Y-80709523D01*
X117300952Y-80661904D01*
X117253333Y-80566666D01*
X117253333Y-80328571D01*
X117300952Y-80233333D01*
X117348571Y-80185714D01*
X117443809Y-80138095D01*
X117681904Y-80138095D01*
X117777142Y-80185714D01*
X117824761Y-80233333D01*
X117872380Y-80328571D01*
X117872380Y-80566666D01*
X117824761Y-80661904D01*
X117777142Y-80709523D01*
%TO.C,C14*%
X113977142Y-82042857D02*
X114024761Y-82090476D01*
X114072380Y-82233333D01*
X114072380Y-82328571D01*
X114024761Y-82471428D01*
X113929523Y-82566666D01*
X113834285Y-82614285D01*
X113643809Y-82661904D01*
X113500952Y-82661904D01*
X113310476Y-82614285D01*
X113215238Y-82566666D01*
X113120000Y-82471428D01*
X113072380Y-82328571D01*
X113072380Y-82233333D01*
X113120000Y-82090476D01*
X113167619Y-82042857D01*
X114072380Y-81090476D02*
X114072380Y-81661904D01*
X114072380Y-81376190D02*
X113072380Y-81376190D01*
X113215238Y-81471428D01*
X113310476Y-81566666D01*
X113358095Y-81661904D01*
X113405714Y-80233333D02*
X114072380Y-80233333D01*
X113024761Y-80471428D02*
X113739047Y-80709523D01*
X113739047Y-80090476D01*
%TO.C,D7*%
X147152380Y-63338095D02*
X146152380Y-63338095D01*
X146152380Y-63100000D01*
X146200000Y-62957142D01*
X146295238Y-62861904D01*
X146390476Y-62814285D01*
X146580952Y-62766666D01*
X146723809Y-62766666D01*
X146914285Y-62814285D01*
X147009523Y-62861904D01*
X147104761Y-62957142D01*
X147152380Y-63100000D01*
X147152380Y-63338095D01*
X146152380Y-62433333D02*
X146152380Y-61766666D01*
X147152380Y-62195238D01*
%TO.C,R14*%
X146352380Y-72442857D02*
X145876190Y-72776190D01*
X146352380Y-73014285D02*
X145352380Y-73014285D01*
X145352380Y-72633333D01*
X145400000Y-72538095D01*
X145447619Y-72490476D01*
X145542857Y-72442857D01*
X145685714Y-72442857D01*
X145780952Y-72490476D01*
X145828571Y-72538095D01*
X145876190Y-72633333D01*
X145876190Y-73014285D01*
X146352380Y-71490476D02*
X146352380Y-72061904D01*
X146352380Y-71776190D02*
X145352380Y-71776190D01*
X145495238Y-71871428D01*
X145590476Y-71966666D01*
X145638095Y-72061904D01*
X145685714Y-70633333D02*
X146352380Y-70633333D01*
X145304761Y-70871428D02*
X146019047Y-71109523D01*
X146019047Y-70490476D01*
%TO.C,J1*%
X126512145Y-91148398D02*
X126007069Y-91653474D01*
X125872382Y-91720818D01*
X125737695Y-91720818D01*
X125603008Y-91653474D01*
X125535665Y-91586131D01*
X126512145Y-92562612D02*
X126108084Y-92158551D01*
X126310115Y-92360581D02*
X127017222Y-91653474D01*
X126848863Y-91687146D01*
X126714176Y-91687146D01*
X126613161Y-91653474D01*
%TO.C,R1*%
X146452380Y-77466666D02*
X145976190Y-77800000D01*
X146452380Y-78038095D02*
X145452380Y-78038095D01*
X145452380Y-77657142D01*
X145500000Y-77561904D01*
X145547619Y-77514285D01*
X145642857Y-77466666D01*
X145785714Y-77466666D01*
X145880952Y-77514285D01*
X145928571Y-77561904D01*
X145976190Y-77657142D01*
X145976190Y-78038095D01*
X146452380Y-76514285D02*
X146452380Y-77085714D01*
X146452380Y-76800000D02*
X145452380Y-76800000D01*
X145595238Y-76895238D01*
X145690476Y-76990476D01*
X145738095Y-77085714D01*
%TO.C,D5*%
X152952380Y-78938095D02*
X151952380Y-78938095D01*
X151952380Y-78700000D01*
X152000000Y-78557142D01*
X152095238Y-78461904D01*
X152190476Y-78414285D01*
X152380952Y-78366666D01*
X152523809Y-78366666D01*
X152714285Y-78414285D01*
X152809523Y-78461904D01*
X152904761Y-78557142D01*
X152952380Y-78700000D01*
X152952380Y-78938095D01*
X151952380Y-77461904D02*
X151952380Y-77938095D01*
X152428571Y-77985714D01*
X152380952Y-77938095D01*
X152333333Y-77842857D01*
X152333333Y-77604761D01*
X152380952Y-77509523D01*
X152428571Y-77461904D01*
X152523809Y-77414285D01*
X152761904Y-77414285D01*
X152857142Y-77461904D01*
X152904761Y-77509523D01*
X152952380Y-77604761D01*
X152952380Y-77842857D01*
X152904761Y-77938095D01*
X152857142Y-77985714D01*
%TO.C,R13*%
X185232142Y-90902380D02*
X184898809Y-90426190D01*
X184660714Y-90902380D02*
X184660714Y-89902380D01*
X185041666Y-89902380D01*
X185136904Y-89950000D01*
X185184523Y-89997619D01*
X185232142Y-90092857D01*
X185232142Y-90235714D01*
X185184523Y-90330952D01*
X185136904Y-90378571D01*
X185041666Y-90426190D01*
X184660714Y-90426190D01*
X186184523Y-90902380D02*
X185613095Y-90902380D01*
X185898809Y-90902380D02*
X185898809Y-89902380D01*
X185803571Y-90045238D01*
X185708333Y-90140476D01*
X185613095Y-90188095D01*
X186517857Y-89902380D02*
X187136904Y-89902380D01*
X186803571Y-90283333D01*
X186946428Y-90283333D01*
X187041666Y-90330952D01*
X187089285Y-90378571D01*
X187136904Y-90473809D01*
X187136904Y-90711904D01*
X187089285Y-90807142D01*
X187041666Y-90854761D01*
X186946428Y-90902380D01*
X186660714Y-90902380D01*
X186565476Y-90854761D01*
X186517857Y-90807142D01*
%TO.C,R12*%
X185057142Y-97377380D02*
X184723809Y-96901190D01*
X184485714Y-97377380D02*
X184485714Y-96377380D01*
X184866666Y-96377380D01*
X184961904Y-96425000D01*
X185009523Y-96472619D01*
X185057142Y-96567857D01*
X185057142Y-96710714D01*
X185009523Y-96805952D01*
X184961904Y-96853571D01*
X184866666Y-96901190D01*
X184485714Y-96901190D01*
X186009523Y-97377380D02*
X185438095Y-97377380D01*
X185723809Y-97377380D02*
X185723809Y-96377380D01*
X185628571Y-96520238D01*
X185533333Y-96615476D01*
X185438095Y-96663095D01*
X186390476Y-96472619D02*
X186438095Y-96425000D01*
X186533333Y-96377380D01*
X186771428Y-96377380D01*
X186866666Y-96425000D01*
X186914285Y-96472619D01*
X186961904Y-96567857D01*
X186961904Y-96663095D01*
X186914285Y-96805952D01*
X186342857Y-97377380D01*
X186961904Y-97377380D01*
%TO.C,J7*%
X112716666Y-128277380D02*
X112716666Y-128991666D01*
X112669047Y-129134523D01*
X112573809Y-129229761D01*
X112430952Y-129277380D01*
X112335714Y-129277380D01*
X113097619Y-128277380D02*
X113764285Y-128277380D01*
X113335714Y-129277380D01*
%TO.C,J5*%
X112866666Y-113177380D02*
X112866666Y-113891666D01*
X112819047Y-114034523D01*
X112723809Y-114129761D01*
X112580952Y-114177380D01*
X112485714Y-114177380D01*
X113819047Y-113177380D02*
X113342857Y-113177380D01*
X113295238Y-113653571D01*
X113342857Y-113605952D01*
X113438095Y-113558333D01*
X113676190Y-113558333D01*
X113771428Y-113605952D01*
X113819047Y-113653571D01*
X113866666Y-113748809D01*
X113866666Y-113986904D01*
X113819047Y-114082142D01*
X113771428Y-114129761D01*
X113676190Y-114177380D01*
X113438095Y-114177380D01*
X113342857Y-114129761D01*
X113295238Y-114082142D01*
%TO.C,J3*%
X112841666Y-97702380D02*
X112841666Y-98416666D01*
X112794047Y-98559523D01*
X112698809Y-98654761D01*
X112555952Y-98702380D01*
X112460714Y-98702380D01*
X113222619Y-97702380D02*
X113841666Y-97702380D01*
X113508333Y-98083333D01*
X113651190Y-98083333D01*
X113746428Y-98130952D01*
X113794047Y-98178571D01*
X113841666Y-98273809D01*
X113841666Y-98511904D01*
X113794047Y-98607142D01*
X113746428Y-98654761D01*
X113651190Y-98702380D01*
X113365476Y-98702380D01*
X113270238Y-98654761D01*
X113222619Y-98607142D01*
%TO.C,L1*%
X191845333Y-51844380D02*
X191369142Y-51844380D01*
X191369142Y-50844380D01*
X192702476Y-51844380D02*
X192131047Y-51844380D01*
X192416761Y-51844380D02*
X192416761Y-50844380D01*
X192321523Y-50987238D01*
X192226285Y-51082476D01*
X192131047Y-51130095D01*
%TO.C,J16*%
X181965476Y-85702380D02*
X181965476Y-86416666D01*
X181917857Y-86559523D01*
X181822619Y-86654761D01*
X181679761Y-86702380D01*
X181584523Y-86702380D01*
X182965476Y-86702380D02*
X182394047Y-86702380D01*
X182679761Y-86702380D02*
X182679761Y-85702380D01*
X182584523Y-85845238D01*
X182489285Y-85940476D01*
X182394047Y-85988095D01*
X183822619Y-85702380D02*
X183632142Y-85702380D01*
X183536904Y-85750000D01*
X183489285Y-85797619D01*
X183394047Y-85940476D01*
X183346428Y-86130952D01*
X183346428Y-86511904D01*
X183394047Y-86607142D01*
X183441666Y-86654761D01*
X183536904Y-86702380D01*
X183727380Y-86702380D01*
X183822619Y-86654761D01*
X183870238Y-86607142D01*
X183917857Y-86511904D01*
X183917857Y-86273809D01*
X183870238Y-86178571D01*
X183822619Y-86130952D01*
X183727380Y-86083333D01*
X183536904Y-86083333D01*
X183441666Y-86130952D01*
X183394047Y-86178571D01*
X183346428Y-86273809D01*
%TO.C,J9*%
X153416666Y-57377380D02*
X153416666Y-58091666D01*
X153369047Y-58234523D01*
X153273809Y-58329761D01*
X153130952Y-58377380D01*
X153035714Y-58377380D01*
X153940476Y-58377380D02*
X154130952Y-58377380D01*
X154226190Y-58329761D01*
X154273809Y-58282142D01*
X154369047Y-58139285D01*
X154416666Y-57948809D01*
X154416666Y-57567857D01*
X154369047Y-57472619D01*
X154321428Y-57425000D01*
X154226190Y-57377380D01*
X154035714Y-57377380D01*
X153940476Y-57425000D01*
X153892857Y-57472619D01*
X153845238Y-57567857D01*
X153845238Y-57805952D01*
X153892857Y-57901190D01*
X153940476Y-57948809D01*
X154035714Y-57996428D01*
X154226190Y-57996428D01*
X154321428Y-57948809D01*
X154369047Y-57901190D01*
X154416666Y-57805952D01*
%TO.C,J15*%
X191140476Y-68027380D02*
X191140476Y-68741666D01*
X191092857Y-68884523D01*
X190997619Y-68979761D01*
X190854761Y-69027380D01*
X190759523Y-69027380D01*
X192140476Y-69027380D02*
X191569047Y-69027380D01*
X191854761Y-69027380D02*
X191854761Y-68027380D01*
X191759523Y-68170238D01*
X191664285Y-68265476D01*
X191569047Y-68313095D01*
X193045238Y-68027380D02*
X192569047Y-68027380D01*
X192521428Y-68503571D01*
X192569047Y-68455952D01*
X192664285Y-68408333D01*
X192902380Y-68408333D01*
X192997619Y-68455952D01*
X193045238Y-68503571D01*
X193092857Y-68598809D01*
X193092857Y-68836904D01*
X193045238Y-68932142D01*
X192997619Y-68979761D01*
X192902380Y-69027380D01*
X192664285Y-69027380D01*
X192569047Y-68979761D01*
X192521428Y-68932142D01*
%TO.C,J14*%
X190740476Y-84377380D02*
X190740476Y-85091666D01*
X190692857Y-85234523D01*
X190597619Y-85329761D01*
X190454761Y-85377380D01*
X190359523Y-85377380D01*
X191740476Y-85377380D02*
X191169047Y-85377380D01*
X191454761Y-85377380D02*
X191454761Y-84377380D01*
X191359523Y-84520238D01*
X191264285Y-84615476D01*
X191169047Y-84663095D01*
X192597619Y-84710714D02*
X192597619Y-85377380D01*
X192359523Y-84329761D02*
X192121428Y-85044047D01*
X192740476Y-85044047D01*
%TO.C,J11*%
X168640476Y-141052380D02*
X168640476Y-141766666D01*
X168592857Y-141909523D01*
X168497619Y-142004761D01*
X168354761Y-142052380D01*
X168259523Y-142052380D01*
X169640476Y-142052380D02*
X169069047Y-142052380D01*
X169354761Y-142052380D02*
X169354761Y-141052380D01*
X169259523Y-141195238D01*
X169164285Y-141290476D01*
X169069047Y-141338095D01*
X170592857Y-142052380D02*
X170021428Y-142052380D01*
X170307142Y-142052380D02*
X170307142Y-141052380D01*
X170211904Y-141195238D01*
X170116666Y-141290476D01*
X170021428Y-141338095D01*
%TO.C,J10*%
X143540476Y-141077380D02*
X143540476Y-141791666D01*
X143492857Y-141934523D01*
X143397619Y-142029761D01*
X143254761Y-142077380D01*
X143159523Y-142077380D01*
X144540476Y-142077380D02*
X143969047Y-142077380D01*
X144254761Y-142077380D02*
X144254761Y-141077380D01*
X144159523Y-141220238D01*
X144064285Y-141315476D01*
X143969047Y-141363095D01*
X145159523Y-141077380D02*
X145254761Y-141077380D01*
X145350000Y-141125000D01*
X145397619Y-141172619D01*
X145445238Y-141267857D01*
X145492857Y-141458333D01*
X145492857Y-141696428D01*
X145445238Y-141886904D01*
X145397619Y-141982142D01*
X145350000Y-142029761D01*
X145254761Y-142077380D01*
X145159523Y-142077380D01*
X145064285Y-142029761D01*
X145016666Y-141982142D01*
X144969047Y-141886904D01*
X144921428Y-141696428D01*
X144921428Y-141458333D01*
X144969047Y-141267857D01*
X145016666Y-141172619D01*
X145064285Y-141125000D01*
X145159523Y-141077380D01*
%TO.C,J8*%
X119166666Y-141052380D02*
X119166666Y-141766666D01*
X119119047Y-141909523D01*
X119023809Y-142004761D01*
X118880952Y-142052380D01*
X118785714Y-142052380D01*
X119785714Y-141480952D02*
X119690476Y-141433333D01*
X119642857Y-141385714D01*
X119595238Y-141290476D01*
X119595238Y-141242857D01*
X119642857Y-141147619D01*
X119690476Y-141100000D01*
X119785714Y-141052380D01*
X119976190Y-141052380D01*
X120071428Y-141100000D01*
X120119047Y-141147619D01*
X120166666Y-141242857D01*
X120166666Y-141290476D01*
X120119047Y-141385714D01*
X120071428Y-141433333D01*
X119976190Y-141480952D01*
X119785714Y-141480952D01*
X119690476Y-141528571D01*
X119642857Y-141576190D01*
X119595238Y-141671428D01*
X119595238Y-141861904D01*
X119642857Y-141957142D01*
X119690476Y-142004761D01*
X119785714Y-142052380D01*
X119976190Y-142052380D01*
X120071428Y-142004761D01*
X120119047Y-141957142D01*
X120166666Y-141861904D01*
X120166666Y-141671428D01*
X120119047Y-141576190D01*
X120071428Y-141528571D01*
X119976190Y-141480952D01*
%TO.C,J6*%
X190216666Y-130227380D02*
X190216666Y-130941666D01*
X190169047Y-131084523D01*
X190073809Y-131179761D01*
X189930952Y-131227380D01*
X189835714Y-131227380D01*
X191121428Y-130227380D02*
X190930952Y-130227380D01*
X190835714Y-130275000D01*
X190788095Y-130322619D01*
X190692857Y-130465476D01*
X190645238Y-130655952D01*
X190645238Y-131036904D01*
X190692857Y-131132142D01*
X190740476Y-131179761D01*
X190835714Y-131227380D01*
X191026190Y-131227380D01*
X191121428Y-131179761D01*
X191169047Y-131132142D01*
X191216666Y-131036904D01*
X191216666Y-130798809D01*
X191169047Y-130703571D01*
X191121428Y-130655952D01*
X191026190Y-130608333D01*
X190835714Y-130608333D01*
X190740476Y-130655952D01*
X190692857Y-130703571D01*
X190645238Y-130798809D01*
%TO.C,J4*%
X189241666Y-117277380D02*
X189241666Y-117991666D01*
X189194047Y-118134523D01*
X189098809Y-118229761D01*
X188955952Y-118277380D01*
X188860714Y-118277380D01*
X190146428Y-117610714D02*
X190146428Y-118277380D01*
X189908333Y-117229761D02*
X189670238Y-117944047D01*
X190289285Y-117944047D01*
%TO.C,J2*%
X189941666Y-104327380D02*
X189941666Y-105041666D01*
X189894047Y-105184523D01*
X189798809Y-105279761D01*
X189655952Y-105327380D01*
X189560714Y-105327380D01*
X190370238Y-104422619D02*
X190417857Y-104375000D01*
X190513095Y-104327380D01*
X190751190Y-104327380D01*
X190846428Y-104375000D01*
X190894047Y-104422619D01*
X190941666Y-104517857D01*
X190941666Y-104613095D01*
X190894047Y-104755952D01*
X190322619Y-105327380D01*
X190941666Y-105327380D01*
%TO.C,C20*%
X157057142Y-72157142D02*
X157009523Y-72204761D01*
X156866666Y-72252380D01*
X156771428Y-72252380D01*
X156628571Y-72204761D01*
X156533333Y-72109523D01*
X156485714Y-72014285D01*
X156438095Y-71823809D01*
X156438095Y-71680952D01*
X156485714Y-71490476D01*
X156533333Y-71395238D01*
X156628571Y-71300000D01*
X156771428Y-71252380D01*
X156866666Y-71252380D01*
X157009523Y-71300000D01*
X157057142Y-71347619D01*
X157438095Y-71347619D02*
X157485714Y-71300000D01*
X157580952Y-71252380D01*
X157819047Y-71252380D01*
X157914285Y-71300000D01*
X157961904Y-71347619D01*
X158009523Y-71442857D01*
X158009523Y-71538095D01*
X157961904Y-71680952D01*
X157390476Y-72252380D01*
X158009523Y-72252380D01*
X158628571Y-71252380D02*
X158723809Y-71252380D01*
X158819047Y-71300000D01*
X158866666Y-71347619D01*
X158914285Y-71442857D01*
X158961904Y-71633333D01*
X158961904Y-71871428D01*
X158914285Y-72061904D01*
X158866666Y-72157142D01*
X158819047Y-72204761D01*
X158723809Y-72252380D01*
X158628571Y-72252380D01*
X158533333Y-72204761D01*
X158485714Y-72157142D01*
X158438095Y-72061904D01*
X158390476Y-71871428D01*
X158390476Y-71633333D01*
X158438095Y-71442857D01*
X158485714Y-71347619D01*
X158533333Y-71300000D01*
X158628571Y-71252380D01*
%TO.C,J13*%
X111200380Y-84013523D02*
X111914666Y-84013523D01*
X112057523Y-84061142D01*
X112152761Y-84156380D01*
X112200380Y-84299238D01*
X112200380Y-84394476D01*
X112200380Y-83013523D02*
X112200380Y-83584952D01*
X112200380Y-83299238D02*
X111200380Y-83299238D01*
X111343238Y-83394476D01*
X111438476Y-83489714D01*
X111486095Y-83584952D01*
X111200380Y-82680190D02*
X111200380Y-82061142D01*
X111581333Y-82394476D01*
X111581333Y-82251619D01*
X111628952Y-82156380D01*
X111676571Y-82108761D01*
X111771809Y-82061142D01*
X112009904Y-82061142D01*
X112105142Y-82108761D01*
X112152761Y-82156380D01*
X112200380Y-82251619D01*
X112200380Y-82537333D01*
X112152761Y-82632571D01*
X112105142Y-82680190D01*
%TO.C,J12*%
X107552380Y-84109523D02*
X108266666Y-84109523D01*
X108409523Y-84157142D01*
X108504761Y-84252380D01*
X108552380Y-84395238D01*
X108552380Y-84490476D01*
X108552380Y-83109523D02*
X108552380Y-83680952D01*
X108552380Y-83395238D02*
X107552380Y-83395238D01*
X107695238Y-83490476D01*
X107790476Y-83585714D01*
X107838095Y-83680952D01*
X107647619Y-82728571D02*
X107600000Y-82680952D01*
X107552380Y-82585714D01*
X107552380Y-82347619D01*
X107600000Y-82252380D01*
X107647619Y-82204761D01*
X107742857Y-82157142D01*
X107838095Y-82157142D01*
X107980952Y-82204761D01*
X108552380Y-82776190D01*
X108552380Y-82157142D01*
%TO.C,D4*%
X163734380Y-74492095D02*
X162734380Y-74492095D01*
X162734380Y-74254000D01*
X162782000Y-74111142D01*
X162877238Y-74015904D01*
X162972476Y-73968285D01*
X163162952Y-73920666D01*
X163305809Y-73920666D01*
X163496285Y-73968285D01*
X163591523Y-74015904D01*
X163686761Y-74111142D01*
X163734380Y-74254000D01*
X163734380Y-74492095D01*
X163067714Y-73063523D02*
X163734380Y-73063523D01*
X162686761Y-73301619D02*
X163401047Y-73539714D01*
X163401047Y-72920666D01*
%TO.C,C1*%
X168733333Y-98277142D02*
X168685714Y-98324761D01*
X168542857Y-98372380D01*
X168447619Y-98372380D01*
X168304761Y-98324761D01*
X168209523Y-98229523D01*
X168161904Y-98134285D01*
X168114285Y-97943809D01*
X168114285Y-97800952D01*
X168161904Y-97610476D01*
X168209523Y-97515238D01*
X168304761Y-97420000D01*
X168447619Y-97372380D01*
X168542857Y-97372380D01*
X168685714Y-97420000D01*
X168733333Y-97467619D01*
X169685714Y-98372380D02*
X169114285Y-98372380D01*
X169400000Y-98372380D02*
X169400000Y-97372380D01*
X169304761Y-97515238D01*
X169209523Y-97610476D01*
X169114285Y-97658095D01*
%TO.C,C2*%
X151447142Y-116796666D02*
X151494761Y-116844285D01*
X151542380Y-116987142D01*
X151542380Y-117082380D01*
X151494761Y-117225238D01*
X151399523Y-117320476D01*
X151304285Y-117368095D01*
X151113809Y-117415714D01*
X150970952Y-117415714D01*
X150780476Y-117368095D01*
X150685238Y-117320476D01*
X150590000Y-117225238D01*
X150542380Y-117082380D01*
X150542380Y-116987142D01*
X150590000Y-116844285D01*
X150637619Y-116796666D01*
X150637619Y-116415714D02*
X150590000Y-116368095D01*
X150542380Y-116272857D01*
X150542380Y-116034761D01*
X150590000Y-115939523D01*
X150637619Y-115891904D01*
X150732857Y-115844285D01*
X150828095Y-115844285D01*
X150970952Y-115891904D01*
X151542380Y-116463333D01*
X151542380Y-115844285D01*
%TO.C,C4*%
X154241142Y-117050666D02*
X154288761Y-117098285D01*
X154336380Y-117241142D01*
X154336380Y-117336380D01*
X154288761Y-117479238D01*
X154193523Y-117574476D01*
X154098285Y-117622095D01*
X153907809Y-117669714D01*
X153764952Y-117669714D01*
X153574476Y-117622095D01*
X153479238Y-117574476D01*
X153384000Y-117479238D01*
X153336380Y-117336380D01*
X153336380Y-117241142D01*
X153384000Y-117098285D01*
X153431619Y-117050666D01*
X153669714Y-116193523D02*
X154336380Y-116193523D01*
X153288761Y-116431619D02*
X154003047Y-116669714D01*
X154003047Y-116050666D01*
%TO.C,C6*%
X140749610Y-102644687D02*
X140682267Y-102644687D01*
X140547580Y-102577343D01*
X140480236Y-102510000D01*
X140412893Y-102375312D01*
X140412893Y-102240625D01*
X140446564Y-102139610D01*
X140547580Y-101971251D01*
X140648595Y-101870236D01*
X140816954Y-101769221D01*
X140917969Y-101735549D01*
X141052656Y-101735549D01*
X141187343Y-101802893D01*
X141254687Y-101870236D01*
X141322030Y-102004923D01*
X141322030Y-102072267D01*
X141995465Y-102611015D02*
X141860778Y-102476328D01*
X141759763Y-102442656D01*
X141692419Y-102442656D01*
X141524061Y-102476328D01*
X141355702Y-102577343D01*
X141086328Y-102846717D01*
X141052656Y-102947732D01*
X141052656Y-103015076D01*
X141086328Y-103116091D01*
X141221015Y-103250778D01*
X141322030Y-103284450D01*
X141389374Y-103284450D01*
X141490389Y-103250778D01*
X141658748Y-103082419D01*
X141692419Y-102981404D01*
X141692419Y-102914061D01*
X141658748Y-102813045D01*
X141524061Y-102678358D01*
X141423045Y-102644687D01*
X141355702Y-102644687D01*
X141254687Y-102678358D01*
%TO.C,C7*%
X145687549Y-107426748D02*
X145620206Y-107426748D01*
X145485519Y-107359404D01*
X145418175Y-107292061D01*
X145350832Y-107157373D01*
X145350832Y-107022686D01*
X145384503Y-106921671D01*
X145485519Y-106753312D01*
X145586534Y-106652297D01*
X145754893Y-106551282D01*
X145855908Y-106517610D01*
X145990595Y-106517610D01*
X146125282Y-106584954D01*
X146192626Y-106652297D01*
X146259969Y-106786984D01*
X146259969Y-106854328D01*
X146563015Y-107022686D02*
X147034419Y-107494091D01*
X146024267Y-107898152D01*
%TO.C,C8*%
X132669935Y-101619994D02*
X132669935Y-101687337D01*
X132602591Y-101822024D01*
X132535248Y-101889368D01*
X132400560Y-101956711D01*
X132265873Y-101956711D01*
X132164858Y-101923040D01*
X131996499Y-101822024D01*
X131895484Y-101721009D01*
X131794469Y-101552650D01*
X131760797Y-101451635D01*
X131760797Y-101316948D01*
X131828141Y-101182261D01*
X131895484Y-101114917D01*
X132030171Y-101047574D01*
X132097515Y-101047574D01*
X132737278Y-100879215D02*
X132636263Y-100912887D01*
X132568919Y-100912887D01*
X132467904Y-100879215D01*
X132434232Y-100845543D01*
X132400560Y-100744528D01*
X132400560Y-100677185D01*
X132434232Y-100576169D01*
X132568919Y-100441482D01*
X132669935Y-100407811D01*
X132737278Y-100407811D01*
X132838293Y-100441482D01*
X132871965Y-100475154D01*
X132905637Y-100576169D01*
X132905637Y-100643513D01*
X132871965Y-100744528D01*
X132737278Y-100879215D01*
X132703606Y-100980230D01*
X132703606Y-101047574D01*
X132737278Y-101148589D01*
X132871965Y-101283276D01*
X132972980Y-101316948D01*
X133040324Y-101316948D01*
X133141339Y-101283276D01*
X133276026Y-101148589D01*
X133309698Y-101047574D01*
X133309698Y-100980230D01*
X133276026Y-100879215D01*
X133141339Y-100744528D01*
X133040324Y-100710856D01*
X132972980Y-100710856D01*
X132871965Y-100744528D01*
%TO.C,C9*%
X134235585Y-103285349D02*
X134235585Y-103352692D01*
X134168241Y-103487379D01*
X134100898Y-103554723D01*
X133966210Y-103622066D01*
X133831523Y-103622066D01*
X133730508Y-103588395D01*
X133562149Y-103487379D01*
X133461134Y-103386364D01*
X133360119Y-103218005D01*
X133326447Y-103116990D01*
X133326447Y-102982303D01*
X133393791Y-102847616D01*
X133461134Y-102780272D01*
X133595821Y-102712929D01*
X133663165Y-102712929D01*
X134639646Y-103015975D02*
X134774333Y-102881288D01*
X134808004Y-102780272D01*
X134808004Y-102712929D01*
X134774333Y-102544570D01*
X134673317Y-102376211D01*
X134403943Y-102106837D01*
X134302928Y-102073166D01*
X134235585Y-102073166D01*
X134134569Y-102106837D01*
X133999882Y-102241524D01*
X133966210Y-102342540D01*
X133966210Y-102409883D01*
X133999882Y-102510898D01*
X134168241Y-102679257D01*
X134269256Y-102712929D01*
X134336600Y-102712929D01*
X134437615Y-102679257D01*
X134572302Y-102544570D01*
X134605974Y-102443555D01*
X134605974Y-102376211D01*
X134572302Y-102275196D01*
%TO.C,C10*%
X148653142Y-117780857D02*
X148700761Y-117828476D01*
X148748380Y-117971333D01*
X148748380Y-118066571D01*
X148700761Y-118209428D01*
X148605523Y-118304666D01*
X148510285Y-118352285D01*
X148319809Y-118399904D01*
X148176952Y-118399904D01*
X147986476Y-118352285D01*
X147891238Y-118304666D01*
X147796000Y-118209428D01*
X147748380Y-118066571D01*
X147748380Y-117971333D01*
X147796000Y-117828476D01*
X147843619Y-117780857D01*
X148748380Y-116828476D02*
X148748380Y-117399904D01*
X148748380Y-117114190D02*
X147748380Y-117114190D01*
X147891238Y-117209428D01*
X147986476Y-117304666D01*
X148034095Y-117399904D01*
X147748380Y-116209428D02*
X147748380Y-116114190D01*
X147796000Y-116018952D01*
X147843619Y-115971333D01*
X147938857Y-115923714D01*
X148129333Y-115876095D01*
X148367428Y-115876095D01*
X148557904Y-115923714D01*
X148653142Y-115971333D01*
X148700761Y-116018952D01*
X148748380Y-116114190D01*
X148748380Y-116209428D01*
X148700761Y-116304666D01*
X148653142Y-116352285D01*
X148557904Y-116399904D01*
X148367428Y-116447523D01*
X148129333Y-116447523D01*
X147938857Y-116399904D01*
X147843619Y-116352285D01*
X147796000Y-116304666D01*
X147748380Y-116209428D01*
%TO.C,C11*%
X136494893Y-93941969D02*
X136427549Y-93941969D01*
X136292862Y-93874625D01*
X136225519Y-93807282D01*
X136158175Y-93672595D01*
X136158175Y-93537908D01*
X136191847Y-93436893D01*
X136292862Y-93268534D01*
X136393877Y-93167519D01*
X136562236Y-93066503D01*
X136663251Y-93032832D01*
X136797938Y-93032832D01*
X136932625Y-93100175D01*
X136999969Y-93167519D01*
X137067312Y-93302206D01*
X137067312Y-93369549D01*
X137100984Y-94682748D02*
X136696923Y-94278687D01*
X136898954Y-94480717D02*
X137606061Y-93773610D01*
X137437702Y-93807282D01*
X137303015Y-93807282D01*
X137202000Y-93773610D01*
X137774419Y-95356183D02*
X137370358Y-94952122D01*
X137572389Y-95154152D02*
X138279496Y-94447045D01*
X138111137Y-94480717D01*
X137976450Y-94480717D01*
X137875435Y-94447045D01*
%TO.C,C12*%
X157035142Y-117780857D02*
X157082761Y-117828476D01*
X157130380Y-117971333D01*
X157130380Y-118066571D01*
X157082761Y-118209428D01*
X156987523Y-118304666D01*
X156892285Y-118352285D01*
X156701809Y-118399904D01*
X156558952Y-118399904D01*
X156368476Y-118352285D01*
X156273238Y-118304666D01*
X156178000Y-118209428D01*
X156130380Y-118066571D01*
X156130380Y-117971333D01*
X156178000Y-117828476D01*
X156225619Y-117780857D01*
X157130380Y-116828476D02*
X157130380Y-117399904D01*
X157130380Y-117114190D02*
X156130380Y-117114190D01*
X156273238Y-117209428D01*
X156368476Y-117304666D01*
X156416095Y-117399904D01*
X156225619Y-116447523D02*
X156178000Y-116399904D01*
X156130380Y-116304666D01*
X156130380Y-116066571D01*
X156178000Y-115971333D01*
X156225619Y-115923714D01*
X156320857Y-115876095D01*
X156416095Y-115876095D01*
X156558952Y-115923714D01*
X157130380Y-116495142D01*
X157130380Y-115876095D01*
%TO.C,C13*%
X156610030Y-83019167D02*
X156610030Y-83086511D01*
X156542686Y-83221198D01*
X156475343Y-83288541D01*
X156340656Y-83355885D01*
X156205969Y-83355885D01*
X156104954Y-83322213D01*
X155936595Y-83221198D01*
X155835580Y-83120183D01*
X155734564Y-82951824D01*
X155700893Y-82850809D01*
X155700893Y-82716122D01*
X155768236Y-82581435D01*
X155835580Y-82514091D01*
X155970267Y-82446748D01*
X156037610Y-82446748D01*
X157350809Y-82413076D02*
X156946748Y-82817137D01*
X157148778Y-82615106D02*
X156441671Y-81907999D01*
X156475343Y-82076358D01*
X156475343Y-82211045D01*
X156441671Y-82312061D01*
X156879404Y-81470267D02*
X157317137Y-81032534D01*
X157350809Y-81537610D01*
X157451824Y-81436595D01*
X157552839Y-81402923D01*
X157620183Y-81402923D01*
X157721198Y-81436595D01*
X157889557Y-81604954D01*
X157923228Y-81705969D01*
X157923228Y-81773312D01*
X157889557Y-81874328D01*
X157687526Y-82076358D01*
X157586511Y-82110030D01*
X157519167Y-82110030D01*
%TO.C,C16*%
X172032142Y-75917857D02*
X172079761Y-75965476D01*
X172127380Y-76108333D01*
X172127380Y-76203571D01*
X172079761Y-76346428D01*
X171984523Y-76441666D01*
X171889285Y-76489285D01*
X171698809Y-76536904D01*
X171555952Y-76536904D01*
X171365476Y-76489285D01*
X171270238Y-76441666D01*
X171175000Y-76346428D01*
X171127380Y-76203571D01*
X171127380Y-76108333D01*
X171175000Y-75965476D01*
X171222619Y-75917857D01*
X172127380Y-74965476D02*
X172127380Y-75536904D01*
X172127380Y-75251190D02*
X171127380Y-75251190D01*
X171270238Y-75346428D01*
X171365476Y-75441666D01*
X171413095Y-75536904D01*
X171127380Y-74108333D02*
X171127380Y-74298809D01*
X171175000Y-74394047D01*
X171222619Y-74441666D01*
X171365476Y-74536904D01*
X171555952Y-74584523D01*
X171936904Y-74584523D01*
X172032142Y-74536904D01*
X172079761Y-74489285D01*
X172127380Y-74394047D01*
X172127380Y-74203571D01*
X172079761Y-74108333D01*
X172032142Y-74060714D01*
X171936904Y-74013095D01*
X171698809Y-74013095D01*
X171603571Y-74060714D01*
X171555952Y-74108333D01*
X171508333Y-74203571D01*
X171508333Y-74394047D01*
X171555952Y-74489285D01*
X171603571Y-74536904D01*
X171698809Y-74584523D01*
%TO.C,C17*%
X175807142Y-75892857D02*
X175854761Y-75940476D01*
X175902380Y-76083333D01*
X175902380Y-76178571D01*
X175854761Y-76321428D01*
X175759523Y-76416666D01*
X175664285Y-76464285D01*
X175473809Y-76511904D01*
X175330952Y-76511904D01*
X175140476Y-76464285D01*
X175045238Y-76416666D01*
X174950000Y-76321428D01*
X174902380Y-76178571D01*
X174902380Y-76083333D01*
X174950000Y-75940476D01*
X174997619Y-75892857D01*
X175902380Y-74940476D02*
X175902380Y-75511904D01*
X175902380Y-75226190D02*
X174902380Y-75226190D01*
X175045238Y-75321428D01*
X175140476Y-75416666D01*
X175188095Y-75511904D01*
X174902380Y-74607142D02*
X174902380Y-73940476D01*
X175902380Y-74369047D01*
%TO.C,C18*%
X143065142Y-121590857D02*
X143112761Y-121638476D01*
X143160380Y-121781333D01*
X143160380Y-121876571D01*
X143112761Y-122019428D01*
X143017523Y-122114666D01*
X142922285Y-122162285D01*
X142731809Y-122209904D01*
X142588952Y-122209904D01*
X142398476Y-122162285D01*
X142303238Y-122114666D01*
X142208000Y-122019428D01*
X142160380Y-121876571D01*
X142160380Y-121781333D01*
X142208000Y-121638476D01*
X142255619Y-121590857D01*
X143160380Y-120638476D02*
X143160380Y-121209904D01*
X143160380Y-120924190D02*
X142160380Y-120924190D01*
X142303238Y-121019428D01*
X142398476Y-121114666D01*
X142446095Y-121209904D01*
X142588952Y-120067047D02*
X142541333Y-120162285D01*
X142493714Y-120209904D01*
X142398476Y-120257523D01*
X142350857Y-120257523D01*
X142255619Y-120209904D01*
X142208000Y-120162285D01*
X142160380Y-120067047D01*
X142160380Y-119876571D01*
X142208000Y-119781333D01*
X142255619Y-119733714D01*
X142350857Y-119686095D01*
X142398476Y-119686095D01*
X142493714Y-119733714D01*
X142541333Y-119781333D01*
X142588952Y-119876571D01*
X142588952Y-120067047D01*
X142636571Y-120162285D01*
X142684190Y-120209904D01*
X142779428Y-120257523D01*
X142969904Y-120257523D01*
X143065142Y-120209904D01*
X143112761Y-120162285D01*
X143160380Y-120067047D01*
X143160380Y-119876571D01*
X143112761Y-119781333D01*
X143065142Y-119733714D01*
X142969904Y-119686095D01*
X142779428Y-119686095D01*
X142684190Y-119733714D01*
X142636571Y-119781333D01*
X142588952Y-119876571D01*
%TO.C,C19*%
X160591142Y-121590857D02*
X160638761Y-121638476D01*
X160686380Y-121781333D01*
X160686380Y-121876571D01*
X160638761Y-122019428D01*
X160543523Y-122114666D01*
X160448285Y-122162285D01*
X160257809Y-122209904D01*
X160114952Y-122209904D01*
X159924476Y-122162285D01*
X159829238Y-122114666D01*
X159734000Y-122019428D01*
X159686380Y-121876571D01*
X159686380Y-121781333D01*
X159734000Y-121638476D01*
X159781619Y-121590857D01*
X160686380Y-120638476D02*
X160686380Y-121209904D01*
X160686380Y-120924190D02*
X159686380Y-120924190D01*
X159829238Y-121019428D01*
X159924476Y-121114666D01*
X159972095Y-121209904D01*
X160686380Y-120162285D02*
X160686380Y-119971809D01*
X160638761Y-119876571D01*
X160591142Y-119828952D01*
X160448285Y-119733714D01*
X160257809Y-119686095D01*
X159876857Y-119686095D01*
X159781619Y-119733714D01*
X159734000Y-119781333D01*
X159686380Y-119876571D01*
X159686380Y-120067047D01*
X159734000Y-120162285D01*
X159781619Y-120209904D01*
X159876857Y-120257523D01*
X160114952Y-120257523D01*
X160210190Y-120209904D01*
X160257809Y-120162285D01*
X160305428Y-120067047D01*
X160305428Y-119876571D01*
X160257809Y-119781333D01*
X160210190Y-119733714D01*
X160114952Y-119686095D01*
%TO.C,D2*%
X157384380Y-122194095D02*
X156384380Y-122194095D01*
X156384380Y-121956000D01*
X156432000Y-121813142D01*
X156527238Y-121717904D01*
X156622476Y-121670285D01*
X156812952Y-121622666D01*
X156955809Y-121622666D01*
X157146285Y-121670285D01*
X157241523Y-121717904D01*
X157336761Y-121813142D01*
X157384380Y-121956000D01*
X157384380Y-122194095D01*
X156479619Y-121241714D02*
X156432000Y-121194095D01*
X156384380Y-121098857D01*
X156384380Y-120860761D01*
X156432000Y-120765523D01*
X156479619Y-120717904D01*
X156574857Y-120670285D01*
X156670095Y-120670285D01*
X156812952Y-120717904D01*
X157384380Y-121289333D01*
X157384380Y-120670285D01*
%TO.C,D3*%
X134261904Y-68252380D02*
X134261904Y-67252380D01*
X134500000Y-67252380D01*
X134642857Y-67300000D01*
X134738095Y-67395238D01*
X134785714Y-67490476D01*
X134833333Y-67680952D01*
X134833333Y-67823809D01*
X134785714Y-68014285D01*
X134738095Y-68109523D01*
X134642857Y-68204761D01*
X134500000Y-68252380D01*
X134261904Y-68252380D01*
X135166666Y-67252380D02*
X135785714Y-67252380D01*
X135452380Y-67633333D01*
X135595238Y-67633333D01*
X135690476Y-67680952D01*
X135738095Y-67728571D01*
X135785714Y-67823809D01*
X135785714Y-68061904D01*
X135738095Y-68157142D01*
X135690476Y-68204761D01*
X135595238Y-68252380D01*
X135309523Y-68252380D01*
X135214285Y-68204761D01*
X135166666Y-68157142D01*
%TO.C,R2*%
X140366380Y-121622666D02*
X139890190Y-121956000D01*
X140366380Y-122194095D02*
X139366380Y-122194095D01*
X139366380Y-121813142D01*
X139414000Y-121717904D01*
X139461619Y-121670285D01*
X139556857Y-121622666D01*
X139699714Y-121622666D01*
X139794952Y-121670285D01*
X139842571Y-121717904D01*
X139890190Y-121813142D01*
X139890190Y-122194095D01*
X139461619Y-121241714D02*
X139414000Y-121194095D01*
X139366380Y-121098857D01*
X139366380Y-120860761D01*
X139414000Y-120765523D01*
X139461619Y-120717904D01*
X139556857Y-120670285D01*
X139652095Y-120670285D01*
X139794952Y-120717904D01*
X140366380Y-121289333D01*
X140366380Y-120670285D01*
%TO.C,R3*%
X163988380Y-121641666D02*
X163512190Y-121975000D01*
X163988380Y-122213095D02*
X162988380Y-122213095D01*
X162988380Y-121832142D01*
X163036000Y-121736904D01*
X163083619Y-121689285D01*
X163178857Y-121641666D01*
X163321714Y-121641666D01*
X163416952Y-121689285D01*
X163464571Y-121736904D01*
X163512190Y-121832142D01*
X163512190Y-122213095D01*
X162988380Y-121308333D02*
X162988380Y-120689285D01*
X163369333Y-121022619D01*
X163369333Y-120879761D01*
X163416952Y-120784523D01*
X163464571Y-120736904D01*
X163559809Y-120689285D01*
X163797904Y-120689285D01*
X163893142Y-120736904D01*
X163940761Y-120784523D01*
X163988380Y-120879761D01*
X163988380Y-121165476D01*
X163940761Y-121260714D01*
X163893142Y-121308333D01*
%TO.C,R4*%
X144627380Y-128734666D02*
X144151190Y-129068000D01*
X144627380Y-129306095D02*
X143627380Y-129306095D01*
X143627380Y-128925142D01*
X143675000Y-128829904D01*
X143722619Y-128782285D01*
X143817857Y-128734666D01*
X143960714Y-128734666D01*
X144055952Y-128782285D01*
X144103571Y-128829904D01*
X144151190Y-128925142D01*
X144151190Y-129306095D01*
X143960714Y-127877523D02*
X144627380Y-127877523D01*
X143579761Y-128115619D02*
X144294047Y-128353714D01*
X144294047Y-127734666D01*
%TO.C,R5*%
X155652380Y-128734666D02*
X155176190Y-129068000D01*
X155652380Y-129306095D02*
X154652380Y-129306095D01*
X154652380Y-128925142D01*
X154700000Y-128829904D01*
X154747619Y-128782285D01*
X154842857Y-128734666D01*
X154985714Y-128734666D01*
X155080952Y-128782285D01*
X155128571Y-128829904D01*
X155176190Y-128925142D01*
X155176190Y-129306095D01*
X154652380Y-127829904D02*
X154652380Y-128306095D01*
X155128571Y-128353714D01*
X155080952Y-128306095D01*
X155033333Y-128210857D01*
X155033333Y-127972761D01*
X155080952Y-127877523D01*
X155128571Y-127829904D01*
X155223809Y-127782285D01*
X155461904Y-127782285D01*
X155557142Y-127829904D01*
X155604761Y-127877523D01*
X155652380Y-127972761D01*
X155652380Y-128210857D01*
X155604761Y-128306095D01*
X155557142Y-128353714D01*
%TO.C,R6*%
X130337333Y-61120380D02*
X130004000Y-60644190D01*
X129765904Y-61120380D02*
X129765904Y-60120380D01*
X130146857Y-60120380D01*
X130242095Y-60168000D01*
X130289714Y-60215619D01*
X130337333Y-60310857D01*
X130337333Y-60453714D01*
X130289714Y-60548952D01*
X130242095Y-60596571D01*
X130146857Y-60644190D01*
X129765904Y-60644190D01*
X131194476Y-60120380D02*
X131004000Y-60120380D01*
X130908761Y-60168000D01*
X130861142Y-60215619D01*
X130765904Y-60358476D01*
X130718285Y-60548952D01*
X130718285Y-60929904D01*
X130765904Y-61025142D01*
X130813523Y-61072761D01*
X130908761Y-61120380D01*
X131099238Y-61120380D01*
X131194476Y-61072761D01*
X131242095Y-61025142D01*
X131289714Y-60929904D01*
X131289714Y-60691809D01*
X131242095Y-60596571D01*
X131194476Y-60548952D01*
X131099238Y-60501333D01*
X130908761Y-60501333D01*
X130813523Y-60548952D01*
X130765904Y-60596571D01*
X130718285Y-60691809D01*
%TO.C,R7*%
X130293333Y-56714380D02*
X129960000Y-56238190D01*
X129721904Y-56714380D02*
X129721904Y-55714380D01*
X130102857Y-55714380D01*
X130198095Y-55762000D01*
X130245714Y-55809619D01*
X130293333Y-55904857D01*
X130293333Y-56047714D01*
X130245714Y-56142952D01*
X130198095Y-56190571D01*
X130102857Y-56238190D01*
X129721904Y-56238190D01*
X130626666Y-55714380D02*
X131293333Y-55714380D01*
X130864761Y-56714380D01*
%TO.C,R8*%
X118452380Y-96291666D02*
X117976190Y-96625000D01*
X118452380Y-96863095D02*
X117452380Y-96863095D01*
X117452380Y-96482142D01*
X117500000Y-96386904D01*
X117547619Y-96339285D01*
X117642857Y-96291666D01*
X117785714Y-96291666D01*
X117880952Y-96339285D01*
X117928571Y-96386904D01*
X117976190Y-96482142D01*
X117976190Y-96863095D01*
X117880952Y-95720238D02*
X117833333Y-95815476D01*
X117785714Y-95863095D01*
X117690476Y-95910714D01*
X117642857Y-95910714D01*
X117547619Y-95863095D01*
X117500000Y-95815476D01*
X117452380Y-95720238D01*
X117452380Y-95529761D01*
X117500000Y-95434523D01*
X117547619Y-95386904D01*
X117642857Y-95339285D01*
X117690476Y-95339285D01*
X117785714Y-95386904D01*
X117833333Y-95434523D01*
X117880952Y-95529761D01*
X117880952Y-95720238D01*
X117928571Y-95815476D01*
X117976190Y-95863095D01*
X118071428Y-95910714D01*
X118261904Y-95910714D01*
X118357142Y-95863095D01*
X118404761Y-95815476D01*
X118452380Y-95720238D01*
X118452380Y-95529761D01*
X118404761Y-95434523D01*
X118357142Y-95386904D01*
X118261904Y-95339285D01*
X118071428Y-95339285D01*
X117976190Y-95386904D01*
X117928571Y-95434523D01*
X117880952Y-95529761D01*
%TO.C,R9*%
X118452380Y-111916666D02*
X117976190Y-112250000D01*
X118452380Y-112488095D02*
X117452380Y-112488095D01*
X117452380Y-112107142D01*
X117500000Y-112011904D01*
X117547619Y-111964285D01*
X117642857Y-111916666D01*
X117785714Y-111916666D01*
X117880952Y-111964285D01*
X117928571Y-112011904D01*
X117976190Y-112107142D01*
X117976190Y-112488095D01*
X118452380Y-111440476D02*
X118452380Y-111250000D01*
X118404761Y-111154761D01*
X118357142Y-111107142D01*
X118214285Y-111011904D01*
X118023809Y-110964285D01*
X117642857Y-110964285D01*
X117547619Y-111011904D01*
X117500000Y-111059523D01*
X117452380Y-111154761D01*
X117452380Y-111345238D01*
X117500000Y-111440476D01*
X117547619Y-111488095D01*
X117642857Y-111535714D01*
X117880952Y-111535714D01*
X117976190Y-111488095D01*
X118023809Y-111440476D01*
X118071428Y-111345238D01*
X118071428Y-111154761D01*
X118023809Y-111059523D01*
X117976190Y-111011904D01*
X117880952Y-110964285D01*
%TO.C,R10*%
X118552380Y-127442857D02*
X118076190Y-127776190D01*
X118552380Y-128014285D02*
X117552380Y-128014285D01*
X117552380Y-127633333D01*
X117600000Y-127538095D01*
X117647619Y-127490476D01*
X117742857Y-127442857D01*
X117885714Y-127442857D01*
X117980952Y-127490476D01*
X118028571Y-127538095D01*
X118076190Y-127633333D01*
X118076190Y-128014285D01*
X118552380Y-126490476D02*
X118552380Y-127061904D01*
X118552380Y-126776190D02*
X117552380Y-126776190D01*
X117695238Y-126871428D01*
X117790476Y-126966666D01*
X117838095Y-127061904D01*
X117552380Y-125871428D02*
X117552380Y-125776190D01*
X117600000Y-125680952D01*
X117647619Y-125633333D01*
X117742857Y-125585714D01*
X117933333Y-125538095D01*
X118171428Y-125538095D01*
X118361904Y-125585714D01*
X118457142Y-125633333D01*
X118504761Y-125680952D01*
X118552380Y-125776190D01*
X118552380Y-125871428D01*
X118504761Y-125966666D01*
X118457142Y-126014285D01*
X118361904Y-126061904D01*
X118171428Y-126109523D01*
X117933333Y-126109523D01*
X117742857Y-126061904D01*
X117647619Y-126014285D01*
X117600000Y-125966666D01*
X117552380Y-125871428D01*
%TO.C,R11*%
X134301142Y-61120380D02*
X133967809Y-60644190D01*
X133729714Y-61120380D02*
X133729714Y-60120380D01*
X134110666Y-60120380D01*
X134205904Y-60168000D01*
X134253523Y-60215619D01*
X134301142Y-60310857D01*
X134301142Y-60453714D01*
X134253523Y-60548952D01*
X134205904Y-60596571D01*
X134110666Y-60644190D01*
X133729714Y-60644190D01*
X135253523Y-61120380D02*
X134682095Y-61120380D01*
X134967809Y-61120380D02*
X134967809Y-60120380D01*
X134872571Y-60263238D01*
X134777333Y-60358476D01*
X134682095Y-60406095D01*
X136205904Y-61120380D02*
X135634476Y-61120380D01*
X135920190Y-61120380D02*
X135920190Y-60120380D01*
X135824952Y-60263238D01*
X135729714Y-60358476D01*
X135634476Y-60406095D01*
%TO.C,SW1*%
X131066666Y-130004761D02*
X131209523Y-130052380D01*
X131447619Y-130052380D01*
X131542857Y-130004761D01*
X131590476Y-129957142D01*
X131638095Y-129861904D01*
X131638095Y-129766666D01*
X131590476Y-129671428D01*
X131542857Y-129623809D01*
X131447619Y-129576190D01*
X131257142Y-129528571D01*
X131161904Y-129480952D01*
X131114285Y-129433333D01*
X131066666Y-129338095D01*
X131066666Y-129242857D01*
X131114285Y-129147619D01*
X131161904Y-129100000D01*
X131257142Y-129052380D01*
X131495238Y-129052380D01*
X131638095Y-129100000D01*
X131971428Y-129052380D02*
X132209523Y-130052380D01*
X132400000Y-129338095D01*
X132590476Y-130052380D01*
X132828571Y-129052380D01*
X133733333Y-130052380D02*
X133161904Y-130052380D01*
X133447619Y-130052380D02*
X133447619Y-129052380D01*
X133352380Y-129195238D01*
X133257142Y-129290476D01*
X133161904Y-129338095D01*
%TO.C,SW2*%
X168754666Y-130004761D02*
X168897523Y-130052380D01*
X169135619Y-130052380D01*
X169230857Y-130004761D01*
X169278476Y-129957142D01*
X169326095Y-129861904D01*
X169326095Y-129766666D01*
X169278476Y-129671428D01*
X169230857Y-129623809D01*
X169135619Y-129576190D01*
X168945142Y-129528571D01*
X168849904Y-129480952D01*
X168802285Y-129433333D01*
X168754666Y-129338095D01*
X168754666Y-129242857D01*
X168802285Y-129147619D01*
X168849904Y-129100000D01*
X168945142Y-129052380D01*
X169183238Y-129052380D01*
X169326095Y-129100000D01*
X169659428Y-129052380D02*
X169897523Y-130052380D01*
X170088000Y-129338095D01*
X170278476Y-130052380D01*
X170516571Y-129052380D01*
X170849904Y-129147619D02*
X170897523Y-129100000D01*
X170992761Y-129052380D01*
X171230857Y-129052380D01*
X171326095Y-129100000D01*
X171373714Y-129147619D01*
X171421333Y-129242857D01*
X171421333Y-129338095D01*
X171373714Y-129480952D01*
X170802285Y-130052380D01*
X171421333Y-130052380D01*
%TO.C,SW3*%
X138466666Y-60904761D02*
X138609523Y-60952380D01*
X138847619Y-60952380D01*
X138942857Y-60904761D01*
X138990476Y-60857142D01*
X139038095Y-60761904D01*
X139038095Y-60666666D01*
X138990476Y-60571428D01*
X138942857Y-60523809D01*
X138847619Y-60476190D01*
X138657142Y-60428571D01*
X138561904Y-60380952D01*
X138514285Y-60333333D01*
X138466666Y-60238095D01*
X138466666Y-60142857D01*
X138514285Y-60047619D01*
X138561904Y-60000000D01*
X138657142Y-59952380D01*
X138895238Y-59952380D01*
X139038095Y-60000000D01*
X139371428Y-59952380D02*
X139609523Y-60952380D01*
X139800000Y-60238095D01*
X139990476Y-60952380D01*
X140228571Y-59952380D01*
X140514285Y-59952380D02*
X141133333Y-59952380D01*
X140800000Y-60333333D01*
X140942857Y-60333333D01*
X141038095Y-60380952D01*
X141085714Y-60428571D01*
X141133333Y-60523809D01*
X141133333Y-60761904D01*
X141085714Y-60857142D01*
X141038095Y-60904761D01*
X140942857Y-60952380D01*
X140657142Y-60952380D01*
X140561904Y-60904761D01*
X140514285Y-60857142D01*
%TO.C,U1*%
X139674026Y-97651522D02*
X140246446Y-98223942D01*
X140347461Y-98257614D01*
X140414805Y-98257614D01*
X140515820Y-98223942D01*
X140650507Y-98089255D01*
X140684179Y-97988240D01*
X140684179Y-97920896D01*
X140650507Y-97819881D01*
X140078087Y-97247461D01*
X141492301Y-97247461D02*
X141088240Y-97651522D01*
X141290270Y-97449492D02*
X140583164Y-96742385D01*
X140616835Y-96910744D01*
X140616835Y-97045431D01*
X140583164Y-97146446D01*
%TO.C,U2*%
X126790176Y-50954314D02*
X126790176Y-51521501D01*
X126823540Y-51588229D01*
X126856904Y-51621593D01*
X126923632Y-51654957D01*
X127057088Y-51654957D01*
X127123816Y-51621593D01*
X127157180Y-51588229D01*
X127190544Y-51521501D01*
X127190544Y-50954314D01*
X127490819Y-51021042D02*
X127524183Y-50987678D01*
X127590911Y-50954314D01*
X127757731Y-50954314D01*
X127824459Y-50987678D01*
X127857823Y-51021042D01*
X127891187Y-51087770D01*
X127891187Y-51154498D01*
X127857823Y-51254590D01*
X127457455Y-51654957D01*
X127891187Y-51654957D01*
%TO.C,U3*%
X162038095Y-53752380D02*
X162038095Y-54561904D01*
X162085714Y-54657142D01*
X162133333Y-54704761D01*
X162228571Y-54752380D01*
X162419047Y-54752380D01*
X162514285Y-54704761D01*
X162561904Y-54657142D01*
X162609523Y-54561904D01*
X162609523Y-53752380D01*
X162990476Y-53752380D02*
X163609523Y-53752380D01*
X163276190Y-54133333D01*
X163419047Y-54133333D01*
X163514285Y-54180952D01*
X163561904Y-54228571D01*
X163609523Y-54323809D01*
X163609523Y-54561904D01*
X163561904Y-54657142D01*
X163514285Y-54704761D01*
X163419047Y-54752380D01*
X163133333Y-54752380D01*
X163038095Y-54704761D01*
X162990476Y-54657142D01*
%TO.C,Y1*%
X135480118Y-111546446D02*
X135143400Y-111883164D01*
X135614805Y-110940355D02*
X135480118Y-111546446D01*
X136086209Y-111411759D01*
X135985194Y-112724957D02*
X135581133Y-112320896D01*
X135783164Y-112522927D02*
X136490270Y-111815820D01*
X136321912Y-111849492D01*
X136187225Y-111849492D01*
X136086209Y-111815820D01*
%TD*%
M02*
