M48
; DRILL file {KiCad (5.1.10)-1} date 10/14/21 00:36:59
; FORMAT={-:-/ absolute / inch / decimal}
; #@! TF.CreationDate,2021-10-14T00:36:59-03:00
; #@! TF.GenerationSoftware,Kicad,Pcbnew,(5.1.10)-1
; #@! TF.FileFunction,Plated,1,2,PTH
FMAT,2
INCH
T1C0.0157
T2C0.0197
T3C0.0315
T4C0.0374
T5C0.0394
T6C0.0433
T7C0.1378
%
G90
G05
T1
X4.6181Y-3.3504
X5.3543Y-3.7244
X5.4764Y-3.8346
X5.6181Y-3.5039
X5.6181Y-3.5472
X5.6654Y-5.185
X5.6791Y-3.6122
X5.7717Y-3.4213
X5.7717Y-3.4685
X5.8189Y-3.7244
X5.8189Y-3.7913
X5.8189Y-3.8701
X5.8189Y-3.9291
X5.8661Y-3.685
X5.9311Y-3.685
X5.9331Y-3.185
X5.9488Y-4.6693
X6.0276Y-3.2441
X6.0276Y-3.2874
X6.0394Y-3.7598
X6.0394Y-4.1024
X6.1024Y-3.3228
X6.1063Y-3.7953
X6.1929Y-4.2992
X6.2283Y-3.752
X6.2323Y-4.2165
X6.252Y-4.4134
X6.2608Y-3.7864
X6.2677Y-4.122
X6.2992Y-4.4134
X6.3465Y-4.4134
X6.374Y-4.0394
X6.3898Y-4.4134
X6.4094Y-4.1063
X6.4331Y-4.4134
X6.4764Y-4.4134
X6.5354Y-4.185
X6.5354Y-4.5315
X6.5394Y-3.9213
X6.6417Y-4.185
X6.6417Y-4.5315
X7.2126Y-3.6417
X7.2126Y-3.7323
T2
X5.9764Y-4.2835
X6.0315Y-4.2835
T3
X5.4024Y-4.2445
X5.5382Y-4.3803
X6.3504Y-3.315
X6.42Y-3.2454
X6.6024Y-4.0425
X6.7008Y-4.0425
X7.2913Y-2.7992
X7.2913Y-2.937
T4
X4.3005Y-3.828
X4.3005Y-3.9265
X4.3005Y-4.0249
X4.3005Y-4.438
X4.3005Y-4.5365
X4.3005Y-4.6349
X4.3005Y-5.0311
X4.3005Y-5.1295
X4.3005Y-5.228
X4.9184Y-5.5503
X5.0169Y-5.5503
X5.1153Y-5.5503
X5.2137Y-5.5503
X5.9039Y-5.5503
X6.0024Y-5.5503
X6.1008Y-5.5503
X6.1992Y-5.5503
X6.8984Y-5.5503
X6.9969Y-5.5503
X7.0953Y-5.5503
X7.1937Y-5.5503
X7.7055Y-4.622
X7.7055Y-4.7205
X7.7055Y-4.8189
X7.7058Y-3.4347
X7.7058Y-3.5331
X7.7058Y-3.6316
X7.7058Y-3.73
X7.7064Y-2.8147
X7.7064Y-2.9131
X7.7064Y-3.0116
X7.7064Y-3.11
X7.7064Y-4.1181
X7.7064Y-4.2165
X7.7064Y-4.315
X7.7064Y-5.126
X7.7064Y-5.2244
X7.7064Y-5.3228
T5
X4.252Y-3.4315
X4.252Y-3.5315
X4.4055Y-3.4315
X4.4055Y-3.5315
X5.1093Y-3.4079
X5.18Y-3.3372
X5.18Y-3.4786
X5.2507Y-3.2665
X5.2507Y-3.4079
X5.3214Y-3.1957
X5.3214Y-3.3372
X5.3921Y-3.125
X5.3921Y-3.2665
X5.4628Y-3.1957
X5.9716Y-2.1496
X6.07Y-2.1496
X6.663Y-3.3583
X6.663Y-3.4583
X6.763Y-3.3583
X6.763Y-3.4583
X6.863Y-3.3583
X6.863Y-3.4583
X6.963Y-3.3583
X6.963Y-3.4583
X7.063Y-3.3583
X7.063Y-3.4583
X7.1181Y-2.0811
X7.1181Y-2.6811
T6
X5.0884Y-4.813
X5.0884Y-4.9902
X5.3262Y-2.09
X5.3262Y-2.2672
X5.3443Y-4.813
X5.3443Y-4.9902
X5.5821Y-2.09
X5.5821Y-2.2672
X6.5684Y-4.813
X6.5684Y-4.9902
X6.8243Y-4.813
X6.8243Y-4.9902
T7
X4.252Y-2.0866
X4.252Y-5.5906
X7.7559Y-5.5906
T0
M30
