  0
SECTION
  2
HEADER
  9
$ACADVER
  1
AC1006
  9
$EXTMIN
 10
0.000000
 20
0.000000
 30
0.000000
  9
$EXTMAX
 10
217.000000
 20
232.000000
 30
0.000000
  0
ENDSEC
  0
SECTION
  2
ENTITIES
  0
POLYLINE
  8
0
 66
1
 70
1
  0
VERTEX
  8
0
 10
0.000000
 20
116.000000
 42
0.000000
  0
VERTEX
  8
0
 10
0.000000
 20
0.000000
 42
0.000000
  0
VERTEX
  8
0
 10
108.500000
 20
0.000000
 42
0.000000
  0
VERTEX
  8
0
 10
217.000000
 20
0.000000
 42
0.000000
  0
VERTEX
  8
0
 10
217.000000
 20
116.000000
 42
0.000000
  0
VERTEX
  8
0
 10
217.000000
 20
232.000000
 42
0.000000
  0
VERTEX
  8
0
 10
108.500000
 20
232.000000
 42
0.000000
  0
VERTEX
  8
0
 10
0.000000
 20
232.000000
 42
0.000000
  0
SEQEND
  0
POLYLINE
  8
0
 66
1
 70
1
  0
VERTEX
  8
0
 10
55.909268
 20
212.055654
 42
0.059533
  0
VERTEX
  8
0
 10
59.089825
 20
202.234266
 42
0.047256
  0
VERTEX
  8
0
 10
64.698090
 20
192.586300
 42
0.047308
  0
VERTEX
  8
0
 10
72.009603
 20
184.174518
 42
0.060075
  0
VERTEX
  8
0
 10
80.252752
 20
178.028040
 42
0.005609
  0
VERTEX
  8
0
 10
82.317566
 20
176.874463
 42
0.007988
  0
VERTEX
  8
0
 10
84.178933
 20
175.899985
 42
0.004860
  0
VERTEX
  8
0
 10
85.757594
 20
175.124519
 42
0.109021
  0
VERTEX
  8
0
 10
86.250000
 20
175.009384
 42
0.406298
  0
VERTEX
  8
0
 10
86.555240
 20
175.299114
 42
0.001191
  0
VERTEX
  8
0
 10
86.779687
 20
181.324724
 42
0.005447
  0
VERTEX
  8
0
 10
86.946101
 20
188.269852
 42
0.003266
  0
VERTEX
  8
0
 10
87.000000
 20
196.521593
 42
0.000000
  0
VERTEX
  8
0
 10
87.000000
 20
218.043186
 42
0.000000
  0
VERTEX
  8
0
 10
106.250000
 20
217.771593
 42
0.000000
  0
VERTEX
  8
0
 10
125.500000
 20
217.500000
 42
0.000000
  0
VERTEX
  8
0
 10
125.770176
 20
196.150754
 42
0.001976
  0
VERTEX
  8
0
 10
126.048702
 20
179.379654
 42
0.119408
  0
VERTEX
  8
0
 10
126.813003
 20
176.486184
 42
0.403748
  0
VERTEX
  8
0
 10
128.646483
 20
175.904143
 42
0.019018
  0
VERTEX
  8
0
 10
134.887926
 20
179.298537
 42
0.065128
  0
VERTEX
  8
0
 10
142.147192
 20
185.005072
 42
0.044067
  0
VERTEX
  8
0
 10
148.826706
 20
193.157123
 42
0.043531
  0
VERTEX
  8
0
 10
154.070363
 20
202.501803
 42
0.057586
  0
VERTEX
  8
0
 10
157.038451
 20
211.789918
 42
0.000000
  0
VERTEX
  8
0
 10
158.260210
 20
218.000000
 42
0.000000
  0
VERTEX
  8
0
 10
177.664548
 20
218.000000
 42
0.000000
  0
VERTEX
  8
0
 10
197.068886
 20
218.000000
 42
0.000000
  0
VERTEX
  8
0
 10
196.442361
 20
212.750000
 42
-0.058686
  0
VERTEX
  8
0
 10
191.218762
 20
191.029781
 42
-0.062728
  0
VERTEX
  8
0
 10
181.160468
 20
171.640595
 42
-0.061742
  0
VERTEX
  8
0
 10
166.446299
 20
155.104415
 42
-0.054034
  0
VERTEX
  8
0
 10
147.500000
 20
141.796255
 42
0.000000
  0
VERTEX
  8
0
 10
142.500000
 20
139.036231
 42
0.000000
  0
VERTEX
  8
0
 10
169.250000
 20
139.018115
 42
0.000000
  0
VERTEX
  8
0
 10
196.000000
 20
139.000000
 42
0.000000
  0
VERTEX
  8
0
 10
196.000000
 20
119.514247
 42
0.000000
  0
VERTEX
  8
0
 10
196.000000
 20
100.028493
 42
0.000000
  0
VERTEX
  8
0
 10
164.763156
 20
99.764247
 42
0.000000
  0
VERTEX
  8
0
 10
133.526313
 20
99.500000
 42
0.000000
  0
VERTEX
  8
0
 10
140.513156
 20
96.755197
 42
-0.038834
  0
VERTEX
  8
0
 10
150.903788
 20
91.710812
 42
-0.030453
  0
VERTEX
  8
0
 10
161.313527
 20
84.733727
 42
-0.030410
  0
VERTEX
  8
0
 10
170.816248
 20
76.530015
 42
-0.038327
  0
VERTEX
  8
0
 10
178.486858
 20
67.805637
 42
-0.037538
  0
VERTEX
  8
0
 10
184.995413
 20
57.641475
 42
-0.029806
  0
VERTEX
  8
0
 10
190.489506
 20
45.815820
 42
-0.030394
  0
VERTEX
  8
0
 10
194.406318
 20
33.777377
 42
-0.047161
  0
VERTEX
  8
0
 10
196.140427
 20
23.000000
 42
0.000000
  0
VERTEX
  8
0
 10
196.500000
 20
17.500000
 42
0.000000
  0
VERTEX
  8
0
 10
177.430404
 20
17.229039
 42
0.000000
  0
VERTEX
  8
0
 10
158.360807
 20
16.958078
 42
0.000000
  0
VERTEX
  8
0
 10
157.194603
 20
23.229039
 42
0.023490
  0
VERTEX
  8
0
 10
156.520257
 20
26.098240
 42
0.012641
  0
VERTEX
  8
0
 10
155.435400
 20
29.567280
 42
0.012563
  0
VERTEX
  8
0
 10
154.148472
 20
33.054944
 42
0.019249
  0
VERTEX
  8
0
 10
152.843477
 20
36.000000
 42
0.049257
  0
VERTEX
  8
0
 10
149.029830
 20
42.164177
 42
0.028763
  0
VERTEX
  8
0
 10
143.361449
 20
48.759123
 42
0.028844
  0
VERTEX
  8
0
 10
137.048524
 20
54.588883
 42
0.054788
  0
VERTEX
  8
0
 10
131.264183
 20
58.366128
 42
0.000000
  0
VERTEX
  8
0
 10
126.040617
 20
61.013110
 42
0.000000
  0
VERTEX
  8
0
 10
125.770308
 20
40.256555
 42
0.000000
  0
VERTEX
  8
0
 10
125.500000
 20
19.500000
 42
0.000000
  0
VERTEX
  8
0
 10
106.250000
 20
19.228407
 42
0.000000
  0
VERTEX
  8
0
 10
87.000000
 20
18.956814
 42
0.000000
  0
VERTEX
  8
0
 10
87.000000
 20
39.478407
 42
0.002426
  0
VERTEX
  8
0
 10
86.947783
 20
50.238487
 42
0.013936
  0
VERTEX
  8
0
 10
86.733615
 20
55.935475
 42
0.018295
  0
VERTEX
  8
0
 10
86.382254
 20
59.367195
 42
0.374172
  0
VERTEX
  8
0
 10
85.655036
 20
60.000000
 42
0.142523
  0
VERTEX
  8
0
 10
82.999210
 20
59.227270
 42
0.014610
  0
VERTEX
  8
0
 10
77.527132
 20
55.519677
 42
0.019387
  0
VERTEX
  8
0
 10
71.971427
 20
51.176744
 42
0.034193
  0
VERTEX
  8
0
 10
67.794812
 20
47.121820
 42
0.037493
  0
VERTEX
  8
0
 10
63.837209
 20
41.989423
 42
0.030738
  0
VERTEX
  8
0
 10
60.392450
 20
35.979466
 42
0.030556
  0
VERTEX
  8
0
 10
57.689454
 20
29.548872
 42
0.035655
  0
VERTEX
  8
0
 10
55.951067
 20
23.156806
 42
0.000000
  0
VERTEX
  8
0
 10
54.731478
 20
16.957755
 42
0.000000
  0
VERTEX
  8
0
 10
35.615739
 20
17.228877
 42
0.000000
  0
VERTEX
  8
0
 10
16.500000
 20
17.500000
 42
0.000000
  0
VERTEX
  8
0
 10
16.809450
 20
22.000000
 42
-0.031068
  0
VERTEX
  8
0
 10
17.642160
 20
28.331218
 42
-0.016964
  0
VERTEX
  8
0
 10
19.404365
 20
35.966887
 42
-0.016819
  0
VERTEX
  8
0
 10
21.736916
 20
43.660424
 42
-0.024902
  0
VERTEX
  8
0
 10
24.336415
 20
50.210479
 42
-0.046190
  0
VERTEX
  8
0
 10
32.731760
 20
64.876292
 42
-0.046622
  0
VERTEX
  8
0
 10
43.653690
 20
77.701989
 42
-0.046774
  0
VERTEX
  8
0
 10
56.726487
 20
88.246176
 42
-0.047122
  0
VERTEX
  8
0
 10
71.500000
 20
96.146764
 42
0.000000
  0
VERTEX
  8
0
 10
79.500000
 20
99.500000
 42
0.000000
  0
VERTEX
  8
0
 10
48.250000
 20
99.764247
 42
0.000000
  0
VERTEX
  8
0
 10
17.000000
 20
100.028493
 42
0.000000
  0
VERTEX
  8
0
 10
17.000000
 20
119.514247
 42
0.000000
  0
VERTEX
  8
0
 10
17.000000
 20
139.000000
 42
0.000000
  0
VERTEX
  8
0
 10
43.750000
 20
139.000054
 42
0.000000
  0
VERTEX
  8
0
 10
70.500000
 20
139.000108
 42
0.000000
  0
VERTEX
  8
0
 10
62.065068
 20
143.750054
 42
-0.047869
  0
VERTEX
  8
0
 10
50.128062
 20
152.066973
 42
-0.036883
  0
VERTEX
  8
0
 10
38.814747
 20
163.212505
 42
-0.037062
  0
VERTEX
  8
0
 10
29.327095
 20
175.822077
 42
-0.050186
  0
VERTEX
  8
0
 10
22.865123
 20
188.522323
 42
-0.016138
  0
VERTEX
  8
0
 10
20.773482
 20
194.471109
 42
-0.014646
  0
VERTEX
  8
0
 10
18.995138
 20
200.736975
 42
-0.014685
  0
VERTEX
  8
0
 10
17.591356
 20
207.077473
 42
-0.016487
  0
VERTEX
  8
0
 10
16.623426
 20
213.250000
 42
0.000000
  0
VERTEX
  8
0
 10
16.038261
 20
218.000000
 42
0.000000
  0
VERTEX
  8
0
 10
35.389025
 20
218.000000
 42
0.000000
  0
VERTEX
  8
0
 10
54.739790
 20
218.000000
 42
0.000000
  0
SEQEND
  0
ENDSEC
  0
EOF
